<svg width="913" height="1080" viewBox="0 0 913 1080" fill="none" xmlns="http://www.w3.org/2000/svg">
<rect width="913" height="1126" fill="#698662"/>
<path d="M95.7549 279.462L96.4031 275.357C100.509 275.357 105.694 269.955 107.207 261.096L126.438 140.742C126.654 140.094 126.654 139.662 126.654 139.013V138.797V138.149V137.933V137.717V137.501V137.285C126.654 130.37 123.196 126.481 119.739 126.481L120.387 122.376H167.924C212.003 122.376 238.581 144.847 238.581 184.821C238.581 190.007 238.149 195.409 237.284 201.243C229.29 251.373 192.989 279.462 143.075 279.462H95.7549ZM166.844 129.29L144.156 272.764C170.733 267.794 189.964 244.242 197.959 201.027C198.823 193.897 199.255 187.414 199.255 181.364C199.255 150.249 187.587 133.395 166.844 129.29ZM346.156 262.825L348.533 265.634C346.156 268.443 343.131 271.252 340.322 273.628C335.136 277.95 326.493 280.327 318.066 280.327C306.83 280.327 296.675 275.789 296.675 265.634C296.675 264.553 296.675 263.689 296.891 263.041L297.755 257.855C291.705 265.418 283.926 271.684 275.067 275.789C269.017 278.382 263.183 279.678 257.349 279.678C243.52 279.678 232.284 271.9 232.284 257.423C232.284 255.91 232.5 254.398 232.716 252.885C234.445 240.137 245.249 226.308 264.696 220.69C280.901 216.152 300.78 215.504 306.398 202.323L306.83 199.947C307.262 196.705 307.478 193.897 307.478 191.52C307.478 181.148 303.373 177.043 298.403 177.043C291.705 177.043 282.414 184.605 280.037 195.625L279.821 196.922C279.605 197.57 279.605 198.002 279.605 198.65V198.866V199.514V199.731V200.163V200.379V200.595C279.605 203.836 280.037 206.645 281.982 208.157C277.876 212.263 271.61 214.424 264.912 214.424C256.052 214.424 247.626 210.318 247.626 200.163C247.626 198.65 247.626 197.57 247.842 196.922C250.651 178.555 275.283 166.455 298.187 166.455H299.916C321.091 167.103 341.618 174.882 341.618 197.786C341.618 199.947 341.402 202.323 340.97 204.916L331.895 262.176V263.041C331.895 266.282 333.84 267.794 336.433 267.794C339.674 267.794 343.779 266.066 346.156 262.825ZM287.816 258.935C291.489 256.991 295.81 253.533 299.268 248.131L304.669 213.127C294.946 218.961 282.414 226.74 274.635 236.031C270.962 240.353 269.017 244.458 268.585 248.131C268.369 248.564 268.369 248.996 268.369 249.428V250.292V250.508V250.724V250.94C268.369 257.207 272.042 261.528 278.74 261.528C281.549 261.528 284.574 260.664 287.816 258.935ZM438.057 168.616H470.901L470.253 172.721C460.529 172.721 453.615 186.334 448.429 195.625C447.781 196.489 447.565 197.138 447.349 197.786L392.681 297.397C385.767 309.713 374.315 337.803 356.381 337.803C346.873 337.803 341.472 330.24 341.472 321.381C341.472 319.869 341.472 318.788 341.688 318.14C342.768 311.658 346.441 305.824 352.275 300.422C354.652 305.391 358.541 307.984 363.943 307.984C371.074 307.984 379.069 303.231 383.606 294.804L392.033 279.678H384.038L358.974 187.63C355.516 174.234 351.843 172.505 347.522 172.505L348.17 168.616H399.596L398.948 172.721C395.706 172.937 394.194 173.801 393.978 175.53V176.61C393.978 178.555 394.842 181.364 395.706 184.605L411.48 243.378L438.706 193.897C441.298 189.143 442.811 185.253 443.243 182.012C443.459 181.364 443.459 180.284 443.459 179.203C443.459 174.882 441.514 172.721 437.409 172.721L438.057 168.616ZM635.164 238.84L639.485 238.624C635.38 263.473 619.822 277.302 599.295 280.543C596.702 281.191 593.461 281.191 590.22 281.191C570.125 281.191 549.814 273.628 530.799 269.523C528.422 269.091 526.262 268.875 524.317 268.875C517.403 268.875 514.161 272.548 512.649 279.678H505.518C506.167 276.437 507.247 272.98 508.76 269.307C519.779 239.056 543.764 222.635 565.155 208.806C584.818 196.057 603.185 183.957 606.642 160.837C606.858 159.108 607.074 156.515 607.074 153.923C607.074 136.853 597.567 128.21 587.843 128.21C576.823 128.21 565.803 136.42 563.427 149.385V150.249C563.427 151.114 563.211 151.762 563.211 152.626C563.211 160.189 566.668 166.239 574.23 166.239H575.095C576.175 166.239 576.823 166.239 577.472 166.023L578.984 165.807C573.15 180.284 558.241 189.143 546.141 189.143H545.276C531.447 189.143 524.749 180.5 524.749 169.48C524.749 167.967 524.965 166.455 525.181 164.726C525.83 161.053 527.126 156.948 529.071 152.842C540.523 129.722 567.532 119.134 593.029 119.134C621.551 119.134 648.344 132.747 648.344 156.948V158.244V158.46V158.892C648.344 159.541 648.344 160.405 648.128 161.053L647.912 162.349C643.159 190.439 614.853 202.107 586.115 214.208L583.522 215.288C566.884 222.202 549.166 229.333 535.985 241.217C540.09 240.137 544.628 239.705 549.598 239.705C559.321 239.705 569.261 241.649 583.306 244.458C593.461 246.835 602.752 248.564 611.179 248.564C620.038 248.564 628.033 246.403 634.083 238.84H635.164ZM769.156 238.84L773.477 238.624C769.372 263.473 753.814 277.302 733.287 280.543C730.694 281.191 727.453 281.191 724.212 281.191C704.117 281.191 683.806 273.628 664.791 269.523C662.415 269.091 660.254 268.875 658.309 268.875C651.395 268.875 648.154 272.548 646.641 279.678H639.511C640.159 276.437 641.239 272.98 642.752 269.307C653.772 239.056 677.756 222.635 699.147 208.806C718.81 196.057 737.177 183.957 740.634 160.837C740.85 159.108 741.066 156.515 741.066 153.923C741.066 136.853 731.559 128.21 721.835 128.21C710.815 128.21 699.796 136.42 697.419 149.385V150.249C697.419 151.114 697.203 151.762 697.203 152.626C697.203 160.189 700.66 166.239 708.223 166.239H709.087C710.167 166.239 710.815 166.239 711.464 166.023L712.976 165.807C707.142 180.284 692.233 189.143 680.133 189.143H679.268C665.44 189.143 658.741 180.5 658.741 169.48C658.741 167.967 658.957 166.455 659.173 164.726C659.822 161.053 661.118 156.948 663.063 152.842C674.515 129.722 701.524 119.134 727.021 119.134C755.543 119.134 782.336 132.747 782.336 156.948V158.244V158.46V158.892C782.336 159.541 782.336 160.405 782.12 161.053L781.904 162.349C777.151 190.439 748.845 202.107 720.107 214.208L717.514 215.288C700.876 222.202 683.158 229.333 669.977 241.217C674.083 240.137 678.62 239.705 683.59 239.705C693.313 239.705 703.253 241.649 717.298 244.458C727.453 246.835 736.745 248.564 745.171 248.564C754.031 248.564 762.025 246.403 768.075 238.84H769.156Z" fill="white"/>
<path d="M132.585 467.526L132.938 465.288C135.176 465.288 138.004 462.343 138.828 457.513L149.313 391.897C149.431 391.543 149.431 391.308 149.431 390.954V390.836V390.483V390.365V390.247V390.13V390.012C149.431 386.242 147.546 384.122 145.661 384.122L146.014 381.883H171.931C195.963 381.883 210.453 394.135 210.453 415.928C210.453 418.756 210.217 421.701 209.746 424.881C205.387 452.212 185.596 467.526 158.384 467.526H132.585ZM171.342 385.653L158.973 463.874C173.462 461.165 183.947 448.324 188.306 424.764C188.777 420.876 189.012 417.342 189.012 414.044C189.012 397.08 182.651 387.891 171.342 385.653ZM267.806 416.282C267.688 416.635 267.688 416.871 267.688 417.224C267.688 417.342 267.806 417.695 267.806 417.813C267.806 418.167 267.688 418.402 267.571 418.756C266.628 425.706 259.913 430.3 253.552 430.3C251.785 430.3 250.136 429.947 248.486 429.24C249.782 427.826 250.489 426.295 250.843 424.528C250.843 424.175 250.96 423.703 250.96 423.35C250.96 420.169 249.193 417.813 246.366 417.813C244.599 417.813 242.479 418.638 240.24 420.876C238.238 422.643 236.706 424.528 235.41 426.295L230.345 458.691C230.227 459.044 230.227 459.28 230.227 459.516V459.633V459.987V460.105V460.222V460.34C230.227 463.639 231.876 465.523 233.643 465.523L233.29 467.644H205.488L205.842 465.523C207.844 465.523 210.436 462.696 211.261 458.102L217.269 420.169C217.386 419.345 217.504 418.756 217.504 418.167C217.504 414.868 215.855 412.866 214.088 412.866L214.441 410.745H216.208C223.277 410.745 231.641 408.507 236.942 405.797L238.473 407.093L236.706 418.52C241.772 410.627 250.254 406.269 256.85 406.269C262.858 406.269 267.335 409.214 267.806 416.282ZM325.358 458.455L326.653 459.987C325.358 461.518 323.708 463.05 322.177 464.345C319.35 466.702 314.637 467.997 310.043 467.997C303.917 467.997 298.381 465.523 298.381 459.987C298.381 459.398 298.381 458.927 298.498 458.573L298.97 455.746C295.671 459.869 291.43 463.285 286.6 465.523C283.302 466.937 280.121 467.644 276.941 467.644C269.401 467.644 263.275 463.403 263.275 455.51C263.275 454.686 263.393 453.861 263.511 453.036C264.453 446.086 270.344 438.547 280.946 435.484C289.781 433.01 300.619 432.656 303.682 425.47L303.917 424.175C304.153 422.408 304.271 420.876 304.271 419.58C304.271 413.926 302.033 411.687 299.323 411.687C295.671 411.687 290.606 415.811 289.31 421.819L289.192 422.525C289.074 422.879 289.074 423.114 289.074 423.468V423.586V423.939V424.057V424.292V424.41V424.528C289.074 426.295 289.31 427.826 290.37 428.651C288.132 430.889 284.716 432.067 281.064 432.067C276.234 432.067 271.639 429.829 271.639 424.292C271.639 423.468 271.639 422.879 271.757 422.525C273.289 412.512 286.718 405.915 299.205 405.915H300.148C311.692 406.269 322.884 410.509 322.884 422.997C322.884 424.175 322.766 425.47 322.53 426.884L317.583 458.102V458.573C317.583 460.34 318.643 461.165 320.056 461.165C321.823 461.165 324.062 460.222 325.358 458.455ZM293.551 456.335C295.553 455.275 297.909 453.39 299.794 450.445L302.739 431.361C297.438 434.541 290.606 438.782 286.365 443.848C284.362 446.204 283.302 448.442 283.066 450.445C282.948 450.68 282.948 450.916 282.948 451.152V451.623V451.741V451.858V451.976C282.948 455.392 284.951 457.748 288.603 457.748C290.134 457.748 291.784 457.277 293.551 456.335ZM391.332 398.258C390.743 398.258 390.154 398.14 389.565 398.14C382.025 398.14 376.607 401.674 371.423 408.625C380.258 411.452 385.913 418.167 385.913 426.177C385.913 427.002 385.795 427.944 385.677 428.887C383.792 440.903 370.01 450.68 354.931 450.68C348.805 450.68 343.504 449.031 339.381 446.322C338.792 446.911 338.556 447.617 338.438 448.324V448.795C338.438 450.091 339.381 451.034 341.383 451.858C346.92 453.979 358.818 455.981 368.242 458.809C379.552 462.225 384.146 467.762 384.146 473.77V474.005V474.241V474.359V474.477V474.594V474.712C384.146 475.066 384.146 475.301 384.028 475.655L383.91 476.244C380.494 490.851 357.522 498.744 338.91 498.744C332.313 498.744 326.54 497.802 322.299 495.799C317.587 493.561 315.585 490.144 315.585 486.728C315.585 486.139 315.585 485.668 315.702 485.314C316.645 478.717 324.773 472.12 334.433 472.12C336.436 472.12 338.321 472.238 340.559 473.063C337.142 475.537 335.611 478.011 335.258 480.367C335.258 480.72 335.14 481.073 335.14 481.427C335.14 486.61 341.737 490.498 350.219 490.498C351.986 490.498 353.635 490.38 355.52 490.027C361.528 488.966 364.826 486.61 365.297 483.901V483.194C365.297 480.249 362.941 476.479 355.873 474.123C348.923 471.885 339.263 470 334.669 467.88C330.074 465.641 327.129 461.754 327.129 457.513V457.159V457.042V456.924V456.806V456.688C327.129 456.453 327.129 456.217 327.247 455.981C327.836 452.094 330.663 447.971 337.26 444.555C333.373 441.256 331.017 436.78 331.017 431.596C331.017 430.772 331.135 429.829 331.252 428.887C333.137 416.989 346.92 407.211 361.881 407.211C362.706 407.211 365.062 407.329 366.829 407.682C369.067 398.847 373.779 386.478 384.617 385.889H385.324C390.154 385.889 392.392 389.069 392.392 393.192C392.392 394.017 392.274 394.488 392.157 395.313C392.039 396.255 391.685 397.315 391.332 398.258ZM360.939 445.497C364.355 444.437 366.829 440.314 367.771 435.012C367.889 433.599 368.007 432.185 368.007 430.654C368.007 429.122 367.889 427.591 367.771 426.059C366.358 417.578 361.999 411.923 357.405 411.923C356.933 411.923 356.344 412.041 355.755 412.159C352.339 413.101 349.865 417.342 349.041 422.643C348.805 424.057 348.687 425.47 348.687 427.002C348.687 428.533 348.805 430.065 349.041 431.596C350.336 439.725 354.813 445.733 359.407 445.733C359.878 445.733 360.35 445.615 360.939 445.497ZM492.594 465.17L492.24 467.408H457.606L457.96 465.17C459.255 465.17 460.08 464.463 460.316 463.167V462.461C460.316 461.636 460.198 460.694 459.609 459.398V459.28H459.491V459.162L459.373 459.044V458.927H459.255V458.809V458.691H459.138V458.573L459.02 458.455V458.337C458.902 458.337 458.902 458.337 458.902 458.22C458.666 457.866 458.431 457.395 458.313 457.042L457.606 457.748C448.064 468.115 438.522 472.12 430.394 472.12C418.849 472.12 410.603 463.756 410.603 452.919V451.976V451.858V451.741V451.623V451.505V451.152C410.603 450.68 410.721 450.091 410.838 449.502C412.37 439.842 420.263 428.887 438.522 420.405L437.344 417.931C435.577 414.279 434.87 410.981 434.87 407.329V406.386V406.269V405.915V405.68V405.562C434.87 404.973 434.988 404.266 435.106 403.677C436.991 391.308 448.3 380.941 459.609 380.941C460.198 380.941 460.787 381.059 461.376 381.059C467.384 381.883 470.329 386.006 470.329 391.19C470.329 392.014 470.211 392.839 470.093 393.664C469.151 399.436 465.263 406.033 458.195 411.216C462.79 419.816 467.384 428.416 472.214 437.015C473.981 434.306 475.159 431.596 475.63 428.887C475.748 428.533 475.748 428.18 475.748 427.826V427.355V427.237V427.002V426.884C475.748 422.997 473.981 420.169 470.211 420.169H469.622H469.504H469.387H469.269H469.151C468.798 420.169 468.444 420.287 468.091 420.405L467.62 419.462C471.743 413.926 476.926 411.687 481.285 411.687C485.997 411.687 489.649 414.515 489.649 419.345V419.816V419.934V420.051C489.649 420.405 489.649 420.641 489.531 420.876C488.942 424.292 486.586 428.533 481.991 433.363C479.518 435.837 476.808 438.193 474.099 440.431C477.279 445.968 480.107 451.269 483.876 457.866C486.115 462.696 490.473 465.17 492.594 465.17ZM462.201 385.064C457.017 385.417 454.779 389.187 453.954 393.781C453.837 394.37 453.719 394.842 453.719 395.431V396.255V396.373V396.491V396.726V397.08V397.198C453.719 402.028 455.132 406.858 457.017 409.096C461.729 404.03 464.321 398.376 465.146 393.781C465.263 392.839 465.381 392.014 465.381 391.19C465.381 388.009 464.439 385.653 462.201 385.064ZM439.7 422.761C434.399 426.531 431.807 431.125 430.983 435.719C430.865 436.662 430.747 437.604 430.747 438.547C430.747 447.971 438.64 456.688 447.593 456.688C450.42 456.688 453.483 455.746 456.31 453.743C450.656 443.377 445.001 433.128 439.7 422.761ZM514.409 467.526L514.763 465.288C517.001 465.288 519.828 462.343 520.653 457.513L531.137 391.897C531.255 391.543 531.255 391.308 531.255 390.954V390.836V390.483V390.365V390.247V390.13V390.012C531.255 386.242 529.37 384.122 527.486 384.122L527.839 381.883H553.756C577.787 381.883 592.277 394.135 592.277 415.928C592.277 418.756 592.042 421.701 591.57 424.881C587.212 452.212 567.421 467.526 540.208 467.526H514.409ZM553.167 385.653L540.797 463.874C555.287 461.165 565.772 448.324 570.13 424.764C570.601 420.876 570.837 417.342 570.837 414.044C570.837 397.08 564.476 387.891 553.167 385.653ZM649.631 416.282C649.513 416.635 649.513 416.871 649.513 417.224C649.513 417.342 649.631 417.695 649.631 417.813C649.631 418.167 649.513 418.402 649.395 418.756C648.453 425.706 641.738 430.3 635.377 430.3C633.61 430.3 631.96 429.947 630.311 429.24C631.607 427.826 632.314 426.295 632.667 424.528C632.667 424.175 632.785 423.703 632.785 423.35C632.785 420.169 631.018 417.813 628.191 417.813C626.424 417.813 624.303 418.638 622.065 420.876C620.062 422.643 618.531 424.528 617.235 426.295L612.169 458.691C612.052 459.044 612.052 459.28 612.052 459.516V459.633V459.987V460.105V460.222V460.34C612.052 463.639 613.701 465.523 615.468 465.523L615.114 467.644H587.313L587.666 465.523C589.669 465.523 592.261 462.696 593.085 458.102L599.093 420.169C599.211 419.345 599.329 418.756 599.329 418.167C599.329 414.868 597.68 412.866 595.913 412.866L596.266 410.745H598.033C605.101 410.745 613.465 408.507 618.766 405.797L620.298 407.093L618.531 418.52C623.596 410.627 632.078 406.269 638.675 406.269C644.683 406.269 649.16 409.214 649.631 416.282ZM683.835 406.386C699.267 406.386 710.105 417.695 710.105 432.421C710.105 434.07 709.987 435.719 709.752 437.369C707.278 454.332 691.021 468.233 674.057 468.233C658.625 468.233 647.787 456.806 647.787 442.081C647.787 440.549 647.905 439.018 648.141 437.369C650.615 420.287 666.871 406.386 683.835 406.386ZM683.128 411.216C677.591 411.216 670.641 423.35 668.403 438.193C667.814 441.845 667.578 445.261 667.578 448.442C667.578 458.337 670.288 465.288 674.529 465.288C680.419 465.288 686.662 453.272 689.136 438.193C689.725 434.541 689.961 430.889 689.961 427.709C689.961 417.931 687.487 411.216 683.128 411.216ZM756.165 407.093C768.888 407.447 774.66 417.578 774.66 429.594C774.66 431.596 774.543 433.481 774.189 435.719C771.715 451.387 760.171 467.644 741.558 467.644H741.086C736.492 467.526 733.547 465.995 731.309 463.992L727.303 489.084C727.186 489.438 727.186 489.673 727.186 490.027V490.262V490.38V490.498V490.616V490.733C727.186 494.15 728.835 495.917 730.602 495.917L730.249 498.037H702.329L702.683 495.917C704.685 495.917 707.395 493.207 708.219 488.613L718.939 420.169C719.057 419.345 719.175 418.756 719.175 418.167C719.175 414.868 717.526 412.866 715.759 412.866L716.112 410.745C724.594 410.745 732.958 408.625 738.73 405.797L740.262 407.093L738.73 416.517C742.854 410.981 748.272 407.093 756.165 407.093ZM738.966 462.696C746.388 462.696 753.22 446.675 755.458 432.774C755.93 429.711 756.165 426.766 756.165 424.057C756.165 417.578 754.869 412.983 751.218 412.512H750.629C743.678 412.512 736.846 428.887 734.607 442.905C734.136 445.968 733.9 448.795 733.9 451.505C733.9 457.984 735.314 462.578 738.966 462.696ZM366.887 540.133L368.772 540.722C365.591 549.793 362.882 557.803 360.172 566.756C352.515 570.88 344.033 572.411 335.551 572.411C311.048 572.411 299.503 555.094 299.503 535.656C299.503 532.947 299.739 530.709 300.092 527.999C302.566 512.449 312.108 497.017 328.483 488.889C333.784 486.179 340.146 484.648 346.743 484.059C347.214 483.941 347.685 483.941 348.156 483.941H348.627H348.745H348.863H348.981H349.099H349.216H349.334H349.452C359.112 483.941 369.832 487.593 375.722 491.598L368.183 514.334L366.18 514.805L364.295 509.622C359.23 496.31 351.572 488.653 343.915 488.653C336.729 488.653 329.897 495.368 325.302 510.918C324.478 513.627 324.007 516.455 323.535 519.4C322.828 523.758 322.475 528.235 322.475 532.711C322.475 544.845 325.185 556.861 330.486 562.398C332.606 564.636 335.08 565.814 337.789 565.814C342.03 565.814 347.332 563.105 353.928 556.39C358.052 552.149 362.293 546.73 366.887 540.133ZM432.692 561.455L433.988 562.987C432.692 564.518 431.043 566.05 429.511 567.345C426.684 569.702 421.972 570.997 417.377 570.997C411.252 570.997 405.715 568.523 405.715 562.987C405.715 562.398 405.715 561.927 405.833 561.573L406.304 558.746C403.005 562.869 398.765 566.285 393.935 568.523C390.636 569.937 387.455 570.644 384.275 570.644C376.735 570.644 370.61 566.403 370.61 558.51C370.61 557.686 370.727 556.861 370.845 556.036C371.788 549.086 377.678 541.547 388.28 538.484C397.115 536.01 407.953 535.656 411.016 528.47L411.252 527.175C411.487 525.408 411.605 523.876 411.605 522.58C411.605 516.926 409.367 514.687 406.657 514.687C403.005 514.687 397.94 518.811 396.644 524.819L396.526 525.525C396.408 525.879 396.408 526.114 396.408 526.468V526.586V526.939V527.057V527.292V527.41V527.528C396.408 529.295 396.644 530.826 397.704 531.651C395.466 533.889 392.05 535.067 388.398 535.067C383.568 535.067 378.974 532.829 378.974 527.292C378.974 526.468 378.974 525.879 379.091 525.525C380.623 515.512 394.052 508.915 406.54 508.915H407.482C419.027 509.269 430.218 513.509 430.218 525.997C430.218 527.175 430.1 528.47 429.865 529.884L424.917 561.102V561.573C424.917 563.34 425.977 564.165 427.391 564.165C429.158 564.165 431.396 563.222 432.692 561.455ZM400.885 559.335C402.888 558.275 405.244 556.39 407.129 553.445L410.074 534.361C404.773 537.541 397.94 541.782 393.699 546.848C391.696 549.204 390.636 551.442 390.401 553.445C390.283 553.68 390.283 553.916 390.283 554.152V554.623V554.741V554.858V554.976C390.283 558.392 392.285 560.748 395.937 560.748C397.469 560.748 399.118 560.277 400.885 559.335ZM495.014 519.282C494.896 519.635 494.896 519.871 494.896 520.224C494.896 520.342 495.014 520.695 495.014 520.813C495.014 521.167 494.896 521.402 494.779 521.756C493.836 528.706 487.121 533.3 480.76 533.3C478.993 533.3 477.344 532.947 475.695 532.24C476.99 530.826 477.697 529.295 478.051 527.528C478.051 527.175 478.168 526.703 478.168 526.35C478.168 523.169 476.401 520.813 473.574 520.813C471.807 520.813 469.687 521.638 467.448 523.876C465.446 525.643 463.914 527.528 462.618 529.295L457.553 561.691C457.435 562.044 457.435 562.28 457.435 562.516V562.633V562.987V563.105V563.222V563.34C457.435 566.639 459.084 568.523 460.851 568.523L460.498 570.644H432.696L433.05 568.523C435.052 568.523 437.644 565.696 438.469 561.102L444.477 523.169C444.595 522.345 444.712 521.756 444.712 521.167C444.712 517.868 443.063 515.866 441.296 515.866L441.649 513.745H443.416C450.485 513.745 458.849 511.507 464.15 508.797L465.681 510.093L463.914 521.52C468.98 513.627 477.462 509.269 484.059 509.269C490.066 509.269 494.543 512.214 495.014 519.282ZM560.083 484.765L547.949 561.102C547.831 561.455 547.831 562.044 547.831 562.869C547.831 566.521 549.598 568.523 551.366 568.523L551.012 570.644H527.334L528.747 561.22C524.624 566.756 519.323 570.644 511.195 570.644C498.825 570.644 493.171 560.159 493.171 548.261C493.171 546.259 493.289 544.256 493.642 542.018C495.88 526.468 507.661 510.211 526.038 510.211H526.627C531.221 510.211 534.166 511.86 536.405 513.863L538.996 497.842C539.114 497.488 539.114 496.899 539.114 496.075C539.114 492.423 537.347 490.538 535.58 490.538L535.933 488.417C543.944 488.417 552.779 486.297 558.434 483.47L560.083 484.765ZM516.378 565.225H517.085C524.153 565.225 530.75 548.968 532.988 534.95C533.459 531.887 533.695 528.942 533.695 526.232C533.695 519.635 532.164 515.159 528.512 515.159C521.09 515.159 514.493 531.062 512.255 545.081C511.784 548.144 511.548 550.971 511.548 553.68C511.548 560.159 512.962 564.754 516.378 565.225ZM562.06 545.081H564.298C566.419 551.56 568.421 559.806 573.722 563.929C576.432 566.167 579.259 567.11 582.204 567.11C587.27 567.11 591.511 564.4 592.1 560.631C592.1 560.277 592.217 560.042 592.217 559.688C592.217 557.214 590.568 554.505 586.445 551.795C578.788 546.023 562.884 541.547 562.884 529.766C562.884 528.942 563.002 528.353 563.12 527.528C565.005 516.572 576.785 508.326 592.217 508.326H593.042C601.759 508.326 606.236 511.625 611.773 515.63L608.003 529.766H605.883C604.469 525.879 602.584 521.167 599.875 517.75C596.694 513.863 593.16 512.331 589.861 512.331C585.267 512.331 581.615 515.159 581.026 518.928C581.026 519.282 580.908 519.635 580.908 519.989C580.908 522.698 582.44 525.408 586.327 528.235C592.1 532.358 599.403 535.892 605.411 540.486C608.592 542.842 609.888 545.905 609.888 549.557C609.888 550.382 609.77 550.971 609.652 551.795C608.828 555.919 606.589 560.042 602.937 563.222C596.93 568.523 587.976 572.293 578.081 572.293H577.256C568.303 571.94 561.353 568.17 556.287 564.989L562.06 545.081Z" fill="#F0F0F0"/>
<path d="M843.823 204.863C844.889 193.674 845.688 182.752 846.221 171.83C846.753 166.236 847.02 160.908 847.286 155.314C847.553 152.118 847.553 148.921 847.553 145.991L868.864 157.712L874.458 160.908L885.646 166.769L885.913 166.503C882.45 163.839 879.253 161.175 876.056 158.511C874.458 157.179 872.593 155.847 870.995 154.782L866.2 150.786C860.606 146.523 855.278 142.261 849.684 138.265C851.548 136.401 853.413 134.536 855.278 132.405L863.27 122.815C868.597 116.421 874.191 110.028 879.519 103.368H879.253C872.593 108.43 866.2 114.024 859.806 119.352C856.61 122.016 853.413 124.68 850.216 127.61L847.553 130.007C847.286 122.016 846.753 114.024 846.221 105.766L845.688 97.7742C845.421 94.8439 845.421 92.18 845.155 89.5161C844.889 83.922 844.356 78.3278 843.823 73H843.557C843.29 78.3278 842.758 83.922 842.491 89.5161C842.225 92.18 841.958 94.8439 841.958 97.7742L841.426 105.766C840.893 114.557 840.36 123.081 840.094 131.872L835.299 128.942L824.11 122.815C816.918 118.819 809.459 114.823 802 111.094C808.393 116.421 814.787 121.749 821.446 127.077C824.909 129.475 828.106 132.138 831.303 134.802C833.434 136.401 835.565 137.999 837.696 139.331C833.168 144.392 828.905 149.72 824.377 155.048L820.114 159.843L808.127 174.228L808.393 174.494L817.983 166.503L823.045 162.507L827.84 158.245L840.094 147.855C840.094 150.253 840.094 152.917 840.36 155.314C840.626 160.908 840.893 166.236 841.426 171.83C841.958 182.752 842.758 193.674 843.823 204.863Z" fill="white"/>
<path d="M57.9578 342.994C58.6447 335.783 59.1598 328.743 59.5032 321.703C59.8466 318.097 60.0183 314.663 60.19 311.057C60.3617 308.997 60.3617 306.936 60.3617 305.047L74.0982 312.603L77.704 314.663L84.9157 318.441L85.0874 318.269C82.8552 316.552 80.7947 314.835 78.7343 313.118C77.704 312.259 76.5021 311.401 75.4718 310.714L72.3811 308.138C68.7753 305.391 65.3412 302.644 61.7354 300.068C62.9373 298.866 64.1393 297.664 65.3412 296.29L70.4924 290.109C73.9265 285.988 77.5323 281.867 80.9664 277.574H80.7947C76.5021 280.837 72.3811 284.443 68.2602 287.877C66.1997 289.594 64.1393 291.311 62.0788 293.2L60.3617 294.745C60.19 289.594 59.8466 284.443 59.5032 279.12L59.1598 273.969C58.9881 272.08 58.9881 270.363 58.8164 268.646C58.6447 265.04 58.3013 261.434 57.9578 258H57.7861C57.6144 261.434 57.271 265.04 57.0993 268.646C56.9276 270.363 56.7559 272.08 56.7559 273.969L56.4125 279.12C56.0691 284.786 55.7257 290.281 55.554 295.947L52.4632 294.058L45.2516 290.109C40.6155 287.533 35.8078 284.958 31 282.554C35.1209 285.988 39.2419 289.422 43.5345 292.856C45.7667 294.402 47.8272 296.119 49.8877 297.836C51.2613 298.866 52.635 299.896 54.0086 300.755C51.0896 304.017 48.3423 307.451 45.4233 310.885L42.676 313.976L34.9492 323.248L35.1209 323.42L41.3024 318.269L44.5648 315.693L47.6555 312.946L55.554 306.249C55.554 307.795 55.554 309.512 55.7257 311.057C55.8974 314.663 56.0691 318.097 56.4125 321.703C56.7559 328.743 57.271 335.783 57.9578 342.994Z" fill="white"/>
</svg>
