<svg width="16" height="27" viewBox="0 0 16 27" fill="none" xmlns="http://www.w3.org/2000/svg">
<path fill-rule="evenodd" clip-rule="evenodd" d="M0.334735 17.6046C0.746717 17.1926 1.39498 17.1609 1.84331 17.5095L1.95098 17.6046L8 23.6527L14.049 17.6046C14.461 17.1926 15.1093 17.1609 15.5576 17.5095L15.6653 17.6046C16.0772 18.0166 16.1089 18.6648 15.7603 19.1131L15.6653 19.2208L8.80812 26.078C8.39614 26.4899 7.74788 26.5216 7.29954 26.173L7.19188 26.078L0.334735 19.2208C-0.111578 18.7745 -0.111578 18.0509 0.334735 17.6046Z" fill="#848484"/>
<path fill-rule="evenodd" clip-rule="evenodd" d="M15.6653 8.80813C15.2533 9.22011 14.605 9.25181 14.1567 8.90321L14.049 8.80813L8 2.76001L1.95098 8.80813C1.539 9.22011 0.890734 9.2518 0.442401 8.9032L0.334736 8.80813C-0.0772453 8.39615 -0.108937 7.74789 0.239663 7.29955L0.334736 7.19189L7.19188 0.334746C7.60386 -0.0772356 8.25212 -0.108927 8.70046 0.239673L8.80812 0.334746L15.6653 7.19189C16.1116 7.6382 16.1116 8.36182 15.6653 8.80813Z" fill="#848484"/>
</svg>
