<svg width="913" height="1080" viewBox="0 0 913 1080" fill="none" xmlns="http://www.w3.org/2000/svg">
<rect width="913" height="1126" fill="#698662"/>
<path d="M130.572 279.462L131.22 275.357C135.325 275.357 140.511 269.955 142.024 261.096L161.254 140.742C161.471 140.094 161.471 139.662 161.471 139.013V138.797V138.149V137.933V137.717V137.501V137.285C161.471 130.37 158.013 126.481 154.556 126.481L155.204 122.376H202.741C246.82 122.376 273.398 144.847 273.398 184.821C273.398 190.007 272.965 195.409 272.101 201.243C264.106 251.373 227.806 279.462 177.892 279.462H130.572ZM201.661 129.29L178.973 272.764C205.55 267.794 224.781 244.242 232.775 201.027C233.64 193.897 234.072 187.414 234.072 181.364C234.072 150.249 222.404 133.395 201.661 129.29ZM380.973 262.825L383.35 265.634C380.973 268.443 377.948 271.252 375.139 273.628C369.953 277.95 361.31 280.327 352.883 280.327C341.647 280.327 331.492 275.789 331.492 265.634C331.492 264.553 331.492 263.689 331.708 263.041L332.572 257.855C326.522 265.418 318.743 271.684 309.884 275.789C303.834 278.382 298 279.678 292.166 279.678C278.337 279.678 267.101 271.9 267.101 257.423C267.101 255.91 267.317 254.398 267.533 252.885C269.262 240.137 280.066 226.308 299.512 220.69C315.718 216.152 335.597 215.504 341.215 202.323L341.647 199.947C342.079 196.705 342.295 193.897 342.295 191.52C342.295 181.148 338.19 177.043 333.22 177.043C326.522 177.043 317.231 184.605 314.854 195.625L314.638 196.922C314.422 197.57 314.422 198.002 314.422 198.65V198.866V199.514V199.731V200.163V200.379V200.595C314.422 203.836 314.854 206.645 316.798 208.157C312.693 212.263 306.427 214.424 299.728 214.424C290.869 214.424 282.442 210.318 282.442 200.163C282.442 198.65 282.442 197.57 282.658 196.922C285.467 178.555 310.1 166.455 333.004 166.455H334.733C355.908 167.103 376.435 174.882 376.435 197.786C376.435 199.947 376.219 202.323 375.787 204.916L366.712 262.176V263.041C366.712 266.282 368.657 267.794 371.249 267.794C374.491 267.794 378.596 266.066 380.973 262.825ZM322.632 258.935C326.306 256.991 330.627 253.533 334.084 248.131L339.486 213.127C329.763 218.961 317.231 226.74 309.452 236.031C305.779 240.353 303.834 244.458 303.402 248.131C303.186 248.564 303.186 248.996 303.186 249.428V250.292V250.508V250.724V250.94C303.186 257.207 306.859 261.528 313.557 261.528C316.366 261.528 319.391 260.664 322.632 258.935ZM472.874 168.616H505.718L505.069 172.721C495.346 172.721 488.432 186.334 483.246 195.625C482.598 196.489 482.381 197.138 482.165 197.786L427.498 297.397C420.584 309.713 409.132 337.803 391.198 337.803C381.69 337.803 376.288 330.24 376.288 321.381C376.288 319.869 376.288 318.788 376.504 318.14C377.585 311.658 381.258 305.824 387.092 300.422C389.469 305.391 393.358 307.984 398.76 307.984C405.891 307.984 413.886 303.231 418.423 294.804L426.85 279.678H418.855L393.79 187.63C390.333 174.234 386.66 172.505 382.338 172.505L382.987 168.616H434.413L433.764 172.721C430.523 172.937 429.011 173.801 428.795 175.53V176.61C428.795 178.555 429.659 181.364 430.523 184.605L446.297 243.378L473.522 193.897C476.115 189.143 477.628 185.253 478.06 182.012C478.276 181.364 478.276 180.284 478.276 179.203C478.276 174.882 476.331 172.721 472.226 172.721L472.874 168.616ZM611.64 124.536L590.033 261.312C589.817 261.96 589.817 262.609 589.817 263.257V264.121V264.337V264.553V264.769V264.985V265.201C589.817 271.9 592.409 275.573 595.002 275.573H596.299L595.651 279.678H539.903L540.551 275.573H541.848C545.089 275.573 549.626 270.171 551.139 261.312L568.209 153.706V152.41C568.209 146.36 561.078 144.847 557.837 144.847H556.541L557.405 140.742H558.486C576.636 137.069 592.626 131.019 607.319 122.592H608.831L611.64 124.536ZM618.899 245.971C615.442 236.679 613.929 226.092 613.929 215.504C613.929 210.318 614.145 205.349 615.01 200.163C617.603 182.877 625.381 164.726 637.481 150.033C653.039 131.019 674.863 120.647 695.39 120.647C716.133 120.647 734.283 130.37 744.439 150.033C749.625 160.405 752.001 172.073 752.001 184.389C752.001 189.575 751.569 194.761 750.705 200.163C748.112 216.368 741.846 232.142 732.123 245.971C715.053 270.387 692.149 282.487 669.893 282.487C647.637 282.487 627.758 270.387 618.899 245.971ZM668.596 156.948C663.411 169.264 659.305 184.605 656.928 200.163C654.984 211.615 654.119 223.283 654.119 233.438V238.408C654.767 260.88 662.33 272.548 671.621 272.548C680.264 272.548 690.636 261.312 698.199 240.569C702.52 228.685 706.193 213.992 708.57 199.947C710.299 188.927 711.379 178.339 711.379 168.616C711.379 164.51 711.163 160.621 710.731 157.164C709.002 139.229 702.304 130.586 693.877 130.586C685.45 130.586 675.727 139.445 668.596 156.948Z" fill="white"/>
<path d="M317.537 387.001L316.123 405.614L313.767 406.085C310.115 393.127 297.51 391.949 284.081 391.949L278.78 425.169C288.086 424.816 296.686 421.753 298.217 416.334H300.573L296.921 439.423L294.565 439.188C294.565 433.769 287.026 431.177 277.955 430.588L272.89 462.513C272.772 462.866 272.772 463.455 272.772 464.28C272.772 468.05 274.657 470.288 276.542 470.288L276.188 472.526H245.559L245.913 470.288C248.151 470.288 250.978 467.343 251.803 462.513L262.287 396.897C262.405 396.543 262.405 396.308 262.405 395.954V395.365V395.247V395.13V395.012C262.405 391.242 260.52 389.122 258.635 389.122L258.989 387.001H317.537ZM344.677 387.708L332.661 463.102C332.543 463.455 332.543 463.691 332.543 464.044V464.162V464.516V464.751V464.869V464.987C332.543 468.639 334.192 470.523 335.959 470.523L335.606 472.644H307.804L308.158 470.523C310.043 470.523 312.752 467.932 313.577 463.691L323.472 400.784C323.59 400.431 323.59 400.195 323.59 399.842V399.724V399.37V399.253V399.135V399.017V398.899C323.59 395.247 321.941 393.362 320.174 393.362L320.527 391.242C328.42 391.242 337.373 389.239 343.145 386.412L344.677 387.708ZM379.491 411.386C394.923 411.386 405.761 422.695 405.761 437.421C405.761 439.07 405.644 440.719 405.408 442.369C402.934 459.332 386.677 473.233 369.714 473.233C354.281 473.233 343.444 461.806 343.444 447.081C343.444 445.549 343.561 444.018 343.797 442.369C346.271 425.287 362.528 411.386 379.491 411.386ZM378.784 416.216C373.248 416.216 366.297 428.35 364.059 443.193C363.47 446.845 363.234 450.261 363.234 453.442C363.234 463.337 365.944 470.288 370.185 470.288C376.075 470.288 382.319 458.272 384.792 443.193C385.381 439.541 385.617 435.889 385.617 432.709C385.617 422.931 383.143 416.216 378.784 416.216ZM467.607 463.455L468.903 464.987C467.607 466.518 465.958 468.05 464.426 469.345C461.599 471.702 456.887 472.997 452.293 472.997C446.167 472.997 440.63 470.523 440.63 464.987C440.63 464.398 440.63 463.927 440.748 463.573L441.219 460.746C437.921 464.869 433.68 468.285 428.85 470.523C425.551 471.937 422.371 472.644 419.19 472.644C411.651 472.644 405.525 468.403 405.525 460.51C405.525 459.686 405.643 458.861 405.76 458.036C406.703 451.086 412.593 443.547 423.195 440.484C432.031 438.01 442.868 437.656 445.931 430.47L446.167 429.175C446.403 427.408 446.52 425.876 446.52 424.58C446.52 418.926 444.282 416.687 441.573 416.687C437.921 416.687 432.855 420.811 431.559 426.819L431.442 427.525C431.324 427.879 431.324 428.114 431.324 428.468V428.586V428.939V429.057V429.292V429.41V429.528C431.324 431.295 431.559 432.826 432.62 433.651C430.381 435.889 426.965 437.067 423.313 437.067C418.483 437.067 413.889 434.829 413.889 429.292C413.889 428.468 413.889 427.879 414.007 427.525C415.538 417.512 428.968 410.915 441.455 410.915H442.397C453.942 411.269 465.133 415.509 465.133 427.997C465.133 429.175 465.015 430.47 464.78 431.884L459.832 463.102V463.573C459.832 465.34 460.892 466.165 462.306 466.165C464.073 466.165 466.311 465.222 467.607 463.455ZM435.8 461.335C437.803 460.275 440.159 458.39 442.044 455.445L444.989 436.361C439.688 439.541 432.855 443.782 428.614 448.848C426.612 451.204 425.551 453.442 425.316 455.445C425.198 455.68 425.198 455.916 425.198 456.152V456.623V456.741V456.858V456.976C425.198 460.392 427.201 462.748 430.852 462.748C432.384 462.748 434.033 462.277 435.8 461.335ZM508.489 415.509H499.183L491.644 463.809C491.644 464.162 491.526 464.28 491.526 464.633C491.526 466.165 492.586 466.872 493.882 466.872C495.649 466.872 497.887 465.929 499.183 464.162L500.597 465.694C499.301 467.225 497.651 468.756 496.12 470.052C493.293 472.408 488.581 473.704 483.986 473.704C477.861 473.704 472.442 471.348 472.442 465.811V465.694V465.458V465.34V465.222V465.105V464.987C472.442 464.751 472.442 464.516 472.559 464.28L480.099 415.509H474.326L474.915 412.093C483.397 411.504 494.589 399.959 501.186 392.42L502.717 393.362L499.772 412.093H509.078L508.489 415.509ZM526.838 406.203C521.301 406.203 517.296 402.433 517.296 397.368V397.25V397.014V396.897V396.779V396.661V396.543C517.296 396.308 517.296 396.072 517.414 395.836C518.356 390.064 523.893 385.352 530.137 385.352C535.438 385.352 539.325 389.122 539.325 394.187C539.325 394.894 539.325 395.483 539.207 395.836C538.265 401.491 532.728 406.203 526.838 406.203ZM536.027 412.093L527.898 463.691C527.78 464.044 527.78 464.28 527.78 464.516V464.633V464.987V465.105V465.222V465.34C527.78 468.639 529.43 470.523 531.197 470.523L530.843 472.644H503.042L503.395 470.523C505.398 470.523 507.99 467.696 508.814 463.102L514.822 425.169C514.94 424.345 515.058 423.756 515.058 423.167C515.058 419.868 513.409 417.866 511.641 417.866L511.995 415.745C519.652 415.745 528.841 413.625 534.495 410.797L536.027 412.093ZM595.804 464.28V464.987C595.804 468.639 597.454 470.523 599.221 470.523L598.867 472.644H570.948L571.301 470.523C573.304 470.523 576.014 467.696 576.838 463.102L582.021 430.588C582.257 429.292 582.375 428.114 582.375 427.054C582.375 422.46 580.372 420.811 577.898 420.811C573.068 420.811 565.882 427.408 564.94 433.062L560.11 463.691C559.992 464.044 559.992 464.633 559.992 465.222C559.992 468.403 561.642 470.523 563.409 470.523L563.055 472.644H535.254L535.607 470.523C537.61 470.523 540.201 467.696 541.026 463.102L547.034 425.169C547.152 424.345 547.27 423.756 547.27 423.167C547.27 419.868 545.62 417.866 543.853 417.866L544.207 415.745H545.974C553.042 415.745 561.406 413.507 566.707 410.797L568.239 412.093L566.589 422.224C572.597 415.627 580.49 412.211 587.087 412.211C594.98 412.211 601.577 416.923 601.577 426.819C601.577 428.114 601.459 429.528 601.223 430.942C599.456 442.133 597.571 453.442 595.804 464.28ZM669.331 403.258C668.742 403.258 668.153 403.14 667.564 403.14C660.025 403.14 654.606 406.674 649.422 413.625C658.258 416.452 663.912 423.167 663.912 431.177C663.912 432.002 663.794 432.944 663.676 433.887C661.792 445.903 648.009 455.68 632.93 455.68C626.804 455.68 621.503 454.031 617.38 451.322C616.791 451.911 616.555 452.617 616.437 453.324V453.795C616.437 455.091 617.38 456.034 619.383 456.858C624.919 458.979 636.817 460.981 646.242 463.809C657.551 467.225 662.145 472.762 662.145 478.77V479.005V479.241V479.359V479.477V479.594V479.712C662.145 480.066 662.145 480.301 662.027 480.655L661.909 481.244C658.493 495.851 635.522 503.744 616.909 503.744C610.312 503.744 604.539 502.802 600.298 500.799C595.586 498.561 593.584 495.144 593.584 491.728C593.584 491.139 593.584 490.668 593.701 490.314C594.644 483.717 602.772 477.12 612.432 477.12C614.435 477.12 616.32 477.238 618.558 478.063C615.142 480.537 613.61 483.011 613.257 485.367C613.257 485.72 613.139 486.073 613.139 486.427C613.139 491.61 619.736 495.498 628.218 495.498C629.985 495.498 631.634 495.38 633.519 495.027C639.527 493.966 642.825 491.61 643.297 488.901V488.194C643.297 485.249 640.94 481.479 633.872 479.123C626.922 476.885 617.262 475 612.668 472.88C608.073 470.641 605.128 466.754 605.128 462.513V462.159V462.042V461.924V461.806V461.688C605.128 461.453 605.128 461.217 605.246 460.981C605.835 457.094 608.662 452.971 615.259 449.555C611.372 446.256 609.016 441.78 609.016 436.596C609.016 435.772 609.134 434.829 609.251 433.887C611.136 421.989 624.919 412.211 639.88 412.211C640.705 412.211 643.061 412.329 644.828 412.682C647.066 403.847 651.778 391.478 662.616 390.889H663.323C668.153 390.889 670.391 394.069 670.391 398.192C670.391 399.017 670.273 399.488 670.156 400.313C670.038 401.255 669.684 402.315 669.331 403.258ZM638.938 450.497C642.354 449.437 644.828 445.314 645.77 440.012C645.888 438.599 646.006 437.185 646.006 435.654C646.006 434.122 645.888 432.591 645.77 431.059C644.357 422.578 639.998 416.923 635.404 416.923C634.933 416.923 634.344 417.041 633.755 417.159C630.338 418.101 627.864 422.342 627.04 427.643C626.804 429.057 626.686 430.47 626.686 432.002C626.686 433.533 626.804 435.065 627.04 436.596C628.336 444.725 632.812 450.733 637.406 450.733C637.878 450.733 638.349 450.615 638.938 450.497ZM158.053 497.881L168.537 574.57C169.48 582.345 171.247 583.288 173.956 583.288L173.603 585.526H142.503L142.856 583.17C145.094 583.052 145.801 582.345 146.155 581.05V580.578C146.155 579.518 146.037 578.222 145.683 576.455L142.856 555.722H120.709L111.049 576.455C111.049 576.573 111.049 576.573 110.932 576.573V576.691C110.814 576.809 110.814 576.809 110.814 576.927L110.696 577.044V577.162C110.696 577.28 110.696 577.28 110.578 577.28V577.398L110.46 577.516V577.633V577.751L110.343 577.869C110.225 577.987 110.225 578.105 110.225 578.222L110.107 578.34C109.989 578.458 109.989 578.694 109.871 578.811L109.754 578.929V579.047C109.4 579.872 109.165 580.578 109.047 581.167V581.639C109.047 582.581 109.989 583.052 111.756 583.17L111.403 585.526H95.3816L95.735 583.288C98.5623 583.288 100.447 582.345 104.217 574.57L136.024 506.951C135.435 505.656 134.492 505.302 132.725 504.949L133.079 502.711C139.204 502.711 151.809 499.294 156.404 496.467L158.053 497.881ZM123.301 550.185H142.032C140.736 539.819 139.322 529.805 137.908 519.439C133.079 529.805 128.366 539.819 123.301 550.185ZM275.02 528.038H265.714L262.533 547.24L257.939 576.102V576.691C257.939 578.34 258.763 579.165 260.295 579.165C262.062 579.165 264.3 578.105 265.714 576.337L267.127 577.869C265.596 579.4 264.3 580.932 262.533 582.228C259.706 584.584 254.876 585.997 250.282 585.997C244.156 585.997 238.619 583.641 238.619 577.987C238.619 577.398 238.619 576.809 238.737 576.455L246.394 528.038H240.504L241.093 524.622L244.627 524.269C249.457 523.326 251.224 519.792 252.284 514.726L252.52 513.548C252.638 512.724 252.755 512.017 252.755 511.192C252.755 504.478 247.808 501.65 242.035 501.65C234.967 501.65 227.192 506.127 225.896 513.077C225.896 513.548 225.779 513.902 225.779 514.726C225.779 522.384 230.844 528.627 233.671 535.46C234.732 537.58 235.321 539.936 235.321 542.41V543.235C235.203 543.47 235.203 543.706 235.203 543.942V544.059V544.177V544.413V544.531V544.648V544.766C234.025 551.834 228.135 555.251 222.48 555.251C218.357 555.251 214.352 553.366 212.467 549.714C215.176 547.711 216.943 544.648 218.239 540.997C218.593 540.054 218.71 539.112 218.828 538.287C218.946 537.462 219.064 536.756 219.064 535.931C219.064 530.748 216.001 527.803 212.231 527.803C208.108 527.803 203.16 530.983 199.744 538.523C198.213 541.703 197.152 545.237 196.563 548.889C196.21 550.774 196.092 552.659 196.092 554.544C196.092 565.382 201.158 574.924 213.763 574.924C220.36 574.924 227.31 572.45 231.551 566.206L233.554 567.031C227.074 578.694 216.825 586.822 201.747 586.822C188.082 586.822 175.712 575.042 175.712 559.845C175.712 558.314 175.83 556.782 176.066 555.251C176.772 550.656 178.304 546.18 180.778 542.057C188.435 529.687 200.451 524.151 211.76 523.797H212.82C215.294 523.797 217.65 524.151 219.771 524.858C219.417 522.619 219.182 520.734 219.182 519.203C219.182 518.143 219.299 517.083 219.417 516.14C221.302 504.36 233.318 497.292 244.863 497.292C256.172 497.292 266.774 504.006 266.774 518.967C266.774 520.97 266.656 522.855 266.303 524.622H275.609L275.02 528.038ZM292.727 519.203C287.191 519.203 283.185 515.433 283.185 510.368V510.25V510.014V509.897V509.779V509.661V509.543C283.185 509.308 283.185 509.072 283.303 508.836C284.246 503.064 289.782 498.352 296.026 498.352C301.327 498.352 305.215 502.122 305.215 507.187C305.215 507.894 305.215 508.483 305.097 508.836C304.154 514.491 298.618 519.203 292.727 519.203ZM301.916 525.093L293.788 576.691C293.67 577.044 293.67 577.28 293.67 577.516V577.633V577.987V578.105V578.222V578.34C293.67 581.639 295.319 583.523 297.086 583.523L296.733 585.644H268.931L269.285 583.523C271.287 583.523 273.879 580.696 274.704 576.102L280.712 538.169C280.829 537.345 280.947 536.756 280.947 536.167C280.947 532.868 279.298 530.866 277.531 530.866L277.884 528.745C285.542 528.745 294.73 526.625 300.385 523.797L301.916 525.093ZM340.607 524.386C356.039 524.386 366.877 535.695 366.877 550.421C366.877 552.07 366.759 553.719 366.524 555.369C364.05 572.332 347.793 586.233 330.829 586.233C315.397 586.233 304.559 574.806 304.559 560.081C304.559 558.549 304.677 557.018 304.913 555.369C307.387 538.287 323.643 524.386 340.607 524.386ZM339.9 529.216C334.364 529.216 327.413 541.35 325.175 556.193C324.586 559.845 324.35 563.261 324.35 566.442C324.35 576.337 327.06 583.288 331.301 583.288C337.191 583.288 343.434 571.272 345.908 556.193C346.497 552.541 346.733 548.889 346.733 545.709C346.733 535.931 344.259 529.216 339.9 529.216ZM425.542 577.28V577.987C425.542 581.639 427.191 583.523 428.958 583.523L428.605 585.644H400.686L401.039 583.523C403.042 583.523 405.751 580.696 406.576 576.102L411.759 543.588C411.995 542.292 412.113 541.114 412.113 540.054C412.113 535.46 410.11 533.811 407.636 533.811C402.806 533.811 395.62 540.408 394.678 546.062L389.848 576.691C389.73 577.044 389.73 577.633 389.73 578.222C389.73 581.403 391.379 583.523 393.146 583.523L392.793 585.644H364.991L365.345 583.523C367.347 583.523 369.939 580.696 370.764 576.102L376.772 538.169C376.89 537.345 377.007 536.756 377.007 536.167C377.007 532.868 375.358 530.866 373.591 530.866L373.944 528.745H375.711C382.78 528.745 391.144 526.507 396.445 523.797L397.976 525.093L396.327 535.224C402.335 528.627 410.228 525.211 416.825 525.211C424.718 525.211 431.315 529.923 431.315 539.819C431.315 541.114 431.197 542.528 430.961 543.942C429.194 555.133 427.309 566.442 425.542 577.28ZM524.942 539.112C534.366 543.235 538.607 550.421 538.607 557.96V558.785V558.903V559.02V559.138V559.256V559.374V559.492V559.609C538.607 560.198 538.49 560.67 538.372 561.259C536.723 570.919 528.948 580.225 515.165 584.112C509.392 585.644 502.795 586.351 495.374 586.351H463.331L463.685 584.112C465.923 584.112 468.75 581.167 469.575 576.337L480.177 509.897C480.295 509.543 480.295 509.308 480.295 508.954V508.365V508.247V508.13V508.012C480.295 504.242 478.41 502.122 476.525 502.122L476.879 500.001L490.19 499.883H502.913C508.568 499.883 515.4 500.001 521.526 501.061C533.306 503.064 538.961 509.543 538.961 516.494V517.083V517.2V517.318V517.436C538.961 517.789 538.961 518.143 538.843 518.496C537.901 524.74 532.364 530.748 522.822 533.928C520.348 534.753 517.403 535.46 514.222 536.049C518.345 536.873 521.997 537.816 524.942 539.112ZM503.031 503.771H502.206L497.258 534.635C498.554 534.635 499.732 534.753 501.028 534.753C511.041 533.457 516.814 526.389 518.11 519.439C518.227 519.085 518.227 518.614 518.227 518.261V518.025V517.672V517.554V517.436V517.318V517.083C518.227 510.132 513.397 503.771 503.031 503.771ZM496.669 538.876L489.719 582.345C505.387 581.403 515.518 570.919 517.049 560.198C517.167 559.138 517.285 558.078 517.285 557.018C517.285 547.594 510.806 539.465 496.669 538.876ZM605.552 525.093L597.777 574.453C597.659 574.806 597.659 575.395 597.659 576.22C597.659 579.872 599.308 581.756 601.075 581.756L600.722 583.877H598.955C591.769 583.877 583.405 585.173 578.339 588L576.69 586.586L578.339 576.573C572.331 584.112 564.792 587.411 558.195 587.411C549.595 587.411 542.527 581.756 542.527 571.036C542.527 569.741 542.645 568.327 542.88 566.795L547.593 537.227C547.71 536.873 547.71 536.52 547.71 535.931C547.71 532.75 545.943 530.866 544.176 530.866L544.53 528.745C552.423 528.745 561.258 526.625 567.266 523.797L568.679 525.093L561.965 567.738C561.847 568.327 561.729 568.916 561.729 569.387V569.623V570.212V570.33V570.447V570.565V570.683V570.801V570.919C561.729 575.748 563.967 577.633 567.148 577.633C572.331 577.633 578.928 572.568 579.871 567.267L584.583 537.934C584.701 537.58 584.701 536.991 584.701 536.167C584.701 532.515 582.934 530.866 581.166 530.866L581.52 528.745C589.413 528.745 598.13 526.625 604.138 523.797L605.552 525.093ZM646.54 528.509H637.233L629.694 576.809C629.694 577.162 629.576 577.28 629.576 577.633C629.576 579.165 630.636 579.872 631.932 579.872C633.699 579.872 635.938 578.929 637.233 577.162L638.647 578.694C637.351 580.225 635.702 581.756 634.171 583.052C631.343 585.408 626.631 586.704 622.037 586.704C615.911 586.704 610.492 584.348 610.492 578.811V578.694V578.458V578.34V578.222V578.105V577.987C610.492 577.751 610.492 577.516 610.61 577.28L618.149 528.509H612.377L612.966 525.093C621.448 524.504 632.639 512.959 639.236 505.42L640.767 506.362L637.822 525.093H647.129L646.54 528.509ZM681.513 528.509H672.206L664.667 576.809C664.667 577.162 664.549 577.28 664.549 577.633C664.549 579.165 665.609 579.872 666.905 579.872C668.672 579.872 670.91 578.929 672.206 577.162L673.62 578.694C672.324 580.225 670.675 581.756 669.143 583.052C666.316 585.408 661.604 586.704 657.01 586.704C650.884 586.704 645.465 584.348 645.465 578.811V578.694V578.458V578.34V578.222V578.105V577.987C645.465 577.751 645.465 577.516 645.583 577.28L653.122 528.509H647.35L647.939 525.093C656.421 524.504 667.612 512.959 674.209 505.42L675.74 506.362L672.795 525.093H682.102L681.513 528.509ZM713.228 524.386C728.661 524.386 739.498 535.695 739.498 550.421C739.498 552.07 739.381 553.719 739.145 555.369C736.671 572.332 720.414 586.233 703.451 586.233C688.018 586.233 677.181 574.806 677.181 560.081C677.181 558.549 677.298 557.018 677.534 555.369C680.008 538.287 696.265 524.386 713.228 524.386ZM712.522 529.216C706.985 529.216 700.034 541.35 697.796 556.193C697.207 559.845 696.972 563.261 696.972 566.442C696.972 576.337 699.681 583.288 703.922 583.288C709.812 583.288 716.056 571.272 718.529 556.193C719.119 552.541 719.354 548.889 719.354 545.709C719.354 535.931 716.88 529.216 712.522 529.216ZM798.163 577.28V577.987C798.163 581.639 799.813 583.523 801.58 583.523L801.226 585.644H773.307L773.66 583.523C775.663 583.523 778.373 580.696 779.197 576.102L784.38 543.588C784.616 542.292 784.734 541.114 784.734 540.054C784.734 535.46 782.731 533.811 780.257 533.811C775.427 533.811 768.241 540.408 767.299 546.062L762.469 576.691C762.351 577.044 762.351 577.633 762.351 578.222C762.351 581.403 764.001 583.523 765.768 583.523L765.414 585.644H737.613L737.966 583.523C739.969 583.523 742.56 580.696 743.385 576.102L749.393 538.169C749.511 537.345 749.629 536.756 749.629 536.167C749.629 532.868 747.979 530.866 746.212 530.866L746.566 528.745H748.333C755.401 528.745 763.765 526.507 769.066 523.797L770.598 525.093L768.948 535.224C774.956 528.627 782.849 525.211 789.446 525.211C797.339 525.211 803.936 529.923 803.936 539.819C803.936 541.114 803.818 542.528 803.582 543.942C801.815 555.133 799.93 566.442 798.163 577.28Z" fill="#F0F0F0"/>
<path d="M827.823 204.863C828.889 193.674 829.688 182.752 830.221 171.83C830.753 166.236 831.02 160.908 831.286 155.314C831.553 152.118 831.553 148.921 831.553 145.991L852.864 157.712L858.458 160.908L869.646 166.769L869.913 166.503C866.45 163.839 863.253 161.175 860.056 158.511C858.458 157.179 856.593 155.847 854.995 154.782L850.2 150.786C844.606 146.523 839.278 142.261 833.684 138.265C835.548 136.401 837.413 134.536 839.278 132.405L847.27 122.815C852.597 116.421 858.191 110.028 863.519 103.368H863.253C856.593 108.43 850.2 114.024 843.806 119.352C840.61 122.016 837.413 124.68 834.216 127.61L831.553 130.007C831.286 122.016 830.753 114.024 830.221 105.766L829.688 97.7742C829.421 94.8439 829.421 92.18 829.155 89.5161C828.889 83.922 828.356 78.3278 827.823 73H827.557C827.29 78.3278 826.758 83.922 826.491 89.5161C826.225 92.18 825.958 94.8439 825.958 97.7742L825.426 105.766C824.893 114.557 824.36 123.081 824.094 131.872L819.299 128.942L808.11 122.815C800.918 118.819 793.459 114.823 786 111.094C792.393 116.421 798.787 121.749 805.446 127.077C808.909 129.475 812.106 132.138 815.303 134.802C817.434 136.401 819.565 137.999 821.696 139.331C817.168 144.392 812.905 149.72 808.377 155.048L804.114 159.843L792.127 174.228L792.393 174.494L801.983 166.503L807.045 162.507L811.84 158.245L824.094 147.855C824.094 150.253 824.094 152.917 824.36 155.314C824.626 160.908 824.893 166.236 825.426 171.83C825.958 182.752 826.758 193.674 827.823 204.863Z" fill="white"/>
<path d="M86.9578 342.994C87.6447 335.783 88.1598 328.743 88.5032 321.703C88.8466 318.097 89.0183 314.663 89.19 311.057C89.3617 308.997 89.3617 306.936 89.3617 305.047L103.098 312.603L106.704 314.663L113.916 318.441L114.087 318.269C111.855 316.552 109.795 314.835 107.734 313.118C106.704 312.259 105.502 311.401 104.472 310.714L101.381 308.138C97.7753 305.391 94.3412 302.644 90.7354 300.068C91.9373 298.866 93.1393 297.664 94.3412 296.29L99.4924 290.109C102.926 285.988 106.532 281.867 109.966 277.574H109.795C105.502 280.837 101.381 284.443 97.2602 287.877C95.1997 289.594 93.1393 291.311 91.0788 293.2L89.3617 294.745C89.19 289.594 88.8466 284.443 88.5032 279.12L88.1598 273.969C87.9881 272.08 87.9881 270.363 87.8164 268.646C87.6447 265.04 87.3013 261.434 86.9578 258H86.7861C86.6144 261.434 86.271 265.04 86.0993 268.646C85.9276 270.363 85.7559 272.08 85.7559 273.969L85.4125 279.12C85.0691 284.786 84.7257 290.281 84.554 295.947L81.4632 294.058L74.2516 290.109C69.6155 287.533 64.8078 284.958 60 282.554C64.1209 285.988 68.2419 289.422 72.5345 292.856C74.7667 294.402 76.8272 296.119 78.8877 297.836C80.2613 298.866 81.635 299.896 83.0086 300.755C80.0896 304.017 77.3423 307.451 74.4233 310.885L71.676 313.976L63.9492 323.248L64.1209 323.42L70.3024 318.269L73.5648 315.693L76.6555 312.946L84.554 306.249C84.554 307.795 84.554 309.512 84.7257 311.057C84.8974 314.663 85.0691 318.097 85.4125 321.703C85.7559 328.743 86.271 335.783 86.9578 342.994Z" fill="white"/>
</svg>
