<svg width="913" height="1080" viewBox="0 0 913 1080" fill="none" xmlns="http://www.w3.org/2000/svg">
<rect width="913" height="1126" fill="#698662"/>
<path d="M164.728 279.462L165.376 275.357C169.482 275.357 174.667 269.955 176.18 261.096L195.411 140.742C195.627 140.094 195.627 139.662 195.627 139.013V138.797V138.149V137.933V137.717V137.501V137.285C195.627 130.37 192.17 126.481 188.712 126.481L189.361 122.376H236.897C280.977 122.376 307.554 144.847 307.554 184.821C307.554 190.007 307.122 195.409 306.257 201.243C298.263 251.373 261.962 279.462 212.049 279.462H164.728ZM235.817 129.29L213.129 272.764C239.706 267.794 258.937 244.242 266.932 201.027C267.796 193.897 268.228 187.414 268.228 181.364C268.228 150.249 256.56 133.395 235.817 129.29ZM415.129 262.825L417.506 265.634C415.129 268.443 412.104 271.252 409.295 273.628C404.109 277.95 395.466 280.327 387.039 280.327C375.803 280.327 365.648 275.789 365.648 265.634C365.648 264.553 365.648 263.689 365.864 263.041L366.728 257.855C360.678 265.418 352.899 271.684 344.04 275.789C337.99 278.382 332.156 279.678 326.322 279.678C312.493 279.678 301.257 271.9 301.257 257.423C301.257 255.91 301.473 254.398 301.689 252.885C303.418 240.137 314.222 226.308 333.669 220.69C349.874 216.152 369.753 215.504 375.371 202.323L375.803 199.947C376.236 196.705 376.452 193.897 376.452 191.52C376.452 181.148 372.346 177.043 367.376 177.043C360.678 177.043 351.387 184.605 349.01 195.625L348.794 196.922C348.578 197.57 348.578 198.002 348.578 198.65V198.866V199.514V199.731V200.163V200.379V200.595C348.578 203.836 349.01 206.645 350.955 208.157C346.849 212.263 340.583 214.424 333.885 214.424C325.026 214.424 316.599 210.318 316.599 200.163C316.599 198.65 316.599 197.57 316.815 196.922C319.624 178.555 344.256 166.455 367.16 166.455H368.889C390.064 167.103 410.592 174.882 410.592 197.786C410.592 199.947 410.375 202.323 409.943 204.916L400.868 262.176V263.041C400.868 266.282 402.813 267.794 405.406 267.794C408.647 267.794 412.752 266.066 415.129 262.825ZM356.789 258.935C360.462 256.991 364.784 253.533 368.241 248.131L373.643 213.127C363.919 218.961 351.387 226.74 343.608 236.031C339.935 240.353 337.99 244.458 337.558 248.131C337.342 248.564 337.342 248.996 337.342 249.428V250.292V250.508V250.724V250.94C337.342 257.207 341.015 261.528 347.714 261.528C350.523 261.528 353.548 260.664 356.789 258.935ZM507.03 168.616H539.874L539.226 172.721C529.502 172.721 522.588 186.334 517.402 195.625C516.754 196.489 516.538 197.138 516.322 197.786L461.655 297.397C454.74 309.713 443.288 337.803 425.354 337.803C415.847 337.803 410.445 330.24 410.445 321.381C410.445 319.869 410.445 318.788 410.661 318.14C411.741 311.658 415.414 305.824 421.248 300.422C423.625 305.391 427.515 307.984 432.917 307.984C440.047 307.984 448.042 303.231 452.579 294.804L461.006 279.678H453.012L427.947 187.63C424.49 174.234 420.816 172.505 416.495 172.505L417.143 168.616H468.569L467.921 172.721C464.68 172.937 463.167 173.801 462.951 175.53V176.61C462.951 178.555 463.815 181.364 464.68 184.605L480.453 243.378L507.679 193.897C510.272 189.143 511.784 185.253 512.216 182.012C512.432 181.364 512.432 180.284 512.432 179.203C512.432 174.882 510.488 172.721 506.382 172.721L507.03 168.616ZM645.796 124.536L624.189 261.312C623.973 261.96 623.973 262.609 623.973 263.257V264.121V264.337V264.553V264.769V264.985V265.201C623.973 271.9 626.566 275.573 629.159 275.573H630.455L629.807 279.678H574.059L574.708 275.573H576.004C579.245 275.573 583.783 270.171 585.295 261.312L602.365 153.706V152.41C602.365 146.36 595.235 144.847 591.994 144.847H590.697L591.562 140.742H592.642C610.792 137.069 626.782 131.019 641.475 122.592H642.987L645.796 124.536ZM714.797 124.536L693.19 261.312C692.974 261.96 692.974 262.609 692.974 263.257V264.121V264.337V264.553V264.769V264.985V265.201C692.974 271.9 695.566 275.573 698.159 275.573H699.456L698.808 279.678H643.06L643.708 275.573H645.005C648.246 275.573 652.783 270.171 654.296 261.312L671.366 153.706V152.41C671.366 146.36 664.235 144.847 660.994 144.847H659.698L660.562 140.742H661.643C679.793 137.069 695.782 131.019 710.476 122.592H711.988L714.797 124.536Z" fill="white"/>
<path d="M124.187 467.526L124.54 465.288C126.778 465.288 129.606 462.343 130.43 457.513L140.915 391.897C141.033 391.543 141.033 391.308 141.033 390.954V390.836V390.483V390.365V390.247V390.13V390.012C141.033 386.242 139.148 384.122 137.263 384.122L137.616 381.883H163.533C187.565 381.883 202.055 394.135 202.055 415.928C202.055 418.756 201.819 421.701 201.348 424.881C196.989 452.212 177.198 467.526 149.986 467.526H124.187ZM162.944 385.653L150.575 463.874C165.064 461.165 175.549 448.324 179.908 424.764C180.379 420.876 180.614 417.342 180.614 414.044C180.614 397.08 174.253 387.891 162.944 385.653ZM220.769 401.203C215.232 401.203 211.227 397.433 211.227 392.368V392.25V392.014V391.897V391.779V391.661V391.543C211.227 391.308 211.227 391.072 211.344 390.836C212.287 385.064 217.824 380.352 224.067 380.352C229.368 380.352 233.256 384.122 233.256 389.187C233.256 389.894 233.256 390.483 233.138 390.836C232.196 396.491 226.659 401.203 220.769 401.203ZM229.957 407.093L221.829 458.691C221.711 459.044 221.711 459.28 221.711 459.516V459.633V459.987V460.105V460.222V460.34C221.711 463.639 223.36 465.523 225.127 465.523L224.774 467.644H196.972L197.326 465.523C199.329 465.523 201.92 462.696 202.745 458.102L208.753 420.169C208.871 419.345 208.988 418.756 208.988 418.167C208.988 414.868 207.339 412.866 205.572 412.866L205.925 410.745C213.583 410.745 222.771 408.625 228.426 405.797L229.957 407.093ZM295.272 398.258C294.683 398.258 294.094 398.14 293.505 398.14C285.965 398.14 280.546 401.674 275.363 408.625C284.198 411.452 289.853 418.167 289.853 426.177C289.853 427.002 289.735 427.944 289.617 428.887C287.732 440.903 273.949 450.68 258.871 450.68C252.745 450.68 247.444 449.031 243.321 446.322C242.732 446.911 242.496 447.617 242.378 448.324V448.795C242.378 450.091 243.321 451.034 245.323 451.858C250.86 453.979 262.758 455.981 272.182 458.809C283.491 462.225 288.086 467.762 288.086 473.77V474.005V474.241V474.359V474.477V474.594V474.712C288.086 475.066 288.086 475.301 287.968 475.655L287.85 476.244C284.434 490.851 261.462 498.744 242.849 498.744C236.252 498.744 230.48 497.802 226.239 495.799C221.527 493.561 219.524 490.144 219.524 486.728C219.524 486.139 219.524 485.668 219.642 485.314C220.585 478.717 228.713 472.12 238.373 472.12C240.376 472.12 242.26 472.238 244.499 473.063C241.082 475.537 239.551 478.011 239.198 480.367C239.198 480.72 239.08 481.073 239.08 481.427C239.08 486.61 245.677 490.498 254.158 490.498C255.926 490.498 257.575 490.38 259.46 490.027C265.468 488.966 268.766 486.61 269.237 483.901V483.194C269.237 480.249 266.881 476.479 259.813 474.123C252.863 471.885 243.203 470 238.608 467.88C234.014 465.641 231.069 461.754 231.069 457.513V457.159V457.042V456.924V456.806V456.688C231.069 456.453 231.069 456.217 231.187 455.981C231.776 452.094 234.603 447.971 241.2 444.555C237.313 441.256 234.957 436.78 234.957 431.596C234.957 430.772 235.074 429.829 235.192 428.887C237.077 416.989 250.86 407.211 265.821 407.211C266.646 407.211 269.002 407.329 270.769 407.682C273.007 398.847 277.719 386.478 288.557 385.889H289.264C294.094 385.889 296.332 389.069 296.332 393.192C296.332 394.017 296.214 394.488 296.096 395.313C295.979 396.255 295.625 397.315 295.272 398.258ZM264.879 445.497C268.295 444.437 270.769 440.314 271.711 435.012C271.829 433.599 271.947 432.185 271.947 430.654C271.947 429.122 271.829 427.591 271.711 426.059C270.298 417.578 265.939 411.923 261.344 411.923C260.873 411.923 260.284 412.041 259.695 412.159C256.279 413.101 253.805 417.342 252.98 422.643C252.745 424.057 252.627 425.47 252.627 427.002C252.627 428.533 252.745 430.065 252.98 431.596C254.276 439.725 258.753 445.733 263.347 445.733C263.818 445.733 264.29 445.615 264.879 445.497ZM312.112 401.203C306.575 401.203 302.57 397.433 302.57 392.368V392.25V392.014V391.897V391.779V391.661V391.543C302.57 391.308 302.57 391.072 302.688 390.836C303.63 385.064 309.167 380.352 315.411 380.352C320.712 380.352 324.599 384.122 324.599 389.187C324.599 389.894 324.599 390.483 324.481 390.836C323.539 396.491 318.002 401.203 312.112 401.203ZM321.301 407.093L313.172 458.691C313.055 459.044 313.055 459.28 313.055 459.516V459.633V459.987V460.105V460.222V460.34C313.055 463.639 314.704 465.523 316.471 465.523L316.117 467.644H288.316L288.669 465.523C290.672 465.523 293.264 462.696 294.088 458.102L300.096 420.169C300.214 419.345 300.332 418.756 300.332 418.167C300.332 414.868 298.683 412.866 296.915 412.866L297.269 410.745C304.926 410.745 314.115 408.625 319.769 405.797L321.301 407.093ZM361.523 410.509H352.217L344.677 458.809C344.677 459.162 344.559 459.28 344.559 459.633C344.559 461.165 345.62 461.872 346.916 461.872C348.683 461.872 350.921 460.929 352.217 459.162L353.63 460.694C352.334 462.225 350.685 463.756 349.154 465.052C346.327 467.408 341.614 468.704 337.02 468.704C330.894 468.704 325.475 466.348 325.475 460.811V460.694V460.458V460.34V460.222V460.105V459.987C325.475 459.751 325.475 459.516 325.593 459.28L333.133 410.509H327.36L327.949 407.093C336.431 406.504 347.622 394.959 354.219 387.42L355.751 388.362L352.806 407.093H362.112L361.523 410.509ZM419.232 458.455L420.528 459.987C419.232 461.518 417.583 463.05 416.051 464.345C413.224 466.702 408.512 467.997 403.918 467.997C397.792 467.997 392.255 465.523 392.255 459.987C392.255 459.398 392.255 458.927 392.373 458.573L392.844 455.746C389.546 459.869 385.305 463.285 380.475 465.523C377.176 466.937 373.996 467.644 370.815 467.644C363.275 467.644 357.15 463.403 357.15 455.51C357.15 454.686 357.267 453.861 357.385 453.036C358.328 446.086 364.218 438.547 374.82 435.484C383.655 433.01 394.493 432.656 397.556 425.47L397.792 424.175C398.027 422.408 398.145 420.876 398.145 419.58C398.145 413.926 395.907 411.687 393.197 411.687C389.546 411.687 384.48 415.811 383.184 421.819L383.066 422.525C382.949 422.879 382.949 423.114 382.949 423.468V423.586V423.939V424.057V424.292V424.41V424.528C382.949 426.295 383.184 427.826 384.244 428.651C382.006 430.889 378.59 432.067 374.938 432.067C370.108 432.067 365.514 429.829 365.514 424.292C365.514 423.468 365.514 422.879 365.632 422.525C367.163 412.512 380.592 405.915 393.08 405.915H394.022C405.567 406.269 416.758 410.509 416.758 422.997C416.758 424.175 416.64 425.47 416.405 426.884L411.457 458.102V458.573C411.457 460.34 412.517 461.165 413.931 461.165C415.698 461.165 417.936 460.222 419.232 458.455ZM387.425 456.335C389.428 455.275 391.784 453.39 393.669 450.445L396.614 431.361C391.313 434.541 384.48 438.782 380.239 443.848C378.236 446.204 377.176 448.442 376.941 450.445C376.823 450.68 376.823 450.916 376.823 451.152V451.623V451.741V451.858V451.976C376.823 455.392 378.825 457.748 382.477 457.748C384.009 457.748 385.658 457.277 387.425 456.335ZM455.52 382.708L443.504 458.102C443.386 458.455 443.386 458.691 443.386 459.044V459.162V459.516V459.751V459.869V459.987C443.386 463.639 445.035 465.523 446.802 465.523L446.449 467.644H418.647L419.001 465.523C420.886 465.523 423.595 462.932 424.42 458.691L434.315 395.784C434.433 395.431 434.433 395.195 434.433 394.842V394.724V394.37V394.253V394.135V394.017V393.899C434.433 390.247 432.784 388.362 431.017 388.362L431.37 386.242C439.263 386.242 448.216 384.239 453.988 381.412L455.52 382.708ZM550.724 437.133L552.609 437.722C549.428 446.793 546.719 454.803 544.009 463.756C536.352 467.88 527.87 469.411 519.388 469.411C494.885 469.411 483.341 452.094 483.341 432.656C483.341 429.947 483.576 427.709 483.93 424.999C486.404 409.449 495.946 394.017 512.32 385.889C517.621 383.179 523.983 381.648 530.58 381.059C531.051 380.941 531.522 380.941 531.993 380.941H532.465H532.582H532.7H532.818H532.936H533.054H533.171H533.289C542.949 380.941 553.669 384.593 559.559 388.598L552.02 411.334L550.017 411.805L548.132 406.622C543.067 393.31 535.41 385.653 527.752 385.653C520.566 385.653 513.734 392.368 509.14 407.918C508.315 410.627 507.844 413.455 507.373 416.4C506.666 420.758 506.312 425.235 506.312 429.711C506.312 441.845 509.022 453.861 514.323 459.398C516.443 461.636 518.917 462.814 521.627 462.814C525.868 462.814 531.169 460.105 537.766 453.39C541.889 449.149 546.13 443.73 550.724 437.133ZM589.199 382.708L577.183 458.102C577.065 458.455 577.065 458.691 577.065 459.044V459.162V459.516V459.751V459.869V459.987C577.065 463.639 578.714 465.523 580.481 465.523L580.128 467.644H552.326L552.68 465.523C554.565 465.523 557.274 462.932 558.099 458.691L567.994 395.784C568.112 395.431 568.112 395.195 568.112 394.842V394.724V394.37V394.253V394.135V394.017V393.899C568.112 390.247 566.463 388.362 564.696 388.362L565.049 386.242C572.942 386.242 581.895 384.239 587.667 381.412L589.199 382.708ZM624.013 406.386C639.445 406.386 650.283 417.695 650.283 432.421C650.283 434.07 650.166 435.719 649.93 437.369C647.456 454.332 631.199 468.233 614.236 468.233C598.803 468.233 587.965 456.806 587.965 442.081C587.965 440.549 588.083 439.018 588.319 437.369C590.793 420.287 607.05 406.386 624.013 406.386ZM623.306 411.216C617.77 411.216 610.819 423.35 608.581 438.193C607.992 441.845 607.756 445.261 607.756 448.442C607.756 458.337 610.466 465.288 614.707 465.288C620.597 465.288 626.841 453.272 629.314 438.193C629.903 434.541 630.139 430.889 630.139 427.709C630.139 417.931 627.665 411.216 623.306 411.216ZM748.587 382.472L736.571 458.22C736.454 458.573 736.454 459.162 736.454 459.987C736.454 463.639 738.221 465.641 739.988 465.641L739.752 467.762H711.479L711.715 465.641C713.718 465.641 716.545 463.05 717.369 458.691L728.09 390.13C728.09 388.834 727.029 388.009 725.733 387.538C723.024 386.949 720.197 386.478 717.016 386.478H715.249C708.181 386.595 704.647 390.601 703.822 395.666C703.704 396.02 703.704 396.491 703.704 396.844V396.962V397.551V397.669V397.905V398.022C703.704 403.206 705.943 409.096 709.359 413.808C709.948 414.161 710.301 414.75 710.655 415.222C712.54 418.049 713.718 420.994 713.718 424.646V425.706V425.942V426.059V426.177V426.295C713.718 426.648 713.718 426.884 713.6 427.12C712.657 434.07 706.532 437.486 700.877 437.486C696.754 437.486 692.866 435.601 691.099 431.95C693.573 430.065 695.576 426.766 696.636 423.35C696.99 422.408 697.225 421.465 697.343 420.641C697.461 419.816 697.579 419.109 697.579 418.284C697.579 413.101 694.516 410.156 690.746 410.156C686.623 410.156 681.793 413.337 678.141 420.876C675.785 425.706 674.607 431.007 674.607 436.544C674.607 447.382 679.79 457.159 692.395 457.159C693.691 457.159 694.633 457.042 695.929 456.924C701.466 456.099 706.532 453.508 709.948 448.442L711.951 449.267C705.707 460.811 695.105 468.94 680.379 468.94C666.714 468.94 654.227 457.277 654.227 442.081C654.227 440.667 654.345 439.136 654.58 437.604C655.405 432.892 657.054 428.298 659.41 424.41C666.95 412.041 678.848 406.504 690.275 406.151H691.453C692.749 406.151 693.691 406.269 694.987 406.386C694.516 404.619 694.28 402.97 694.28 401.203V400.614V400.496V400.378V400.261V400.143V400.025C694.28 399.672 694.28 399.2 694.398 398.847C695.694 389.894 704.293 382.472 715.72 382.472H716.191C721.021 382.472 724.909 383.415 729.15 383.886C732.33 383.886 736.807 383.415 740.459 382.59C742.579 382.237 744.818 381.765 747.056 381.176L748.587 382.472ZM758.012 426.059L770.145 454.45C774.504 464.228 775.564 465.641 778.156 465.641L777.92 467.762H754.242L740.812 436.897L756.009 422.408C759.307 419.227 760.603 416.871 760.957 414.633C760.957 414.279 761.074 414.044 761.074 413.69C761.074 411.216 759.307 409.685 757.069 409.214L757.422 406.975H785.695L785.342 409.096C779.216 409.449 770.616 414.515 763.666 420.876L758.012 426.059Z" fill="#F0F0F0"/>
<path d="M797.823 204.863C798.889 193.674 799.688 182.752 800.221 171.83C800.753 166.236 801.02 160.908 801.286 155.314C801.553 152.118 801.553 148.921 801.553 145.991L822.864 157.712L828.458 160.908L839.646 166.769L839.913 166.503C836.45 163.839 833.253 161.175 830.056 158.511C828.458 157.179 826.593 155.847 824.995 154.782L820.2 150.786C814.606 146.523 809.278 142.261 803.684 138.265C805.548 136.401 807.413 134.536 809.278 132.405L817.27 122.815C822.597 116.421 828.191 110.028 833.519 103.368H833.253C826.593 108.43 820.2 114.024 813.806 119.352C810.61 122.016 807.413 124.68 804.216 127.61L801.553 130.007C801.286 122.016 800.753 114.024 800.221 105.766L799.688 97.7742C799.421 94.8439 799.421 92.18 799.155 89.5161C798.889 83.922 798.356 78.3278 797.823 73H797.557C797.29 78.3278 796.758 83.922 796.491 89.5161C796.225 92.18 795.958 94.8439 795.958 97.7742L795.426 105.766C794.893 114.557 794.36 123.081 794.094 131.872L789.299 128.942L778.11 122.815C770.918 118.819 763.459 114.823 756 111.094C762.393 116.421 768.787 121.749 775.446 127.077C778.909 129.475 782.106 132.138 785.303 134.802C787.434 136.401 789.565 137.999 791.696 139.331C787.168 144.392 782.905 149.72 778.377 155.048L774.114 159.843L762.127 174.228L762.393 174.494L771.983 166.503L777.045 162.507L781.84 158.245L794.094 147.855C794.094 150.253 794.094 152.917 794.36 155.314C794.626 160.908 794.893 166.236 795.426 171.83C795.958 182.752 796.758 193.674 797.823 204.863Z" fill="white"/>
<path d="M126.958 342.994C127.645 335.783 128.16 328.743 128.503 321.703C128.847 318.097 129.018 314.663 129.19 311.057C129.362 308.997 129.362 306.936 129.362 305.047L143.098 312.603L146.704 314.663L153.916 318.441L154.087 318.269C151.855 316.552 149.795 314.835 147.734 313.118C146.704 312.259 145.502 311.401 144.472 310.714L141.381 308.138C137.775 305.391 134.341 302.644 130.735 300.068C131.937 298.866 133.139 297.664 134.341 296.29L139.492 290.109C142.926 285.988 146.532 281.867 149.966 277.574H149.795C145.502 280.837 141.381 284.443 137.26 287.877C135.2 289.594 133.139 291.311 131.079 293.2L129.362 294.745C129.19 289.594 128.847 284.443 128.503 279.12L128.16 273.969C127.988 272.08 127.988 270.363 127.816 268.646C127.645 265.04 127.301 261.434 126.958 258H126.786C126.614 261.434 126.271 265.04 126.099 268.646C125.928 270.363 125.756 272.08 125.756 273.969L125.412 279.12C125.069 284.786 124.726 290.281 124.554 295.947L121.463 294.058L114.252 290.109C109.616 287.533 104.808 284.958 100 282.554C104.121 285.988 108.242 289.422 112.535 292.856C114.767 294.402 116.827 296.119 118.888 297.836C120.261 298.866 121.635 299.896 123.009 300.755C120.09 304.017 117.342 307.451 114.423 310.885L111.676 313.976L103.949 323.248L104.121 323.42L110.302 318.269L113.565 315.693L116.655 312.946L124.554 306.249C124.554 307.795 124.554 309.512 124.726 311.057C124.897 314.663 125.069 318.097 125.412 321.703C125.756 328.743 126.271 335.783 126.958 342.994Z" fill="white"/>
</svg>
