<svg width="32" height="32" viewBox="0 0 32 32" fill="none" xmlns="http://www.w3.org/2000/svg">
<path fill-rule="evenodd" clip-rule="evenodd" d="M8.81704 6.94628C8.29398 6.53958 7.53767 6.57655 7.05703 7.0572C6.53633 7.5779 6.53633 8.42212 7.05703 8.94281L14.1142 16L7.05703 23.0572L6.94611 23.1828C6.53941 23.7059 6.57638 24.4622 7.05703 24.9428C7.57773 25.4635 8.42195 25.4635 8.94265 24.9428L15.9998 17.8856L23.057 24.9428L23.1826 25.0537C23.7057 25.4604 24.462 25.4235 24.9426 24.9428C25.4633 24.4221 25.4633 23.5779 24.9426 23.0572L17.8855 16L24.9426 8.94281L25.0536 8.8172C25.4603 8.29415 25.4233 7.53784 24.9426 7.0572C24.4219 6.5365 23.5777 6.5365 23.057 7.0572L15.9998 14.1144L8.94265 7.0572L8.81704 6.94628Z" fill="#171717"/>
</svg>
