<svg width="24" height="24" viewBox="0 0 24 24" fill="none" xmlns="http://www.w3.org/2000/svg">
<path fill-rule="evenodd" clip-rule="evenodd" d="M13 2H11C9.69378 2 8.58254 2.83481 8.17071 4H7L6.82373 4.00509C5.24892 4.09634 4 5.40232 4 7V19L4.00509 19.1763C4.09634 20.7511 5.40232 22 7 22H17L17.1763 21.9949C18.7511 21.9037 20 20.5977 20 19V7L19.9949 6.82373C19.9037 5.24892 18.5977 4 17 4H15.8293C15.4175 2.83481 14.3062 2 13 2ZM15.8293 6H17L17.1166 6.00673C17.614 6.06449 18 6.48716 18 7V19L17.9933 19.1166C17.9355 19.614 17.5128 20 17 20H7L6.88338 19.9933C6.38604 19.9355 6 19.5128 6 19V7L6.00673 6.88338C6.06449 6.38604 6.48716 6 7 6H8.17071C8.58254 7.16519 9.69378 8 11 8H13C14.3062 8 15.4175 7.16519 15.8293 6ZM10 5C10 5.55228 10.4477 6 11 6H13C13.5523 6 14 5.55228 14 5C14 4.44772 13.5523 4 13 4H11C10.4477 4 10 4.44772 10 5Z" fill="#171717"/>
</svg>
