<svg width="913" height="1080" viewBox="0 0 913 1080" fill="none" xmlns="http://www.w3.org/2000/svg">
<rect width="913" height="1126" fill="#698662"/>
<path d="M96.5989 279.462L97.2471 275.357C101.353 275.357 106.538 269.955 108.051 261.096L127.282 140.742C127.498 140.094 127.498 139.662 127.498 139.013V138.797V138.149V137.933V137.717V137.501V137.285C127.498 130.37 124.04 126.481 120.583 126.481L121.232 122.376H168.768C212.848 122.376 239.425 144.847 239.425 184.821C239.425 190.007 238.993 195.409 238.128 201.243C230.134 251.373 193.833 279.462 143.919 279.462H96.5989ZM167.688 129.29L145 272.764C171.577 267.794 190.808 244.242 198.803 201.027C199.667 193.897 200.099 187.414 200.099 181.364C200.099 150.249 188.431 133.395 167.688 129.29ZM347 262.825L349.377 265.634C347 268.443 343.975 271.252 341.166 273.628C335.98 277.95 327.337 280.327 318.91 280.327C307.674 280.327 297.519 275.789 297.519 265.634C297.519 264.553 297.519 263.689 297.735 263.041L298.599 257.855C292.549 265.418 284.77 271.684 275.911 275.789C269.861 278.382 264.027 279.678 258.193 279.678C244.364 279.678 233.128 271.9 233.128 257.423C233.128 255.91 233.344 254.398 233.56 252.885C235.289 240.137 246.093 226.308 265.54 220.69C281.745 216.152 301.624 215.504 307.242 202.323L307.674 199.947C308.106 196.705 308.322 193.897 308.322 191.52C308.322 181.148 304.217 177.043 299.247 177.043C292.549 177.043 283.258 184.605 280.881 195.625L280.665 196.922C280.449 197.57 280.449 198.002 280.449 198.65V198.866V199.514V199.731V200.163V200.379V200.595C280.449 203.836 280.881 206.645 282.826 208.157C278.72 212.263 272.454 214.424 265.756 214.424C256.897 214.424 248.47 210.318 248.47 200.163C248.47 198.65 248.47 197.57 248.686 196.922C251.495 178.555 276.127 166.455 299.031 166.455H300.76C321.935 167.103 342.462 174.882 342.462 197.786C342.462 199.947 342.246 202.323 341.814 204.916L332.739 262.176V263.041C332.739 266.282 334.684 267.794 337.277 267.794C340.518 267.794 344.623 266.066 347 262.825ZM288.66 258.935C292.333 256.991 296.654 253.533 300.112 248.131L305.514 213.127C295.79 218.961 283.258 226.74 275.479 236.031C271.806 240.353 269.861 244.458 269.429 248.131C269.213 248.564 269.213 248.996 269.213 249.428V250.292V250.508V250.724V250.94C269.213 257.207 272.886 261.528 279.584 261.528C282.393 261.528 285.418 260.664 288.66 258.935ZM438.901 168.616H471.745L471.097 172.721C461.373 172.721 454.459 186.334 449.273 195.625C448.625 196.489 448.409 197.138 448.193 197.786L393.525 297.397C386.611 309.713 375.159 337.803 357.225 337.803C347.717 337.803 342.316 330.24 342.316 321.381C342.316 319.869 342.316 318.788 342.532 318.14C343.612 311.658 347.285 305.824 353.119 300.422C355.496 305.391 359.386 307.984 364.787 307.984C371.918 307.984 379.913 303.231 384.45 294.804L392.877 279.678H384.882L359.818 187.63C356.36 174.234 352.687 172.505 348.366 172.505L349.014 168.616H400.44L399.792 172.721C396.551 172.937 395.038 173.801 394.822 175.53V176.61C394.822 178.555 395.686 181.364 396.551 184.605L412.324 243.378L439.55 193.897C442.142 189.143 443.655 185.253 444.087 182.012C444.303 181.364 444.303 180.284 444.303 179.203C444.303 174.882 442.359 172.721 438.253 172.721L438.901 168.616ZM636.008 238.84L640.329 238.624C636.224 263.473 620.666 277.302 600.139 280.543C597.546 281.191 594.305 281.191 591.064 281.191C570.969 281.191 550.658 273.628 531.643 269.523C529.266 269.091 527.106 268.875 525.161 268.875C518.247 268.875 515.005 272.548 513.493 279.678H506.362C507.011 276.437 508.091 272.98 509.604 269.307C520.623 239.056 544.608 222.635 565.999 208.806C585.662 196.057 604.029 183.957 607.486 160.837C607.702 159.108 607.918 156.515 607.918 153.923C607.918 136.853 598.411 128.21 588.687 128.21C577.667 128.21 566.647 136.42 564.271 149.385V150.249C564.271 151.114 564.055 151.762 564.055 152.626C564.055 160.189 567.512 166.239 575.074 166.239H575.939C577.019 166.239 577.667 166.239 578.316 166.023L579.828 165.807C573.994 180.284 559.085 189.143 546.985 189.143H546.12C532.291 189.143 525.593 180.5 525.593 169.48C525.593 167.967 525.809 166.455 526.025 164.726C526.674 161.053 527.97 156.948 529.915 152.842C541.367 129.722 568.376 119.134 593.873 119.134C622.395 119.134 649.188 132.747 649.188 156.948V158.244V158.46V158.892C649.188 159.541 649.188 160.405 648.972 161.053L648.756 162.349C644.003 190.439 615.697 202.107 586.959 214.208L584.366 215.288C567.728 222.202 550.01 229.333 536.829 241.217C540.935 240.137 545.472 239.705 550.442 239.705C560.165 239.705 570.105 241.649 584.15 244.458C594.305 246.835 603.596 248.564 612.023 248.564C620.882 248.564 628.877 246.403 634.927 238.84H636.008ZM779.909 210.75H781.205C780.989 213.127 781.205 215.288 780.557 217.665C777.964 234.735 768.025 247.699 752.251 250.508H753.332L751.603 261.744C751.387 263.257 751.171 264.553 751.171 266.066C751.171 272.332 753.98 276.005 756.573 276.005H757.869L757.221 280.111H701.257L701.906 276.005H703.202C706.443 276.005 710.981 270.603 712.709 261.744L715.086 249.644C701.257 248.131 685.916 246.619 673.168 246.619C661.067 246.619 651.344 247.915 647.239 252.885L642.917 252.669C645.294 244.242 648.751 235.167 655.666 227.604L662.148 221.122C676.625 206.645 702.77 179.636 707.956 160.189L708.388 158.46C708.604 157.812 708.604 157.164 708.604 156.515V155.867V155.651V155.219V155.003C708.604 148.305 705.363 145.928 700.825 145.928C693.047 145.928 683.107 153.058 681.379 163.214L681.162 164.942H679.65C666.901 162.998 661.932 155.867 661.932 148.305C661.932 147.224 661.932 146.36 662.148 145.712C663.228 138.797 667.982 131.667 675.544 126.697C680.514 123.456 685.916 121.943 691.75 121.943C705.579 121.943 718.76 131.667 718.76 151.546L718.327 156.732C714.87 177.691 693.911 202.54 679.218 218.313H682.459C689.805 218.313 698.448 219.393 719.84 221.122L732.372 141.174L769.537 123.024H782.07L781.421 127.129H780.125C776.884 127.129 772.13 132.315 770.618 141.174L758.085 220.906L760.246 220.474C766.944 218.961 772.346 215.504 775.804 210.966L779.909 210.75Z" fill="white"/>
<path d="M264.154 437.133L266.039 437.722C262.858 446.793 260.149 454.803 257.439 463.756C249.782 467.88 241.3 469.411 232.819 469.411C208.316 469.411 196.771 452.094 196.771 432.656C196.771 429.947 197.007 427.709 197.36 424.999C199.834 409.449 209.376 394.017 225.75 385.889C231.052 383.179 237.413 381.648 244.01 381.059C244.481 380.941 244.952 380.941 245.424 380.941H245.895H246.013H246.13H246.248H246.366H246.484H246.602H246.719C256.379 380.941 267.099 384.593 272.99 388.598L265.45 411.334L263.447 411.805L261.563 406.622C256.497 393.31 248.84 385.653 241.183 385.653C233.997 385.653 227.164 392.368 222.57 407.918C221.745 410.627 221.274 413.455 220.803 416.4C220.096 420.758 219.743 425.235 219.743 429.711C219.743 441.845 222.452 453.861 227.753 459.398C229.874 461.636 232.347 462.814 235.057 462.814C239.298 462.814 244.599 460.105 251.196 453.39C255.319 449.149 259.56 443.73 264.154 437.133ZM331.019 425.942L325.836 459.28C325.718 459.633 325.718 459.987 325.718 460.576C325.718 463.756 327.485 465.523 329.252 465.523L328.899 467.644H300.862L301.215 465.523C303.218 465.523 305.927 462.696 306.752 458.102L311.935 425.588C312.171 424.175 312.289 422.997 312.289 421.936C312.289 417.342 310.404 415.811 307.93 415.811C303.336 415.811 296.268 421.936 295.09 427.473L290.142 458.455C290.024 458.809 290.024 459.398 290.024 460.105C290.024 463.521 291.673 465.523 293.44 465.523L293.087 467.644H265.285L265.639 465.523C267.641 465.523 270.351 462.696 271.176 458.102L280.953 395.784C281.071 395.431 281.071 395.195 281.071 394.842V394.724V394.37V394.253V394.135V394.017V393.899C281.071 390.247 279.422 388.362 277.655 388.362L278.008 386.242C285.901 386.242 294.854 384.239 300.626 381.412L302.158 382.708L296.621 417.224C302.629 410.627 310.404 407.211 317.001 407.211C325.012 407.211 331.373 411.923 331.373 421.819C331.373 423.114 331.255 424.528 331.019 425.942ZM396.569 458.455L397.864 459.987C396.569 461.518 394.919 463.05 393.388 464.345C390.561 466.702 385.849 467.997 381.254 467.997C375.128 467.997 369.592 465.523 369.592 459.987C369.592 459.398 369.592 458.927 369.71 458.573L370.181 455.746C366.882 459.869 362.641 463.285 357.811 465.523C354.513 466.937 351.332 467.644 348.152 467.644C340.612 467.644 334.486 463.403 334.486 455.51C334.486 454.686 334.604 453.861 334.722 453.036C335.664 446.086 341.555 438.547 352.157 435.484C360.992 433.01 371.83 432.656 374.893 425.47L375.128 424.175C375.364 422.408 375.482 420.876 375.482 419.58C375.482 413.926 373.244 411.687 370.534 411.687C366.882 411.687 361.817 415.811 360.521 421.819L360.403 422.525C360.285 422.879 360.285 423.114 360.285 423.468V423.586V423.939V424.057V424.292V424.41V424.528C360.285 426.295 360.521 427.826 361.581 428.651C359.343 430.889 355.927 432.067 352.275 432.067C347.445 432.067 342.85 429.829 342.85 424.292C342.85 423.468 342.85 422.879 342.968 422.525C344.5 412.512 357.929 405.915 370.416 405.915H371.359C382.903 406.269 394.095 410.509 394.095 422.997C394.095 424.175 393.977 425.47 393.741 426.884L388.794 458.102V458.573C388.794 460.34 389.854 461.165 391.267 461.165C393.035 461.165 395.273 460.222 396.569 458.455ZM364.762 456.335C366.764 455.275 369.121 453.39 371.005 450.445L373.95 431.361C368.649 434.541 361.817 438.782 357.576 443.848C355.573 446.204 354.513 448.442 354.277 450.445C354.16 450.68 354.16 450.916 354.16 451.152V451.623V451.741V451.858V451.976C354.16 455.392 356.162 457.748 359.814 457.748C361.345 457.748 362.995 457.277 364.762 456.335ZM432.857 382.708L420.841 458.102C420.723 458.455 420.723 458.691 420.723 459.044V459.162V459.516V459.751V459.869V459.987C420.723 463.639 422.372 465.523 424.139 465.523L423.786 467.644H395.984L396.338 465.523C398.222 465.523 400.932 462.932 401.757 458.691L411.652 395.784C411.77 395.431 411.77 395.195 411.77 394.842V394.724V394.37V394.253V394.135V394.017V393.899C411.77 390.247 410.121 388.362 408.354 388.362L408.707 386.242C416.6 386.242 425.553 384.239 431.325 381.412L432.857 382.708ZM464.608 382.708L452.592 458.102C452.474 458.455 452.474 458.691 452.474 459.044V459.162V459.516V459.751V459.869V459.987C452.474 463.639 454.124 465.523 455.891 465.523L455.537 467.644H427.736L428.089 465.523C429.974 465.523 432.684 462.932 433.508 458.691L443.404 395.784C443.521 395.431 443.521 395.195 443.521 394.842V394.724V394.37V394.253V394.135V394.017V393.899C443.521 390.247 441.872 388.362 440.105 388.362L440.459 386.242C448.351 386.242 457.304 384.239 463.077 381.412L464.608 382.708ZM504.37 456.806C510.85 455.981 515.679 452.212 518.86 448.324L520.863 449.031C514.619 460.222 503.192 468.822 489.174 468.822C473.742 468.822 463.139 457.159 463.139 442.552C463.139 440.903 463.257 439.253 463.493 437.604C465.967 420.758 482.106 406.269 499.069 406.269C514.266 406.269 524.044 417.695 524.044 432.303C524.044 434.07 523.926 435.837 523.572 437.604H483.519C483.873 447.971 488.938 457.042 501.425 457.042C502.368 457.042 503.31 456.924 504.37 456.806ZM483.519 433.599H504.959C504.606 418.873 500.365 412.512 495.3 412.512C490.587 412.512 485.758 418.284 483.99 428.651C483.637 430.183 483.637 431.832 483.519 433.599ZM582.632 459.28V459.987C582.632 463.639 584.281 465.523 586.048 465.523L585.695 467.644H557.776L558.129 465.523C560.132 465.523 562.841 462.696 563.666 458.102L568.849 425.588C569.085 424.292 569.203 423.114 569.203 422.054C569.203 417.46 567.2 415.811 564.726 415.811C559.896 415.811 552.71 422.408 551.768 428.062L546.938 458.691C546.82 459.044 546.82 459.633 546.82 460.222C546.82 463.403 548.469 465.523 550.236 465.523L549.883 467.644H522.081L522.435 465.523C524.437 465.523 527.029 462.696 527.854 458.102L533.862 420.169C533.979 419.345 534.097 418.756 534.097 418.167C534.097 414.868 532.448 412.866 530.681 412.866L531.034 410.745H532.801C539.87 410.745 548.234 408.507 553.535 405.797L555.066 407.093L553.417 417.224C559.425 410.627 567.318 407.211 573.915 407.211C581.808 407.211 588.405 411.923 588.405 421.819C588.405 423.114 588.287 424.528 588.051 425.942C586.284 437.133 584.399 448.442 582.632 459.28ZM656.159 398.258C655.57 398.258 654.981 398.14 654.392 398.14C646.852 398.14 641.433 401.674 636.25 408.625C645.085 411.452 650.74 418.167 650.74 426.177C650.74 427.002 650.622 427.944 650.504 428.887C648.619 440.903 634.836 450.68 619.758 450.68C613.632 450.68 608.331 449.031 604.208 446.322C603.619 446.911 603.383 447.617 603.265 448.324V448.795C603.265 450.091 604.208 451.034 606.21 451.858C611.747 453.979 623.645 455.981 633.069 458.809C644.378 462.225 648.973 467.762 648.973 473.77V474.005V474.241V474.359V474.477V474.594V474.712C648.973 475.066 648.973 475.301 648.855 475.655L648.737 476.244C645.321 490.851 622.349 498.744 603.736 498.744C597.139 498.744 591.367 497.802 587.126 495.799C582.414 493.561 580.411 490.144 580.411 486.728C580.411 486.139 580.411 485.668 580.529 485.314C581.472 478.717 589.6 472.12 599.26 472.12C601.262 472.12 603.147 472.238 605.386 473.063C601.969 475.537 600.438 478.011 600.084 480.367C600.084 480.72 599.967 481.073 599.967 481.427C599.967 486.61 606.564 490.498 615.045 490.498C616.813 490.498 618.462 490.38 620.347 490.027C626.355 488.966 629.653 486.61 630.124 483.901V483.194C630.124 480.249 627.768 476.479 620.7 474.123C613.75 471.885 604.09 470 599.495 467.88C594.901 465.641 591.956 461.754 591.956 457.513V457.159V457.042V456.924V456.806V456.688C591.956 456.453 591.956 456.217 592.074 455.981C592.663 452.094 595.49 447.971 602.087 444.555C598.2 441.256 595.844 436.78 595.844 431.596C595.844 430.772 595.961 429.829 596.079 428.887C597.964 416.989 611.747 407.211 626.708 407.211C627.533 407.211 629.889 407.329 631.656 407.682C633.894 398.847 638.606 386.478 649.444 385.889H650.151C654.981 385.889 657.219 389.069 657.219 393.192C657.219 394.017 657.101 394.488 656.983 395.313C656.866 396.255 656.512 397.315 656.159 398.258ZM625.766 445.497C629.182 444.437 631.656 440.314 632.598 435.012C632.716 433.599 632.834 432.185 632.834 430.654C632.834 429.122 632.716 427.591 632.598 426.059C631.184 417.578 626.826 411.923 622.231 411.923C621.76 411.923 621.171 412.041 620.582 412.159C617.166 413.101 614.692 417.342 613.867 422.643C613.632 424.057 613.514 425.47 613.514 427.002C613.514 428.533 613.632 430.065 613.867 431.596C615.163 439.725 619.64 445.733 624.234 445.733C624.705 445.733 625.177 445.615 625.766 445.497ZM695.455 456.806C701.934 455.981 706.764 452.212 709.945 448.324L711.948 449.031C705.704 460.222 694.277 468.822 680.259 468.822C664.826 468.822 654.224 457.159 654.224 442.552C654.224 440.903 654.342 439.253 654.578 437.604C657.051 420.758 673.19 406.269 690.154 406.269C705.351 406.269 715.128 417.695 715.128 432.303C715.128 434.07 715.011 435.837 714.657 437.604H674.604C674.958 447.971 680.023 457.042 692.51 457.042C693.453 457.042 694.395 456.924 695.455 456.806ZM674.604 433.599H696.044C695.691 418.873 691.45 412.512 686.384 412.512C681.672 412.512 676.842 418.284 675.075 428.651C674.722 430.183 674.722 431.832 674.604 433.599ZM253.701 534.596C255.35 537.777 256.175 540.958 256.175 544.02C256.175 544.963 256.057 546.023 255.939 546.966C253.701 560.866 236.384 573.118 215.651 573.118H214.826H214.708H214.59H214.473H214.355H214.237H214.119C213.53 573.118 213.059 573.118 212.47 573C202.103 572.411 191.619 568.759 186.671 564.989C188.556 558.51 190.676 548.733 192.208 540.84L194.8 540.369C197.038 551.678 201.043 560.277 208.111 564.518C212.234 566.992 215.886 568.052 219.538 568.052C226.724 568.052 232.261 563.694 233.203 558.039C233.321 557.686 233.321 557.214 233.321 556.625C233.321 552.502 230.965 548.144 225.428 544.02C215.062 536.481 197.627 527.764 196.331 514.687C196.213 514.334 196.213 513.863 196.213 513.509V513.392V513.038V512.92V512.803V512.685V512.567V512.331C196.213 510.918 196.331 509.504 196.567 508.208C199.04 492.305 217.064 483.705 233.439 483.705C234.381 483.705 235.206 483.823 236.148 483.823C246.986 484.412 254.761 487.946 260.062 491.598C258.178 498.195 256.411 505.617 254.997 512.685L252.17 513.038C250.403 504.203 247.693 497.959 244.041 494.072C240.389 490.184 235.913 488.653 231.79 488.653C225.193 488.653 219.538 492.776 218.596 498.431C218.478 498.666 218.478 498.902 218.478 499.137V499.255V499.373V499.609V499.726V499.844V499.962C218.478 503.261 220.009 507.148 224.133 510.8C232.968 519.046 248.636 525.172 253.701 534.596ZM324.331 510.093L316.556 559.453C316.439 559.806 316.439 560.395 316.439 561.22C316.439 564.872 318.088 566.756 319.855 566.756L319.501 568.877H317.734C310.548 568.877 302.184 570.173 297.119 573L295.47 571.586L297.119 561.573C291.111 569.112 283.572 572.411 276.975 572.411C268.375 572.411 261.307 566.756 261.307 556.036C261.307 554.741 261.425 553.327 261.66 551.795L266.372 522.227C266.49 521.873 266.49 521.52 266.49 520.931C266.49 517.75 264.723 515.866 262.956 515.866L263.309 513.745C271.202 513.745 280.037 511.625 286.045 508.797L287.459 510.093L280.744 552.738C280.626 553.327 280.509 553.916 280.509 554.387V554.623V555.212V555.33V555.447V555.565V555.683V555.801V555.919C280.509 560.748 282.747 562.633 285.928 562.633C291.111 562.633 297.708 557.568 298.65 552.267L303.362 522.934C303.48 522.58 303.48 521.991 303.48 521.167C303.48 517.515 301.713 515.866 299.946 515.866L300.3 513.745C308.192 513.745 316.91 511.625 322.918 508.797L324.331 510.093ZM426.106 528.942L420.687 562.28V562.987C420.687 566.639 422.336 568.523 424.103 568.523L423.75 570.644H395.83L396.184 568.523C398.187 568.523 400.896 565.696 401.721 561.102L406.904 528.588C407.14 527.292 407.257 526.114 407.257 525.054C407.257 520.46 405.255 518.811 402.781 518.811C398.069 518.811 391.118 525.172 389.823 530.826C389.351 534.95 388.998 538.837 388.173 542.96L384.875 562.28V562.987C384.875 566.639 386.524 568.523 388.291 568.523L387.938 570.644H360.018L360.372 568.523C362.374 568.523 365.084 565.696 365.909 561.102L371.092 528.588C371.327 527.292 371.445 526.114 371.445 525.054C371.445 520.46 369.443 518.811 366.969 518.811C362.139 518.811 354.953 525.408 354.01 531.062L349.18 561.691C349.063 562.044 349.063 562.28 349.063 562.516V562.633V562.987V563.105V563.222V563.34C349.063 566.639 350.712 568.523 352.479 568.523L352.126 570.644H324.324L324.677 568.523C326.68 568.523 329.272 565.696 330.096 561.102L336.104 523.169C336.222 522.345 336.34 521.756 336.34 521.167C336.34 517.868 334.691 515.866 332.924 515.866L333.277 513.745H335.044C342.112 513.745 350.476 511.507 355.777 508.797L357.309 510.093L355.66 520.224C361.668 513.627 369.56 510.211 376.157 510.211C383.226 510.211 388.88 513.863 390.176 521.756C396.42 514.098 404.666 510.093 411.852 510.093C419.745 510.093 426.459 514.923 426.459 524.936C426.459 526.232 426.341 527.528 426.106 528.942ZM529.759 528.942L524.34 562.28V562.987C524.34 566.639 525.989 568.523 527.756 568.523L527.403 570.644H499.483L499.837 568.523C501.839 568.523 504.549 565.696 505.374 561.102L510.557 528.588C510.792 527.292 510.91 526.114 510.91 525.054C510.91 520.46 508.908 518.811 506.434 518.811C501.722 518.811 494.771 525.172 493.475 530.826C493.004 534.95 492.651 538.837 491.826 542.96L488.528 562.28V562.987C488.528 566.639 490.177 568.523 491.944 568.523L491.591 570.644H463.671L464.025 568.523C466.027 568.523 468.737 565.696 469.561 561.102L474.745 528.588C474.98 527.292 475.098 526.114 475.098 525.054C475.098 520.46 473.095 518.811 470.622 518.811C465.792 518.811 458.606 525.408 457.663 531.062L452.833 561.691C452.716 562.044 452.716 562.28 452.716 562.516V562.633V562.987V563.105V563.222V563.34C452.716 566.639 454.365 568.523 456.132 568.523L455.778 570.644H427.977L428.33 568.523C430.333 568.523 432.925 565.696 433.749 561.102L439.757 523.169C439.875 522.345 439.993 521.756 439.993 521.167C439.993 517.868 438.344 515.866 436.577 515.866L436.93 513.745H438.697C445.765 513.745 454.129 511.507 459.43 508.797L460.962 510.093L459.313 520.224C465.32 513.627 473.213 510.211 479.81 510.211C486.878 510.211 492.533 513.863 493.829 521.756C500.072 514.098 508.319 510.093 515.505 510.093C523.397 510.093 530.112 514.923 530.112 524.936C530.112 526.232 529.994 527.528 529.759 528.942ZM595.361 561.455L596.657 562.987C595.361 564.518 593.712 566.05 592.181 567.345C589.353 569.702 584.641 570.997 580.047 570.997C573.921 570.997 568.384 568.523 568.384 562.987C568.384 562.398 568.384 561.927 568.502 561.573L568.973 558.746C565.675 562.869 561.434 566.285 556.604 568.523C553.306 569.937 550.125 570.644 546.944 570.644C539.405 570.644 533.279 566.403 533.279 558.51C533.279 557.686 533.397 556.861 533.515 556.036C534.457 549.086 540.347 541.547 550.95 538.484C559.785 536.01 570.623 535.656 573.686 528.47L573.921 527.175C574.157 525.408 574.275 523.876 574.275 522.58C574.275 516.926 572.036 514.687 569.327 514.687C565.675 514.687 560.609 518.811 559.314 524.819L559.196 525.525C559.078 525.879 559.078 526.114 559.078 526.468V526.586V526.939V527.057V527.292V527.41V527.528C559.078 529.295 559.314 530.826 560.374 531.651C558.136 533.889 554.719 535.067 551.067 535.067C546.237 535.067 541.643 532.829 541.643 527.292C541.643 526.468 541.643 525.879 541.761 525.525C543.292 515.512 556.722 508.915 569.209 508.915H570.151C581.696 509.269 592.887 513.509 592.887 525.997C592.887 527.175 592.77 528.47 592.534 529.884L587.586 561.102V561.573C587.586 563.34 588.647 564.165 590.06 564.165C591.827 564.165 594.065 563.222 595.361 561.455ZM563.554 559.335C565.557 558.275 567.913 556.39 569.798 553.445L572.743 534.361C567.442 537.541 560.609 541.782 556.368 546.848C554.366 549.204 553.306 551.442 553.07 553.445C552.952 553.68 552.952 553.916 552.952 554.152V554.623V554.741V554.858V554.976C552.952 558.392 554.955 560.748 558.607 560.748C560.138 560.748 561.787 560.277 563.554 559.335ZM657.684 519.282C657.566 519.635 657.566 519.871 657.566 520.224C657.566 520.342 657.684 520.695 657.684 520.813C657.684 521.167 657.566 521.402 657.448 521.756C656.506 528.706 649.791 533.3 643.43 533.3C641.663 533.3 640.013 532.947 638.364 532.24C639.66 530.826 640.367 529.295 640.72 527.528C640.72 527.175 640.838 526.703 640.838 526.35C640.838 523.169 639.071 520.813 636.244 520.813C634.477 520.813 632.356 521.638 630.118 523.876C628.115 525.643 626.584 527.528 625.288 529.295L620.222 561.691C620.105 562.044 620.105 562.28 620.105 562.516V562.633V562.987V563.105V563.222V563.34C620.105 566.639 621.754 568.523 623.521 568.523L623.167 570.644H595.366L595.719 568.523C597.722 568.523 600.314 565.696 601.138 561.102L607.146 523.169C607.264 522.345 607.382 521.756 607.382 521.167C607.382 517.868 605.733 515.866 603.966 515.866L604.319 513.745H606.086C613.154 513.745 621.518 511.507 626.819 508.797L628.351 510.093L626.584 521.52C631.649 513.627 640.131 509.269 646.728 509.269C652.736 509.269 657.213 512.214 657.684 519.282ZM710.004 510.093H727.91L727.557 512.331C722.255 512.331 718.486 519.753 715.658 524.819C715.305 525.29 715.187 525.643 715.069 525.997L685.265 580.304C681.496 587.019 675.252 602.333 665.474 602.333C660.291 602.333 657.346 598.21 657.346 593.38C657.346 592.555 657.346 591.966 657.464 591.613C658.053 588.079 660.055 584.898 663.236 581.953C664.532 584.663 666.652 586.076 669.597 586.076C673.485 586.076 677.844 583.484 680.318 578.89L684.912 570.644H680.553L666.888 520.46C665.003 513.156 663 512.214 660.644 512.214L660.998 510.093H689.035L688.682 512.331C686.915 512.449 686.09 512.92 685.972 513.863V514.452C685.972 515.512 686.443 517.044 686.915 518.811L695.514 550.853L710.357 523.876C711.771 521.284 712.596 519.164 712.831 517.397C712.949 517.044 712.949 516.455 712.949 515.866C712.949 513.509 711.889 512.331 709.651 512.331L710.004 510.093Z" fill="#F0F0F0"/>
<path d="M847.823 204.863C848.889 193.674 849.688 182.752 850.221 171.83C850.753 166.236 851.02 160.908 851.286 155.314C851.553 152.118 851.553 148.921 851.553 145.991L872.864 157.712L878.458 160.908L889.646 166.769L889.913 166.503C886.45 163.839 883.253 161.175 880.056 158.511C878.458 157.179 876.593 155.847 874.995 154.782L870.2 150.786C864.606 146.523 859.278 142.261 853.684 138.265C855.548 136.401 857.413 134.536 859.278 132.405L867.27 122.815C872.597 116.421 878.191 110.028 883.519 103.368H883.253C876.593 108.43 870.2 114.024 863.806 119.352C860.61 122.016 857.413 124.68 854.216 127.61L851.553 130.007C851.286 122.016 850.753 114.024 850.221 105.766L849.688 97.7742C849.421 94.8439 849.421 92.18 849.155 89.5161C848.889 83.922 848.356 78.3278 847.823 73H847.557C847.29 78.3278 846.758 83.922 846.491 89.5161C846.225 92.18 845.958 94.8439 845.958 97.7742L845.426 105.766C844.893 114.557 844.36 123.081 844.094 131.872L839.299 128.942L828.11 122.815C820.918 118.819 813.459 114.823 806 111.094C812.393 116.421 818.787 121.749 825.446 127.077C828.909 129.475 832.106 132.138 835.303 134.802C837.434 136.401 839.565 137.999 841.696 139.331C837.168 144.392 832.905 149.72 828.377 155.048L824.114 159.843L812.127 174.228L812.393 174.494L821.983 166.503L827.045 162.507L831.84 158.245L844.094 147.855C844.094 150.253 844.094 152.917 844.36 155.314C844.626 160.908 844.893 166.236 845.426 171.83C845.958 182.752 846.758 193.674 847.823 204.863Z" fill="white"/>
<path d="M55.9578 342.994C56.6447 335.783 57.1598 328.743 57.5032 321.703C57.8466 318.097 58.0183 314.663 58.19 311.057C58.3617 308.997 58.3617 306.936 58.3617 305.047L72.0982 312.603L75.704 314.663L82.9157 318.441L83.0874 318.269C80.8552 316.552 78.7947 314.835 76.7343 313.118C75.704 312.259 74.5021 311.401 73.4718 310.714L70.3811 308.138C66.7753 305.391 63.3412 302.644 59.7354 300.068C60.9373 298.866 62.1393 297.664 63.3412 296.29L68.4924 290.109C71.9265 285.988 75.5323 281.867 78.9664 277.574H78.7947C74.5021 280.837 70.3811 284.443 66.2602 287.877C64.1997 289.594 62.1393 291.311 60.0788 293.2L58.3617 294.745C58.19 289.594 57.8466 284.443 57.5032 279.12L57.1598 273.969C56.9881 272.08 56.9881 270.363 56.8164 268.646C56.6447 265.04 56.3013 261.434 55.9578 258H55.7861C55.6144 261.434 55.271 265.04 55.0993 268.646C54.9276 270.363 54.7559 272.08 54.7559 273.969L54.4125 279.12C54.0691 284.786 53.7257 290.281 53.554 295.947L50.4632 294.058L43.2516 290.109C38.6155 287.533 33.8078 284.958 29 282.554C33.1209 285.988 37.2419 289.422 41.5345 292.856C43.7667 294.402 45.8272 296.119 47.8877 297.836C49.2613 298.866 50.635 299.896 52.0086 300.755C49.0896 304.017 46.3423 307.451 43.4233 310.885L40.676 313.976L32.9492 323.248L33.1209 323.42L39.3024 318.269L42.5648 315.693L45.6555 312.946L53.554 306.249C53.554 307.795 53.554 309.512 53.7257 311.057C53.8974 314.663 54.0691 318.097 54.4125 321.703C54.7559 328.743 55.271 335.783 55.9578 342.994Z" fill="white"/>
</svg>
