<svg width="1010" height="863" viewBox="0 0 1010 863" fill="none" xmlns="http://www.w3.org/2000/svg">
<path d="M128.274 237.904L144.532 356.664C145.994 368.754 148.734 369.533 152.935 368.407L152.387 372.147L104.161 385.07L104.709 381.14C108.18 380.021 109.276 378.593 109.824 376.366V375.609C109.824 373.907 109.641 371.876 109.093 369.186L104.709 337.075L70.3662 346.278L55.3868 383.576C55.3868 383.765 55.3868 383.765 55.2041 383.814V384.004C55.0215 384.242 55.0215 384.242 55.0215 384.431L54.8388 384.669V384.858C54.8388 385.047 54.8388 385.047 54.6561 385.096V385.285L54.4734 385.523V385.712V385.901L54.2908 386.139C54.1081 386.378 54.1081 386.567 54.1081 386.756L53.9254 386.994C53.7427 387.232 53.7427 387.61 53.5601 387.848L53.3774 388.086V388.275C52.8294 389.746 52.464 390.979 52.2813 391.973V392.73C52.2813 394.243 53.7427 394.608 56.4829 394.062L55.9348 397.992L31.091 404.649L31.639 400.908C36.0232 399.734 38.946 397.438 44.7916 383.389L94.114 261.619C93.2006 259.783 91.7392 259.608 88.9991 259.774L89.5471 256.034C99.0462 253.489 118.592 242.767 125.717 236.319L128.274 237.904ZM74.3851 336.312L103.43 328.529C101.421 312.425 99.2289 296.938 97.0368 280.882C89.5471 299.532 82.2401 317.565 74.3851 336.312ZM260.132 205.598L241.316 333.189C241.133 333.806 241.133 334.751 241.133 336.075C241.133 341.938 243.874 344.419 246.614 343.684L246.066 347.235L209.348 357.074L211.54 341.357C205.146 351.959 196.926 360.402 184.321 363.78C165.14 368.919 156.372 354.437 156.372 335.336C156.372 332.121 156.555 328.857 157.103 325.117C160.574 299.223 178.841 268.23 207.338 260.594L208.252 260.349C215.376 258.44 219.943 259.864 223.414 262.149L227.433 235.352C227.615 234.736 227.615 233.79 227.615 232.467C227.615 226.604 224.875 224.312 222.135 225.046L222.683 221.495C235.105 218.167 248.806 211.092 257.574 204.203L260.132 205.598ZM192.359 352.927L193.455 352.633C204.416 349.696 214.645 320.856 218.116 297.421C218.847 292.308 219.212 287.482 219.212 283.133C219.212 272.542 216.838 265.992 211.175 267.509C199.666 270.593 189.436 298.865 185.965 322.3C185.235 327.413 184.869 332.05 184.869 336.4C184.869 346.801 187.062 353.59 192.359 352.927ZM335.744 225.999L363.693 218.51L363.145 222.25C355.29 224.355 349.627 237.219 345.243 246.337L305.785 331.234L292.084 334.905L270.894 260.018C267.971 249.454 264.866 248.395 261.212 249.374L261.76 245.823L305.237 234.173L304.689 237.913C301.949 238.837 300.67 239.936 300.487 241.498V242.443C300.487 244.145 301.218 246.408 301.949 249.049L314.736 294.983L336.474 247.93C338.666 242.993 339.58 239.344 340.128 236.36C340.31 235.744 340.31 234.988 340.31 234.042C340.31 230.26 338.666 228.809 335.196 229.739L335.744 225.999ZM414.036 284.829C424.083 280.813 431.572 272.754 436.505 265.192L439.61 265.494C429.928 286.055 412.209 304.609 390.471 310.433C366.54 316.846 350.099 302.528 350.099 279.077C350.099 276.43 350.282 273.733 350.647 270.987C354.483 242.915 379.51 212.948 405.815 205.899C429.38 199.585 444.542 213.867 444.542 237.318C444.542 240.155 444.36 243.04 443.812 246.024L381.702 262.666C382.25 279.162 390.105 291.619 409.469 286.431C410.93 286.039 412.392 285.459 414.036 284.829ZM381.702 256.236L414.949 247.328C414.401 223.835 407.825 215.384 399.97 217.489C392.663 219.447 385.173 230.721 382.433 248.097C381.885 250.703 381.885 253.35 381.702 256.236ZM535.395 256.282V257.417C535.395 263.28 537.952 265.62 540.692 264.886L540.144 268.437L496.85 280.038L497.398 276.487C500.504 275.655 504.705 269.99 505.984 262.272L514.022 207.921C514.387 205.743 514.57 203.803 514.57 202.101C514.57 194.725 511.464 192.909 507.628 193.937C500.139 195.944 488.995 209.521 487.534 218.99L480.044 270.168C479.862 270.784 479.862 271.73 479.862 272.675C479.862 277.782 482.419 280.501 485.159 279.766L484.611 283.317L441.5 294.869L442.048 291.318C445.153 290.486 449.172 284.87 450.451 277.152L459.767 213.759C459.95 212.386 460.133 211.392 460.133 210.446C460.133 205.151 457.575 202.621 454.835 203.355L455.383 199.804L458.123 199.07C469.084 196.133 482.054 189.065 490.274 182.512L492.649 183.956L490.091 200.906C499.408 187.819 511.647 179.055 521.877 176.314C534.116 173.034 544.346 177.858 544.346 193.744C544.346 195.824 544.163 198.143 543.798 200.51C541.058 219.211 538.135 238.149 535.395 256.282ZM610.502 157.862L596.07 161.729L584.379 242.401C584.379 242.968 584.196 243.206 584.196 243.773C584.196 246.232 585.84 246.926 587.85 246.388C590.59 245.654 594.061 243.211 596.07 239.835L598.262 241.707C596.253 244.704 593.695 247.847 591.321 250.564C586.936 255.521 579.629 259.559 572.505 261.468C563.006 264.014 554.603 262.483 554.603 253.594V253.405V253.027V252.838V252.649V252.459V252.27C554.603 251.892 554.603 251.514 554.786 251.087L566.477 169.659L557.526 172.057L558.439 166.328C571.592 161.858 588.946 138.674 599.176 123.83L601.551 124.706L596.984 156L611.415 152.133L610.502 157.862ZM703.211 126.402C727.141 119.989 743.947 133.642 743.947 157.282C743.947 159.929 743.765 162.626 743.399 165.372C739.563 193.633 714.354 222.704 688.049 229.752C664.118 236.164 647.312 222.323 647.312 198.683C647.312 196.224 647.495 193.717 647.86 190.971C651.696 162.521 676.906 133.45 703.211 126.402ZM702.115 134.449C693.529 136.75 682.751 159.117 679.28 183.876C678.367 189.983 678.002 195.566 678.002 200.672C678.002 216.558 682.203 226.59 688.779 224.828C697.913 222.381 707.595 200.496 711.431 175.261C712.345 169.154 712.71 163.193 712.71 158.087C712.71 142.39 708.874 132.638 702.115 134.449ZM802.767 56.9845L804.412 56.544C819.391 53.4759 828.342 60.1552 828.342 69.8003V70.3676V70.5567V70.7459V70.935C828.342 71.5023 828.342 71.8806 828.159 72.3078C827.246 78.7934 820.487 89.304 811.719 92.2209L810.988 91.471C810.988 90.9037 810.805 91.1418 810.805 90.5744C809.892 82.687 807.152 66.7787 802.402 68.0513C799.662 68.7856 796.739 74.1076 795.278 83.5769L792.355 103.65L809.344 99.0981L808.43 104.827L791.442 109.379L779.75 189.862C779.568 190.478 779.568 190.857 779.568 191.235V191.424V191.991V192.18V192.369V192.559C779.568 197.854 782.125 200.195 784.865 199.46L784.317 203.011L741.206 214.563L741.754 211.012C744.859 210.18 748.878 204.564 750.157 196.846L761.848 117.309L752.897 119.707L753.81 113.978L762.762 111.58L764.406 100.927C767.876 76.7351 786.692 61.2919 802.767 56.9845ZM59.9537 412.614L107.632 399.839L107.084 403.39C103.613 404.32 98.8636 410.32 97.5848 418.417L80.9614 530.669C76.5772 560.023 65.0686 574.643 35.6579 590.088L28.5335 593.699L27.2548 589.692L30.3603 586.969C42.5995 577.07 46.4357 552.024 48.4452 539.382L65.0686 427.13C65.2513 426.513 65.2513 425.568 65.2513 424.244C65.2513 418.192 62.3285 415.382 59.4057 416.165L59.9537 412.614ZM189.426 500.661L191.436 502.581C189.426 505.578 186.869 508.722 184.494 511.438C180.11 516.395 172.803 520.434 165.678 522.342C156.179 524.888 147.594 523.217 147.594 514.328C147.594 513.383 147.594 512.626 147.776 512.01L148.507 507.275C143.392 515.265 136.816 522.511 129.326 528.112C124.211 531.752 119.279 534.208 114.347 535.529C102.655 538.662 93.1564 534.399 93.1564 521.728C93.1564 520.404 93.3391 519.031 93.5217 517.659C94.9831 506.109 104.117 491.558 120.558 482.236C134.258 474.593 151.064 469.522 155.814 456.714L156.179 454.535C156.545 451.601 156.727 449.093 156.727 447.013C156.727 437.935 153.257 435.272 149.055 436.398C143.392 437.915 135.537 446.639 133.528 456.822L133.345 458.006C133.162 458.622 133.162 459.001 133.162 459.568V459.757V460.324V460.514V460.892V461.081V461.27C133.162 464.107 133.528 466.468 135.172 467.351C131.701 471.874 126.403 475.185 120.74 476.702C113.251 478.709 106.126 477.025 106.126 468.136C106.126 466.812 106.126 465.867 106.309 465.25C108.684 448.539 129.509 432.368 148.872 427.18L150.334 426.788C168.236 422.559 185.59 424.717 185.59 444.764C185.59 446.655 185.407 448.784 185.042 451.151L177.37 503.324V504.08C177.37 506.917 179.014 507.8 181.206 507.213C183.946 506.479 187.417 504.036 189.426 500.661ZM140.104 510.472C143.209 507.938 146.863 503.933 149.786 498.422L154.353 466.561C146.132 473.87 135.537 483.517 128.961 493.411C125.855 498.026 124.211 502.06 123.846 505.373C123.663 505.8 123.663 506.178 123.663 506.556V507.313V507.502V507.691V507.88C123.663 513.365 126.769 516.315 132.432 514.798C134.806 514.161 137.364 512.719 140.104 510.472ZM263.851 398.263L291.8 390.774L291.252 394.514C283.397 396.618 277.734 409.483 273.35 418.601L233.892 503.497L220.191 507.168L199.001 432.281C196.078 421.717 192.973 420.658 189.319 421.637L189.867 418.086L233.344 406.437L232.796 410.177C230.056 411.1 228.777 412.199 228.594 413.761V414.707C228.594 416.409 229.325 418.672 230.056 421.313L242.843 467.247L264.582 420.194C266.774 415.257 267.687 411.608 268.235 408.624C268.418 408.008 268.418 407.251 268.418 406.306C268.418 402.523 266.774 401.073 263.303 402.003L263.851 398.263ZM371.923 451.761L373.933 453.681C371.923 456.678 369.366 459.822 366.991 462.538C362.607 467.495 355.3 471.534 348.175 473.443C338.676 475.988 330.091 474.317 330.091 465.428C330.091 464.483 330.091 463.726 330.273 463.11L331.004 458.375C325.889 466.365 319.313 473.612 311.823 479.212C306.708 482.852 301.776 485.308 296.844 486.63C285.152 489.762 275.653 485.499 275.653 472.828C275.653 471.504 275.836 470.132 276.019 468.759C277.48 457.209 286.614 442.658 303.055 433.336C316.755 425.693 333.561 420.623 338.311 407.814L338.676 405.635C339.042 402.701 339.224 400.193 339.224 398.113C339.224 389.035 335.754 386.372 331.552 387.498C325.889 389.015 318.034 397.739 316.025 407.923L315.842 409.106C315.659 409.722 315.659 410.101 315.659 410.668V410.857V411.425V411.614V411.992V412.181V412.37C315.659 415.207 316.025 417.568 317.669 418.451C314.198 422.974 308.9 426.285 303.237 427.802C295.748 429.809 288.623 428.125 288.623 419.236C288.623 417.912 288.623 416.967 288.806 416.35C291.181 399.639 312.006 383.468 331.369 378.28L332.831 377.888C350.733 373.659 368.087 375.817 368.087 395.864C368.087 397.755 367.904 399.884 367.539 402.251L359.867 454.424V455.18C359.867 458.017 361.511 458.9 363.703 458.313C366.443 457.579 369.914 455.136 371.923 451.761ZM322.601 461.572C325.706 459.038 329.36 455.033 332.283 449.522L336.85 417.661C328.629 424.97 318.034 434.617 311.458 444.512C308.352 449.126 306.708 453.16 306.343 456.473C306.16 456.9 306.16 457.278 306.16 457.656V458.413V458.602V458.791V458.98C306.16 464.465 309.266 467.415 314.929 465.898C317.303 465.261 319.861 463.82 322.601 461.572ZM479.161 379.907C481.718 384.328 482.997 389.092 482.997 394.009C482.997 395.522 482.814 397.273 482.632 398.835C479.161 422.081 452.308 448.945 420.157 457.559L418.878 457.902L418.695 457.951L418.513 458L418.33 458.049L418.147 458.098L417.965 458.147L417.782 458.196C416.869 458.44 416.138 458.636 415.224 458.692C399.149 462.054 382.891 460.547 375.219 456.551C378.141 445.367 381.43 428.789 383.804 415.481L387.823 413.648C391.294 430.873 397.505 443.015 408.465 446.886C414.859 449.145 420.522 449.329 426.185 447.812C437.328 444.826 445.914 435.528 447.375 426.059C447.558 425.443 447.558 424.686 447.558 423.741C447.558 417.121 443.905 411.103 435.319 406.784C419.243 398.988 392.207 392.237 390.198 371.784C390.015 371.265 390.015 370.509 390.015 369.941V369.752V369.185V368.996V368.807V368.617V368.428V368.05C390.015 365.781 390.198 363.462 390.563 361.284C394.399 334.725 422.349 313.43 447.741 306.627C449.202 306.235 450.481 306.082 451.942 305.69C468.748 302.132 480.805 304.575 489.025 308.235C486.103 319.609 483.362 332.258 481.17 344.193L476.786 345.935C474.046 332.485 469.844 323.587 464.181 318.864C458.519 314.14 451.577 313.542 445.183 315.255C434.953 317.996 426.185 326.965 424.724 336.434C424.541 336.861 424.541 337.239 424.541 337.618V337.807V337.996V338.374V338.563V338.752V338.941C424.541 344.237 426.916 349.841 433.309 353.991C447.01 363.558 471.306 366.882 479.161 379.907ZM580.958 341.662V342.986C580.775 343.413 580.775 343.791 580.775 344.169V345.304C579.314 356.854 569.815 365.072 561.229 367.373C554.653 369.135 548.807 367.676 545.884 362.596C549.721 358.542 553.009 352.366 554.47 346.49C555.018 344.641 555.384 343.03 555.566 341.657C555.749 340.284 555.932 339.101 555.932 337.777C555.932 329.645 551.365 326.33 545.519 327.896C539.125 329.609 531.818 336.484 526.156 350.105C523.781 355.848 522.319 361.535 521.406 367.642C520.858 370.815 520.675 373.89 520.675 376.916C520.675 394.315 528.713 407.48 547.894 402.34L548.259 402.242L549.903 401.802L550.086 401.753L550.269 401.704L550.634 401.606C551.547 401.361 552.461 400.927 553.374 400.493C561.96 396.869 569.815 390.415 575.113 381.241L578.401 381.495C568.354 402.721 549.355 420.86 529.444 426.196C505.513 432.608 489.072 418.669 489.072 394.84C489.072 392.192 489.255 389.495 489.62 386.75C490.716 378.891 493.274 371.209 497.11 363.561C508.801 340.76 527.069 326.977 544.788 321.662L545.884 321.368C565.431 316.131 580.958 325.208 580.958 341.662ZM675.503 302.712C675.32 303.328 675.32 303.707 675.32 304.274C675.32 304.463 675.503 304.981 675.503 305.171C675.503 305.738 675.32 306.165 675.137 306.781C673.676 318.331 663.263 328.497 653.399 331.14C650.659 331.874 648.101 331.992 645.544 331.543C647.553 328.735 648.649 325.983 649.197 322.999C649.197 322.432 649.38 321.626 649.38 321.059C649.38 315.953 646.64 312.904 642.256 314.079C639.516 314.813 636.227 317.018 632.757 321.541C629.651 325.21 627.276 328.873 625.267 332.248L617.412 386.36C617.229 386.977 617.229 387.355 617.229 387.733V387.922V388.49V388.679V388.868V389.057C617.229 394.352 619.787 396.693 622.527 395.959L621.979 399.51L578.867 411.061L579.415 407.51C582.521 406.678 586.54 401.063 587.818 393.344L597.135 329.952C597.318 328.579 597.5 327.584 597.5 326.639C597.5 321.343 594.943 318.814 592.203 319.548L592.751 315.997L595.491 315.263C606.451 312.326 619.421 305.257 627.642 298.705L630.016 300.149L627.276 319.228C635.131 304.452 648.284 293.93 658.514 291.189C667.83 288.693 674.772 291.561 675.503 302.712ZM706.209 270.277C697.623 272.578 691.412 268.19 691.412 260.058V259.869V259.49V259.301V259.112V258.923V258.734C691.412 258.356 691.412 257.977 691.595 257.55C693.057 247.892 701.642 238.027 711.324 235.432C719.545 233.23 725.573 237.666 725.573 245.798C725.573 246.933 725.573 247.879 725.39 248.495C723.929 257.964 715.343 267.83 706.209 270.277ZM720.458 275.915L707.853 362.127C707.671 362.743 707.671 363.121 707.671 363.5V363.689V364.256V364.445V364.634V364.823C707.671 370.119 710.228 372.459 712.968 371.725L712.42 375.276L669.309 386.828L669.857 383.277C672.962 382.445 676.981 376.829 678.26 369.111L687.576 305.718C687.759 304.345 687.942 303.351 687.942 302.405C687.942 297.11 685.384 294.58 682.644 295.314L683.192 291.763C695.066 288.581 709.315 281.359 718.083 274.471L720.458 275.915ZM793.608 256.315C813.337 251.596 822.288 265.461 822.288 284.752C822.288 287.967 822.105 291.041 821.557 294.782C817.721 320.962 799.819 351.858 770.956 359.591L770.225 359.787C763.101 361.507 758.534 360.272 755.063 357.987L748.852 399.934C748.67 400.55 748.67 400.928 748.67 401.496V401.874V402.063V402.252V402.441V402.63C748.67 408.115 751.227 410.266 753.967 409.532L753.419 413.083L710.125 424.684L710.673 421.133C713.779 420.301 717.98 414.825 719.259 407.107L735.883 292.774C736.065 291.401 736.248 290.407 736.248 289.461C736.248 284.166 733.69 281.636 730.95 282.37L731.498 278.819C744.651 275.295 757.621 268.416 766.572 261.478L768.947 262.922L766.572 278.688C772.966 268.087 781.369 259.594 793.608 256.315ZM766.937 352.725C778.446 349.642 789.041 321.082 792.512 297.836C793.243 292.723 793.608 287.897 793.608 283.548C793.608 273.146 791.599 266.309 785.936 267.07L785.022 267.315C774.244 270.202 763.649 299.329 760.178 322.764C759.448 327.877 759.082 332.514 759.082 336.864C759.082 347.265 761.274 354.054 766.937 352.725ZM882.909 237.871L868.478 241.738L856.787 322.409C856.787 322.977 856.604 323.215 856.604 323.782C856.604 326.241 858.248 326.935 860.257 326.396C862.998 325.662 866.468 323.219 868.478 319.844L870.67 321.715C868.66 324.712 866.103 327.856 863.728 330.573C859.344 335.53 852.037 339.568 844.913 341.477C835.414 344.022 827.01 342.491 827.01 333.603V333.414V333.035V332.846V332.657V332.468V332.279C827.01 331.901 827.01 331.523 827.193 331.095L838.884 249.667L829.933 252.066L830.847 246.336C843.999 241.867 861.353 218.683 871.583 203.838L873.958 204.715L869.391 236.008L883.822 232.142L882.909 237.871Z" fill="#698662"/>
<path d="M156.394 217.851C157.32 208.129 158.015 198.638 158.478 189.148C158.941 184.287 159.172 179.658 159.404 174.797C159.635 172.019 159.635 169.241 159.635 166.695L178.153 176.88L183.014 179.658L192.736 184.75L192.967 184.519C189.958 182.204 187.18 179.889 184.403 177.574C183.014 176.417 181.394 175.26 180.005 174.334L175.838 170.862C170.977 167.158 166.348 163.455 161.487 159.982C163.107 158.362 164.727 156.742 166.348 154.89L173.292 146.557C177.921 141.002 182.782 135.446 187.412 129.66H187.18C181.394 134.057 175.838 138.918 170.283 143.548C167.505 145.863 164.727 148.177 161.95 150.724L159.635 152.807C159.404 145.863 158.941 138.918 158.478 131.743L158.015 124.799C157.783 122.252 157.783 119.938 157.552 117.623C157.32 112.762 156.857 107.901 156.394 103.272H156.163C155.932 107.901 155.469 112.762 155.237 117.623C155.006 119.938 154.774 122.252 154.774 124.799L154.311 131.743C153.848 139.381 153.385 146.788 153.154 154.427L148.987 151.881L139.265 146.557C133.016 143.085 126.534 139.613 120.053 136.372C125.609 141.002 131.164 145.631 136.951 150.261C139.96 152.344 142.738 154.659 145.515 156.973C147.367 158.362 149.219 159.751 151.071 160.908C147.136 165.306 143.432 169.936 139.497 174.565L135.793 178.732L125.377 191.231L125.609 191.463L133.942 184.519L138.34 181.046L142.506 177.343L153.154 168.315C153.154 170.399 153.154 172.713 153.385 174.797C153.617 179.658 153.848 184.287 154.311 189.148C154.774 198.638 155.469 208.129 156.394 217.851Z" fill="#536A4E"/>
<path d="M923.529 180.781C924.99 165.442 926.086 150.468 926.816 135.494C927.547 127.825 927.912 120.521 928.277 112.851C928.642 108.469 928.642 104.086 928.642 100.069L957.859 116.138L965.529 120.521L980.868 128.555L981.233 128.19C976.485 124.538 972.103 120.886 967.72 117.234C965.529 115.408 962.972 113.582 960.781 112.121L954.207 106.643C946.538 100.799 939.234 94.9557 931.564 89.4775C934.121 86.921 936.677 84.3645 939.234 81.4428L950.19 68.2951C957.494 59.5299 965.164 50.7648 972.468 41.6344H972.103C962.972 48.5735 954.207 56.243 945.442 63.5473C941.06 67.1994 936.677 70.8516 932.294 74.8689L928.642 78.1558C928.277 67.1994 927.547 56.243 926.816 44.9213L926.086 33.9649C925.721 29.9476 925.721 26.2954 925.355 22.6433C924.99 14.9738 924.26 7.30429 923.529 0H923.164C922.799 7.30429 922.068 14.9738 921.703 22.6433C921.338 26.2954 920.973 29.9476 920.973 33.9649L920.242 44.9213C919.512 56.9734 918.782 68.6603 918.416 80.7123L911.842 76.695L896.503 68.2951C886.643 62.8168 876.417 57.3386 866.191 52.2256C874.956 59.5299 883.721 66.8342 892.851 74.1385C897.599 77.4254 901.982 81.0776 906.364 84.7297C909.286 86.921 912.208 89.1123 915.129 90.9383C908.921 97.8774 903.077 105.182 896.869 112.486L891.025 119.06L874.591 138.781L874.956 139.147L888.104 128.19L895.043 122.712L901.616 116.869L918.416 102.625C918.416 105.912 918.416 109.564 918.782 112.851C919.147 120.521 919.512 127.825 920.242 135.494C920.973 150.468 922.068 165.442 923.529 180.781Z" fill="#536A4E"/>
<path d="M309.385 585.183L307.773 585.615C307.678 585.15 307.567 584.607 307.441 583.986C307.315 583.365 307.204 582.708 307.109 582.013C307.014 581.319 306.935 580.637 306.872 579.966C306.809 579.263 306.777 578.617 306.777 578.028C307.378 577.442 308.041 576.839 308.768 576.218C309.495 575.566 310.286 574.961 311.139 574.405C312.024 573.808 312.988 573.272 314.031 572.796C315.106 572.279 316.26 571.855 317.492 571.525C319.231 571.059 320.685 570.882 321.854 570.994C323.024 571.106 323.956 571.413 324.652 571.914C325.379 572.406 325.884 573.072 326.169 573.912C326.485 574.711 326.643 575.601 326.643 576.583C326.643 578.645 326.074 580.793 324.936 583.029C323.83 585.223 322.423 587.4 320.716 589.559C319.041 591.709 317.208 593.787 315.217 595.794C313.257 597.758 311.439 599.538 309.764 601.132L306.967 603.6V603.796L309.859 602.727L318.014 600.542L321.475 594.117L323.087 593.685C323.055 594.479 322.992 595.428 322.897 596.533C322.803 597.606 322.692 598.699 322.565 599.813C322.439 600.894 322.297 601.93 322.139 602.921C321.981 603.913 321.838 604.72 321.712 605.343L299.997 611.161L300.661 607.842C301.767 606.695 303.016 605.378 304.407 603.893C305.797 602.408 307.22 600.832 308.674 599.167C310.128 597.468 311.55 595.713 312.941 593.9C314.332 592.088 315.564 590.285 316.639 588.491C317.714 586.698 318.583 584.944 319.247 583.228C319.91 581.512 320.242 579.918 320.242 578.445C320.242 577.235 319.879 576.334 319.152 575.743C318.456 575.112 317.35 574.999 315.833 575.405C314.79 575.685 313.747 576.112 312.704 576.686L309.385 585.183ZM350.898 597.522L336.247 601.448L336.674 599.223C338.286 598.235 339.819 597.431 341.273 596.813L342.411 590.961L328.377 594.722L328.804 592.398L351.893 562.307L354.454 561.621L349.76 585.801L355.592 584.239L354.928 587.607L349.096 589.17L347.958 595.021C349.128 594.97 350.25 595.062 351.324 595.297L350.898 597.522ZM345.208 576.566L346.536 572.774L346.394 572.812L343.833 576.934L335.157 588.438L332.928 590.655L336.39 589.384L343.075 587.593L345.208 576.566ZM399.69 574.141L401.681 573.607C401.681 574.131 401.665 574.773 401.634 575.534C401.602 576.263 401.539 577.065 401.444 577.941C401.349 578.785 401.239 579.632 401.112 580.484C400.986 581.336 400.844 582.111 400.685 582.807C400.022 583.345 399.279 583.855 398.457 584.337C397.667 584.778 396.861 585.19 396.039 585.574C395.217 585.958 394.427 586.284 393.668 586.553C392.91 586.822 392.246 587.032 391.677 587.185C388.769 587.964 386.32 588.211 384.328 587.927C382.337 587.642 380.709 587.015 379.445 586.045C378.18 585.074 377.264 583.848 376.695 582.364C376.157 580.872 375.889 579.291 375.889 577.622C375.889 574.383 376.347 571.315 377.264 568.418C378.18 565.49 379.508 562.843 381.246 560.479C383.016 558.075 385.166 556.01 387.694 554.285C390.255 552.552 393.147 551.253 396.371 550.389C398.457 549.83 400.322 549.494 401.966 549.381C403.641 549.227 405 549.272 406.043 549.516C405.948 550.065 405.79 550.778 405.569 551.655C405.348 552.533 405.095 553.468 404.81 554.46C404.526 555.42 404.226 556.384 403.91 557.352C403.593 558.287 403.293 559.088 403.009 559.753L401.017 560.287L399.927 553.167C399.642 553.08 399.168 553.076 398.504 553.155C397.841 553.235 397.177 553.364 396.513 553.542C394.68 554.033 392.989 554.944 391.44 556.276C389.923 557.598 388.595 559.247 387.457 561.22C386.351 563.186 385.482 565.447 384.85 568.006C384.249 570.523 383.949 573.237 383.949 576.15C383.949 577.982 384.202 579.469 384.707 580.609C385.213 581.717 385.861 582.558 386.651 583.132C387.473 583.697 388.358 584.033 389.306 584.138C390.286 584.203 391.235 584.113 392.151 583.867C393.068 583.621 393.858 583.328 394.522 582.986C395.186 582.612 395.676 582.285 395.992 582.004L399.69 574.141ZM419.619 579.108L405.253 582.958L405.585 581.004C406.217 580.507 406.897 580.047 407.624 579.623C408.383 579.158 409.11 578.767 409.805 578.45L415.494 549.143C414.767 549.207 414.088 549.193 413.456 549.1C412.824 549.008 412.302 548.869 411.891 548.685L412.27 546.718L426.636 542.869L426.257 544.836C425.783 545.323 425.214 545.77 424.55 546.177C423.886 546.584 423.238 546.937 422.606 547.237L420.141 559.777L432.705 556.41L435.171 543.871C433.811 543.875 432.784 543.676 432.089 543.273L432.468 541.306L446.834 537.457L446.455 539.424C445.854 539.945 445.175 540.438 444.416 540.903C443.689 541.327 442.978 541.681 442.282 541.965L436.593 571.272C437.288 571.216 437.936 571.239 438.537 571.34C439.169 571.432 439.706 571.566 440.149 571.742L439.817 573.697L425.451 577.546L425.783 575.592C426.32 575.153 426.905 574.718 427.537 574.287C428.169 573.856 428.817 573.486 429.481 573.177L432.041 559.778L419.477 563.145L416.917 576.544C417.991 576.485 419.003 576.688 419.951 577.154L419.619 579.108ZM454.781 569.687L442.976 572.85L443.308 570.896C443.877 570.416 444.477 569.977 445.109 569.579C445.742 569.148 446.374 568.782 447.006 568.482L465.781 531.791L469.242 530.864L474.6 561.088C475.2 561.058 475.785 561.097 476.354 561.207C476.955 561.308 477.46 561.45 477.871 561.635L477.492 563.602L462.889 567.514L463.221 565.56C463.885 565.055 464.58 564.591 465.307 564.167C466.066 563.702 466.777 563.315 467.441 563.006L466.303 555.507L455.825 558.314L451.32 567.326C451.984 567.246 452.648 567.248 453.312 567.332C453.975 567.383 454.576 567.517 455.113 567.733L454.781 569.687ZM457.437 554.692L465.923 552.418L464.596 543.398V539.177L464.501 539.202L462.699 544.004L457.437 554.692ZM487.621 526.528L503.172 522.361L502.793 524.328C502.097 524.874 501.307 525.397 500.422 525.896C499.569 526.354 498.747 526.737 497.957 527.047L492.267 556.452L501.418 554L506.349 543.893L508.34 543.359C508.34 544.112 508.293 545.008 508.198 546.048C508.103 547.088 507.977 548.185 507.818 549.34C507.66 550.495 507.471 551.642 507.25 552.781C507.06 553.912 506.854 554.916 506.633 555.793L480.604 562.768L480.936 560.814C481.757 560.201 482.516 559.687 483.211 559.271C483.907 558.856 484.555 558.519 485.155 558.259L490.845 528.953C490.149 529.008 489.486 529.006 488.854 528.947C488.221 528.887 487.684 528.736 487.242 528.495L487.621 526.528ZM517.355 518.561L532.907 514.394L532.527 516.361C531.832 516.907 531.042 517.43 530.157 517.928C529.303 518.386 528.481 518.77 527.691 519.08L522.002 548.485L531.152 546.033L536.083 535.925L538.075 535.392C538.075 536.144 538.027 537.041 537.932 538.08C537.838 539.12 537.711 540.218 537.553 541.373C537.395 542.528 537.205 543.675 536.984 544.814C536.794 545.944 536.589 546.948 536.368 547.826L510.338 554.8L510.67 552.846C511.492 552.233 512.251 551.719 512.946 551.304C513.641 550.888 514.289 550.551 514.89 550.292L520.579 520.986C519.884 521.041 519.22 521.039 518.588 520.979C517.956 520.92 517.419 520.769 516.976 520.528L517.355 518.561ZM572.029 503.911C571.713 505.468 571.318 507.096 570.844 508.794C570.369 510.491 569.848 512.104 569.279 513.63L567.288 514.164L566.292 508.639L557.426 511.014L554.96 523.701L560.792 522.138L563.637 517.596L565.107 517.203C564.949 518.848 564.664 520.708 564.253 522.782C563.874 524.847 563.431 526.798 562.926 528.635L561.408 529.041L560.128 525.507L554.297 527.069L551.736 540.517L560.934 538.053L564.727 530.803L566.719 530.269C566.719 530.858 566.687 531.554 566.624 532.356C566.592 533.15 566.529 533.985 566.434 534.861C566.371 535.729 566.276 536.605 566.15 537.49C566.023 538.374 565.881 539.198 565.723 539.96L540.073 546.833L540.405 544.879C541.037 544.415 541.701 543.959 542.396 543.511C543.123 543.054 543.866 542.659 544.625 542.325L550.314 513.018C549.682 513.057 549.05 513.046 548.418 512.986C547.785 512.894 547.216 512.752 546.711 512.56L547.09 510.593L572.029 503.911ZM600.313 496.332L612.024 493.194L611.645 495.161C610.918 495.912 610.175 496.569 609.416 497.133C608.658 497.663 607.915 498.124 607.188 498.515L600.835 531.141L596.994 532.17L585.236 510.287L584.098 506.813L583.956 506.851L583.529 510.892L579.31 532.491C579.879 532.502 580.511 532.611 581.206 532.817C581.933 532.982 582.518 533.202 582.96 533.476L582.628 535.43L570.965 538.555L571.297 536.601C572.719 535.304 574.189 534.256 575.706 533.456L581.206 505.182C580.669 505.097 580.084 504.96 579.452 504.769C578.851 504.57 578.377 504.353 578.029 504.119L578.361 502.214L588.413 499.521L597.943 517.387L599.365 521.227L599.555 521.176L600.266 516.764L603.585 499.481C602.889 499.405 602.21 499.276 601.546 499.094C600.914 498.871 600.377 498.606 599.934 498.299L600.313 496.332ZM638.854 518.205C638.064 518.842 637.163 519.476 636.151 520.107C635.172 520.697 634.16 521.246 633.117 521.755C632.106 522.255 631.126 522.697 630.178 523.082C629.229 523.467 628.407 523.753 627.712 523.939C625.563 524.515 623.587 524.766 621.786 524.693C619.984 524.619 618.435 524.183 617.139 523.385C615.843 522.587 614.832 521.418 614.105 519.879C613.409 518.331 613.062 516.379 613.062 514.023C613.062 510.783 613.52 507.715 614.437 504.819C615.385 501.914 616.728 499.28 618.467 496.916C620.237 494.512 622.402 492.442 624.962 490.709C627.522 488.976 630.415 487.678 633.639 486.814C634.682 486.534 635.709 486.308 636.72 486.135C637.763 485.921 638.743 485.773 639.66 485.691C640.608 485.568 641.462 485.519 642.22 485.545C642.979 485.538 643.595 485.602 644.069 485.737C643.975 486.253 643.816 486.934 643.595 487.778C643.374 488.59 643.121 489.476 642.837 490.436C642.552 491.395 642.252 492.359 641.936 493.328C641.62 494.296 641.304 495.182 640.988 495.987L639.044 496.508L637.953 489.339C637.511 489.294 636.878 489.349 636.057 489.504C635.266 489.617 634.524 489.767 633.828 489.953C631.711 490.521 629.846 491.561 628.234 493.072C626.653 494.543 625.326 496.322 624.251 498.41C623.208 500.489 622.418 502.779 621.88 505.279C621.375 507.77 621.122 510.309 621.122 512.894C621.122 514.596 621.311 516.001 621.691 517.11C622.07 518.219 622.576 519.082 623.208 519.698C623.872 520.305 624.63 520.675 625.484 520.806C626.369 520.929 627.317 520.855 628.328 520.584C629.245 520.338 630.193 519.953 631.173 519.429C632.185 518.896 632.975 518.373 633.544 517.861L635.44 508.125C634.65 508.271 633.907 508.306 633.212 508.231C632.517 508.155 631.9 508.01 631.363 507.794L631.742 505.827L644.686 502.359L644.306 504.326C643.959 504.713 643.516 505.11 642.979 505.516C642.473 505.88 641.841 506.246 641.082 506.613L638.854 518.205ZM677.068 475.766C676.751 477.323 676.356 478.951 675.882 480.648C675.408 482.346 674.887 483.959 674.318 485.485L672.326 486.019L671.331 480.494L662.465 482.869L659.999 495.556L665.831 493.993L668.676 489.451L670.145 489.058C669.987 490.703 669.703 492.563 669.292 494.636C668.913 496.702 668.47 498.653 667.964 500.49L666.447 500.896L665.167 497.362L659.335 498.924L656.775 512.372L665.973 509.908L669.766 502.658L671.757 502.124C671.757 502.713 671.726 503.409 671.663 504.211C671.631 505.005 671.568 505.84 671.473 506.716C671.41 507.584 671.315 508.46 671.188 509.345C671.062 510.229 670.92 511.053 670.762 511.815L645.112 518.688L645.444 516.734C646.076 516.27 646.739 515.814 647.435 515.366C648.162 514.909 648.905 514.514 649.663 514.18L655.353 484.873C654.721 484.912 654.088 484.901 653.456 484.841C652.824 484.749 652.255 484.607 651.749 484.415L652.129 482.448L677.068 475.766ZM683.779 504.253C684.095 504.495 684.664 504.67 685.486 504.777C686.308 504.884 687.177 504.815 688.094 504.569C689.074 504.307 689.99 503.979 690.844 503.587C691.697 503.162 692.424 502.673 693.025 502.119C693.657 501.557 694.147 500.919 694.495 500.204C694.842 499.456 695.016 498.624 695.016 497.708C695.016 496.53 694.716 495.612 694.115 494.955C693.515 494.265 692.772 493.695 691.887 493.245C691.002 492.795 690.022 492.387 688.947 492.02C687.904 491.613 686.94 491.102 686.055 490.488C685.17 489.875 684.427 489.076 683.827 488.091C683.226 487.107 682.926 485.78 682.926 484.111C682.926 482.377 683.258 480.766 683.922 479.28C684.585 477.793 685.502 476.451 686.672 475.254C687.841 474.057 689.232 473.03 690.844 472.173C692.456 471.283 694.226 470.579 696.154 470.063C698.082 469.546 699.836 469.223 701.417 469.094C703.029 468.924 704.435 468.973 705.636 469.24C705.478 469.937 705.273 470.744 705.02 471.663C704.767 472.582 704.483 473.509 704.167 474.444C703.882 475.338 703.582 476.204 703.266 477.042C702.981 477.838 702.729 478.511 702.507 479.061L700.563 479.582L699.757 473.073C699.315 472.93 698.714 472.895 697.956 472.967C697.229 473.031 696.47 473.169 695.68 473.38C694.858 473.601 694.084 473.906 693.357 474.297C692.661 474.647 692.045 475.091 691.508 475.627C691.002 476.123 690.591 476.707 690.275 477.381C689.959 478.055 689.801 478.801 689.801 479.619C689.801 480.764 690.101 481.682 690.702 482.372C691.334 483.053 692.092 483.635 692.977 484.118C693.894 484.559 694.89 484.996 695.964 485.428C697.039 485.827 698.019 486.35 698.904 486.996C699.821 487.602 700.579 488.396 701.18 489.381C701.812 490.357 702.128 491.646 702.128 493.25C702.128 496.719 700.879 499.72 698.382 502.254C695.917 504.747 692.377 506.612 687.762 507.849C686.751 508.12 685.723 508.33 684.68 508.478C683.669 508.618 682.705 508.697 681.788 508.713C680.871 508.73 680.065 508.7 679.37 508.625C678.675 508.549 678.169 508.407 677.853 508.197C678.042 507.361 678.28 506.479 678.564 505.552C678.849 504.592 679.149 503.645 679.465 502.709C679.781 501.741 680.097 500.838 680.413 500.001C680.761 499.122 681.077 498.351 681.361 497.685L683.305 497.164L683.779 504.253ZM294.328 654.391C295.75 654.207 297.015 654.342 298.121 654.799L297.789 656.753L283.139 660.678L283.471 658.724C284.04 658.277 284.624 657.859 285.225 657.469C285.857 657.038 286.521 656.647 287.216 656.297L292.906 626.991C291.578 626.954 290.535 626.759 289.777 626.406L290.156 624.439L314.952 617.794C314.826 618.483 314.652 619.249 314.431 620.094C314.241 620.897 314.02 621.742 313.767 622.628C313.546 623.472 313.293 624.326 313.009 625.187C312.756 626.008 312.487 626.783 312.203 627.514L310.211 628.047L309.216 622.522L300.018 624.987L297.362 638.608L303.905 636.854L306.798 632.3L308.267 631.906C308.204 632.741 308.093 633.654 307.935 634.646C307.809 635.628 307.635 636.64 307.414 637.681C307.224 638.714 307.003 639.722 306.75 640.706C306.497 641.69 306.26 642.572 306.039 643.351L304.569 643.745L303.289 640.21L296.746 641.963L294.328 654.391ZM316.577 638.417C316.577 635.406 317.02 632.473 317.905 629.618C318.821 626.722 320.117 624.084 321.792 621.705C323.499 619.284 325.57 617.191 328.003 615.426C330.469 613.62 333.25 612.303 336.348 611.473C338.466 610.905 340.346 610.728 341.99 610.942C343.634 611.124 345.024 611.667 346.162 612.573C347.3 613.446 348.154 614.657 348.723 616.207C349.323 617.747 349.623 619.581 349.623 621.708C349.623 624.392 349.228 627.148 348.438 629.978C347.648 632.774 346.447 635.42 344.835 637.913C343.223 640.374 341.2 642.568 338.766 644.497C336.364 646.384 333.535 647.764 330.279 648.636C328.098 649.22 326.154 649.398 324.448 649.168C322.741 648.905 321.303 648.309 320.133 647.379C318.964 646.449 318.078 645.213 317.478 643.673C316.877 642.132 316.577 640.38 316.577 638.417ZM324.637 637.189C324.637 640.462 325.222 642.759 326.391 644.082C327.593 645.364 329.205 645.734 331.227 645.191C333.029 644.709 334.578 643.688 335.874 642.13C337.17 640.572 338.245 638.746 339.098 636.652C339.951 634.526 340.568 632.25 340.947 629.825C341.358 627.359 341.563 624.997 341.563 622.739C341.563 619.827 341.073 617.651 340.094 616.212C339.145 614.764 337.565 614.337 335.352 614.93C334.12 615.26 332.998 615.855 331.986 616.715C331.006 617.534 330.105 618.545 329.284 619.746C328.493 620.94 327.798 622.272 327.197 623.741C326.628 625.17 326.154 626.655 325.775 628.197C325.396 629.738 325.111 631.287 324.922 632.843C324.732 634.366 324.637 635.815 324.637 637.189ZM362.281 636.183C362.945 636.202 363.546 636.27 364.083 636.388C364.62 636.473 365.11 636.587 365.553 636.73L365.221 638.684L350.618 642.597L350.95 640.643C351.74 640.039 352.467 639.549 353.131 639.175C353.826 638.76 354.506 638.398 355.17 638.089L360.859 608.782C359.31 608.838 358.109 608.685 357.256 608.325L357.635 606.358L362.661 605.011C363.293 604.842 364.004 604.635 364.794 604.39C365.616 604.137 366.47 603.876 367.355 603.606C368.24 603.303 369.14 603.013 370.057 602.735C370.974 602.424 371.843 602.158 372.665 601.938C376.173 600.998 378.765 601.007 380.44 601.965C382.147 602.915 383.001 604.682 383.001 607.267C383.001 608.478 382.811 609.707 382.432 610.954C382.052 612.168 381.483 613.368 380.725 614.553C379.998 615.696 379.081 616.793 377.975 617.842C376.9 618.85 375.636 619.761 374.182 620.576C375.004 622.418 376.015 624.241 377.216 626.046C378.449 627.843 379.65 629.582 380.82 631.265L382.811 632.302L382.479 634.06L374.941 636.08L373.186 634.93C372.112 633.419 371.116 631.607 370.199 629.497C369.314 627.345 368.666 625.179 368.255 622.999L364.652 623.964L362.281 636.183ZM370.484 605.713C369.978 605.848 369.52 606.004 369.109 606.179C368.698 606.355 368.319 606.522 367.971 606.681L365.174 621.125L367.924 620.388C369.219 620.041 370.342 619.495 371.29 618.75C372.27 617.964 373.076 617.06 373.708 616.04C374.34 614.987 374.814 613.862 375.13 612.665C375.446 611.468 375.604 610.247 375.604 609.004C375.636 607.326 375.225 606.242 374.372 605.751C373.55 605.251 372.254 605.238 370.484 605.713ZM423.961 622.945L407.651 627.315L408.03 625.348C408.726 624.868 409.5 624.382 410.354 623.892C411.207 623.401 412.06 622.976 412.914 622.617L418.651 593.199L413.151 594.673L408.362 604.349L406.418 604.87C406.418 604.216 406.45 603.373 406.513 602.342C406.608 601.302 406.703 600.229 406.798 599.124C406.924 598.01 407.066 596.909 407.224 595.819C407.382 594.697 407.556 593.734 407.746 592.931L437.948 584.838C437.789 585.666 437.568 586.641 437.284 587.765C437.031 588.88 436.746 590.019 436.43 591.184C436.114 592.348 435.782 593.484 435.435 594.592C435.119 595.658 434.818 596.573 434.534 597.337L432.542 597.87L431.262 589.82L425.763 591.293L420.026 620.711C420.816 620.663 421.59 620.652 422.349 620.677C423.107 620.703 423.771 620.804 424.34 620.978L423.961 622.945ZM449.095 616.211L434.729 620.06L435.061 618.106C435.693 617.609 436.372 617.149 437.099 616.725C437.858 616.26 438.585 615.869 439.28 615.552L444.97 586.245C444.243 586.309 443.563 586.295 442.931 586.202C442.299 586.11 441.777 585.972 441.366 585.787L441.746 583.82L456.112 579.971L455.732 581.938C455.258 582.425 454.689 582.872 454.025 583.279C453.362 583.686 452.714 584.039 452.082 584.34L449.616 596.879L462.18 593.512L464.646 580.973C463.287 580.977 462.259 580.778 461.564 580.375L461.943 578.408L476.309 574.559L475.93 576.526C475.329 577.047 474.65 577.54 473.891 578.005C473.164 578.429 472.453 578.783 471.758 579.067L466.068 608.374C466.764 608.318 467.412 608.341 468.012 608.442C468.644 608.534 469.182 608.669 469.624 608.844L469.292 610.799L454.926 614.648L455.258 612.694C455.796 612.255 456.38 611.821 457.012 611.389C457.645 610.958 458.293 610.588 458.956 610.279L461.517 596.88L448.952 600.247L446.392 613.646C447.467 613.587 448.478 613.791 449.426 614.256L449.095 616.211ZM505.355 566.776C505.039 568.333 504.644 569.961 504.17 571.659C503.696 573.356 503.174 574.969 502.605 576.496L500.614 577.029L499.618 571.504L490.752 573.88L488.287 586.566L494.119 585.003L496.963 580.462L498.433 580.068C498.275 581.714 497.991 583.573 497.58 585.647C497.2 587.712 496.758 589.663 496.252 591.5L494.735 591.906L493.455 588.372L487.623 589.934L485.063 603.382L494.261 600.918L498.054 593.668L500.045 593.134C500.045 593.723 500.013 594.419 499.95 595.221C499.919 596.015 499.855 596.85 499.761 597.726C499.697 598.594 499.603 599.47 499.476 600.355C499.35 601.239 499.207 602.063 499.049 602.825L473.399 609.698L473.731 607.744C474.363 607.28 475.027 606.824 475.723 606.376C476.45 605.919 477.192 605.524 477.951 605.19L483.64 575.883C483.008 575.922 482.376 575.911 481.744 575.852C481.112 575.759 480.543 575.617 480.037 575.425L480.416 573.459L505.355 566.776ZM527.217 591.204C527.533 591.446 528.102 591.621 528.924 591.728C529.745 591.835 530.615 591.766 531.531 591.52C532.511 591.258 533.428 590.93 534.281 590.538C535.135 590.113 535.862 589.624 536.462 589.07C537.094 588.508 537.584 587.869 537.932 587.155C538.28 586.407 538.454 585.575 538.454 584.659C538.454 583.481 538.153 582.563 537.553 581.906C536.952 581.216 536.209 580.646 535.324 580.196C534.439 579.746 533.459 579.338 532.385 578.971C531.342 578.564 530.378 578.053 529.493 577.439C528.608 576.826 527.865 576.027 527.264 575.042C526.664 574.058 526.363 572.731 526.363 571.062C526.363 569.328 526.695 567.717 527.359 566.231C528.023 564.744 528.939 563.402 530.109 562.205C531.278 561.008 532.669 559.981 534.281 559.124C535.893 558.234 537.663 557.53 539.591 557.014C541.52 556.497 543.274 556.174 544.854 556.045C546.466 555.875 547.873 555.924 549.074 556.191C548.916 556.888 548.71 557.695 548.458 558.614C548.205 559.532 547.92 560.459 547.604 561.395C547.32 562.289 547.019 563.155 546.703 563.992C546.419 564.788 546.166 565.462 545.945 566.012L544.001 566.533L543.195 560.024C542.752 559.881 542.152 559.845 541.393 559.918C540.666 559.982 539.908 560.119 539.117 560.331C538.295 560.551 537.521 560.857 536.794 561.248C536.099 561.598 535.482 562.041 534.945 562.578C534.439 563.074 534.028 563.658 533.712 564.332C533.396 565.006 533.238 565.751 533.238 566.57C533.238 567.715 533.538 568.632 534.139 569.322C534.771 570.004 535.53 570.586 536.415 571.069C537.331 571.51 538.327 571.947 539.402 572.379C540.476 572.778 541.456 573.301 542.341 573.947C543.258 574.553 544.017 575.347 544.617 576.332C545.249 577.308 545.565 578.597 545.565 580.201C545.565 583.669 544.317 586.671 541.82 589.205C539.354 591.698 535.814 593.563 531.199 594.8C530.188 595.071 529.161 595.281 528.118 595.429C527.106 595.569 526.142 595.648 525.225 595.664C524.309 595.681 523.503 595.651 522.807 595.576C522.112 595.5 521.606 595.358 521.29 595.148C521.48 594.312 521.717 593.43 522.001 592.503C522.286 591.543 522.586 590.596 522.902 589.66C523.218 588.692 523.534 587.789 523.851 586.952C524.198 586.073 524.514 585.301 524.799 584.636L526.743 584.115L527.217 591.204ZM580.113 546.745C579.797 548.302 579.402 549.93 578.928 551.627C578.454 553.325 577.932 554.937 577.363 556.464L575.372 556.998L574.376 551.473L565.51 553.848L563.045 566.535L568.876 564.972L571.721 560.43L573.191 560.036C573.033 561.682 572.748 563.542 572.337 565.615C571.958 567.68 571.516 569.631 571.01 571.469L569.493 571.875L568.213 568.34L562.381 569.903L559.821 583.351L569.019 580.887L572.812 573.636L574.803 573.103C574.803 573.692 574.771 574.388 574.708 575.19C574.676 575.984 574.613 576.819 574.518 577.695C574.455 578.563 574.36 579.439 574.234 580.324C574.108 581.208 573.965 582.032 573.807 582.794L548.157 589.667L548.489 587.713C549.121 587.249 549.785 586.793 550.48 586.345C551.207 585.888 551.95 585.493 552.709 585.159L558.398 555.852C557.766 555.891 557.134 555.88 556.502 555.82C555.87 555.728 555.301 555.586 554.795 555.394L555.174 553.427L580.113 546.745ZM589.907 578.48L578.101 581.643L578.433 579.689C579.002 579.21 579.602 578.771 580.235 578.372C580.867 577.941 581.499 577.575 582.131 577.275L600.906 540.584L604.367 539.657L609.725 569.881C610.326 569.851 610.91 569.891 611.479 570C612.08 570.101 612.586 570.244 612.996 570.428L612.617 572.395L598.014 576.308L598.346 574.354C599.01 573.848 599.705 573.384 600.432 572.96C601.191 572.495 601.902 572.108 602.566 571.799L601.428 564.3L590.95 567.107L586.446 576.119C587.109 576.039 587.773 576.041 588.437 576.125C589.101 576.176 589.701 576.31 590.239 576.526L589.907 578.48ZM592.562 563.485L601.049 561.211L599.721 552.191V547.97L599.626 547.996L597.824 552.798L592.562 563.485ZM623.505 565.404C623.821 565.646 624.39 565.821 625.211 565.928C626.033 566.035 626.902 565.966 627.819 565.72C628.799 565.457 629.716 565.13 630.569 564.738C631.422 564.313 632.149 563.823 632.75 563.27C633.382 562.708 633.872 562.069 634.22 561.354C634.567 560.607 634.741 559.775 634.741 558.859C634.741 557.68 634.441 556.763 633.84 556.106C633.24 555.416 632.497 554.846 631.612 554.396C630.727 553.946 629.747 553.538 628.673 553.171C627.629 552.763 626.665 552.253 625.78 551.639C624.895 551.025 624.153 550.226 623.552 549.242C622.951 548.257 622.651 546.931 622.651 545.262C622.651 543.528 622.983 541.917 623.647 540.43C624.311 538.944 625.227 537.602 626.397 536.405C627.566 535.208 628.957 534.181 630.569 533.323C632.181 532.433 633.951 531.73 635.879 531.213C637.807 530.697 639.562 530.374 641.142 530.245C642.754 530.075 644.161 530.123 645.362 530.391C645.204 531.087 644.998 531.895 644.745 532.814C644.492 533.732 644.208 534.659 643.892 535.595C643.607 536.489 643.307 537.355 642.991 538.192C642.707 538.988 642.454 539.661 642.232 540.212L640.289 540.732L639.483 534.224C639.04 534.081 638.439 534.045 637.681 534.117C636.954 534.181 636.195 534.319 635.405 534.531C634.583 534.751 633.809 535.057 633.082 535.448C632.387 535.798 631.77 536.241 631.233 536.778C630.727 537.273 630.316 537.858 630 538.532C629.684 539.205 629.526 539.951 629.526 540.769C629.526 541.915 629.826 542.832 630.427 543.522C631.059 544.204 631.818 544.786 632.703 545.268C633.619 545.71 634.615 546.147 635.69 546.579C636.764 546.978 637.744 547.501 638.629 548.147C639.546 548.752 640.304 549.547 640.905 550.531C641.537 551.507 641.853 552.797 641.853 554.401C641.853 557.869 640.605 560.871 638.108 563.405C635.642 565.898 632.102 567.763 627.487 568.999C626.476 569.27 625.449 569.48 624.405 569.629C623.394 569.769 622.43 569.847 621.513 569.864C620.597 569.88 619.791 569.851 619.095 569.776C618.4 569.7 617.894 569.557 617.578 569.348C617.768 568.511 618.005 567.63 618.289 566.703C618.574 565.743 618.874 564.795 619.19 563.86C619.506 562.892 619.822 561.989 620.138 561.152C620.486 560.273 620.802 559.501 621.087 558.836L623.03 558.315L623.505 565.404ZM648.38 549.51C648.38 546.5 648.823 543.567 649.708 540.712C650.624 537.816 651.92 535.178 653.596 532.798C655.302 530.378 657.373 528.285 659.807 526.52C662.272 524.714 665.053 523.396 668.151 522.566C670.269 521.999 672.15 521.822 673.793 522.036C675.437 522.217 676.828 522.761 677.965 523.667C679.103 524.54 679.957 525.751 680.526 527.3C681.126 528.841 681.427 530.675 681.427 532.802C681.427 535.485 681.031 538.242 680.241 541.071C679.451 543.868 678.25 546.513 676.638 549.007C675.026 551.468 673.003 553.662 670.569 555.59C668.167 557.478 665.338 558.857 662.082 559.73C659.901 560.314 657.957 560.491 656.251 560.262C654.544 559.999 653.106 559.403 651.936 558.473C650.767 557.542 649.882 556.307 649.281 554.766C648.68 553.226 648.38 551.474 648.38 549.51ZM656.44 548.283C656.44 551.555 657.025 553.853 658.195 555.176C659.396 556.457 661.008 556.827 663.031 556.285C664.832 555.802 666.381 554.782 667.677 553.224C668.973 551.666 670.048 549.84 670.901 547.746C671.754 545.619 672.371 543.344 672.75 540.919C673.161 538.453 673.366 536.09 673.366 533.833C673.366 530.92 672.877 528.745 671.897 527.305C670.948 525.858 669.368 525.431 667.155 526.023C665.923 526.354 664.801 526.949 663.789 527.809C662.809 528.628 661.908 529.638 661.087 530.84C660.296 532.034 659.601 533.365 659.001 534.835C658.432 536.264 657.957 537.749 657.578 539.29C657.199 540.832 656.914 542.38 656.725 543.936C656.535 545.46 656.44 546.909 656.44 548.283ZM711.769 511.468L723.48 508.33L723.101 510.297C722.374 511.048 721.631 511.705 720.873 512.268C720.114 512.799 719.371 513.259 718.644 513.651L712.291 546.276L708.451 547.305L696.692 525.423L695.554 521.948L695.412 521.986L694.985 526.027L690.766 547.626C691.335 547.638 691.967 547.746 692.662 547.953C693.389 548.118 693.974 548.337 694.416 548.612L694.085 550.566L682.421 553.691L682.753 551.737C684.175 550.439 685.645 549.391 687.162 548.592L692.662 520.318C692.125 520.233 691.54 520.095 690.908 519.904C690.307 519.705 689.833 519.489 689.486 519.255L689.817 517.35L699.869 514.656L709.399 532.522L710.821 536.362L711.011 536.312L711.722 531.9L715.041 514.616C714.345 514.541 713.666 514.412 713.002 514.23C712.37 514.006 711.833 513.741 711.39 513.435L711.769 511.468Z" fill="#698662"/>
<line x1="25.658" y1="624.168" x2="989.957" y2="377.607" stroke="#698662" stroke-width="1.2909"/>
<mask id="mask0_1_12" style="mask-type:alpha" maskUnits="userSpaceOnUse" x="784" y="364" width="226" height="188">
<rect x="784.864" y="364.032" width="224.616" height="187.18" fill="#D9D9D9"/>
</mask>
<g mask="url(#mask0_1_12)">
<line x1="25.658" y1="643.531" x2="989.957" y2="396.97" stroke="#698662" stroke-width="1.2909"/>
<line x1="25.658" y1="662.895" x2="989.957" y2="416.334" stroke="#698662" stroke-width="1.2909"/>
<line x1="25.658" y1="682.258" x2="989.957" y2="435.697" stroke="#698662" stroke-width="1.2909"/>
<line x1="25.658" y1="701.622" x2="989.957" y2="455.061" stroke="#698662" stroke-width="1.2909"/>
<line x1="25.658" y1="720.985" x2="989.957" y2="474.424" stroke="#698662" stroke-width="1.2909"/>
</g>
<mask id="mask1_1_12" style="mask-type:alpha" maskUnits="userSpaceOnUse" x="0" y="565" width="221" height="188">
<rect y="565.412" width="220.743" height="187.18" fill="#D9D9D9"/>
</mask>
<g mask="url(#mask1_1_12)">
<line x1="25.658" y1="643.531" x2="989.957" y2="396.97" stroke="#698662" stroke-width="1.2909"/>
<line x1="25.658" y1="662.895" x2="989.957" y2="416.334" stroke="#698662" stroke-width="1.2909"/>
<line x1="25.658" y1="682.258" x2="989.957" y2="435.697" stroke="#698662" stroke-width="1.2909"/>
<line x1="25.658" y1="701.622" x2="989.957" y2="455.061" stroke="#698662" stroke-width="1.2909"/>
<line x1="25.658" y1="720.985" x2="989.957" y2="474.424" stroke="#698662" stroke-width="1.2909"/>
</g>
<line x1="25.658" y1="742.93" x2="989.957" y2="496.369" stroke="#698662" stroke-width="1.2909"/>
<line x1="221.389" y1="575.739" x2="221.389" y2="694.502" stroke="#698662" stroke-width="1.2909"/>
<line x1="785.51" y1="432.45" x2="785.51" y2="551.212" stroke="#698662" stroke-width="1.2909"/>
<path d="M194.083 863C195.048 852.865 195.772 842.972 196.254 833.079C196.737 828.011 196.978 823.185 197.22 818.118C197.461 815.222 197.461 812.327 197.461 809.672L216.765 820.29L221.832 823.185L231.967 828.494L232.208 828.253C229.071 825.84 226.176 823.427 223.28 821.014C221.832 819.807 220.143 818.6 218.695 817.635L214.352 814.016C209.285 810.155 204.459 806.294 199.391 802.675C201.08 800.985 202.77 799.296 204.459 797.366L211.698 788.679C216.524 782.888 221.591 777.097 226.417 771.064H226.176C220.143 775.649 214.352 780.716 208.561 785.542C205.665 787.955 202.77 790.368 199.874 793.023L197.461 795.194C197.22 787.955 196.737 780.716 196.254 773.236L195.772 765.997C195.53 763.342 195.53 760.929 195.289 758.516C195.048 753.449 194.565 748.382 194.083 743.556H193.841C193.6 748.382 193.117 753.449 192.876 758.516C192.635 760.929 192.394 763.342 192.394 765.997L191.911 773.236C191.428 781.199 190.946 788.92 190.704 796.883L186.361 794.229L176.226 788.679C169.711 785.06 162.955 781.44 156.198 778.062C161.99 782.888 167.781 787.714 173.813 792.54C176.95 794.712 179.846 797.125 182.742 799.538C184.672 800.985 186.602 802.433 188.533 803.64C184.431 808.225 180.57 813.051 176.468 817.877L172.607 822.22L161.748 835.25L161.99 835.492L170.676 828.253L175.261 824.633L179.605 820.772L190.704 811.361C190.704 813.533 190.704 815.946 190.946 818.118C191.187 823.185 191.428 828.011 191.911 833.079C192.394 842.972 193.117 852.865 194.083 863Z" fill="#536A4E"/>
</svg>
