<svg width="913" height="1080" viewBox="0 0 913 1080" fill="none" xmlns="http://www.w3.org/2000/svg">
<rect width="913" height="1126" fill="#698662"/>
<path d="M162.751 279.462L163.399 275.357C167.505 275.357 172.69 269.955 174.203 261.096L193.434 140.742C193.65 140.094 193.65 139.662 193.65 139.013V138.797V138.149V137.933V137.717V137.501V137.285C193.65 130.37 190.193 126.481 186.735 126.481L187.384 122.376H234.92C279 122.376 305.577 144.847 305.577 184.821C305.577 190.007 305.145 195.409 304.28 201.243C296.286 251.373 259.985 279.462 210.071 279.462H162.751ZM233.84 129.29L211.152 272.764C237.729 267.794 256.96 244.242 264.955 201.027C265.819 193.897 266.251 187.414 266.251 181.364C266.251 150.249 254.583 133.395 233.84 129.29ZM413.152 262.825L415.529 265.634C413.152 268.443 410.127 271.252 407.318 273.628C402.132 277.95 393.489 280.327 385.062 280.327C373.826 280.327 363.671 275.789 363.671 265.634C363.671 264.553 363.671 263.689 363.887 263.041L364.751 257.855C358.701 265.418 350.922 271.684 342.063 275.789C336.013 278.382 330.179 279.678 324.345 279.678C310.516 279.678 299.28 271.9 299.28 257.423C299.28 255.91 299.496 254.398 299.712 252.885C301.441 240.137 312.245 226.308 331.692 220.69C347.897 216.152 367.776 215.504 373.394 202.323L373.826 199.947C374.258 196.705 374.475 193.897 374.475 191.52C374.475 181.148 370.369 177.043 365.399 177.043C358.701 177.043 349.41 184.605 347.033 195.625L346.817 196.922C346.601 197.57 346.601 198.002 346.601 198.65V198.866V199.514V199.731V200.163V200.379V200.595C346.601 203.836 347.033 206.645 348.978 208.157C344.872 212.263 338.606 214.424 331.908 214.424C323.049 214.424 314.622 210.318 314.622 200.163C314.622 198.65 314.622 197.57 314.838 196.922C317.647 178.555 342.279 166.455 365.183 166.455H366.912C388.087 167.103 408.614 174.882 408.614 197.786C408.614 199.947 408.398 202.323 407.966 204.916L398.891 262.176V263.041C398.891 266.282 400.836 267.794 403.429 267.794C406.67 267.794 410.775 266.066 413.152 262.825ZM354.812 258.935C358.485 256.991 362.806 253.533 366.264 248.131L371.666 213.127C361.942 218.961 349.41 226.74 341.631 236.031C337.958 240.353 336.013 244.458 335.581 248.131C335.365 248.564 335.365 248.996 335.365 249.428V250.292V250.508V250.724V250.94C335.365 257.207 339.038 261.528 345.736 261.528C348.545 261.528 351.571 260.664 354.812 258.935ZM505.053 168.616H537.897L537.249 172.721C527.525 172.721 520.611 186.334 515.425 195.625C514.777 196.489 514.561 197.138 514.345 197.786L459.677 297.397C452.763 309.713 441.311 337.803 423.377 337.803C413.869 337.803 408.468 330.24 408.468 321.381C408.468 319.869 408.468 318.788 408.684 318.14C409.764 311.658 413.437 305.824 419.271 300.422C421.648 305.391 425.538 307.984 430.939 307.984C438.07 307.984 446.065 303.231 450.602 294.804L459.029 279.678H451.034L425.97 187.63C422.513 174.234 418.839 172.505 414.518 172.505L415.166 168.616H466.592L465.944 172.721C462.703 172.937 461.19 173.801 460.974 175.53V176.61C460.974 178.555 461.838 181.364 462.703 184.605L478.476 243.378L505.702 193.897C508.294 189.143 509.807 185.253 510.239 182.012C510.455 181.364 510.455 180.284 510.455 179.203C510.455 174.882 508.511 172.721 504.405 172.721L505.053 168.616ZM702.16 238.84L706.481 238.624C702.376 263.473 686.818 277.302 666.291 280.543C663.698 281.191 660.457 281.191 657.216 281.191C637.121 281.191 616.81 273.628 597.795 269.523C595.418 269.091 593.258 268.875 591.313 268.875C584.399 268.875 581.157 272.548 579.645 279.678H572.514C573.163 276.437 574.243 272.98 575.756 269.307C586.775 239.056 610.76 222.635 632.151 208.806C651.814 196.057 670.181 183.957 673.638 160.837C673.854 159.108 674.07 156.515 674.07 153.923C674.07 136.853 664.563 128.21 654.839 128.21C643.819 128.21 632.8 136.42 630.423 149.385V150.249C630.423 151.114 630.207 151.762 630.207 152.626C630.207 160.189 633.664 166.239 641.226 166.239H642.091C643.171 166.239 643.819 166.239 644.468 166.023L645.98 165.807C640.146 180.284 625.237 189.143 613.137 189.143H612.272C598.444 189.143 591.745 180.5 591.745 169.48C591.745 167.967 591.961 166.455 592.177 164.726C592.826 161.053 594.122 156.948 596.067 152.842C607.519 129.722 634.528 119.134 660.025 119.134C688.547 119.134 715.34 132.747 715.34 156.948V158.244V158.46V158.892C715.34 159.541 715.34 160.405 715.124 161.053L714.908 162.349C710.155 190.439 681.849 202.107 653.111 214.208L650.518 215.288C633.88 222.202 616.162 229.333 602.981 241.217C607.087 240.137 611.624 239.705 616.594 239.705C626.317 239.705 636.257 241.649 650.302 244.458C660.457 246.835 669.748 248.564 678.175 248.564C687.034 248.564 695.029 246.403 701.079 238.84H702.16Z" fill="white"/>
<path d="M190.182 437.133L192.067 437.722C188.886 446.793 186.177 454.803 183.467 463.756C175.81 467.88 167.328 469.411 158.847 469.411C134.344 469.411 122.799 452.094 122.799 432.656C122.799 429.947 123.034 427.709 123.388 424.999C125.862 409.449 135.404 394.017 151.778 385.889C157.08 383.179 163.441 381.648 170.038 381.059C170.509 380.941 170.98 380.941 171.452 380.941H171.923H172.041H172.158H172.276H172.394H172.512H172.63H172.747C182.407 380.941 193.127 384.593 199.017 388.598L191.478 411.334L189.475 411.805L187.591 406.622C182.525 393.31 174.868 385.653 167.211 385.653C160.025 385.653 153.192 392.368 148.598 407.918C147.773 410.627 147.302 413.455 146.831 416.4C146.124 420.758 145.77 425.235 145.77 429.711C145.77 441.845 148.48 453.861 153.781 459.398C155.902 461.636 158.375 462.814 161.085 462.814C165.326 462.814 170.627 460.105 177.224 453.39C181.347 449.149 185.588 443.73 190.182 437.133ZM231.72 406.386C247.152 406.386 257.99 417.695 257.99 432.421C257.99 434.07 257.872 435.719 257.636 437.369C255.163 454.332 238.906 468.233 221.942 468.233C206.51 468.233 195.672 456.806 195.672 442.081C195.672 440.549 195.79 439.018 196.025 437.369C198.499 420.287 214.756 406.386 231.72 406.386ZM231.013 411.216C225.476 411.216 218.526 423.35 216.288 438.193C215.699 441.845 215.463 445.261 215.463 448.442C215.463 458.337 218.172 465.288 222.413 465.288C228.303 465.288 234.547 453.272 237.021 438.193C237.61 434.541 237.846 430.889 237.846 427.709C237.846 417.931 235.372 411.216 231.013 411.216ZM357.886 425.942L352.467 459.28V459.987C352.467 463.639 354.116 465.523 355.883 465.523L355.53 467.644H327.611L327.964 465.523C329.967 465.523 332.676 462.696 333.501 458.102L338.684 425.588C338.92 424.292 339.037 423.114 339.037 422.054C339.037 417.46 337.035 415.811 334.561 415.811C329.849 415.811 322.898 422.172 321.603 427.826C321.131 431.95 320.778 435.837 319.953 439.96L316.655 459.28V459.987C316.655 463.639 318.304 465.523 320.071 465.523L319.718 467.644H291.798L292.152 465.523C294.154 465.523 296.864 462.696 297.689 458.102L302.872 425.588C303.108 424.292 303.225 423.114 303.225 422.054C303.225 417.46 301.223 415.811 298.749 415.811C293.919 415.811 286.733 422.408 285.79 428.062L280.961 458.691C280.843 459.044 280.843 459.28 280.843 459.516V459.633V459.987V460.105V460.222V460.34C280.843 463.639 282.492 465.523 284.259 465.523L283.906 467.644H256.104L256.457 465.523C258.46 465.523 261.052 462.696 261.876 458.102L267.884 420.169C268.002 419.345 268.12 418.756 268.12 418.167C268.12 414.868 266.471 412.866 264.704 412.866L265.057 410.745H266.824C273.892 410.745 282.256 408.507 287.558 405.797L289.089 407.093L287.44 417.224C293.448 410.627 301.34 407.211 307.937 407.211C315.006 407.211 320.66 410.863 321.956 418.756C328.2 411.098 336.446 407.093 343.632 407.093C351.525 407.093 358.239 411.923 358.239 421.936C358.239 423.232 358.122 424.528 357.886 425.942ZM406.171 408.389H406.996C418.894 408.389 424.666 418.756 424.666 431.007C424.666 433.245 424.549 435.248 424.195 437.486C421.721 453.036 410.766 468.94 392.624 468.94C382.611 468.94 377.663 465.523 372.362 465.523C369.652 465.523 367.061 466.466 363.762 468.94L362.231 467.644L363.291 466.112L374.482 394.842C374.6 394.488 374.6 393.899 374.6 393.075C374.6 389.423 372.833 387.538 371.066 387.538L371.42 385.417C379.312 385.417 388.148 383.297 394.155 380.47L395.569 381.765L389.915 417.342C394.509 412.041 399.692 408.507 406.171 408.389ZM389.797 464.934C397.218 464.934 404.169 448.324 406.407 433.952C406.878 430.654 407.232 427.591 407.232 424.764C407.232 418.284 405.818 413.69 402.402 413.337H401.931C395.805 413.337 389.561 426.295 386.734 439.136C386.263 440.903 385.909 442.787 385.674 444.672C385.085 448.089 384.849 451.269 384.849 454.097C384.849 460.576 386.145 464.934 389.797 464.934ZM464.91 406.386C480.342 406.386 491.18 417.695 491.18 432.421C491.18 434.07 491.062 435.719 490.827 437.369C488.353 454.332 472.096 468.233 455.132 468.233C439.7 468.233 428.862 456.806 428.862 442.081C428.862 440.549 428.98 439.018 429.216 437.369C431.69 420.287 447.946 406.386 464.91 406.386ZM464.203 411.216C458.666 411.216 451.716 423.35 449.478 438.193C448.889 441.845 448.653 445.261 448.653 448.442C448.653 458.337 451.363 465.288 455.604 465.288C461.494 465.288 467.737 453.272 470.211 438.193C470.8 434.541 471.036 430.889 471.036 427.709C471.036 417.931 468.562 411.216 464.203 411.216ZM581.255 421.112C590.68 425.235 594.92 432.421 594.92 439.96V440.785V440.903V441.02V441.138V441.256V441.374V441.492V441.609C594.92 442.198 594.803 442.67 594.685 443.259C593.036 452.919 585.261 462.225 571.478 466.112C565.705 467.644 559.108 468.351 551.687 468.351H519.644L519.998 466.112C522.236 466.112 525.063 463.167 525.888 458.337L536.49 391.897C536.608 391.543 536.608 391.308 536.608 390.954V390.365V390.247V390.13V390.012C536.608 386.242 534.723 384.122 532.838 384.122L533.192 382.001L546.503 381.883H559.226C564.881 381.883 571.713 382.001 577.839 383.061C589.619 385.064 595.274 391.543 595.274 398.494V399.083V399.2V399.318V399.436C595.274 399.789 595.274 400.143 595.156 400.496C594.214 406.74 588.677 412.748 579.135 415.928C576.661 416.753 573.716 417.46 570.535 418.049C574.658 418.873 578.31 419.816 581.255 421.112ZM559.344 385.771H558.519L553.572 416.635C554.867 416.635 556.045 416.753 557.341 416.753C567.355 415.457 573.127 408.389 574.423 401.439C574.541 401.085 574.541 400.614 574.541 400.261V400.025V399.672V399.554V399.436V399.318V399.083C574.541 392.132 569.711 385.771 559.344 385.771ZM552.983 420.876L546.032 464.345C561.7 463.403 571.831 452.919 573.362 442.198C573.48 441.138 573.598 440.078 573.598 439.018C573.598 429.594 567.119 421.465 552.983 420.876ZM635.287 406.386C650.72 406.386 661.557 417.695 661.557 432.421C661.557 434.07 661.44 435.719 661.204 437.369C658.73 454.332 642.473 468.233 625.51 468.233C610.077 468.233 599.24 456.806 599.24 442.081C599.24 440.549 599.357 439.018 599.593 437.369C602.067 420.287 618.324 406.386 635.287 406.386ZM634.581 411.216C629.044 411.216 622.093 423.35 619.855 438.193C619.266 441.845 619.031 445.261 619.031 448.442C619.031 458.337 621.74 465.288 625.981 465.288C631.871 465.288 638.115 453.272 640.588 438.193C641.177 434.541 641.413 430.889 641.413 427.709C641.413 417.931 638.939 411.216 634.581 411.216ZM719.525 410.156C715.166 412.041 710.218 417.224 706.449 421.347L695.964 432.774C699.616 440.903 703.15 448.913 706.566 457.277C709.394 464.581 711.632 465.523 714.106 465.523L713.752 467.644H686.304L686.54 465.406C688.071 465.288 688.778 464.817 688.896 463.756C688.896 463.403 688.778 462.932 688.425 462.107C686.422 456.57 684.302 451.387 681.592 446.204L674.642 453.861C670.519 458.455 668.28 461.636 667.927 463.639V464.11C667.927 464.934 668.516 465.406 669.812 465.406L669.458 467.644H652.848L653.202 465.406C658.149 465.406 664.393 459.044 668.752 453.979L679.943 441.963L679.354 440.549C676.055 432.656 672.639 425.353 669.458 417.46C666.278 410.274 664.511 409.214 661.919 409.214L662.272 407.093H689.721L689.367 409.331C687.954 409.449 687.129 409.92 687.011 410.745C687.011 411.334 687.129 411.923 687.365 412.748L693.962 428.18L700.323 420.876C703.621 417.106 705.388 414.279 705.624 412.276C705.624 411.923 705.742 412.041 705.742 411.687C705.742 410.156 704.564 409.331 702.326 409.331L702.561 407.093H723.294L722.941 409.331C721.881 409.449 720.821 409.685 719.525 410.156ZM795.94 379.881H801.359L745.167 477.068H739.748L795.94 379.881ZM325.357 540.133L327.241 540.722C324.061 549.793 321.351 557.803 318.642 566.756C310.985 570.88 302.503 572.411 294.021 572.411C269.518 572.411 257.973 555.094 257.973 535.656C257.973 532.947 258.209 530.709 258.562 527.999C261.036 512.449 270.578 497.017 286.953 488.889C292.254 486.179 298.615 484.648 305.212 484.059C305.684 483.941 306.155 483.941 306.626 483.941H307.097H307.215H307.333H307.451H307.568H307.686H307.804H307.922C317.582 483.941 328.302 487.593 334.192 491.598L326.652 514.334L324.65 514.805L322.765 509.622C317.699 496.31 310.042 488.653 302.385 488.653C295.199 488.653 288.366 495.368 283.772 510.918C282.948 513.627 282.476 516.455 282.005 519.4C281.298 523.758 280.945 528.235 280.945 532.711C280.945 544.845 283.654 556.861 288.956 562.398C291.076 564.636 293.55 565.814 296.259 565.814C300.5 565.814 305.801 563.105 312.398 556.39C316.521 552.149 320.762 546.73 325.357 540.133ZM396.463 510.093L388.688 559.453C388.57 559.806 388.57 560.395 388.57 561.22C388.57 564.872 390.219 566.756 391.986 566.756L391.633 568.877H389.866C382.68 568.877 374.316 570.173 369.25 573L367.601 571.586L369.25 561.573C363.242 569.112 355.703 572.411 349.106 572.411C340.506 572.411 333.438 566.756 333.438 556.036C333.438 554.741 333.556 553.327 333.792 551.795L338.504 522.227C338.621 521.873 338.621 521.52 338.621 520.931C338.621 517.75 336.854 515.866 335.087 515.866L335.441 513.745C343.334 513.745 352.169 511.625 358.177 508.797L359.59 510.093L352.876 552.738C352.758 553.327 352.64 553.916 352.64 554.387V554.623V555.212V555.33V555.447V555.565V555.683V555.801V555.919C352.64 560.748 354.878 562.633 358.059 562.633C363.242 562.633 369.839 557.568 370.782 552.267L375.494 522.934C375.612 522.58 375.612 521.991 375.612 521.167C375.612 517.515 373.845 515.866 372.078 515.866L372.431 513.745C380.324 513.745 389.041 511.625 395.049 508.797L396.463 510.093ZM492.364 513.745H483.293L475.636 561.22C475.636 561.573 475.518 561.573 475.518 561.927C475.518 563.694 476.696 564.283 477.992 564.283C479.759 564.283 481.997 563.34 483.293 561.573L484.589 562.987C483.293 564.518 481.761 566.05 480.23 567.345C477.403 569.702 472.691 570.997 468.096 570.997C461.971 570.997 456.552 568.759 456.552 563.222V563.105V562.869V562.751V562.633V562.516V562.398C456.552 562.162 456.552 561.927 456.669 561.691L464.209 513.745H458.436L459.025 510.447L462.442 510.093C467.272 509.151 468.803 505.734 470.099 500.669L470.217 499.373C470.335 498.431 470.452 497.606 470.452 496.781C470.452 490.538 466.211 487.711 461.146 487.711C455.02 487.711 447.834 491.951 446.892 498.902C446.774 499.137 446.774 499.373 446.774 499.609V500.08V500.198V500.315V500.433V500.905C446.774 505.97 450.072 511.153 452.546 515.866L448.777 530.002H446.656C445.36 526.114 443.593 521.52 440.766 517.868C437.821 514.216 434.169 512.685 430.87 512.685C426.512 512.685 422.742 515.394 422.153 519.164C422.035 519.4 422.035 519.753 422.035 520.224C422.035 522.934 423.567 525.761 427.219 528.47C433.227 532.594 440.295 536.01 446.303 540.604C449.483 542.96 450.779 546.141 450.779 549.557C450.779 550.382 450.661 550.971 450.544 551.795C449.719 555.919 447.481 560.159 443.829 563.458C438.056 568.523 428.986 572.293 419.09 572.293H418.266C409.313 571.94 402.48 568.17 397.414 564.989L403.187 545.316H405.425C407.663 551.56 409.43 560.042 414.731 564.047C417.441 566.285 420.268 567.11 423.095 567.11C428.161 567.11 432.52 564.283 433.109 560.513C433.109 560.159 433.227 559.924 433.227 559.57C433.227 557.097 431.695 554.387 427.572 551.678C419.915 546.612 404.011 541.664 404.011 530.002C404.011 529.177 404.129 528.588 404.247 527.764C406.132 516.808 417.677 508.68 433.109 508.68H434.051C436.525 508.68 438.763 508.915 440.53 509.386C440.177 507.619 440.059 506.088 440.059 504.556C440.059 503.496 440.177 502.554 440.295 501.611C442.18 490.184 453.253 483.47 463.973 483.47C474.458 483.47 484.353 489.831 484.353 504.556C484.353 506.441 484.235 508.208 483.882 510.447H492.953L492.364 513.745ZM523.927 509.386C539.359 509.386 550.197 520.695 550.197 535.421C550.197 537.07 550.079 538.719 549.843 540.369C547.369 557.332 531.113 571.233 514.149 571.233C498.717 571.233 487.879 559.806 487.879 545.081C487.879 543.549 487.997 542.018 488.232 540.369C490.706 523.287 506.963 509.386 523.927 509.386ZM523.22 514.216C517.683 514.216 510.733 526.35 508.494 541.193C507.905 544.845 507.67 548.261 507.67 551.442C507.67 561.337 510.379 568.288 514.62 568.288C520.51 568.288 526.754 556.272 529.228 541.193C529.817 537.541 530.052 533.889 530.052 530.709C530.052 520.931 527.579 514.216 523.22 514.216ZM650.093 528.942L644.674 562.28V562.987C644.674 566.639 646.323 568.523 648.09 568.523L647.737 570.644H619.817L620.171 568.523C622.173 568.523 624.883 565.696 625.708 561.102L630.891 528.588C631.127 527.292 631.244 526.114 631.244 525.054C631.244 520.46 629.242 518.811 626.768 518.811C622.056 518.811 615.105 525.172 613.809 530.826C613.338 534.95 612.985 538.837 612.16 542.96L608.862 562.28V562.987C608.862 566.639 610.511 568.523 612.278 568.523L611.925 570.644H584.005L584.359 568.523C586.361 568.523 589.071 565.696 589.895 561.102L595.079 528.588C595.314 527.292 595.432 526.114 595.432 525.054C595.432 520.46 593.43 518.811 590.956 518.811C586.126 518.811 578.94 525.408 577.997 531.062L573.167 561.691C573.05 562.044 573.05 562.28 573.05 562.516V562.633V562.987V563.105V563.222V563.34C573.05 566.639 574.699 568.523 576.466 568.523L576.112 570.644H548.311L548.664 568.523C550.667 568.523 553.259 565.696 554.083 561.102L560.091 523.169C560.209 522.345 560.327 521.756 560.327 521.167C560.327 517.868 558.678 515.866 556.911 515.866L557.264 513.745H559.031C566.099 513.745 574.463 511.507 579.764 508.797L581.296 510.093L579.647 520.224C585.655 513.627 593.547 510.211 600.144 510.211C607.212 510.211 612.867 513.863 614.163 521.756C620.406 514.098 628.653 510.093 635.839 510.093C643.731 510.093 650.446 514.923 650.446 524.936C650.446 526.232 650.328 527.528 650.093 528.942ZM175.956 674.526L176.309 672.288C178.547 672.288 181.375 669.343 182.199 664.513L192.684 598.897C192.801 598.543 192.801 598.308 192.801 597.954V597.836V597.483V597.365V597.247V597.13V597.012C192.801 593.242 190.917 591.122 189.032 591.122L189.385 588.883H215.302C239.334 588.883 253.823 601.135 253.823 622.928C253.823 625.756 253.588 628.701 253.117 631.881C248.758 659.212 228.967 674.526 201.755 674.526H175.956ZM214.713 592.653L202.344 670.874C216.833 668.165 227.318 655.324 231.677 631.764C232.148 627.876 232.383 624.342 232.383 621.044C232.383 604.08 226.022 594.891 214.713 592.653ZM311.177 623.282C311.059 623.635 311.059 623.871 311.059 624.224C311.059 624.342 311.177 624.695 311.177 624.813C311.177 625.167 311.059 625.402 310.941 625.756C309.999 632.706 303.284 637.3 296.923 637.3C295.156 637.3 293.507 636.947 291.857 636.24C293.153 634.826 293.86 633.295 294.213 631.528C294.213 631.175 294.331 630.703 294.331 630.35C294.331 627.169 292.564 624.813 289.737 624.813C287.97 624.813 285.849 625.638 283.611 627.876C281.608 629.643 280.077 631.528 278.781 633.295L273.716 665.691C273.598 666.044 273.598 666.28 273.598 666.516V666.633V666.987V667.105V667.222V667.34C273.598 670.639 275.247 672.523 277.014 672.523L276.661 674.644H248.859L249.213 672.523C251.215 672.523 253.807 669.696 254.632 665.102L260.639 627.169C260.757 626.345 260.875 625.756 260.875 625.167C260.875 621.868 259.226 619.866 257.459 619.866L257.812 617.745H259.579C266.647 617.745 275.011 615.507 280.313 612.797L281.844 614.093L280.077 625.52C285.143 617.627 293.624 613.269 300.221 613.269C306.229 613.269 310.706 616.214 311.177 623.282ZM345.381 613.386C360.814 613.386 371.651 624.695 371.651 639.421C371.651 641.07 371.534 642.719 371.298 644.369C368.824 661.332 352.567 675.233 335.604 675.233C320.171 675.233 309.334 663.806 309.334 649.081C309.334 647.549 309.451 646.018 309.687 644.369C312.161 627.287 328.418 613.386 345.381 613.386ZM344.675 618.216C339.138 618.216 332.187 630.35 329.949 645.193C329.36 648.845 329.124 652.261 329.124 655.442C329.124 665.337 331.834 672.288 336.075 672.288C341.965 672.288 348.209 660.272 350.682 645.193C351.271 641.541 351.507 637.889 351.507 634.709C351.507 624.931 349.033 618.216 344.675 618.216ZM417.711 614.093C430.434 614.447 436.207 624.578 436.207 636.594C436.207 638.596 436.089 640.481 435.735 642.719C433.261 658.387 421.717 674.644 403.104 674.644H402.633C398.038 674.526 395.093 672.995 392.855 670.992L388.85 696.084C388.732 696.438 388.732 696.673 388.732 697.027V697.262V697.38V697.498V697.616V697.733C388.732 701.15 390.381 702.917 392.148 702.917L391.795 705.037H363.875L364.229 702.917C366.232 702.917 368.941 700.207 369.766 695.613L380.486 627.169C380.604 626.345 380.721 625.756 380.721 625.167C380.721 621.868 379.072 619.866 377.305 619.866L377.658 617.745C386.14 617.745 394.504 615.625 400.277 612.797L401.808 614.093L400.277 623.517C404.4 617.981 409.819 614.093 417.711 614.093ZM400.512 669.696C407.934 669.696 414.766 653.675 417.005 639.774C417.476 636.711 417.711 633.766 417.711 631.057C417.711 624.578 416.416 619.983 412.764 619.512H412.175C405.224 619.512 398.392 635.887 396.154 649.905C395.682 652.968 395.447 655.795 395.447 658.505C395.447 664.984 396.86 669.578 400.512 669.696ZM506.588 588.765L494.455 665.102C494.337 665.455 494.337 666.044 494.337 666.869C494.337 670.521 496.104 672.523 497.871 672.523L497.518 674.644H473.839L475.253 665.22C471.13 670.756 465.829 674.644 457.7 674.644C445.331 674.644 439.676 664.159 439.676 652.261C439.676 650.259 439.794 648.256 440.147 646.018C442.386 630.468 454.166 614.211 472.543 614.211H473.132C477.727 614.211 480.672 615.86 482.91 617.863L485.502 601.842C485.619 601.488 485.619 600.899 485.619 600.075C485.619 596.423 483.852 594.538 482.085 594.538L482.439 592.417C490.449 592.417 499.285 590.297 504.939 587.47L506.588 588.765ZM462.883 669.225H463.59C470.658 669.225 477.255 652.968 479.494 638.95C479.965 635.887 480.201 632.942 480.201 630.232C480.201 623.635 478.669 619.159 475.017 619.159C467.596 619.159 460.999 635.062 458.76 649.081C458.289 652.144 458.054 654.971 458.054 657.68C458.054 664.159 459.467 668.754 462.883 669.225ZM541.413 613.386C556.845 613.386 567.683 624.695 567.683 639.421C567.683 641.07 567.565 642.719 567.33 644.369C564.856 661.332 548.599 675.233 531.635 675.233C516.203 675.233 505.365 663.806 505.365 649.081C505.365 647.549 505.483 646.018 505.719 644.369C508.193 627.287 524.449 613.386 541.413 613.386ZM540.706 618.216C535.169 618.216 528.219 630.35 525.981 645.193C525.392 648.845 525.156 652.261 525.156 655.442C525.156 665.337 527.866 672.288 532.107 672.288C537.997 672.288 544.24 660.272 546.714 645.193C547.303 641.541 547.539 637.889 547.539 634.709C547.539 624.931 545.065 618.216 540.706 618.216ZM651.911 614.093H669.935L669.582 616.331C664.398 616.331 660.629 623.4 657.802 628.465L632.474 674.644H623.639L614.097 639.303L595.484 674.644H586.648L572.983 624.46C571.098 617.156 569.214 616.214 566.74 616.214L567.093 614.093H595.13L594.777 616.331C593.01 616.449 592.185 616.92 592.067 617.863V618.452C592.067 619.512 592.539 621.044 593.01 622.811L601.256 652.968L612.094 631.999L610.209 624.46C608.324 617.274 606.086 616.214 603.612 616.214L603.966 614.093H632.945L632.709 616.331C631.531 616.449 630.471 616.803 629.411 617.156C629.293 617.509 629.175 617.745 629.175 617.863V618.452C629.175 619.512 629.647 621.044 630.118 622.811L638.364 653.557L652.265 627.876C653.678 625.167 654.503 622.928 654.739 621.279C654.856 620.926 654.856 620.337 654.856 619.748C654.856 617.509 653.796 616.331 651.676 616.331L651.911 614.093ZM721.948 666.28V666.987C721.948 670.639 723.597 672.523 725.364 672.523L725.011 674.644H697.092L697.445 672.523C699.448 672.523 702.157 669.696 702.982 665.102L708.165 632.588C708.401 631.292 708.518 630.114 708.518 629.054C708.518 624.46 706.516 622.811 704.042 622.811C699.212 622.811 692.026 629.408 691.084 635.062L686.254 665.691C686.136 666.044 686.136 666.633 686.136 667.222C686.136 670.403 687.785 672.523 689.552 672.523L689.199 674.644H661.397L661.751 672.523C663.753 672.523 666.345 669.696 667.17 665.102L673.178 627.169C673.295 626.345 673.413 625.756 673.413 625.167C673.413 621.868 671.764 619.866 669.997 619.866L670.35 617.745H672.117C679.186 617.745 687.55 615.507 692.851 612.797L694.382 614.093L692.733 624.224C698.741 617.627 706.634 614.211 713.231 614.211C721.123 614.211 727.72 618.923 727.72 628.819C727.72 630.114 727.603 631.528 727.367 632.942C725.6 644.133 723.715 655.442 721.948 666.28Z" fill="#F0F0F0"/>
<path d="M797.823 204.863C798.889 193.674 799.688 182.752 800.221 171.83C800.753 166.236 801.02 160.908 801.286 155.314C801.553 152.118 801.553 148.921 801.553 145.991L822.864 157.712L828.458 160.908L839.646 166.769L839.913 166.503C836.45 163.839 833.253 161.175 830.056 158.511C828.458 157.179 826.593 155.847 824.995 154.782L820.2 150.786C814.606 146.523 809.278 142.261 803.684 138.265C805.548 136.401 807.413 134.536 809.278 132.405L817.27 122.815C822.597 116.421 828.191 110.028 833.519 103.368H833.253C826.593 108.43 820.2 114.024 813.806 119.352C810.61 122.016 807.413 124.68 804.216 127.61L801.553 130.007C801.286 122.016 800.753 114.024 800.221 105.766L799.688 97.7742C799.421 94.8439 799.421 92.18 799.155 89.5161C798.889 83.922 798.356 78.3278 797.823 73H797.557C797.29 78.3278 796.758 83.922 796.491 89.5161C796.225 92.18 795.958 94.8439 795.958 97.7742L795.426 105.766C794.893 114.557 794.36 123.081 794.094 131.872L789.299 128.942L778.11 122.815C770.918 118.819 763.459 114.823 756 111.094C762.393 116.421 768.787 121.749 775.446 127.077C778.909 129.475 782.106 132.138 785.303 134.802C787.434 136.401 789.565 137.999 791.696 139.331C787.168 144.392 782.905 149.72 778.377 155.048L774.114 159.843L762.127 174.228L762.393 174.494L771.983 166.503L777.045 162.507L781.84 158.245L794.094 147.855C794.094 150.253 794.094 152.917 794.36 155.314C794.626 160.908 794.893 166.236 795.426 171.83C795.958 182.752 796.758 193.674 797.823 204.863Z" fill="white"/>
<path d="M126.958 342.994C127.645 335.783 128.16 328.743 128.503 321.703C128.847 318.097 129.018 314.663 129.19 311.057C129.362 308.997 129.362 306.936 129.362 305.047L143.098 312.603L146.704 314.663L153.916 318.441L154.087 318.269C151.855 316.552 149.795 314.835 147.734 313.118C146.704 312.259 145.502 311.401 144.472 310.714L141.381 308.138C137.775 305.391 134.341 302.644 130.735 300.068C131.937 298.866 133.139 297.664 134.341 296.29L139.492 290.109C142.926 285.988 146.532 281.867 149.966 277.574H149.795C145.502 280.837 141.381 284.443 137.26 287.877C135.2 289.594 133.139 291.311 131.079 293.2L129.362 294.745C129.19 289.594 128.847 284.443 128.503 279.12L128.16 273.969C127.988 272.08 127.988 270.363 127.816 268.646C127.645 265.04 127.301 261.434 126.958 258H126.786C126.614 261.434 126.271 265.04 126.099 268.646C125.928 270.363 125.756 272.08 125.756 273.969L125.412 279.12C125.069 284.786 124.726 290.281 124.554 295.947L121.463 294.058L114.252 290.109C109.616 287.533 104.808 284.958 100 282.554C104.121 285.988 108.242 289.422 112.535 292.856C114.767 294.402 116.827 296.119 118.888 297.836C120.261 298.866 121.635 299.896 123.009 300.755C120.09 304.017 117.342 307.451 114.423 310.885L111.676 313.976L103.949 323.248L104.121 323.42L110.302 318.269L113.565 315.693L116.655 312.946L124.554 306.249C124.554 307.795 124.554 309.512 124.726 311.057C124.897 314.663 125.069 318.097 125.412 321.703C125.756 328.743 126.271 335.783 126.958 342.994Z" fill="white"/>
</svg>
