<svg width="913" height="1080" viewBox="0 0 913 1080" fill="none" xmlns="http://www.w3.org/2000/svg">
<rect width="913" height="1126" fill="#698662"/>
<path d="M139.723 279.462L140.371 275.357C144.477 275.357 149.663 269.955 151.175 261.096L170.406 140.742C170.622 140.094 170.622 139.662 170.622 139.013V138.797V138.149V137.933V137.717V137.501V137.285C170.622 130.37 167.165 126.481 163.708 126.481L164.356 122.376H211.892C255.972 122.376 282.549 144.847 282.549 184.821C282.549 190.007 282.117 195.409 281.253 201.243C273.258 251.373 236.957 279.462 187.044 279.462H139.723ZM210.812 129.29L188.124 272.764C214.701 267.794 233.932 244.242 241.927 201.027C242.791 193.897 243.223 187.414 243.223 181.364C243.223 150.249 231.555 133.395 210.812 129.29ZM390.124 262.825L392.501 265.634C390.124 268.443 387.099 271.252 384.29 273.628C379.104 277.95 370.461 280.327 362.034 280.327C350.799 280.327 340.643 275.789 340.643 265.634C340.643 264.553 340.643 263.689 340.859 263.041L341.723 257.855C335.673 265.418 327.895 271.684 319.035 275.789C312.985 278.382 307.151 279.678 301.317 279.678C287.488 279.678 276.252 271.9 276.252 257.423C276.252 255.91 276.469 254.398 276.685 252.885C278.413 240.137 289.217 226.308 308.664 220.69C324.869 216.152 344.748 215.504 350.366 202.323L350.799 199.947C351.231 196.705 351.447 193.897 351.447 191.52C351.447 181.148 347.341 177.043 342.372 177.043C335.673 177.043 326.382 184.605 324.005 195.625L323.789 196.922C323.573 197.57 323.573 198.002 323.573 198.65V198.866V199.514V199.731V200.163V200.379V200.595C323.573 203.836 324.005 206.645 325.95 208.157C321.844 212.263 315.578 214.424 308.88 214.424C300.021 214.424 291.594 210.318 291.594 200.163C291.594 198.65 291.594 197.57 291.81 196.922C294.619 178.555 319.252 166.455 342.156 166.455H343.884C365.06 167.103 385.587 174.882 385.587 197.786C385.587 199.947 385.371 202.323 384.938 204.916L375.863 262.176V263.041C375.863 266.282 377.808 267.794 380.401 267.794C383.642 267.794 387.747 266.066 390.124 262.825ZM331.784 258.935C335.457 256.991 339.779 253.533 343.236 248.131L348.638 213.127C338.914 218.961 326.382 226.74 318.603 236.031C314.93 240.353 312.985 244.458 312.553 248.131C312.337 248.564 312.337 248.996 312.337 249.428V250.292V250.508V250.724V250.94C312.337 257.207 316.01 261.528 322.709 261.528C325.518 261.528 328.543 260.664 331.784 258.935ZM482.026 168.616H514.869L514.221 172.721C504.497 172.721 497.583 186.334 492.397 195.625C491.749 196.489 491.533 197.138 491.317 197.786L436.65 297.397C429.735 309.713 418.283 337.803 400.349 337.803C390.842 337.803 385.44 330.24 385.44 321.381C385.44 319.869 385.44 318.788 385.656 318.14C386.736 311.658 390.41 305.824 396.244 300.422C398.62 305.391 402.51 307.984 407.912 307.984C415.042 307.984 423.037 303.231 427.575 294.804L436.001 279.678H428.007L402.942 187.63C399.485 174.234 395.811 172.505 391.49 172.505L392.138 168.616H443.564L442.916 172.721C439.675 172.937 438.162 173.801 437.946 175.53V176.61C437.946 178.555 438.81 181.364 439.675 184.605L455.448 243.378L482.674 193.897C485.267 189.143 486.779 185.253 487.211 182.012C487.427 181.364 487.427 180.284 487.427 179.203C487.427 174.882 485.483 172.721 481.377 172.721L482.026 168.616ZM620.792 124.536L599.184 261.312C598.968 261.96 598.968 262.609 598.968 263.257V264.121V264.337V264.553V264.769V264.985V265.201C598.968 271.9 601.561 275.573 604.154 275.573H605.45L604.802 279.678H549.055L549.703 275.573H550.999C554.24 275.573 558.778 270.171 560.29 261.312L577.36 153.706V152.41C577.36 146.36 570.23 144.847 566.989 144.847H565.692L566.557 140.742H567.637C585.787 137.069 601.777 131.019 616.47 122.592H617.983L620.792 124.536ZM754.022 145.712C744.731 159.541 731.551 172.937 718.802 185.686C713.832 190.223 709.943 194.545 705.838 198.866C693.089 212.695 684.662 228.901 682.285 242.73C681.853 245.106 681.637 247.483 681.637 249.644C681.637 259.8 685.959 267.362 695.682 269.955H696.546L696.33 272.116C685.959 279.678 672.562 283.784 660.678 283.784C645.769 283.784 633.452 277.086 633.452 261.312C633.452 260.448 633.668 259.367 633.668 258.503L633.884 256.774C637.342 234.951 669.321 208.59 697.843 184.605C708.431 175.962 717.938 167.751 725.933 160.189C722.908 160.621 719.666 160.837 715.993 160.837C701.516 160.837 685.743 157.812 671.049 154.571C665.215 153.058 659.381 152.194 654.196 151.33C651.819 150.897 649.658 150.681 648.145 150.681C640.583 150.681 636.261 154.355 634.965 161.917L629.995 162.133C632.372 150.897 637.126 133.611 650.954 125.617C657.221 122.159 664.783 120.863 672.778 120.863H674.507C684.23 120.863 693.953 122.808 704.109 124.536C714.265 126.265 724.204 127.993 736.52 127.993C745.163 127.993 751.646 125.185 756.183 120.647H757.696L762.882 122.592H763.746C762.665 127.561 761.585 131.883 758.992 137.933C757.912 139.878 755.967 142.903 754.022 145.712Z" fill="white"/>
<path d="M154.524 382.001L152.168 403.912L149.576 404.619C148.28 392.368 140.623 388.48 130.61 387.538L119.536 457.513C119.418 457.866 119.418 458.102 119.418 458.455V458.927V459.044V459.162V459.28V459.398C119.418 463.167 121.303 465.288 123.188 465.288L122.835 467.526H92.0881L92.4415 465.288C94.6798 465.288 97.6249 462.343 98.4495 457.513L109.523 387.538C99.2741 388.48 90.2033 392.368 85.1378 404.619L82.7817 403.912L87.376 382.001H154.524ZM193.834 416.282C193.716 416.635 193.716 416.871 193.716 417.224C193.716 417.342 193.834 417.695 193.834 417.813C193.834 418.167 193.716 418.402 193.598 418.756C192.656 425.706 185.941 430.3 179.58 430.3C177.813 430.3 176.164 429.947 174.514 429.24C175.81 427.826 176.517 426.295 176.87 424.528C176.87 424.175 176.988 423.703 176.988 423.35C176.988 420.169 175.221 417.813 172.394 417.813C170.627 417.813 168.506 418.638 166.268 420.876C164.266 422.643 162.734 424.528 161.438 426.295L156.373 458.691C156.255 459.044 156.255 459.28 156.255 459.516V459.633V459.987V460.105V460.222V460.34C156.255 463.639 157.904 465.523 159.671 465.523L159.318 467.644H131.516L131.87 465.523C133.872 465.523 136.464 462.696 137.289 458.102L143.297 420.169C143.414 419.345 143.532 418.756 143.532 418.167C143.532 414.868 141.883 412.866 140.116 412.866L140.469 410.745H142.236C149.305 410.745 157.669 408.507 162.97 405.797L164.501 407.093L162.734 418.52C167.8 410.627 176.281 406.269 182.878 406.269C188.886 406.269 193.363 409.214 193.834 416.282ZM251.386 458.455L252.681 459.987C251.386 461.518 249.736 463.05 248.205 464.345C245.378 466.702 240.665 467.997 236.071 467.997C229.945 467.997 224.409 465.523 224.409 459.987C224.409 459.398 224.409 458.927 224.526 458.573L224.998 455.746C221.699 459.869 217.458 463.285 212.628 465.523C209.33 466.937 206.149 467.644 202.968 467.644C195.429 467.644 189.303 463.403 189.303 455.51C189.303 454.686 189.421 453.861 189.539 453.036C190.481 446.086 196.371 438.547 206.974 435.484C215.809 433.01 226.647 432.656 229.71 425.47L229.945 424.175C230.181 422.408 230.299 420.876 230.299 419.58C230.299 413.926 228.06 411.687 225.351 411.687C221.699 411.687 216.634 415.811 215.338 421.819L215.22 422.525C215.102 422.879 215.102 423.114 215.102 423.468V423.586V423.939V424.057V424.292V424.41V424.528C215.102 426.295 215.338 427.826 216.398 428.651C214.16 430.889 210.743 432.067 207.092 432.067C202.262 432.067 197.667 429.829 197.667 424.292C197.667 423.468 197.667 422.879 197.785 422.525C199.317 412.512 212.746 405.915 225.233 405.915H226.176C237.72 406.269 248.912 410.509 248.912 422.997C248.912 424.175 248.794 425.47 248.558 426.884L243.61 458.102V458.573C243.61 460.34 244.671 461.165 246.084 461.165C247.851 461.165 250.09 460.222 251.386 458.455ZM219.579 456.335C221.581 455.275 223.937 453.39 225.822 450.445L228.767 431.361C223.466 434.541 216.634 438.782 212.393 443.848C210.39 446.204 209.33 448.442 209.094 450.445C208.976 450.68 208.976 450.916 208.976 451.152V451.623V451.741V451.858V451.976C208.976 455.392 210.979 457.748 214.631 457.748C216.162 457.748 217.812 457.277 219.579 456.335ZM348.931 382.472L336.915 458.22C336.797 458.573 336.797 459.162 336.797 459.987C336.797 463.639 338.564 465.641 340.331 465.641L340.096 467.762H311.823L312.059 465.641C314.061 465.641 316.889 463.05 317.713 458.691L328.433 390.13C328.433 388.834 327.373 388.009 326.077 387.538C323.368 386.949 320.541 386.478 317.36 386.478H315.593C308.525 386.595 304.991 390.601 304.166 395.666C304.048 396.02 304.048 396.491 304.048 396.844V396.962V397.551V397.669V397.905V398.022C304.048 403.206 306.286 409.096 309.703 413.808C310.292 414.161 310.645 414.75 310.998 415.222C312.883 418.049 314.061 420.994 314.061 424.646V425.706V425.942V426.059V426.177V426.295C314.061 426.648 314.061 426.884 313.944 427.12C313.001 434.07 306.875 437.486 301.221 437.486C297.098 437.486 293.21 435.601 291.443 431.95C293.917 430.065 295.92 426.766 296.98 423.35C297.333 422.408 297.569 421.465 297.687 420.641C297.805 419.816 297.922 419.109 297.922 418.284C297.922 413.101 294.859 410.156 291.09 410.156C286.967 410.156 282.137 413.337 278.485 420.876C276.129 425.706 274.951 431.007 274.951 436.544C274.951 447.382 280.134 457.159 292.739 457.159C294.035 457.159 294.977 457.042 296.273 456.924C301.81 456.099 306.875 453.508 310.292 448.442L312.294 449.267C306.051 460.811 295.448 468.94 280.723 468.94C267.058 468.94 254.571 457.277 254.571 442.081C254.571 440.667 254.689 439.136 254.924 437.604C255.749 432.892 257.398 428.298 259.754 424.41C267.294 412.041 279.192 406.504 290.619 406.151H291.797C293.092 406.151 294.035 406.269 295.331 406.386C294.859 404.619 294.624 402.97 294.624 401.203V400.614V400.496V400.378V400.261V400.143V400.025C294.624 399.672 294.624 399.2 294.742 398.847C296.037 389.894 304.637 382.472 316.064 382.472H316.535C321.365 382.472 325.253 383.415 329.494 383.886C332.674 383.886 337.151 383.415 340.803 382.59C342.923 382.237 345.161 381.765 347.4 381.176L348.931 382.472ZM358.355 426.059L370.489 454.45C374.848 464.228 375.908 465.641 378.5 465.641L378.264 467.762H354.586L341.156 436.897L356.353 422.408C359.651 419.227 360.947 416.871 361.3 414.633C361.3 414.279 361.418 414.044 361.418 413.69C361.418 411.216 359.651 409.685 357.413 409.214L357.766 406.975H386.039L385.686 409.096C379.56 409.449 370.96 414.515 364.01 420.876L358.355 426.059ZM481.354 437.133L483.239 437.722C480.058 446.793 477.348 454.803 474.639 463.756C466.982 467.88 458.5 469.411 450.018 469.411C425.515 469.411 413.97 452.094 413.97 432.656C413.97 429.947 414.206 427.709 414.559 424.999C417.033 409.449 426.575 394.017 442.95 385.889C448.251 383.179 454.612 381.648 461.209 381.059C461.681 380.941 462.152 380.941 462.623 380.941H463.094H463.212H463.33H463.448H463.565H463.683H463.801H463.919C473.579 380.941 484.299 384.593 490.189 388.598L482.65 411.334L480.647 411.805L478.762 406.622C473.696 393.31 466.039 385.653 458.382 385.653C451.196 385.653 444.364 392.368 439.769 407.918C438.945 410.627 438.473 413.455 438.002 416.4C437.295 420.758 436.942 425.235 436.942 429.711C436.942 441.845 439.651 453.861 444.953 459.398C447.073 461.636 449.547 462.814 452.256 462.814C456.497 462.814 461.798 460.105 468.395 453.39C472.518 449.149 476.759 443.73 481.354 437.133ZM552.46 407.093L544.685 456.453C544.567 456.806 544.567 457.395 544.567 458.22C544.567 461.872 546.216 463.756 547.983 463.756L547.63 465.877H545.863C538.677 465.877 530.313 467.173 525.247 470L523.598 468.586L525.247 458.573C519.239 466.112 511.7 469.411 505.103 469.411C496.503 469.411 489.435 463.756 489.435 453.036C489.435 451.741 489.553 450.327 489.789 448.795L494.501 419.227C494.618 418.873 494.618 418.52 494.618 417.931C494.618 414.75 492.851 412.866 491.084 412.866L491.438 410.745C499.331 410.745 508.166 408.625 514.174 405.797L515.587 407.093L508.873 449.738C508.755 450.327 508.637 450.916 508.637 451.387V451.623V452.212V452.33V452.447V452.565V452.683V452.801V452.919C508.637 457.748 510.875 459.633 514.056 459.633C519.239 459.633 525.836 454.568 526.779 449.267L531.491 419.934C531.609 419.58 531.609 418.991 531.609 418.167C531.609 414.515 529.842 412.866 528.075 412.866L528.428 410.745C536.321 410.745 545.038 408.625 551.046 405.797L552.46 407.093ZM614.888 416.282C614.77 416.635 614.77 416.871 614.77 417.224C614.77 417.342 614.888 417.695 614.888 417.813C614.888 418.167 614.77 418.402 614.652 418.756C613.71 425.706 606.995 430.3 600.634 430.3C598.867 430.3 597.218 429.947 595.568 429.24C596.864 427.826 597.571 426.295 597.924 424.528C597.924 424.175 598.042 423.703 598.042 423.35C598.042 420.169 596.275 417.813 593.448 417.813C591.681 417.813 589.56 418.638 587.322 420.876C585.319 422.643 583.788 424.528 582.492 426.295L577.427 458.691C577.309 459.044 577.309 459.28 577.309 459.516V459.633V459.987V460.105V460.222V460.34C577.309 463.639 578.958 465.523 580.725 465.523L580.372 467.644H552.57L552.924 465.523C554.926 465.523 557.518 462.696 558.343 458.102L564.351 420.169C564.468 419.345 564.586 418.756 564.586 418.167C564.586 414.868 562.937 412.866 561.17 412.866L561.523 410.745H563.29C570.359 410.745 578.723 408.507 584.024 405.797L585.555 407.093L583.788 418.52C588.854 410.627 597.335 406.269 603.932 406.269C609.94 406.269 614.417 409.214 614.888 416.282ZM672.984 416.282C672.867 416.635 672.867 416.871 672.867 417.224C672.867 417.342 672.984 417.695 672.984 417.813C672.984 418.167 672.867 418.402 672.749 418.756C671.806 425.706 665.092 430.3 658.73 430.3C656.963 430.3 655.314 429.947 653.665 429.24C654.96 427.826 655.667 426.295 656.021 424.528C656.021 424.175 656.138 423.703 656.138 423.35C656.138 420.169 654.371 417.813 651.544 417.813C649.777 417.813 647.657 418.638 645.418 420.876C643.416 422.643 641.884 424.528 640.588 426.295L635.523 458.691C635.405 459.044 635.405 459.28 635.405 459.516V459.633V459.987V460.105V460.222V460.34C635.405 463.639 637.054 465.523 638.821 465.523L638.468 467.644H610.666L611.02 465.523C613.023 465.523 615.614 462.696 616.439 458.102L622.447 420.169C622.565 419.345 622.682 418.756 622.682 418.167C622.682 414.868 621.033 412.866 619.266 412.866L619.62 410.745H621.387C628.455 410.745 636.819 408.507 642.12 405.797L643.651 407.093L641.884 418.52C646.95 410.627 655.432 406.269 662.029 406.269C668.037 406.269 672.513 409.214 672.984 416.282ZM712.136 456.806C718.616 455.981 723.445 452.212 726.626 448.324L728.629 449.031C722.385 460.222 710.958 468.822 696.94 468.822C681.508 468.822 670.905 457.159 670.905 442.552C670.905 440.903 671.023 439.253 671.259 437.604C673.733 420.758 689.872 406.269 706.835 406.269C722.032 406.269 731.809 417.695 731.809 432.303C731.809 434.07 731.692 435.837 731.338 437.604H691.285C691.639 447.971 696.704 457.042 709.191 457.042C710.134 457.042 711.076 456.924 712.136 456.806ZM691.285 433.599H712.725C712.372 418.873 708.131 412.512 703.066 412.512C698.353 412.512 693.523 418.284 691.756 428.651C691.403 430.183 691.403 431.832 691.285 433.599ZM790.398 459.28V459.987C790.398 463.639 792.047 465.523 793.814 465.523L793.461 467.644H765.542L765.895 465.523C767.898 465.523 770.607 462.696 771.432 458.102L776.615 425.588C776.851 424.292 776.969 423.114 776.969 422.054C776.969 417.46 774.966 415.811 772.492 415.811C767.662 415.811 760.476 422.408 759.534 428.062L754.704 458.691C754.586 459.044 754.586 459.633 754.586 460.222C754.586 463.403 756.235 465.523 758.002 465.523L757.649 467.644H729.847L730.201 465.523C732.203 465.523 734.795 462.696 735.62 458.102L741.628 420.169C741.745 419.345 741.863 418.756 741.863 418.167C741.863 414.868 740.214 412.866 738.447 412.866L738.8 410.745H740.567C747.636 410.745 756 408.507 761.301 405.797L762.832 407.093L761.183 417.224C767.191 410.627 775.084 407.211 781.681 407.211C789.573 407.211 796.17 411.923 796.17 421.819C796.17 423.114 796.053 424.528 795.817 425.942C794.05 437.133 792.165 448.442 790.398 459.28ZM838.833 410.509H829.526L821.987 458.809C821.987 459.162 821.869 459.28 821.869 459.633C821.869 461.165 822.929 461.872 824.225 461.872C825.992 461.872 828.23 460.929 829.526 459.162L830.94 460.694C829.644 462.225 827.995 463.756 826.463 465.052C823.636 467.408 818.924 468.704 814.33 468.704C808.204 468.704 802.785 466.348 802.785 460.811V460.694V460.458V460.34V460.222V460.105V459.987C802.785 459.751 802.785 459.516 802.903 459.28L810.442 410.509H804.67L805.259 407.093C813.741 406.504 824.932 394.959 831.529 387.42L833.06 388.362L830.115 407.093H839.422L838.833 410.509ZM322.151 534.596C323.8 537.777 324.625 540.958 324.625 544.02C324.625 544.963 324.507 546.023 324.389 546.966C322.151 560.866 304.834 573.118 284.101 573.118H283.276H283.158H283.04H282.923H282.805H282.687H282.569C281.98 573.118 281.509 573.118 280.92 573C270.553 572.411 260.069 568.759 255.121 564.989C257.006 558.51 259.126 548.733 260.658 540.84L263.25 540.369C265.488 551.678 269.493 560.277 276.561 564.518C280.684 566.992 284.336 568.052 287.988 568.052C295.174 568.052 300.711 563.694 301.653 558.039C301.771 557.686 301.771 557.214 301.771 556.625C301.771 552.502 299.415 548.144 293.878 544.02C283.512 536.481 266.077 527.764 264.781 514.687C264.663 514.334 264.663 513.863 264.663 513.509V513.392V513.038V512.92V512.803V512.685V512.567V512.331C264.663 510.918 264.781 509.504 265.017 508.208C267.49 492.305 285.514 483.705 301.889 483.705C302.831 483.705 303.656 483.823 304.598 483.823C315.436 484.412 323.211 487.946 328.512 491.598C326.628 498.195 324.861 505.617 323.447 512.685L320.62 513.038C318.853 504.203 316.143 497.959 312.491 494.072C308.839 490.184 304.363 488.653 300.24 488.653C293.643 488.653 287.988 492.776 287.046 498.431C286.928 498.666 286.928 498.902 286.928 499.137V499.255V499.373V499.609V499.726V499.844V499.962C286.928 503.261 288.459 507.148 292.583 510.8C301.418 519.046 317.086 525.172 322.151 534.596ZM369.886 559.806C376.365 558.981 381.195 555.212 384.376 551.324L386.379 552.031C380.135 563.222 368.708 571.822 354.69 571.822C339.257 571.822 328.655 560.159 328.655 545.552C328.655 543.903 328.773 542.253 329.009 540.604C331.482 523.758 347.621 509.269 364.585 509.269C379.782 509.269 389.559 520.695 389.559 535.303C389.559 537.07 389.442 538.837 389.088 540.604H349.035C349.388 550.971 354.454 560.042 366.941 560.042C367.884 560.042 368.826 559.924 369.886 559.806ZM349.035 536.599H370.475C370.122 521.873 365.881 515.512 360.815 515.512C356.103 515.512 351.273 521.284 349.506 531.651C349.153 533.183 349.153 534.832 349.035 536.599ZM492.967 513.038H483.661L480.48 532.24L475.886 561.102V561.691C475.886 563.34 476.711 564.165 478.242 564.165C480.009 564.165 482.247 563.105 483.661 561.337L485.075 562.869C483.543 564.4 482.247 565.932 480.48 567.228C477.653 569.584 472.823 570.997 468.229 570.997C462.103 570.997 456.566 568.641 456.566 562.987C456.566 562.398 456.566 561.809 456.684 561.455L464.341 513.038H458.451L459.04 509.622L462.574 509.269C467.404 508.326 469.171 504.792 470.231 499.726L470.467 498.548C470.585 497.724 470.703 497.017 470.703 496.192C470.703 489.478 465.755 486.65 459.983 486.65C452.914 486.65 445.139 491.127 443.844 498.077C443.844 498.548 443.726 498.902 443.726 499.726C443.726 507.384 448.791 513.627 451.619 520.46C452.679 522.58 453.268 524.936 453.268 527.41V528.235C453.15 528.47 453.15 528.706 453.15 528.942V529.059V529.177V529.413V529.531V529.648V529.766C451.972 536.834 446.082 540.251 440.427 540.251C436.304 540.251 432.299 538.366 430.414 534.714C433.123 532.711 434.891 529.648 436.186 525.997C436.54 525.054 436.658 524.112 436.775 523.287C436.893 522.462 437.011 521.756 437.011 520.931C437.011 515.748 433.948 512.803 430.178 512.803C426.055 512.803 421.108 515.983 417.691 523.523C416.16 526.703 415.1 530.237 414.511 533.889C414.157 535.774 414.039 537.659 414.039 539.544C414.039 550.382 419.105 559.924 431.71 559.924C438.307 559.924 445.257 557.45 449.498 551.206L451.501 552.031C445.022 563.694 434.773 571.822 419.694 571.822C406.029 571.822 393.659 560.042 393.659 544.845C393.659 543.314 393.777 541.782 394.013 540.251C394.72 535.656 396.251 531.18 398.725 527.057C406.382 514.687 418.398 509.151 429.707 508.797H430.767C433.241 508.797 435.597 509.151 437.718 509.858C437.364 507.619 437.129 505.734 437.129 504.203C437.129 503.143 437.247 502.083 437.364 501.14C439.249 489.36 451.265 482.292 462.81 482.292C474.119 482.292 484.721 489.006 484.721 503.967C484.721 505.97 484.603 507.855 484.25 509.622H493.556L492.967 513.038ZM510.675 504.203C505.138 504.203 501.133 500.433 501.133 495.368V495.25V495.014V494.897V494.779V494.661V494.543C501.133 494.308 501.133 494.072 501.25 493.836C502.193 488.064 507.73 483.352 513.973 483.352C519.274 483.352 523.162 487.122 523.162 492.187C523.162 492.894 523.162 493.483 523.044 493.836C522.102 499.491 516.565 504.203 510.675 504.203ZM519.863 510.093L511.735 561.691C511.617 562.044 511.617 562.28 511.617 562.516V562.633V562.987V563.105V563.222V563.34C511.617 566.639 513.266 568.523 515.033 568.523L514.68 570.644H486.878L487.232 568.523C489.235 568.523 491.826 565.696 492.651 561.102L498.659 523.169C498.777 522.345 498.894 521.756 498.894 521.167C498.894 517.868 497.245 515.866 495.478 515.866L495.831 513.745C503.489 513.745 512.677 511.625 518.332 508.797L519.863 510.093ZM558.554 509.386C573.986 509.386 584.824 520.695 584.824 535.421C584.824 537.07 584.707 538.719 584.471 540.369C581.997 557.332 565.74 571.233 548.777 571.233C533.344 571.233 522.507 559.806 522.507 545.081C522.507 543.549 522.624 542.018 522.86 540.369C525.334 523.287 541.591 509.386 558.554 509.386ZM557.847 514.216C552.311 514.216 545.36 526.35 543.122 541.193C542.533 544.845 542.297 548.261 542.297 551.442C542.297 561.337 545.007 568.288 549.248 568.288C555.138 568.288 561.382 556.272 563.855 541.193C564.444 537.541 564.68 533.889 564.68 530.709C564.68 520.931 562.206 514.216 557.847 514.216ZM643.489 562.28V562.987C643.489 566.639 645.139 568.523 646.906 568.523L646.552 570.644H618.633L618.986 568.523C620.989 568.523 623.698 565.696 624.523 561.102L629.706 528.588C629.942 527.292 630.06 526.114 630.06 525.054C630.06 520.46 628.057 518.811 625.583 518.811C620.753 518.811 613.567 525.408 612.625 531.062L607.795 561.691C607.677 562.044 607.677 562.633 607.677 563.222C607.677 566.403 609.326 568.523 611.094 568.523L610.74 570.644H582.939L583.292 568.523C585.295 568.523 587.886 565.696 588.711 561.102L594.719 523.169C594.837 522.345 594.954 521.756 594.954 521.167C594.954 517.868 593.305 515.866 591.538 515.866L591.892 513.745H593.659C600.727 513.745 609.091 511.507 614.392 508.797L615.923 510.093L614.274 520.224C620.282 513.627 628.175 510.211 634.772 510.211C642.665 510.211 649.262 514.923 649.262 524.819C649.262 526.114 649.144 527.528 648.908 528.942C647.141 540.133 645.256 551.442 643.489 562.28Z" fill="#F0F0F0"/>
<path d="M837.823 204.863C838.889 193.674 839.688 182.752 840.221 171.83C840.753 166.236 841.02 160.908 841.286 155.314C841.553 152.118 841.553 148.921 841.553 145.991L862.864 157.712L868.458 160.908L879.646 166.769L879.913 166.503C876.45 163.839 873.253 161.175 870.056 158.511C868.458 157.179 866.593 155.847 864.995 154.782L860.2 150.786C854.606 146.523 849.278 142.261 843.684 138.265C845.548 136.401 847.413 134.536 849.278 132.405L857.27 122.815C862.597 116.421 868.191 110.028 873.519 103.368H873.253C866.593 108.43 860.2 114.024 853.806 119.352C850.61 122.016 847.413 124.68 844.216 127.61L841.553 130.007C841.286 122.016 840.753 114.024 840.221 105.766L839.688 97.7742C839.421 94.8439 839.421 92.18 839.155 89.5161C838.889 83.922 838.356 78.3278 837.823 73H837.557C837.29 78.3278 836.758 83.922 836.491 89.5161C836.225 92.18 835.958 94.8439 835.958 97.7742L835.426 105.766C834.893 114.557 834.36 123.081 834.094 131.872L829.299 128.942L818.11 122.815C810.918 118.819 803.459 114.823 796 111.094C802.393 116.421 808.787 121.749 815.446 127.077C818.909 129.475 822.106 132.138 825.303 134.802C827.434 136.401 829.565 137.999 831.696 139.331C827.168 144.392 822.905 149.72 818.377 155.048L814.114 159.843L802.127 174.228L802.393 174.494L811.983 166.503L817.045 162.507L821.84 158.245L834.094 147.855C834.094 150.253 834.094 152.917 834.36 155.314C834.626 160.908 834.893 166.236 835.426 171.83C835.958 182.752 836.758 193.674 837.823 204.863Z" fill="white"/>
<path d="M86.9578 342.994C87.6447 335.783 88.1598 328.743 88.5032 321.703C88.8466 318.097 89.0183 314.663 89.19 311.057C89.3617 308.997 89.3617 306.936 89.3617 305.047L103.098 312.603L106.704 314.663L113.916 318.441L114.087 318.269C111.855 316.552 109.795 314.835 107.734 313.118C106.704 312.259 105.502 311.401 104.472 310.714L101.381 308.138C97.7753 305.391 94.3412 302.644 90.7354 300.068C91.9373 298.866 93.1393 297.664 94.3412 296.29L99.4924 290.109C102.926 285.988 106.532 281.867 109.966 277.574H109.795C105.502 280.837 101.381 284.443 97.2602 287.877C95.1997 289.594 93.1393 291.311 91.0788 293.2L89.3617 294.745C89.19 289.594 88.8466 284.443 88.5032 279.12L88.1598 273.969C87.9881 272.08 87.9881 270.363 87.8164 268.646C87.6447 265.04 87.3013 261.434 86.9578 258H86.7861C86.6144 261.434 86.271 265.04 86.0993 268.646C85.9276 270.363 85.7559 272.08 85.7559 273.969L85.4125 279.12C85.0691 284.786 84.7257 290.281 84.554 295.947L81.4632 294.058L74.2516 290.109C69.6155 287.533 64.8078 284.958 60 282.554C64.1209 285.988 68.2419 289.422 72.5345 292.856C74.7667 294.402 76.8272 296.119 78.8877 297.836C80.2613 298.866 81.635 299.896 83.0086 300.755C80.0896 304.017 77.3423 307.451 74.4233 310.885L71.676 313.976L63.9492 323.248L64.1209 323.42L70.3024 318.269L73.5648 315.693L76.6555 312.946L84.554 306.249C84.554 307.795 84.554 309.512 84.7257 311.057C84.8974 314.663 85.0691 318.097 85.4125 321.703C85.7559 328.743 86.271 335.783 86.9578 342.994Z" fill="white"/>
</svg>
