<svg width="256" height="256" viewBox="0 0 256 256" fill="none" xmlns="http://www.w3.org/2000/svg">
<rect width="256" height="256" fill="#CAE3DB"/>
<path d="M127.345 233.957C129.058 215.973 130.342 198.417 131.199 180.861C132.055 171.869 132.483 163.305 132.911 154.312C133.34 149.174 133.34 144.036 133.34 139.326L167.595 158.166L176.587 163.305L194.572 172.725L195 172.297C189.433 168.015 184.295 163.733 179.157 159.451C176.587 157.31 173.59 155.169 171.021 153.456L163.313 147.033C154.321 140.182 145.757 133.331 136.765 126.908C139.763 123.911 142.76 120.913 145.757 117.488L158.603 102.073C167.167 91.7959 176.159 81.5192 184.723 70.8143H184.295C173.59 78.95 163.313 87.9421 153.037 96.5061C147.898 100.788 142.76 105.07 137.622 109.78L133.34 113.634C132.911 100.788 132.055 87.9421 131.199 74.6681L130.342 61.8222C129.914 57.1121 129.914 52.8301 129.486 48.5481C129.058 39.556 128.201 30.5639 127.345 22H126.917C126.488 30.5639 125.632 39.556 125.204 48.5481C124.776 52.8301 124.348 57.1121 124.348 61.8222L123.491 74.6681C122.635 88.7985 121.778 102.501 121.35 116.631L113.643 111.921L95.6584 102.073C84.0971 95.6497 72.1076 89.2267 60.1182 83.232C70.3949 91.7959 80.6716 100.36 91.3765 108.924C96.943 112.777 102.081 117.059 107.22 121.341C110.645 123.911 114.071 126.48 117.496 128.621C110.217 136.756 103.366 145.32 96.0866 153.884L89.2355 161.592L69.9667 184.714L70.3949 185.143L85.8099 172.297L93.9456 165.874L101.653 159.023L121.35 142.323C121.35 146.177 121.35 150.459 121.778 154.312C122.207 163.305 122.635 171.869 123.491 180.861C124.348 198.417 125.632 215.973 127.345 233.957Z" fill="#536A4E"/>
</svg>
