<svg width="60" height="60" viewBox="0 0 60 60" fill="none" xmlns="http://www.w3.org/2000/svg">
<path fill-rule="evenodd" clip-rule="evenodd" d="M16.5322 13.0243C15.5515 12.2617 14.1334 12.331 13.2322 13.2322C12.2559 14.2085 12.2559 15.7915 13.2322 16.7678L26.4645 30L13.2322 43.2322L13.0243 43.4678C12.2617 44.4485 12.331 45.8666 13.2322 46.7678C14.2085 47.7441 15.7915 47.7441 16.7678 46.7678L30 33.5355L43.2322 46.7678L43.4678 46.9757C44.4485 47.7383 45.8666 47.669 46.7678 46.7678C47.7441 45.7915 47.7441 44.2085 46.7678 43.2322L33.5355 30L46.7678 16.7678L46.9757 16.5322C47.7383 15.5515 47.669 14.1334 46.7678 13.2322C45.7915 12.2559 44.2085 12.2559 43.2322 13.2322L30 26.4645L16.7678 13.2322L16.5322 13.0243Z" fill="#171717"/>
</svg>
