<svg width="60" height="60" viewBox="0 0 60 60" fill="none" xmlns="http://www.w3.org/2000/svg">
<path d="M47.5 28.75C47.5 26.6789 49.1789 25 51.25 25V25C53.3211 25 55 26.6789 55 28.75V28.75C55 30.8211 53.3211 32.5 51.25 32.5V32.5C49.1789 32.5 47.5 30.8211 47.5 28.75V28.75Z" fill="#171717"/>
<path fill-rule="evenodd" clip-rule="evenodd" d="M14.9514 34.5097L16.7888 43.6966C16.9404 44.4545 17.6058 45 18.3787 45C19.2741 45 20 44.2741 20 43.3787V35H25V43.3787C25 47.0355 22.0355 50 18.3787 50C15.2224 50 12.5049 47.7722 11.8859 44.6772L10.0485 35.4903L14.9514 34.5097Z" fill="#171717"/>
<path fill-rule="evenodd" clip-rule="evenodd" d="M52.5 18.7718C52.5 12.0137 45.1648 7.80671 39.3316 11.2192L29.5859 16.9207C26.1391 18.9371 22.2177 19.9999 18.2244 19.9999H13.75C8.91751 19.9999 5 23.9174 5 28.7499C5 33.5824 8.91751 37.4999 13.75 37.4999H18.2142C22.2133 37.4999 26.1402 38.5658 29.5905 40.5878L39.3259 46.2931C45.1591 49.7116 52.5 45.505 52.5 38.7439V18.7718ZM41.8564 15.535C44.3564 14.0725 47.5 15.8754 47.5 18.7718V38.7439C47.5 41.6415 44.3539 43.4444 41.854 41.9793L32.1185 36.274C30.6433 35.4094 29.0967 34.6879 27.5 34.1151V23.3884C29.0938 22.8174 30.6377 22.0981 32.1107 21.2364L41.8564 15.535ZM22.5 24.6655C21.0908 24.8873 19.6614 24.9999 18.2244 24.9999H13.75C11.6789 24.9999 10 26.6788 10 28.7499C10 30.821 11.6789 32.4999 13.75 32.4999H18.2142C19.6547 32.4999 21.0875 32.6131 22.5 32.8359V24.6655Z" fill="#171717"/>
</svg>
