<svg width="24" height="24" viewBox="0 0 24 24" fill="none" xmlns="http://www.w3.org/2000/svg">
<path fill-rule="evenodd" clip-rule="evenodd" d="M5.44999 4.623C6.99699 2.974 9.23999 2 12.017 2C16.582 2 19.609 4.631 20.567 8.277C20.6344 8.5336 20.597 8.80644 20.4632 9.03552C20.3294 9.2646 20.1101 9.43113 19.8535 9.4985C19.5969 9.56586 19.324 9.52854 19.095 9.39473C18.8659 9.26092 18.6994 9.0416 18.632 8.785C17.905 6.022 15.676 4 12.016 4C9.72999 4 8.03599 4.789 6.90999 5.99C5.77399 7.202 5.14099 8.913 5.14099 10.875V13.125C5.14099 15.087 5.77399 16.798 6.90999 18.009C8.03599 19.212 9.72999 20 12.016 20C13.671 20 14.984 19.616 15.992 18.995C17.007 18.37 17.612 17.541 17.782 16.59C17.977 15.494 17.737 14.742 17.324 14.199C17.0975 13.9068 16.8221 13.6561 16.51 13.458C16.375 14.207 16.134 14.914 15.77 15.468C14.428 17.507 11.862 17.682 10.17 17.007C9.25399 16.642 8.46899 15.643 8.22499 14.572C8.07685 13.9581 8.12619 13.3132 8.36599 12.729C8.63099 12.093 9.12199 11.551 9.82099 11.139C10.513 10.73 11.541 10.542 12.56 10.514C13.174 10.497 13.84 10.538 14.51 10.647C14.37 9.997 14.133 9.512 13.866 9.263C13.382 8.813 12.58 8.496 11.776 8.501C10.999 8.507 10.34 8.806 9.94599 9.436C9.80543 9.6609 9.58128 9.82076 9.32285 9.88039C9.06443 9.94003 8.79289 9.89456 8.56799 9.754C8.34309 9.61343 8.18323 9.38929 8.1236 9.13086C8.06396 8.87244 8.10943 8.6009 8.24999 8.376C9.08699 7.038 10.466 6.511 11.763 6.501C13.033 6.492 14.341 6.973 15.229 7.799C16.127 8.635 16.513 10.006 16.613 11.253C17.487 11.634 18.313 12.193 18.918 12.99C19.699 14.02 20.035 15.348 19.751 16.941C19.461 18.565 18.436 19.839 17.041 20.698C15.673 21.54 13.985 22 12.016 22C9.23999 22 6.99599 21.026 5.45099 19.377C3.91499 17.739 3.14099 15.513 3.14099 13.125V10.875C3.14099 8.487 3.91499 6.261 5.45099 4.623H5.44999ZM14.6 12.7C13.9477 12.5593 13.281 12.4969 12.614 12.514C11.723 12.538 11.098 12.707 10.837 12.861C10.453 13.088 10.287 13.319 10.213 13.498C10.134 13.6987 10.1207 13.9193 10.175 14.128C10.297 14.664 10.7 15.066 10.911 15.149C12.037 15.599 13.446 15.361 14.099 14.369C14.334 14.011 14.521 13.409 14.599 12.7H14.6Z" fill="white"/>
</svg>
