<svg width="913" height="1080" viewBox="0 0 913 1080" fill="none" xmlns="http://www.w3.org/2000/svg">
<rect width="913" height="1126" fill="#698662"/>
<path d="M166.838 279.462L167.486 275.357C171.592 275.357 176.778 269.955 178.29 261.096L197.521 140.742C197.737 140.094 197.737 139.662 197.737 139.013V138.797V138.149V137.933V137.717V137.501V137.285C197.737 130.37 194.28 126.481 190.823 126.481L191.471 122.376H239.007C283.087 122.376 309.664 144.847 309.664 184.821C309.664 190.007 309.232 195.409 308.368 201.243C300.373 251.373 264.072 279.462 214.159 279.462H166.838ZM237.927 129.29L215.239 272.764C241.816 267.794 261.047 244.242 269.042 201.027C269.906 193.897 270.338 187.414 270.338 181.364C270.338 150.249 258.67 133.395 237.927 129.29ZM417.239 262.825L419.616 265.634C417.239 268.443 414.214 271.252 411.405 273.628C406.219 277.95 397.576 280.327 389.149 280.327C377.913 280.327 367.758 275.789 367.758 265.634C367.758 264.553 367.758 263.689 367.974 263.041L368.838 257.855C362.788 265.418 355.009 271.684 346.15 275.789C340.1 278.382 334.266 279.678 328.432 279.678C314.603 279.678 303.367 271.9 303.367 257.423C303.367 255.91 303.584 254.398 303.8 252.885C305.528 240.137 316.332 226.308 335.779 220.69C351.984 216.152 371.863 215.504 377.481 202.323L377.913 199.947C378.346 196.705 378.562 193.897 378.562 191.52C378.562 181.148 374.456 177.043 369.487 177.043C362.788 177.043 353.497 184.605 351.12 195.625L350.904 196.922C350.688 197.57 350.688 198.002 350.688 198.65V198.866V199.514V199.731V200.163V200.379V200.595C350.688 203.836 351.12 206.645 353.065 208.157C348.959 212.263 342.693 214.424 335.995 214.424C327.136 214.424 318.709 210.318 318.709 200.163C318.709 198.65 318.709 197.57 318.925 196.922C321.734 178.555 346.366 166.455 369.27 166.455H370.999C392.174 167.103 412.702 174.882 412.702 197.786C412.702 199.947 412.486 202.323 412.053 204.916L402.978 262.176V263.041C402.978 266.282 404.923 267.794 407.516 267.794C410.757 267.794 414.862 266.066 417.239 262.825ZM358.899 258.935C362.572 256.991 366.894 253.533 370.351 248.131L375.753 213.127C366.029 218.961 353.497 226.74 345.718 236.031C342.045 240.353 340.1 244.458 339.668 248.131C339.452 248.564 339.452 248.996 339.452 249.428V250.292V250.508V250.724V250.94C339.452 257.207 343.125 261.528 349.824 261.528C352.633 261.528 355.658 260.664 358.899 258.935ZM509.141 168.616H541.984L541.336 172.721C531.612 172.721 524.698 186.334 519.512 195.625C518.864 196.489 518.648 197.138 518.432 197.786L463.765 297.397C456.85 309.713 445.398 337.803 427.464 337.803C417.957 337.803 412.555 330.24 412.555 321.381C412.555 319.869 412.555 318.788 412.771 318.14C413.851 311.658 417.525 305.824 423.359 300.422C425.735 305.391 429.625 307.984 435.027 307.984C442.157 307.984 450.152 303.231 454.69 294.804L463.116 279.678H455.122L430.057 187.63C426.6 174.234 422.926 172.505 418.605 172.505L419.253 168.616H470.679L470.031 172.721C466.79 172.937 465.277 173.801 465.061 175.53V176.61C465.061 178.555 465.925 181.364 466.79 184.605L482.563 243.378L509.789 193.897C512.382 189.143 513.894 185.253 514.326 182.012C514.542 181.364 514.542 180.284 514.542 179.203C514.542 174.882 512.598 172.721 508.492 172.721L509.141 168.616ZM712.081 156.515C714.458 163.862 715.538 171.857 715.538 180.716C715.538 186.118 715.106 191.52 714.242 196.922C707.327 239.272 675.78 283.136 626.947 283.136C611.606 283.136 589.782 279.246 585.677 265.85C585.029 263.905 584.596 261.744 584.596 259.583C584.596 258.071 584.596 256.991 584.813 256.342C586.541 243.378 601.234 234.951 612.686 234.951C615.279 234.951 617.872 235.383 620.465 236.247C616.36 242.297 614.415 248.348 613.551 253.749C613.334 255.478 613.118 257.207 613.118 258.935C613.118 269.307 618.736 276.005 626.731 276.005C630.188 276.005 634.294 274.709 638.831 271.468C653.525 260.88 665.409 229.549 671.243 198.866C659.359 210.966 644.449 216.152 629.756 216.152C607.717 216.152 588.27 203.188 588.27 180.932V180.716V180.5V179.203V178.987V178.771V178.555V178.339V178.123V177.907V177.691C588.27 176.61 588.486 175.53 588.702 174.45C588.918 172.937 589.134 170.776 589.782 169.264C599.074 137.933 629.54 119.35 658.278 119.35C682.047 119.35 704.086 131.235 712.081 156.515ZM629.108 175.098C628.46 178.339 628.244 181.58 628.244 185.686C628.244 195.409 630.837 206.213 640.992 206.213C651.364 206.213 665.625 196.057 673.187 183.309C674.052 175.746 674.484 169.048 674.484 162.998C674.484 138.149 668.002 128.21 659.575 128.21C648.123 128.21 633.646 147.44 629.108 175.098Z" fill="white"/>
<path d="M267.714 407.093L267.596 407.918C265.947 417.224 259.35 426.177 246.98 430.889C240.03 433.599 231.313 434.895 220.357 435.248L216.823 457.513C216.705 457.866 216.705 458.455 216.705 459.28C216.705 463.05 218.59 465.288 220.475 465.288L220.121 467.526H189.492L189.846 465.288C192.084 465.288 194.911 462.343 195.736 457.513L206.22 391.897C206.338 391.543 206.338 391.308 206.338 390.954V390.836V390.719V390.483V390.365V390.247V390.13V390.012C206.338 386.242 204.453 384.122 202.569 384.122L202.922 382.001H232.608C240.03 382.001 246.391 382.708 251.692 384.239C262.648 387.538 267.831 395.548 267.831 404.384V405.208V405.326V405.444V405.562V405.68C267.831 406.151 267.831 406.622 267.714 407.093ZM228.132 386.124L221.064 431.125C235.553 429.594 244.153 419.462 245.684 409.096C245.802 408.507 245.92 407.8 245.92 407.211V407.093V406.975V406.386V406.269V406.151V406.033V405.797V405.68V405.562V405.444C245.92 396.373 240.266 387.656 228.132 386.124ZM299.998 456.806C306.477 455.981 311.307 452.212 314.488 448.324L316.491 449.031C310.247 460.222 298.82 468.822 284.802 468.822C269.369 468.822 258.767 457.159 258.767 442.552C258.767 440.903 258.885 439.253 259.12 437.604C261.594 420.758 277.733 406.269 294.697 406.269C309.894 406.269 319.671 417.695 319.671 432.303C319.671 434.07 319.553 435.837 319.2 437.604H279.147C279.5 447.971 284.566 457.042 297.053 457.042C297.995 457.042 298.938 456.924 299.998 456.806ZM279.147 433.599H300.587C300.234 418.873 295.993 412.512 290.927 412.512C286.215 412.512 281.385 418.284 279.618 428.651C279.265 430.183 279.265 431.832 279.147 433.599ZM380.145 416.282C380.027 416.635 380.027 416.871 380.027 417.224C380.027 417.342 380.145 417.695 380.145 417.813C380.145 418.167 380.027 418.402 379.909 418.756C378.967 425.706 372.252 430.3 365.891 430.3C364.124 430.3 362.474 429.947 360.825 429.24C362.121 427.826 362.828 426.295 363.181 424.528C363.181 424.175 363.299 423.703 363.299 423.35C363.299 420.169 361.532 417.813 358.705 417.813C356.938 417.813 354.817 418.638 352.579 420.876C350.576 422.643 349.045 424.528 347.749 426.295L342.683 458.691C342.566 459.044 342.566 459.28 342.566 459.516V459.633V459.987V460.105V460.222V460.34C342.566 463.639 344.215 465.523 345.982 465.523L345.628 467.644H317.827L318.18 465.523C320.183 465.523 322.775 462.696 323.599 458.102L329.607 420.169C329.725 419.345 329.843 418.756 329.843 418.167C329.843 414.868 328.194 412.866 326.427 412.866L326.78 410.745H328.547C335.615 410.745 343.979 408.507 349.28 405.797L350.812 407.093L349.045 418.52C354.11 410.627 362.592 406.269 369.189 406.269C375.197 406.269 379.674 409.214 380.145 416.282ZM382.307 442.081H384.545C386.665 448.56 388.668 456.806 393.969 460.929C396.679 463.167 399.506 464.11 402.451 464.11C407.516 464.11 411.757 461.4 412.346 457.631C412.346 457.277 412.464 457.042 412.464 456.688C412.464 454.214 410.815 451.505 406.692 448.795C399.035 443.023 383.131 438.547 383.131 426.766C383.131 425.942 383.249 425.353 383.367 424.528C385.252 413.572 397.032 405.326 412.464 405.326H413.289C422.006 405.326 426.483 408.625 432.02 412.63L428.25 426.766H426.129C424.716 422.879 422.831 418.167 420.121 414.75C416.941 410.863 413.407 409.331 410.108 409.331C405.514 409.331 401.862 412.159 401.273 415.928C401.273 416.282 401.155 416.635 401.155 416.989C401.155 419.698 402.687 422.408 406.574 425.235C412.346 429.358 419.65 432.892 425.658 437.486C428.839 439.842 430.135 442.905 430.135 446.557C430.135 447.382 430.017 447.971 429.899 448.795C429.074 452.919 426.836 457.042 423.184 460.222C417.176 465.523 408.223 469.293 398.328 469.293H397.503C388.55 468.94 381.6 465.17 376.534 461.989L382.307 442.081ZM454.477 401.203C448.94 401.203 444.935 397.433 444.935 392.368V392.25V392.014V391.897V391.779V391.661V391.543C444.935 391.308 444.935 391.072 445.052 390.836C445.995 385.064 451.532 380.352 457.775 380.352C463.076 380.352 466.964 384.122 466.964 389.187C466.964 389.894 466.964 390.483 466.846 390.836C465.904 396.491 460.367 401.203 454.477 401.203ZM463.665 407.093L455.537 458.691C455.419 459.044 455.419 459.28 455.419 459.516V459.633V459.987V460.105V460.222V460.34C455.419 463.639 457.068 465.523 458.835 465.523L458.482 467.644H430.68L431.034 465.523C433.036 465.523 435.628 462.696 436.453 458.102L442.461 420.169C442.579 419.345 442.696 418.756 442.696 418.167C442.696 414.868 441.047 412.866 439.28 412.866L439.633 410.745C447.291 410.745 456.479 408.625 462.134 405.797L463.665 407.093ZM559.491 410.745H550.42L542.763 458.22C542.763 458.573 542.645 458.573 542.645 458.927C542.645 460.694 543.823 461.283 545.119 461.283C546.886 461.283 549.124 460.34 550.42 458.573L551.716 459.987C550.42 461.518 548.888 463.05 547.357 464.345C544.53 466.702 539.818 467.997 535.223 467.997C529.098 467.997 523.679 465.759 523.679 460.222V460.105V459.869V459.751V459.633V459.516V459.398C523.679 459.162 523.679 458.927 523.796 458.691L531.336 410.745H525.563L526.152 407.447L529.569 407.093C534.399 406.151 535.93 402.734 537.226 397.669L537.344 396.373C537.462 395.431 537.579 394.606 537.579 393.781C537.579 387.538 533.338 384.711 528.273 384.711C522.147 384.711 514.961 388.951 514.019 395.902C513.901 396.137 513.901 396.373 513.901 396.609V397.08V397.198V397.315V397.433V397.905C513.901 402.97 517.199 408.153 519.673 412.866L515.904 427.002H513.783C512.487 423.114 510.72 418.52 507.893 414.868C504.948 411.216 501.296 409.685 497.998 409.685C493.639 409.685 489.869 412.394 489.28 416.164C489.162 416.4 489.162 416.753 489.162 417.224C489.162 419.934 490.694 422.761 494.346 425.47C500.354 429.594 507.422 433.01 513.43 437.604C516.61 439.96 517.906 443.141 517.906 446.557C517.906 447.382 517.788 447.971 517.671 448.795C516.846 452.919 514.608 457.159 510.956 460.458C505.183 465.523 496.113 469.293 486.217 469.293H485.393C476.44 468.94 469.607 465.17 464.541 461.989L470.314 442.316H472.552C474.79 448.56 476.557 457.042 481.858 461.047C484.568 463.285 487.395 464.11 490.223 464.11C495.288 464.11 499.647 461.283 500.236 457.513C500.236 457.159 500.354 456.924 500.354 456.57C500.354 454.097 498.822 451.387 494.699 448.678C487.042 443.612 471.138 438.664 471.138 427.002C471.138 426.177 471.256 425.588 471.374 424.764C473.259 413.808 484.804 405.68 500.236 405.68H501.178C503.652 405.68 505.89 405.915 507.657 406.386C507.304 404.619 507.186 403.088 507.186 401.556C507.186 400.496 507.304 399.554 507.422 398.611C509.307 387.184 520.38 380.47 531.1 380.47C541.585 380.47 551.48 386.831 551.48 401.556C551.48 403.441 551.362 405.208 551.009 407.447H560.08L559.491 410.745ZM596.001 456.806C602.481 455.981 607.31 452.212 610.491 448.324L612.494 449.031C606.25 460.222 594.823 468.822 580.805 468.822C565.373 468.822 554.77 457.159 554.77 442.552C554.77 440.903 554.888 439.253 555.124 437.604C557.598 420.758 573.737 406.269 590.7 406.269C605.897 406.269 615.675 417.695 615.675 432.303C615.675 434.07 615.557 435.837 615.203 437.604H575.15C575.504 447.971 580.569 457.042 593.056 457.042C593.999 457.042 594.941 456.924 596.001 456.806ZM575.15 433.599H596.59C596.237 418.873 591.996 412.512 586.931 412.512C582.218 412.512 577.389 418.284 575.621 428.651C575.268 430.183 575.268 431.832 575.15 433.599ZM674.263 459.28V459.987C674.263 463.639 675.912 465.523 677.679 465.523L677.326 467.644H649.407L649.76 465.523C651.763 465.523 654.472 462.696 655.297 458.102L660.48 425.588C660.716 424.292 660.834 423.114 660.834 422.054C660.834 417.46 658.831 415.811 656.357 415.811C651.527 415.811 644.341 422.408 643.399 428.062L638.569 458.691C638.451 459.044 638.451 459.633 638.451 460.222C638.451 463.403 640.1 465.523 641.867 465.523L641.514 467.644H613.712L614.066 465.523C616.068 465.523 618.66 462.696 619.485 458.102L625.493 420.169C625.61 419.345 625.728 418.756 625.728 418.167C625.728 414.868 624.079 412.866 622.312 412.866L622.665 410.745H624.432C631.501 410.745 639.865 408.507 645.166 405.797L646.697 407.093L645.048 417.224C651.056 410.627 658.949 407.211 665.546 407.211C673.438 407.211 680.035 411.923 680.035 421.819C680.035 423.114 679.918 424.528 679.682 425.942C677.915 437.133 676.03 448.442 674.263 459.28ZM722.698 410.509H713.391L705.852 458.809C705.852 459.162 705.734 459.28 705.734 459.633C705.734 461.165 706.794 461.872 708.09 461.872C709.857 461.872 712.095 460.929 713.391 459.162L714.805 460.694C713.509 462.225 711.86 463.756 710.328 465.052C707.501 467.408 702.789 468.704 698.195 468.704C692.069 468.704 686.65 466.348 686.65 460.811V460.694V460.458V460.34V460.222V460.105V459.987C686.65 459.751 686.65 459.516 686.768 459.28L694.307 410.509H688.535L689.124 407.093C697.606 406.504 708.797 394.959 715.394 387.42L716.925 388.362L713.98 407.093H723.287L722.698 410.509ZM254.091 485.001L252.678 503.614L250.322 504.085C246.67 491.127 234.065 489.949 220.635 489.949L215.334 523.169C224.641 522.816 233.24 519.753 234.772 514.334H237.128L233.476 537.423L231.12 537.188C231.12 531.769 223.58 529.177 214.509 528.588L209.444 560.513C209.326 560.866 209.326 561.455 209.326 562.28C209.326 566.05 211.211 568.288 213.096 568.288L212.742 570.526H182.114L182.467 568.288C184.705 568.288 187.533 565.343 188.357 560.513L198.842 494.897C198.959 494.543 198.959 494.308 198.959 493.954V493.365V493.247V493.13V493.012C198.959 489.242 197.075 487.122 195.19 487.122L195.543 485.001H254.091ZM276.471 509.386C291.903 509.386 302.741 520.695 302.741 535.421C302.741 537.07 302.623 538.719 302.388 540.369C299.914 557.332 283.657 571.233 266.693 571.233C251.261 571.233 240.423 559.806 240.423 545.081C240.423 543.549 240.541 542.018 240.777 540.369C243.251 523.287 259.507 509.386 276.471 509.386ZM275.764 514.216C270.228 514.216 263.277 526.35 261.039 541.193C260.45 544.845 260.214 548.261 260.214 551.442C260.214 561.337 262.924 568.288 267.165 568.288C273.055 568.288 279.298 556.272 281.772 541.193C282.361 537.541 282.597 533.889 282.597 530.709C282.597 520.931 280.123 514.216 275.764 514.216ZM363.291 519.282C363.173 519.635 363.173 519.871 363.173 520.224C363.173 520.342 363.291 520.695 363.291 520.813C363.291 521.167 363.173 521.402 363.055 521.756C362.113 528.706 355.398 533.3 349.037 533.3C347.27 533.3 345.621 532.947 343.971 532.24C345.267 530.826 345.974 529.295 346.327 527.528C346.327 527.175 346.445 526.703 346.445 526.35C346.445 523.169 344.678 520.813 341.851 520.813C340.084 520.813 337.963 521.638 335.725 523.876C333.723 525.643 332.191 527.528 330.895 529.295L325.83 561.691C325.712 562.044 325.712 562.28 325.712 562.516V562.633V562.987V563.105V563.222V563.34C325.712 566.639 327.361 568.523 329.128 568.523L328.775 570.644H300.973L301.327 568.523C303.329 568.523 305.921 565.696 306.746 561.102L312.754 523.169C312.871 522.345 312.989 521.756 312.989 521.167C312.989 517.868 311.34 515.866 309.573 515.866L309.926 513.745H311.693C318.762 513.745 327.126 511.507 332.427 508.797L333.958 510.093L332.191 521.52C337.257 513.627 345.738 509.269 352.335 509.269C358.343 509.269 362.82 512.214 363.291 519.282ZM461.079 528.942L455.66 562.28V562.987C455.66 566.639 457.309 568.523 459.076 568.523L458.723 570.644H430.803L431.157 568.523C433.159 568.523 435.869 565.696 436.693 561.102L441.877 528.588C442.112 527.292 442.23 526.114 442.23 525.054C442.23 520.46 440.228 518.811 437.754 518.811C433.042 518.811 426.091 525.172 424.795 530.826C424.324 534.95 423.971 538.837 423.146 542.96L419.848 562.28V562.987C419.848 566.639 421.497 568.523 423.264 568.523L422.91 570.644H394.991L395.345 568.523C397.347 568.523 400.057 565.696 400.881 561.102L406.065 528.588C406.3 527.292 406.418 526.114 406.418 525.054C406.418 520.46 404.415 518.811 401.942 518.811C397.112 518.811 389.926 525.408 388.983 531.062L384.153 561.691C384.035 562.044 384.035 562.28 384.035 562.516V562.633V562.987V563.105V563.222V563.34C384.035 566.639 385.685 568.523 387.452 568.523L387.098 570.644H359.297L359.65 568.523C361.653 568.523 364.245 565.696 365.069 561.102L371.077 523.169C371.195 522.345 371.313 521.756 371.313 521.167C371.313 517.868 369.663 515.866 367.896 515.866L368.25 513.745H370.017C377.085 513.745 385.449 511.507 390.75 508.797L392.282 510.093L390.632 520.224C396.64 513.627 404.533 510.211 411.13 510.211C418.198 510.211 423.853 513.863 425.149 521.756C431.392 514.098 439.639 510.093 446.825 510.093C454.717 510.093 461.432 514.923 461.432 524.936C461.432 526.232 461.314 527.528 461.079 528.942ZM490.826 570.526L491.179 568.288C493.417 568.288 496.245 565.343 497.069 560.513L507.554 494.897C507.672 494.543 507.672 494.308 507.672 493.954V493.836V493.483V493.365V493.247V493.13V493.012C507.672 489.242 505.787 487.122 503.902 487.122L504.255 484.883H530.172C554.204 484.883 568.694 497.135 568.694 518.928C568.694 521.756 568.458 524.701 567.987 527.881C563.628 555.212 543.837 570.526 516.625 570.526H490.826ZM529.583 488.653L517.214 566.874C531.703 564.165 542.188 551.324 546.547 527.764C547.018 523.876 547.253 520.342 547.253 517.044C547.253 500.08 540.892 490.891 529.583 488.653ZM627.343 561.455L628.639 562.987C627.343 564.518 625.694 566.05 624.162 567.345C621.335 569.702 616.623 570.997 612.029 570.997C605.903 570.997 600.366 568.523 600.366 562.987C600.366 562.398 600.366 561.927 600.484 561.573L600.955 558.746C597.657 562.869 593.416 566.285 588.586 568.523C585.287 569.937 582.107 570.644 578.926 570.644C571.387 570.644 565.261 566.403 565.261 558.51C565.261 557.686 565.379 556.861 565.496 556.036C566.439 549.086 572.329 541.547 582.931 538.484C591.766 536.01 602.604 535.656 605.667 528.47L605.903 527.175C606.138 525.408 606.256 523.876 606.256 522.58C606.256 516.926 604.018 514.687 601.309 514.687C597.657 514.687 592.591 518.811 591.295 524.819L591.177 525.525C591.06 525.879 591.06 526.114 591.06 526.468V526.586V526.939V527.057V527.292V527.41V527.528C591.06 529.295 591.295 530.826 592.355 531.651C590.117 533.889 586.701 535.067 583.049 535.067C578.219 535.067 573.625 532.829 573.625 527.292C573.625 526.468 573.625 525.879 573.743 525.525C575.274 515.512 588.704 508.915 601.191 508.915H602.133C613.678 509.269 624.869 513.509 624.869 525.997C624.869 527.175 624.751 528.47 624.516 529.884L619.568 561.102V561.573C619.568 563.34 620.628 564.165 622.042 564.165C623.809 564.165 626.047 563.222 627.343 561.455ZM595.536 559.335C597.539 558.275 599.895 556.39 601.78 553.445L604.725 534.361C599.424 537.541 592.591 541.782 588.35 546.848C586.348 549.204 585.287 551.442 585.052 553.445C584.934 553.68 584.934 553.916 584.934 554.152V554.623V554.741V554.858V554.976C584.934 558.392 586.937 560.748 590.588 560.748C592.12 560.748 593.769 560.277 595.536 559.335ZM668.225 513.509H658.919L651.379 561.809C651.379 562.162 651.262 562.28 651.262 562.633C651.262 564.165 652.322 564.872 653.618 564.872C655.385 564.872 657.623 563.929 658.919 562.162L660.332 563.694C659.037 565.225 657.387 566.756 655.856 568.052C653.029 570.408 648.317 571.704 643.722 571.704C637.596 571.704 632.178 569.348 632.178 563.811V563.694V563.458V563.34V563.222V563.105V562.987C632.178 562.751 632.178 562.516 632.295 562.28L639.835 513.509H634.062L634.651 510.093C643.133 509.504 654.324 497.959 660.921 490.42L662.453 491.362L659.508 510.093H668.814L668.225 513.509ZM725.934 561.455L727.23 562.987C725.934 564.518 724.285 566.05 722.753 567.345C719.926 569.702 715.214 570.997 710.62 570.997C704.494 570.997 698.957 568.523 698.957 562.987C698.957 562.398 698.957 561.927 699.075 561.573L699.546 558.746C696.248 562.869 692.007 566.285 687.177 568.523C683.878 569.937 680.698 570.644 677.517 570.644C669.978 570.644 663.852 566.403 663.852 558.51C663.852 557.686 663.97 556.861 664.087 556.036C665.03 549.086 670.92 541.547 681.522 538.484C690.357 536.01 701.195 535.656 704.258 528.47L704.494 527.175C704.729 525.408 704.847 523.876 704.847 522.58C704.847 516.926 702.609 514.687 699.9 514.687C696.248 514.687 691.182 518.811 689.886 524.819L689.768 525.525C689.651 525.879 689.651 526.114 689.651 526.468V526.586V526.939V527.057V527.292V527.41V527.528C689.651 529.295 689.886 530.826 690.947 531.651C688.708 533.889 685.292 535.067 681.64 535.067C676.81 535.067 672.216 532.829 672.216 527.292C672.216 526.468 672.216 525.879 672.334 525.525C673.865 515.512 687.295 508.915 699.782 508.915H700.724C712.269 509.269 723.46 513.509 723.46 525.997C723.46 527.175 723.342 528.47 723.107 529.884L718.159 561.102V561.573C718.159 563.34 719.219 564.165 720.633 564.165C722.4 564.165 724.638 563.222 725.934 561.455ZM694.127 559.335C696.13 558.275 698.486 556.39 700.371 553.445L703.316 534.361C698.015 537.541 691.182 541.782 686.941 546.848C684.939 549.204 683.878 551.442 683.643 553.445C683.525 553.68 683.525 553.916 683.525 554.152V554.623V554.741V554.858V554.976C683.525 558.392 685.528 560.748 689.179 560.748C690.711 560.748 692.36 560.277 694.127 559.335Z" fill="#F0F0F0"/>
<path d="M797.823 204.863C798.889 193.674 799.688 182.752 800.221 171.83C800.753 166.236 801.02 160.908 801.286 155.314C801.553 152.118 801.553 148.921 801.553 145.991L822.864 157.712L828.458 160.908L839.646 166.769L839.913 166.503C836.45 163.839 833.253 161.175 830.056 158.511C828.458 157.179 826.593 155.847 824.995 154.782L820.2 150.786C814.606 146.523 809.278 142.261 803.684 138.265C805.548 136.401 807.413 134.536 809.278 132.405L817.27 122.815C822.597 116.421 828.191 110.028 833.519 103.368H833.253C826.593 108.43 820.2 114.024 813.806 119.352C810.61 122.016 807.413 124.68 804.216 127.61L801.553 130.007C801.286 122.016 800.753 114.024 800.221 105.766L799.688 97.7742C799.421 94.8439 799.421 92.18 799.155 89.5161C798.889 83.922 798.356 78.3278 797.823 73H797.557C797.29 78.3278 796.758 83.922 796.491 89.5161C796.225 92.18 795.958 94.8439 795.958 97.7742L795.426 105.766C794.893 114.557 794.36 123.081 794.094 131.872L789.299 128.942L778.11 122.815C770.918 118.819 763.459 114.823 756 111.094C762.393 116.421 768.787 121.749 775.446 127.077C778.909 129.475 782.106 132.138 785.303 134.802C787.434 136.401 789.565 137.999 791.696 139.331C787.168 144.392 782.905 149.72 778.377 155.048L774.114 159.843L762.127 174.228L762.393 174.494L771.983 166.503L777.045 162.507L781.84 158.245L794.094 147.855C794.094 150.253 794.094 152.917 794.36 155.314C794.626 160.908 794.893 166.236 795.426 171.83C795.958 182.752 796.758 193.674 797.823 204.863Z" fill="white"/>
<path d="M126.958 342.994C127.645 335.783 128.16 328.743 128.503 321.703C128.847 318.097 129.018 314.663 129.19 311.057C129.362 308.997 129.362 306.936 129.362 305.047L143.098 312.603L146.704 314.663L153.916 318.441L154.087 318.269C151.855 316.552 149.795 314.835 147.734 313.118C146.704 312.259 145.502 311.401 144.472 310.714L141.381 308.138C137.775 305.391 134.341 302.644 130.735 300.068C131.937 298.866 133.139 297.664 134.341 296.29L139.492 290.109C142.926 285.988 146.532 281.867 149.966 277.574H149.795C145.502 280.837 141.381 284.443 137.26 287.877C135.2 289.594 133.139 291.311 131.079 293.2L129.362 294.745C129.19 289.594 128.847 284.443 128.503 279.12L128.16 273.969C127.988 272.08 127.988 270.363 127.816 268.646C127.645 265.04 127.301 261.434 126.958 258H126.786C126.614 261.434 126.271 265.04 126.099 268.646C125.928 270.363 125.756 272.08 125.756 273.969L125.412 279.12C125.069 284.786 124.726 290.281 124.554 295.947L121.463 294.058L114.252 290.109C109.616 287.533 104.808 284.958 100 282.554C104.121 285.988 108.242 289.422 112.535 292.856C114.767 294.402 116.827 296.119 118.888 297.836C120.261 298.866 121.635 299.896 123.009 300.755C120.09 304.017 117.342 307.451 114.423 310.885L111.676 313.976L103.949 323.248L104.121 323.42L110.302 318.269L113.565 315.693L116.655 312.946L124.554 306.249C124.554 307.795 124.554 309.512 124.726 311.057C124.897 314.663 125.069 318.097 125.412 321.703C125.756 328.743 126.271 335.783 126.958 342.994Z" fill="white"/>
</svg>
