<svg width="913" height="1080" viewBox="0 0 913 1080" fill="none" xmlns="http://www.w3.org/2000/svg">
<rect width="913" height="1126" fill="#698662"/>
<path d="M96.7824 279.462L97.4306 275.357C101.536 275.357 106.722 269.955 108.234 261.096L127.465 140.742C127.681 140.094 127.681 139.662 127.681 139.013V138.797V138.149V137.933V137.717V137.501V137.285C127.681 130.37 124.224 126.481 120.767 126.481L121.415 122.376H168.952C213.031 122.376 239.608 144.847 239.608 184.821C239.608 190.007 239.176 195.409 238.312 201.243C230.317 251.373 194.016 279.462 144.103 279.462H96.7824ZM167.871 129.29L145.183 272.764C171.761 267.794 190.991 244.242 198.986 201.027C199.85 193.897 200.283 187.414 200.283 181.364C200.283 150.249 188.614 133.395 167.871 129.29ZM347.184 262.825L349.56 265.634C347.184 268.443 344.158 271.252 341.349 273.628C336.164 277.95 327.521 280.327 319.094 280.327C307.858 280.327 297.702 275.789 297.702 265.634C297.702 264.553 297.702 263.689 297.918 263.041L298.783 257.855C292.732 265.418 284.954 271.684 276.095 275.789C270.045 278.382 264.211 279.678 258.376 279.678C244.548 279.678 233.312 271.9 233.312 257.423C233.312 255.91 233.528 254.398 233.744 252.885C235.472 240.137 246.276 226.308 265.723 220.69C281.929 216.152 301.808 215.504 307.426 202.323L307.858 199.947C308.29 196.705 308.506 193.897 308.506 191.52C308.506 181.148 304.401 177.043 299.431 177.043C292.732 177.043 283.441 184.605 281.064 195.625L280.848 196.922C280.632 197.57 280.632 198.002 280.632 198.65V198.866V199.514V199.731V200.163V200.379V200.595C280.632 203.836 281.064 206.645 283.009 208.157C278.904 212.263 272.637 214.424 265.939 214.424C257.08 214.424 248.653 210.318 248.653 200.163C248.653 198.65 248.653 197.57 248.869 196.922C251.678 178.555 276.311 166.455 299.215 166.455H300.943C322.119 167.103 342.646 174.882 342.646 197.786C342.646 199.947 342.43 202.323 341.998 204.916L332.923 262.176V263.041C332.923 266.282 334.867 267.794 337.46 267.794C340.701 267.794 344.807 266.066 347.184 262.825ZM288.843 258.935C292.516 256.991 296.838 253.533 300.295 248.131L305.697 213.127C295.974 218.961 283.441 226.74 275.663 236.031C271.989 240.353 270.045 244.458 269.612 248.131C269.396 248.564 269.396 248.996 269.396 249.428V250.292V250.508V250.724V250.94C269.396 257.207 273.07 261.528 279.768 261.528C282.577 261.528 285.602 260.664 288.843 258.935ZM439.085 168.616H471.928L471.28 172.721C461.557 172.721 454.642 186.334 449.456 195.625C448.808 196.489 448.592 197.138 448.376 197.786L393.709 297.397C386.795 309.713 375.343 337.803 357.408 337.803C347.901 337.803 342.499 330.24 342.499 321.381C342.499 319.869 342.499 318.788 342.715 318.14C343.796 311.658 347.469 305.824 353.303 300.422C355.68 305.391 359.569 307.984 364.971 307.984C372.101 307.984 380.096 303.231 384.634 294.804L393.061 279.678H385.066L360.001 187.63C356.544 174.234 352.871 172.505 348.549 172.505L349.197 168.616H400.623L399.975 172.721C396.734 172.937 395.221 173.801 395.005 175.53V176.61C395.005 178.555 395.87 181.364 396.734 184.605L412.508 243.378L439.733 193.897C442.326 189.143 443.838 185.253 444.271 182.012C444.487 181.364 444.487 180.284 444.487 179.203C444.487 174.882 442.542 172.721 438.437 172.721L439.085 168.616ZM636.191 238.84L640.513 238.624C636.407 263.473 620.85 277.302 600.323 280.543C597.73 281.191 594.489 281.191 591.248 281.191C571.153 281.191 550.841 273.628 531.827 269.523C529.45 269.091 527.289 268.875 525.345 268.875C518.43 268.875 515.189 272.548 513.676 279.678H506.546C507.194 276.437 508.275 272.98 509.787 269.307C520.807 239.056 544.791 222.635 566.183 208.806C585.846 196.057 604.212 183.957 607.669 160.837C607.885 159.108 608.101 156.515 608.101 153.923C608.101 136.853 598.594 128.21 588.871 128.21C577.851 128.21 566.831 136.42 564.454 149.385V150.249C564.454 151.114 564.238 151.762 564.238 152.626C564.238 160.189 567.695 166.239 575.258 166.239H576.122C577.203 166.239 577.851 166.239 578.499 166.023L580.012 165.807C574.178 180.284 559.268 189.143 547.168 189.143H546.304C532.475 189.143 525.777 180.5 525.777 169.48C525.777 167.967 525.993 166.455 526.209 164.726C526.857 161.053 528.153 156.948 530.098 152.842C541.55 129.722 568.56 119.134 594.057 119.134C622.578 119.134 649.372 132.747 649.372 156.948V158.244V158.46V158.892C649.372 159.541 649.372 160.405 649.156 161.053L648.94 162.349C644.186 190.439 615.88 202.107 587.142 214.208L584.549 215.288C567.911 222.202 550.193 229.333 537.013 241.217C541.118 240.137 545.656 239.705 550.625 239.705C560.349 239.705 570.288 241.649 584.333 244.458C594.489 246.835 603.78 248.564 612.207 248.564C621.066 248.564 629.061 246.403 635.111 238.84H636.191ZM653.688 245.971C650.231 236.679 648.719 226.092 648.719 215.504C648.719 210.318 648.935 205.349 649.799 200.163C652.392 182.877 660.171 164.726 672.271 150.033C687.828 131.019 709.652 120.647 730.179 120.647C750.922 120.647 769.073 130.37 779.228 150.033C784.414 160.405 786.791 172.073 786.791 184.389C786.791 189.575 786.359 194.761 785.494 200.163C782.901 216.368 776.635 232.142 766.912 245.971C749.842 270.387 726.938 282.487 704.682 282.487C682.426 282.487 662.547 270.387 653.688 245.971ZM703.386 156.948C698.2 169.264 694.094 184.605 691.718 200.163C689.773 211.615 688.909 223.283 688.909 233.438V238.408C689.557 260.88 697.119 272.548 706.411 272.548C715.054 272.548 725.425 261.312 732.988 240.569C737.309 228.685 740.983 213.992 743.36 199.947C745.088 188.927 746.169 178.339 746.169 168.616C746.169 164.51 745.953 160.621 745.52 157.164C743.792 139.229 737.093 130.586 728.666 130.586C720.24 130.586 710.516 139.445 703.386 156.948Z" fill="white"/>
<path d="M128.901 467.526H98.2723L98.6258 465.288C100.864 465.288 103.691 462.343 104.516 457.513L115 391.897C115.118 391.543 115.118 391.308 115.118 390.954V390.836V390.483V390.365V390.247V390.13V390.012C115.118 386.242 113.233 384.122 111.348 384.122L111.702 382.001H142.449L142.095 384.122C139.857 384.122 136.912 387.067 136.087 391.897L125.603 457.513C125.485 457.866 125.485 458.455 125.485 459.28C125.485 463.05 127.37 465.288 129.255 465.288L128.901 467.526ZM193.387 459.28V459.987C193.387 463.639 195.037 465.523 196.804 465.523L196.45 467.644H168.531L168.884 465.523C170.887 465.523 173.596 462.696 174.421 458.102L179.604 425.588C179.84 424.292 179.958 423.114 179.958 422.054C179.958 417.46 177.955 415.811 175.481 415.811C170.651 415.811 163.465 422.408 162.523 428.062L157.693 458.691C157.575 459.044 157.575 459.633 157.575 460.222C157.575 463.403 159.224 465.523 160.991 465.523L160.638 467.644H132.837L133.19 465.523C135.193 465.523 137.784 462.696 138.609 458.102L144.617 420.169C144.735 419.345 144.852 418.756 144.852 418.167C144.852 414.868 143.203 412.866 141.436 412.866L141.79 410.745H143.557C150.625 410.745 158.989 408.507 164.29 405.797L165.821 407.093L164.172 417.224C170.18 410.627 178.073 407.211 184.67 407.211C192.563 407.211 199.16 411.923 199.16 421.819C199.16 423.114 199.042 424.528 198.806 425.942C197.039 437.133 195.154 448.442 193.387 459.28ZM269.034 406.975L260.906 458.573C260.906 459.044 260.788 459.398 260.788 459.751C260.788 463.403 262.555 465.406 264.322 465.406L263.969 467.526H235.814L236.167 465.406C239.701 465.406 241.233 460.576 241.94 457.984L247.712 421.23C247.83 420.876 247.83 420.287 247.83 419.462C247.83 415.811 246.181 413.926 244.414 413.926H232.987L225.918 458.573C225.801 458.927 225.801 459.162 225.801 459.398V459.516V459.869V459.987V460.105V460.222C225.801 463.521 227.45 465.406 229.217 465.406L228.863 467.526H200.944L201.298 465.406C204.596 465.406 206.481 460.458 206.834 457.984L213.785 413.926H208.012L208.484 410.509H214.256L215.905 400.614C218.732 384.593 232.869 379.409 246.416 379.409C259.021 379.409 266.796 384.357 267.15 391.897C267.15 392.368 267.032 392.839 267.032 393.31C266.089 400.025 255.84 404.619 248.654 405.208L247.476 404.384C247.476 396.491 245.238 386.831 240.879 386.831C238.641 386.831 236.874 388.951 235.932 394.959L233.458 410.509H244.885C252.895 410.509 261.613 408.507 267.621 405.562L269.034 406.975ZM328.907 459.28V459.987C328.907 463.639 330.556 465.523 332.323 465.523L331.97 467.644H304.05L304.404 465.523C306.406 465.523 309.116 462.696 309.941 458.102L315.124 425.588C315.359 424.292 315.477 423.114 315.477 422.054C315.477 417.46 313.475 415.811 311.001 415.811C306.171 415.811 298.985 422.408 298.042 428.062L293.213 458.691C293.095 459.044 293.095 459.633 293.095 460.222C293.095 463.403 294.744 465.523 296.511 465.523L296.158 467.644H268.356L268.709 465.523C270.712 465.523 273.304 462.696 274.128 458.102L280.136 420.169C280.254 419.345 280.372 418.756 280.372 418.167C280.372 414.868 278.723 412.866 276.956 412.866L277.309 410.745H279.076C286.144 410.745 294.508 408.507 299.809 405.797L301.341 407.093L299.692 417.224C305.7 410.627 313.592 407.211 320.189 407.211C328.082 407.211 334.679 411.923 334.679 421.819C334.679 423.114 334.561 424.528 334.326 425.942C332.559 437.133 330.674 448.442 328.907 459.28ZM360.142 401.203C354.605 401.203 350.6 397.433 350.6 392.368V392.25V392.014V391.897V391.779V391.661V391.543C350.6 391.308 350.6 391.072 350.718 390.836C351.66 385.064 357.197 380.352 363.441 380.352C368.742 380.352 372.629 384.122 372.629 389.187C372.629 389.894 372.629 390.483 372.511 390.836C371.569 396.491 366.032 401.203 360.142 401.203ZM369.331 407.093L361.202 458.691C361.085 459.044 361.085 459.28 361.085 459.516V459.633V459.987V460.105V460.222V460.34C361.085 463.639 362.734 465.523 364.501 465.523L364.147 467.644H336.346L336.699 465.523C338.702 465.523 341.294 462.696 342.118 458.102L348.126 420.169C348.244 419.345 348.362 418.756 348.362 418.167C348.362 414.868 346.713 412.866 344.946 412.866L345.299 410.745C352.956 410.745 362.145 408.625 367.799 405.797L369.331 407.093ZM409.553 410.509H400.247L392.707 458.809C392.707 459.162 392.59 459.28 392.59 459.633C392.59 461.165 393.65 461.872 394.946 461.872C396.713 461.872 398.951 460.929 400.247 459.162L401.66 460.694C400.365 462.225 398.715 463.756 397.184 465.052C394.357 467.408 389.644 468.704 385.05 468.704C378.924 468.704 373.505 466.348 373.505 460.811V460.694V460.458V460.34V460.222V460.105V459.987C373.505 459.751 373.505 459.516 373.623 459.28L381.163 410.509H375.39L375.979 407.093C384.461 406.504 395.652 394.959 402.249 387.42L403.781 388.362L400.836 407.093H410.142L409.553 410.509ZM446.217 456.806C452.696 455.981 457.526 452.212 460.706 448.324L462.709 449.031C456.465 460.222 445.039 468.822 431.02 468.822C415.588 468.822 404.986 457.159 404.986 442.552C404.986 440.903 405.103 439.253 405.339 437.604C407.813 420.758 423.952 406.269 440.915 406.269C456.112 406.269 465.89 417.695 465.89 432.303C465.89 434.07 465.772 435.837 465.419 437.604H425.365C425.719 447.971 430.784 457.042 443.272 457.042C444.214 457.042 445.156 456.924 446.217 456.806ZM425.365 433.599H446.806C446.452 418.873 442.211 412.512 437.146 412.512C432.434 412.512 427.604 418.284 425.837 428.651C425.483 430.183 425.483 431.832 425.365 433.599ZM559.54 431.596C561.19 434.777 562.014 437.958 562.014 441.02C562.014 441.963 561.896 443.023 561.779 443.966C559.54 457.866 542.223 470.118 521.49 470.118H520.665H520.548H520.43H520.312H520.194H520.076H519.959C519.37 470.118 518.898 470.118 518.309 470C507.943 469.411 497.458 465.759 492.51 461.989C494.395 455.51 496.516 445.733 498.047 437.84L500.639 437.369C502.877 448.678 506.882 457.277 513.951 461.518C518.074 463.992 521.726 465.052 525.378 465.052C532.564 465.052 538.1 460.694 539.043 455.039C539.16 454.686 539.16 454.214 539.16 453.625C539.16 449.502 536.804 445.144 531.268 441.02C520.901 433.481 503.466 424.764 502.17 411.687C502.053 411.334 502.053 410.863 502.053 410.509V410.392V410.038V409.92V409.803V409.685V409.567V409.331C502.053 407.918 502.17 406.504 502.406 405.208C504.88 389.305 522.904 380.705 539.278 380.705C540.221 380.705 541.045 380.823 541.988 380.823C552.826 381.412 560.601 384.946 565.902 388.598C564.017 395.195 562.25 402.617 560.836 409.685L558.009 410.038C556.242 401.203 553.532 394.959 549.881 391.072C546.229 387.184 541.752 385.653 537.629 385.653C531.032 385.653 525.378 389.776 524.435 395.431C524.317 395.666 524.317 395.902 524.317 396.137V396.255V396.373V396.609V396.726V396.844V396.962C524.317 400.261 525.849 404.148 529.972 407.8C538.807 416.046 554.475 422.172 559.54 431.596ZM625.187 424.764V425.588C625.069 425.824 625.069 426.059 625.069 426.295V427.002C624.127 433.952 618.001 437.486 612.464 437.486C608.223 437.486 604.454 435.601 602.569 431.95C605.043 430.065 607.163 426.766 608.106 423.35C608.459 422.29 608.695 421.347 608.812 420.523C608.93 419.698 609.048 418.991 609.048 418.167C609.048 413.101 606.103 410.274 602.333 410.274C598.21 410.274 593.498 413.337 589.846 420.876C588.315 424.057 587.372 427.355 586.783 431.007C586.43 432.892 586.312 434.777 586.312 436.662C586.312 447.5 591.495 457.042 603.865 457.042H604.1H605.161H605.278H605.396H605.632C606.221 457.042 606.81 456.924 607.399 456.806C612.936 455.981 618.001 453.272 621.417 448.442L623.538 449.149C617.059 460.694 604.807 468.822 591.967 468.822C576.534 468.822 565.932 457.395 565.932 442.552C565.932 440.903 566.05 439.253 566.286 437.604C566.992 432.892 568.642 428.533 571.115 424.41C578.655 412.159 590.435 406.622 601.862 406.269H602.569C615.174 406.269 625.187 414.515 625.187 424.764ZM686.157 416.282C686.039 416.635 686.039 416.871 686.039 417.224C686.039 417.342 686.157 417.695 686.157 417.813C686.157 418.167 686.039 418.402 685.921 418.756C684.979 425.706 678.264 430.3 671.902 430.3C670.135 430.3 668.486 429.947 666.837 429.24C668.133 427.826 668.84 426.295 669.193 424.528C669.193 424.175 669.311 423.703 669.311 423.35C669.311 420.169 667.544 417.813 664.716 417.813C662.949 417.813 660.829 418.638 658.591 420.876C656.588 422.643 655.057 424.528 653.761 426.295L648.695 458.691C648.577 459.044 648.577 459.28 648.577 459.516V459.633V459.987V460.105V460.222V460.34C648.577 463.639 650.227 465.523 651.994 465.523L651.64 467.644H623.839L624.192 465.523C626.195 465.523 628.787 462.696 629.611 458.102L635.619 420.169C635.737 419.345 635.855 418.756 635.855 418.167C635.855 414.868 634.205 412.866 632.438 412.866L632.792 410.745H634.559C641.627 410.745 649.991 408.507 655.292 405.797L656.824 407.093L655.057 418.52C660.122 410.627 668.604 406.269 675.201 406.269C681.209 406.269 685.685 409.214 686.157 416.282ZM720.361 406.386C735.793 406.386 746.631 417.695 746.631 432.421C746.631 434.07 746.513 435.719 746.278 437.369C743.804 454.332 727.547 468.233 710.583 468.233C695.151 468.233 684.313 456.806 684.313 442.081C684.313 440.549 684.431 439.018 684.667 437.369C687.14 420.287 703.397 406.386 720.361 406.386ZM719.654 411.216C714.117 411.216 707.167 423.35 704.929 438.193C704.34 441.845 704.104 445.261 704.104 448.442C704.104 458.337 706.814 465.288 711.054 465.288C716.945 465.288 723.188 453.272 725.662 438.193C726.251 434.541 726.487 430.889 726.487 427.709C726.487 417.931 724.013 411.216 719.654 411.216ZM781.146 382.708L769.131 458.102C769.013 458.455 769.013 458.691 769.013 459.044V459.162V459.516V459.751V459.869V459.987C769.013 463.639 770.662 465.523 772.429 465.523L772.076 467.644H744.274L744.627 465.523C746.512 465.523 749.222 462.932 750.046 458.691L759.942 395.784C760.06 395.431 760.06 395.195 760.06 394.842V394.724V394.37V394.253V394.135V394.017V393.899C760.06 390.247 758.41 388.362 756.643 388.362L756.997 386.242C764.89 386.242 773.843 384.239 779.615 381.412L781.146 382.708ZM812.898 382.708L800.882 458.102C800.764 458.455 800.764 458.691 800.764 459.044V459.162V459.516V459.751V459.869V459.987C800.764 463.639 802.414 465.523 804.181 465.523L803.827 467.644H776.026L776.379 465.523C778.264 465.523 780.973 462.932 781.798 458.691L791.693 395.784C791.811 395.431 791.811 395.195 791.811 394.842V394.724V394.37V394.253V394.135V394.017V393.899C791.811 390.247 790.162 388.362 788.395 388.362L788.748 386.242C796.641 386.242 805.594 384.239 811.367 381.412L812.898 382.708Z" fill="#F0F0F0"/>
<path d="M854.823 204.863C855.889 193.674 856.688 182.752 857.221 171.83C857.753 166.236 858.02 160.908 858.286 155.314C858.553 152.118 858.553 148.921 858.553 145.991L879.864 157.712L885.458 160.908L896.646 166.769L896.913 166.503C893.45 163.839 890.253 161.175 887.056 158.511C885.458 157.179 883.593 155.847 881.995 154.782L877.2 150.786C871.606 146.523 866.278 142.261 860.684 138.265C862.548 136.401 864.413 134.536 866.278 132.405L874.27 122.815C879.597 116.421 885.191 110.028 890.519 103.368H890.253C883.593 108.43 877.2 114.024 870.806 119.352C867.61 122.016 864.413 124.68 861.216 127.61L858.553 130.007C858.286 122.016 857.753 114.024 857.221 105.766L856.688 97.7742C856.421 94.8439 856.421 92.18 856.155 89.5161C855.889 83.922 855.356 78.3278 854.823 73H854.557C854.29 78.3278 853.758 83.922 853.491 89.5161C853.225 92.18 852.958 94.8439 852.958 97.7742L852.426 105.766C851.893 114.557 851.36 123.081 851.094 131.872L846.299 128.942L835.11 122.815C827.918 118.819 820.459 114.823 813 111.094C819.393 116.421 825.787 121.749 832.446 127.077C835.909 129.475 839.106 132.138 842.303 134.802C844.434 136.401 846.565 137.999 848.696 139.331C844.168 144.392 839.905 149.72 835.377 155.048L831.114 159.843L819.127 174.228L819.393 174.494L828.983 166.503L834.045 162.507L838.84 158.245L851.094 147.855C851.094 150.253 851.094 152.917 851.36 155.314C851.626 160.908 851.893 166.236 852.426 171.83C852.958 182.752 853.758 193.674 854.823 204.863Z" fill="white"/>
<path d="M62.9578 342.994C63.6447 335.783 64.1598 328.743 64.5032 321.703C64.8466 318.097 65.0183 314.663 65.19 311.057C65.3617 308.997 65.3617 306.936 65.3617 305.047L79.0982 312.603L82.704 314.663L89.9157 318.441L90.0874 318.269C87.8552 316.552 85.7947 314.835 83.7343 313.118C82.704 312.259 81.5021 311.401 80.4718 310.714L77.3811 308.138C73.7753 305.391 70.3412 302.644 66.7354 300.068C67.9373 298.866 69.1393 297.664 70.3412 296.29L75.4924 290.109C78.9265 285.988 82.5323 281.867 85.9664 277.574H85.7947C81.5021 280.837 77.3811 284.443 73.2602 287.877C71.1997 289.594 69.1393 291.311 67.0788 293.2L65.3617 294.745C65.19 289.594 64.8466 284.443 64.5032 279.12L64.1598 273.969C63.9881 272.08 63.9881 270.363 63.8164 268.646C63.6447 265.04 63.3013 261.434 62.9578 258H62.7861C62.6144 261.434 62.271 265.04 62.0993 268.646C61.9276 270.363 61.7559 272.08 61.7559 273.969L61.4125 279.12C61.0691 284.786 60.7257 290.281 60.554 295.947L57.4632 294.058L50.2516 290.109C45.6155 287.533 40.8078 284.958 36 282.554C40.1209 285.988 44.2419 289.422 48.5345 292.856C50.7667 294.402 52.8272 296.119 54.8877 297.836C56.2613 298.866 57.635 299.896 59.0086 300.755C56.0896 304.017 53.3423 307.451 50.4233 310.885L47.676 313.976L39.9492 323.248L40.1209 323.42L46.3024 318.269L49.5648 315.693L52.6555 312.946L60.554 306.249C60.554 307.795 60.554 309.512 60.7257 311.057C60.8974 314.663 61.0691 318.097 61.4125 321.703C61.7559 328.743 62.271 335.783 62.9578 342.994Z" fill="white"/>
</svg>
