<svg width="42" height="42" viewBox="0 0 42 42" fill="none" xmlns="http://www.w3.org/2000/svg">
<path fill-rule="evenodd" clip-rule="evenodd" d="M29.0154 19.2709L25.0079 15.2714V15.254C24.3079 14.5554 24.3079 13.4551 25.0079 12.7739C25.6904 12.0754 26.7929 12.0754 27.4929 12.7739L34.4929 19.7599C34.9056 20.1612 35.0688 20.7287 34.9823 21.2651C34.9152 21.7316 34.6616 22.1401 34.2999 22.4123L27.4742 29.2243C27.1417 29.5387 26.6867 29.7308 26.2317 29.7308L26.2492 29.75C25.7767 29.75 25.3217 29.5579 25.0067 29.2435C24.3067 28.5624 24.3067 27.4446 24.9892 26.7635V26.746L28.9794 22.7639H8.75C7.77 22.7639 7 21.978 7 21.0174C7 20.0394 7.77 19.2709 8.75 19.2709H29.0154Z" fill="#171717"/>
</svg>
