<svg width="42" height="42" viewBox="0 0 42 42" fill="none" xmlns="http://www.w3.org/2000/svg">
<path fill-rule="evenodd" clip-rule="evenodd" d="M12.9846 22.7291L16.9921 26.7286L16.9921 26.746C17.6921 27.4446 17.6921 28.5449 16.9921 29.2261C16.3096 29.9246 15.2071 29.9246 14.5071 29.2261L7.50709 22.2401C7.09435 21.8388 6.93121 21.2713 7.01768 20.7349C7.0848 20.2684 7.33842 19.8599 7.70008 19.5877L14.5258 12.7757C14.8583 12.4613 15.3133 12.2692 15.7683 12.2692L15.7508 12.25C16.2233 12.25 16.6783 12.4421 16.9933 12.7565C17.6933 13.4376 17.6933 14.5554 17.0108 15.2365L17.0108 15.254L13.0206 19.2361L33.25 19.2361C34.23 19.2361 35 20.022 35 20.9826C35 21.9606 34.23 22.7291 33.25 22.7291L12.9846 22.7291Z" fill="#171717"/>
</svg>
