<svg width="42" height="42" viewBox="0 0 42 42" fill="none" xmlns="http://www.w3.org/2000/svg">
<path fill-rule="evenodd" clip-rule="evenodd" d="M29.7382 5.04591C29.6371 4.17557 28.8975 3.5 28 3.5C27.0335 3.5 26.25 4.2835 26.25 5.25V7H15.75V5.25L15.7382 5.04591C15.6371 4.17557 14.8975 3.5 14 3.5C13.0335 3.5 12.25 4.2835 12.25 5.25V7H10.5C7.60051 7 5.25 9.3505 5.25 12.25V19.25V33.25C5.25 36.1495 7.60051 38.5 10.5 38.5H31.5C34.3995 38.5 36.75 36.1495 36.75 33.25V19.25V12.25C36.75 9.3505 34.3995 7 31.5 7H29.75V5.25L29.7382 5.04591ZM33.25 17.5V12.25C33.25 11.2835 32.4665 10.5 31.5 10.5H29.75V12.25C29.75 13.2165 28.9665 14 28 14C27.1025 14 26.3629 13.3244 26.2618 12.4541L26.25 12.25V10.5H15.75V12.25C15.75 13.2165 14.9665 14 14 14C13.1025 14 12.3629 13.3244 12.2618 12.4541L12.25 12.25V10.5H10.5C9.5335 10.5 8.75 11.2835 8.75 12.25V17.5H33.25ZM8.75 21H33.25V33.25C33.25 34.2165 32.4665 35 31.5 35H10.5C9.5335 35 8.75 34.2165 8.75 33.25V21ZM22.7382 26.0459C22.746 26.1129 22.75 26.181 22.75 26.25V31.5C22.75 32.4665 21.9665 33.25 21 33.25C20.1025 33.25 19.3629 32.5744 19.2618 31.7041L19.25 31.5V28C18.2835 28 17.5 27.2165 17.5 26.25C17.5 25.3525 18.1756 24.6129 19.0459 24.5118L19.25 24.5H21C21.8975 24.5 22.6371 25.1756 22.7382 26.0459Z" fill="#171717"/>
</svg>
