<svg width="913" height="1080" viewBox="0 0 913 1080" fill="none" xmlns="http://www.w3.org/2000/svg">
<rect width="913" height="1126" fill="#698662"/>
<path d="M129.411 279.462L130.059 275.357C134.165 275.357 139.351 269.955 140.863 261.096L160.094 140.742C160.31 140.094 160.31 139.662 160.31 139.013V138.797V138.149V137.933V137.717V137.501V137.285C160.31 130.37 156.853 126.481 153.396 126.481L154.044 122.376H201.58C245.66 122.376 272.237 144.847 272.237 184.821C272.237 190.007 271.805 195.409 270.941 201.243C262.946 251.373 226.645 279.462 176.732 279.462H129.411ZM200.5 129.29L177.812 272.764C204.389 267.794 223.62 244.242 231.615 201.027C232.479 193.897 232.911 187.414 232.911 181.364C232.911 150.249 221.243 133.395 200.5 129.29ZM379.812 262.825L382.189 265.634C379.812 268.443 376.787 271.252 373.978 273.628C368.792 277.95 360.149 280.327 351.722 280.327C340.487 280.327 330.331 275.789 330.331 265.634C330.331 264.553 330.331 263.689 330.547 263.041L331.411 257.855C325.361 265.418 317.583 271.684 308.723 275.789C302.673 278.382 296.839 279.678 291.005 279.678C277.176 279.678 265.94 271.9 265.94 257.423C265.94 255.91 266.157 254.398 266.373 252.885C268.101 240.137 278.905 226.308 298.352 220.69C314.557 216.152 334.436 215.504 340.054 202.323L340.487 199.947C340.919 196.705 341.135 193.897 341.135 191.52C341.135 181.148 337.029 177.043 332.06 177.043C325.361 177.043 316.07 184.605 313.693 195.625L313.477 196.922C313.261 197.57 313.261 198.002 313.261 198.65V198.866V199.514V199.731V200.163V200.379V200.595C313.261 203.836 313.693 206.645 315.638 208.157C311.532 212.263 305.266 214.424 298.568 214.424C289.709 214.424 281.282 210.318 281.282 200.163C281.282 198.65 281.282 197.57 281.498 196.922C284.307 178.555 308.94 166.455 331.844 166.455H333.572C354.748 167.103 375.275 174.882 375.275 197.786C375.275 199.947 375.059 202.323 374.626 204.916L365.551 262.176V263.041C365.551 266.282 367.496 267.794 370.089 267.794C373.33 267.794 377.435 266.066 379.812 262.825ZM321.472 258.935C325.145 256.991 329.467 253.533 332.924 248.131L338.326 213.127C328.602 218.961 316.07 226.74 308.291 236.031C304.618 240.353 302.673 244.458 302.241 248.131C302.025 248.564 302.025 248.996 302.025 249.428V250.292V250.508V250.724V250.94C302.025 257.207 305.698 261.528 312.397 261.528C315.206 261.528 318.231 260.664 321.472 258.935ZM471.714 168.616H504.557L503.909 172.721C494.185 172.721 487.271 186.334 482.085 195.625C481.437 196.489 481.221 197.138 481.005 197.786L426.338 297.397C419.423 309.713 407.971 337.803 390.037 337.803C380.53 337.803 375.128 330.24 375.128 321.381C375.128 319.869 375.128 318.788 375.344 318.14C376.424 311.658 380.098 305.824 385.932 300.422C388.308 305.391 392.198 307.984 397.6 307.984C404.73 307.984 412.725 303.231 417.263 294.804L425.689 279.678H417.695L392.63 187.63C389.173 174.234 385.499 172.505 381.178 172.505L381.826 168.616H433.252L432.604 172.721C429.363 172.937 427.85 173.801 427.634 175.53V176.61C427.634 178.555 428.498 181.364 429.363 184.605L445.136 243.378L472.362 193.897C474.955 189.143 476.467 185.253 476.899 182.012C477.115 181.364 477.115 180.284 477.115 179.203C477.115 174.882 475.171 172.721 471.065 172.721L471.714 168.616ZM668.82 238.84L673.142 238.624C669.036 263.473 653.479 277.302 632.951 280.543C630.359 281.191 627.117 281.191 623.876 281.191C603.781 281.191 583.47 273.628 564.456 269.523C562.079 269.091 559.918 268.875 557.973 268.875C551.059 268.875 547.818 272.548 546.305 279.678H539.175C539.823 276.437 540.903 272.98 542.416 269.307C553.436 239.056 577.42 222.635 598.812 208.806C618.474 196.057 636.841 183.957 640.298 160.837C640.514 159.108 640.73 156.515 640.73 153.923C640.73 136.853 631.223 128.21 621.499 128.21C610.48 128.21 599.46 136.42 597.083 149.385V150.249C597.083 151.114 596.867 151.762 596.867 152.626C596.867 160.189 600.324 166.239 607.887 166.239H608.751C609.831 166.239 610.48 166.239 611.128 166.023L612.64 165.807C606.806 180.284 591.897 189.143 579.797 189.143H578.933C565.104 189.143 558.405 180.5 558.405 169.48C558.405 167.967 558.621 166.455 558.838 164.726C559.486 161.053 560.782 156.948 562.727 152.842C574.179 129.722 601.188 119.134 626.685 119.134C655.207 119.134 682.001 132.747 682.001 156.948V158.244V158.46V158.892C682.001 159.541 682.001 160.405 681.785 161.053L681.568 162.349C676.815 190.439 648.509 202.107 619.771 214.208L617.178 215.288C600.54 222.202 582.822 229.333 569.641 241.217C573.747 240.137 578.284 239.705 583.254 239.705C592.977 239.705 602.917 241.649 616.962 244.458C627.117 246.835 636.409 248.564 644.836 248.564C653.695 248.564 661.689 246.403 667.74 238.84H668.82ZM749.114 124.536L727.506 261.312C727.29 261.96 727.29 262.609 727.29 263.257V264.121V264.337V264.553V264.769V264.985V265.201C727.29 271.9 729.883 275.573 732.476 275.573H733.773L733.124 279.678H677.377L678.025 275.573H679.322C682.563 275.573 687.1 270.171 688.613 261.312L705.683 153.706V152.41C705.683 146.36 698.552 144.847 695.311 144.847H694.015L694.879 140.742H695.959C714.11 137.069 730.099 131.019 744.792 122.592H746.305L749.114 124.536Z" fill="white"/>
<path d="M281.641 437.133L283.526 437.722C280.345 446.793 277.635 454.803 274.926 463.756C267.269 467.88 258.787 469.411 250.305 469.411C225.802 469.411 214.257 452.094 214.257 432.656C214.257 429.947 214.493 427.709 214.846 424.999C217.32 409.449 226.862 394.017 243.237 385.889C248.538 383.179 254.899 381.648 261.496 381.059C261.968 380.941 262.439 380.941 262.91 380.941H263.381H263.499H263.617H263.735H263.852H263.97H264.088H264.206C273.866 380.941 284.586 384.593 290.476 388.598L282.936 411.334L280.934 411.805L279.049 406.622C273.983 393.31 266.326 385.653 258.669 385.653C251.483 385.653 244.65 392.368 240.056 407.918C239.232 410.627 238.76 413.455 238.289 416.4C237.582 420.758 237.229 425.235 237.229 429.711C237.229 441.845 239.938 453.861 245.24 459.398C247.36 461.636 249.834 462.814 252.543 462.814C256.784 462.814 262.085 460.105 268.682 453.39C272.805 449.149 277.046 443.73 281.641 437.133ZM347.446 458.455L348.741 459.987C347.446 461.518 345.796 463.05 344.265 464.345C341.438 466.702 336.726 467.997 332.131 467.997C326.005 467.997 320.469 465.523 320.469 459.987C320.469 459.398 320.469 458.927 320.587 458.573L321.058 455.746C317.759 459.869 313.518 463.285 308.688 465.523C305.39 466.937 302.209 467.644 299.029 467.644C291.489 467.644 285.363 463.403 285.363 455.51C285.363 454.686 285.481 453.861 285.599 453.036C286.541 446.086 292.432 438.547 303.034 435.484C311.869 433.01 322.707 432.656 325.77 425.47L326.005 424.175C326.241 422.408 326.359 420.876 326.359 419.58C326.359 413.926 324.121 411.687 321.411 411.687C317.759 411.687 312.694 415.811 311.398 421.819L311.28 422.525C311.162 422.879 311.162 423.114 311.162 423.468V423.586V423.939V424.057V424.292V424.41V424.528C311.162 426.295 311.398 427.826 312.458 428.651C310.22 430.889 306.804 432.067 303.152 432.067C298.322 432.067 293.727 429.829 293.727 424.292C293.727 423.468 293.727 422.879 293.845 422.525C295.377 412.512 308.806 405.915 321.293 405.915H322.236C333.78 406.269 344.972 410.509 344.972 422.997C344.972 424.175 344.854 425.47 344.618 426.884L339.671 458.102V458.573C339.671 460.34 340.731 461.165 342.145 461.165C343.912 461.165 346.15 460.222 347.446 458.455ZM315.639 456.335C317.641 455.275 319.998 453.39 321.882 450.445L324.827 431.361C319.526 434.541 312.694 438.782 308.453 443.848C306.45 446.204 305.39 448.442 305.154 450.445C305.037 450.68 305.037 450.916 305.037 451.152V451.623V451.741V451.858V451.976C305.037 455.392 307.039 457.748 310.691 457.748C312.223 457.748 313.872 457.277 315.639 456.335ZM383.734 382.708L371.718 458.102C371.6 458.455 371.6 458.691 371.6 459.044V459.162V459.516V459.751V459.869V459.987C371.6 463.639 373.249 465.523 375.016 465.523L374.663 467.644H346.861L347.215 465.523C349.099 465.523 351.809 462.932 352.634 458.691L362.529 395.784C362.647 395.431 362.647 395.195 362.647 394.842V394.724V394.37V394.253V394.135V394.017V393.899C362.647 390.247 360.998 388.362 359.231 388.362L359.584 386.242C367.477 386.242 376.43 384.239 382.202 381.412L383.734 382.708ZM423.496 456.806C429.975 455.981 434.805 452.212 437.986 448.324L439.988 449.031C433.745 460.222 422.318 468.822 408.299 468.822C392.867 468.822 382.265 457.159 382.265 442.552C382.265 440.903 382.383 439.253 382.618 437.604C385.092 420.758 401.231 406.269 418.195 406.269C433.391 406.269 443.169 417.695 443.169 432.303C443.169 434.07 443.051 435.837 442.698 437.604H402.645C402.998 447.971 408.064 457.042 420.551 457.042C421.493 457.042 422.436 456.924 423.496 456.806ZM402.645 433.599H424.085C423.731 418.873 419.491 412.512 414.425 412.512C409.713 412.512 404.883 418.284 403.116 428.651C402.762 430.183 402.762 431.832 402.645 433.599ZM501.758 459.28V459.987C501.758 463.639 503.407 465.523 505.174 465.523L504.82 467.644H476.901L477.255 465.523C479.257 465.523 481.967 462.696 482.791 458.102L487.975 425.588C488.21 424.292 488.328 423.114 488.328 422.054C488.328 417.46 486.325 415.811 483.851 415.811C479.022 415.811 471.836 422.408 470.893 428.062L466.063 458.691C465.945 459.044 465.945 459.633 465.945 460.222C465.945 463.403 467.595 465.523 469.362 465.523L469.008 467.644H441.207L441.56 465.523C443.563 465.523 446.154 462.696 446.979 458.102L452.987 420.169C453.105 419.345 453.223 418.756 453.223 418.167C453.223 414.868 451.573 412.866 449.806 412.866L450.16 410.745H451.927C458.995 410.745 467.359 408.507 472.66 405.797L474.192 407.093L472.542 417.224C478.55 410.627 486.443 407.211 493.04 407.211C500.933 407.211 507.53 411.923 507.53 421.819C507.53 423.114 507.412 424.528 507.176 425.942C505.409 437.133 503.525 448.442 501.758 459.28ZM579.525 381.765L567.391 458.102C567.274 458.455 567.274 459.044 567.274 459.869C567.274 463.521 569.041 465.523 570.808 465.523L570.454 467.644H546.776L548.189 458.22C544.066 463.756 538.765 467.644 530.637 467.644C518.267 467.644 512.613 457.159 512.613 445.261C512.613 443.259 512.731 441.256 513.084 439.018C515.322 423.468 527.103 407.211 545.48 407.211H546.069C550.663 407.211 553.608 408.86 555.847 410.863L558.438 394.842C558.556 394.488 558.556 393.899 558.556 393.075C558.556 389.423 556.789 387.538 555.022 387.538L555.375 385.417C563.386 385.417 572.221 383.297 577.876 380.47L579.525 381.765ZM535.82 462.225H536.527C543.595 462.225 550.192 445.968 552.43 431.95C552.902 428.887 553.137 425.942 553.137 423.232C553.137 416.635 551.606 412.159 547.954 412.159C540.532 412.159 533.935 428.062 531.697 442.081C531.226 445.144 530.99 447.971 530.99 450.68C530.99 457.159 532.404 461.754 535.82 462.225ZM638.617 458.455L639.913 459.987C638.617 461.518 636.968 463.05 635.436 464.345C632.609 466.702 627.897 467.997 623.303 467.997C617.177 467.997 611.64 465.523 611.64 459.987C611.64 459.398 611.64 458.927 611.758 458.573L612.229 455.746C608.931 459.869 604.69 463.285 599.86 465.523C596.561 466.937 593.381 467.644 590.2 467.644C582.661 467.644 576.535 463.403 576.535 455.51C576.535 454.686 576.653 453.861 576.771 453.036C577.713 446.086 583.603 438.547 594.205 435.484C603.041 433.01 613.878 432.656 616.941 425.47L617.177 424.175C617.413 422.408 617.53 420.876 617.53 419.58C617.53 413.926 615.292 411.687 612.583 411.687C608.931 411.687 603.865 415.811 602.569 421.819L602.452 422.525C602.334 422.879 602.334 423.114 602.334 423.468V423.586V423.939V424.057V424.292V424.41V424.528C602.334 426.295 602.569 427.826 603.63 428.651C601.391 430.889 597.975 432.067 594.323 432.067C589.493 432.067 584.899 429.829 584.899 424.292C584.899 423.468 584.899 422.879 585.017 422.525C586.548 412.512 599.978 405.915 612.465 405.915H613.407C624.952 406.269 636.143 410.509 636.143 422.997C636.143 424.175 636.025 425.47 635.79 426.884L630.842 458.102V458.573C630.842 460.34 631.902 461.165 633.316 461.165C635.083 461.165 637.321 460.222 638.617 458.455ZM606.81 456.335C608.813 455.275 611.169 453.39 613.054 450.445L615.999 431.361C610.698 434.541 603.865 438.782 599.624 443.848C597.622 446.204 596.561 448.442 596.326 450.445C596.208 450.68 596.208 450.916 596.208 451.152V451.623V451.741V451.858V451.976C596.208 455.392 598.211 457.748 601.863 457.748C603.394 457.748 605.043 457.277 606.81 456.335ZM700.94 416.282C700.822 416.635 700.822 416.871 700.822 417.224C700.822 417.342 700.94 417.695 700.94 417.813C700.94 418.167 700.822 418.402 700.704 418.756C699.762 425.706 693.047 430.3 686.685 430.3C684.918 430.3 683.269 429.947 681.62 429.24C682.916 427.826 683.623 426.295 683.976 424.528C683.976 424.175 684.094 423.703 684.094 423.35C684.094 420.169 682.327 417.813 679.499 417.813C677.732 417.813 675.612 418.638 673.374 420.876C671.371 422.643 669.84 424.528 668.544 426.295L663.478 458.691C663.36 459.044 663.36 459.28 663.36 459.516V459.633V459.987V460.105V460.222V460.34C663.36 463.639 665.01 465.523 666.777 465.523L666.423 467.644H638.622L638.975 465.523C640.978 465.523 643.569 462.696 644.394 458.102L650.402 420.169C650.52 419.345 650.638 418.756 650.638 418.167C650.638 414.868 648.988 412.866 647.221 412.866L647.575 410.745H649.342C656.41 410.745 664.774 408.507 670.075 405.797L671.607 407.093L669.84 418.52C674.905 410.627 683.387 406.269 689.984 406.269C695.992 406.269 700.468 409.214 700.94 416.282ZM354.685 510.093L354.568 510.918C352.918 520.224 346.321 529.177 333.952 533.889C327.002 536.599 318.284 537.895 307.329 538.248L303.795 560.513C303.677 560.866 303.677 561.455 303.677 562.28C303.677 566.05 305.562 568.288 307.446 568.288L307.093 570.526H276.464L276.818 568.288C279.056 568.288 281.883 565.343 282.708 560.513L293.192 494.897C293.31 494.543 293.31 494.308 293.31 493.954V493.836V493.719V493.483V493.365V493.247V493.13V493.012C293.31 489.242 291.425 487.122 289.54 487.122L289.894 485.001H319.58C327.002 485.001 333.363 485.708 338.664 487.239C349.62 490.538 354.803 498.548 354.803 507.384V508.208V508.326V508.444V508.562V508.68C354.803 509.151 354.803 509.622 354.685 510.093ZM315.104 489.124L308.035 534.125C322.525 532.594 331.125 522.462 332.656 512.096C332.774 511.507 332.892 510.8 332.892 510.211V510.093V509.975V509.386V509.269V509.151V509.033V508.797V508.68V508.562V508.444C332.892 499.373 327.237 490.656 315.104 489.124ZM371.761 504.203C366.225 504.203 362.219 500.433 362.219 495.368V495.25V495.014V494.897V494.779V494.661V494.543C362.219 494.308 362.219 494.072 362.337 493.836C363.28 488.064 368.816 483.352 375.06 483.352C380.361 483.352 384.249 487.122 384.249 492.187C384.249 492.894 384.249 493.483 384.131 493.836C383.188 499.491 377.652 504.203 371.761 504.203ZM380.95 510.093L372.822 561.691C372.704 562.044 372.704 562.28 372.704 562.516V562.633V562.987V563.105V563.222V563.34C372.704 566.639 374.353 568.523 376.12 568.523L375.767 570.644H347.965L348.319 568.523C350.321 568.523 352.913 565.696 353.738 561.102L359.745 523.169C359.863 522.345 359.981 521.756 359.981 521.167C359.981 517.868 358.332 515.866 356.565 515.866L356.918 513.745C364.575 513.745 373.764 511.625 379.419 508.797L380.95 510.093ZM477.836 485.472L465.82 561.22C465.702 561.573 465.702 562.162 465.702 562.987C465.702 566.639 467.469 568.641 469.236 568.641L469 570.762H440.728L440.963 568.641C442.966 568.641 445.793 566.05 446.618 561.691L457.338 493.13C457.338 491.834 456.278 491.009 454.982 490.538C452.272 489.949 449.445 489.478 446.264 489.478H444.497C437.429 489.595 433.895 493.601 433.071 498.666C432.953 499.02 432.953 499.491 432.953 499.844V499.962V500.551V500.669V500.905V501.022C432.953 506.206 435.191 512.096 438.607 516.808C439.196 517.161 439.55 517.75 439.903 518.222C441.788 521.049 442.966 523.994 442.966 527.646V528.706V528.942V529.059V529.177V529.295C442.966 529.648 442.966 529.884 442.848 530.12C441.906 537.07 435.78 540.486 430.125 540.486C426.002 540.486 422.115 538.601 420.348 534.95C422.822 533.065 424.824 529.766 425.885 526.35C426.238 525.408 426.474 524.465 426.591 523.641C426.709 522.816 426.827 522.109 426.827 521.284C426.827 516.101 423.764 513.156 419.994 513.156C415.871 513.156 411.041 516.337 407.389 523.876C405.033 528.706 403.855 534.007 403.855 539.544C403.855 550.382 409.039 560.159 421.644 560.159C422.939 560.159 423.882 560.042 425.178 559.924C430.714 559.099 435.78 556.508 439.196 551.442L441.199 552.267C434.955 563.811 424.353 571.94 409.628 571.94C395.963 571.94 383.475 560.277 383.475 545.081C383.475 543.667 383.593 542.136 383.829 540.604C384.653 535.892 386.303 531.298 388.659 527.41C396.198 515.041 408.096 509.504 419.523 509.151H420.701C421.997 509.151 422.939 509.269 424.235 509.386C423.764 507.619 423.528 505.97 423.528 504.203V503.614V503.496V503.378V503.261V503.143V503.025C423.528 502.672 423.528 502.2 423.646 501.847C424.942 492.894 433.542 485.472 444.969 485.472H445.44C450.27 485.472 454.157 486.415 458.398 486.886C461.579 486.886 466.055 486.415 469.707 485.59C471.828 485.237 474.066 484.765 476.304 484.176L477.836 485.472ZM487.26 529.059L499.394 557.45C503.752 567.228 504.813 568.641 507.404 568.641L507.169 570.762H483.49L470.061 539.897L485.257 525.408C488.556 522.227 489.852 519.871 490.205 517.633C490.205 517.279 490.323 517.044 490.323 516.69C490.323 514.216 488.556 512.685 486.318 512.214L486.671 509.975H514.944L514.59 512.096C508.465 512.449 499.865 517.515 492.915 523.876L487.26 529.059ZM554.816 559.806C561.296 558.981 566.125 555.212 569.306 551.324L571.309 552.031C565.065 563.222 553.638 571.822 539.62 571.822C524.188 571.822 513.585 560.159 513.585 545.552C513.585 543.903 513.703 542.253 513.939 540.604C516.413 523.758 532.552 509.269 549.515 509.269C564.712 509.269 574.489 520.695 574.489 535.303C574.489 537.07 574.372 538.837 574.018 540.604H533.965C534.319 550.971 539.384 560.042 551.871 560.042C552.814 560.042 553.756 559.924 554.816 559.806ZM533.965 536.599H555.405C555.052 521.873 550.811 515.512 545.746 515.512C541.033 515.512 536.203 521.284 534.436 531.651C534.083 533.183 534.083 534.832 533.965 536.599ZM634.963 519.282C634.845 519.635 634.845 519.871 634.845 520.224C634.845 520.342 634.963 520.695 634.963 520.813C634.963 521.167 634.845 521.402 634.727 521.756C633.785 528.706 627.07 533.3 620.709 533.3C618.942 533.3 617.292 532.947 615.643 532.24C616.939 530.826 617.646 529.295 617.999 527.528C617.999 527.175 618.117 526.703 618.117 526.35C618.117 523.169 616.35 520.813 613.523 520.813C611.756 520.813 609.635 521.638 607.397 523.876C605.394 525.643 603.863 527.528 602.567 529.295L597.502 561.691C597.384 562.044 597.384 562.28 597.384 562.516V562.633V562.987V563.105V563.222V563.34C597.384 566.639 599.033 568.523 600.8 568.523L600.447 570.644H572.645L572.999 568.523C575.001 568.523 577.593 565.696 578.417 561.102L584.425 523.169C584.543 522.345 584.661 521.756 584.661 521.167C584.661 517.868 583.012 515.866 581.245 515.866L581.598 513.745H583.365C590.433 513.745 598.797 511.507 604.099 508.797L605.63 510.093L603.863 521.52C608.928 513.627 617.41 509.269 624.007 509.269C630.015 509.269 634.492 512.214 634.963 519.282Z" fill="#F0F0F0"/>
<path d="M812.823 204.863C813.889 193.674 814.688 182.752 815.221 171.83C815.753 166.236 816.02 160.908 816.286 155.314C816.553 152.118 816.553 148.921 816.553 145.991L837.864 157.712L843.458 160.908L854.646 166.769L854.913 166.503C851.45 163.839 848.253 161.175 845.056 158.511C843.458 157.179 841.593 155.847 839.995 154.782L835.2 150.786C829.606 146.523 824.278 142.261 818.684 138.265C820.548 136.401 822.413 134.536 824.278 132.405L832.27 122.815C837.597 116.421 843.191 110.028 848.519 103.368H848.253C841.593 108.43 835.2 114.024 828.806 119.352C825.61 122.016 822.413 124.68 819.216 127.61L816.553 130.007C816.286 122.016 815.753 114.024 815.221 105.766L814.688 97.7742C814.421 94.8439 814.421 92.18 814.155 89.5161C813.889 83.922 813.356 78.3278 812.823 73H812.557C812.29 78.3278 811.758 83.922 811.491 89.5161C811.225 92.18 810.958 94.8439 810.958 97.7742L810.426 105.766C809.893 114.557 809.36 123.081 809.094 131.872L804.299 128.942L793.11 122.815C785.918 118.819 778.459 114.823 771 111.094C777.393 116.421 783.787 121.749 790.446 127.077C793.909 129.475 797.106 132.138 800.303 134.802C802.434 136.401 804.565 137.999 806.696 139.331C802.168 144.392 797.905 149.72 793.377 155.048L789.114 159.843L777.127 174.228L777.393 174.494L786.983 166.503L792.045 162.507L796.84 158.245L809.094 147.855C809.094 150.253 809.094 152.917 809.36 155.314C809.626 160.908 809.893 166.236 810.426 171.83C810.958 182.752 811.758 193.674 812.823 204.863Z" fill="white"/>
<path d="M83.9578 342.994C84.6447 335.783 85.1598 328.743 85.5032 321.703C85.8466 318.097 86.0183 314.663 86.19 311.057C86.3617 308.997 86.3617 306.936 86.3617 305.047L100.098 312.603L103.704 314.663L110.916 318.441L111.087 318.269C108.855 316.552 106.795 314.835 104.734 313.118C103.704 312.259 102.502 311.401 101.472 310.714L98.3811 308.138C94.7753 305.391 91.3412 302.644 87.7354 300.068C88.9373 298.866 90.1393 297.664 91.3412 296.29L96.4924 290.109C99.9265 285.988 103.532 281.867 106.966 277.574H106.795C102.502 280.837 98.3811 284.443 94.2602 287.877C92.1997 289.594 90.1393 291.311 88.0788 293.2L86.3617 294.745C86.19 289.594 85.8466 284.443 85.5032 279.12L85.1598 273.969C84.9881 272.08 84.9881 270.363 84.8164 268.646C84.6447 265.04 84.3013 261.434 83.9578 258H83.7861C83.6144 261.434 83.271 265.04 83.0993 268.646C82.9276 270.363 82.7559 272.08 82.7559 273.969L82.4125 279.12C82.0691 284.786 81.7257 290.281 81.554 295.947L78.4632 294.058L71.2516 290.109C66.6155 287.533 61.8078 284.958 57 282.554C61.1209 285.988 65.2419 289.422 69.5345 292.856C71.7667 294.402 73.8272 296.119 75.8877 297.836C77.2613 298.866 78.635 299.896 80.0086 300.755C77.0896 304.017 74.3423 307.451 71.4233 310.885L68.676 313.976L60.9492 323.248L61.1209 323.42L67.3024 318.269L70.5648 315.693L73.6555 312.946L81.554 306.249C81.554 307.795 81.554 309.512 81.7257 311.057C81.8974 314.663 82.0691 318.097 82.4125 321.703C82.7559 328.743 83.271 335.783 83.9578 342.994Z" fill="white"/>
</svg>
