<svg width="911" height="1080" viewBox="0 0 911 1080" fill="none" xmlns="http://www.w3.org/2000/svg">
<rect width="913" height="1126" fill="#698662"/>
<path d="M172.563 279.462L173.211 275.357C177.317 275.357 182.502 269.955 184.015 261.096L203.246 140.742C203.462 140.094 203.462 139.662 203.462 139.013V138.797V138.149V137.933V137.717V137.501V137.285C203.462 130.37 200.005 126.481 196.547 126.481L197.196 122.376H244.732C288.812 122.376 315.389 144.847 315.389 184.821C315.389 190.007 314.957 195.409 314.092 201.243C306.098 251.373 269.797 279.462 219.883 279.462H172.563ZM243.652 129.29L220.964 272.764C247.541 267.794 266.772 244.242 274.767 201.027C275.631 193.897 276.063 187.414 276.063 181.364C276.063 150.249 264.395 133.395 243.652 129.29ZM422.964 262.825L425.341 265.634C422.964 268.443 419.939 271.252 417.13 273.628C411.944 277.95 403.301 280.327 394.874 280.327C383.638 280.327 373.483 275.789 373.483 265.634C373.483 264.553 373.483 263.689 373.699 263.041L374.563 257.855C368.513 265.418 360.734 271.684 351.875 275.789C345.825 278.382 339.991 279.678 334.157 279.678C320.328 279.678 309.092 271.9 309.092 257.423C309.092 255.91 309.308 254.398 309.524 252.885C311.253 240.137 322.057 226.308 341.504 220.69C357.709 216.152 377.588 215.504 383.206 202.323L383.638 199.947C384.07 196.705 384.287 193.897 384.287 191.52C384.287 181.148 380.181 177.043 375.211 177.043C368.513 177.043 359.222 184.605 356.845 195.625L356.629 196.922C356.413 197.57 356.413 198.002 356.413 198.65V198.866V199.514V199.731V200.163V200.379V200.595C356.413 203.836 356.845 206.645 358.79 208.157C354.684 212.263 348.418 214.424 341.72 214.424C332.861 214.424 324.434 210.318 324.434 200.163C324.434 198.65 324.434 197.57 324.65 196.922C327.459 178.555 352.091 166.455 374.995 166.455H376.724C397.899 167.103 418.426 174.882 418.426 197.786C418.426 199.947 418.21 202.323 417.778 204.916L408.703 262.176V263.041C408.703 266.282 410.648 267.794 413.241 267.794C416.482 267.794 420.587 266.066 422.964 262.825ZM364.624 258.935C368.297 256.991 372.618 253.533 376.076 248.131L381.478 213.127C371.754 218.961 359.222 226.74 351.443 236.031C347.77 240.353 345.825 244.458 345.393 248.131C345.177 248.564 345.177 248.996 345.177 249.428V250.292V250.508V250.724V250.94C345.177 257.207 348.85 261.528 355.549 261.528C358.357 261.528 361.383 260.664 364.624 258.935ZM514.865 168.616H547.709L547.061 172.721C537.337 172.721 530.423 186.334 525.237 195.625C524.589 196.489 524.373 197.138 524.157 197.786L469.49 297.397C462.575 309.713 451.123 337.803 433.189 337.803C423.681 337.803 418.28 330.24 418.28 321.381C418.28 319.869 418.28 318.788 418.496 318.14C419.576 311.658 423.249 305.824 429.083 300.422C431.46 305.391 435.35 307.984 440.751 307.984C447.882 307.984 455.877 303.231 460.414 294.804L468.841 279.678H460.846L435.782 187.63C432.325 174.234 428.651 172.505 424.33 172.505L424.978 168.616H476.404L475.756 172.721C472.515 172.937 471.002 173.801 470.786 175.53V176.61C470.786 178.555 471.65 181.364 472.515 184.605L488.288 243.378L515.514 193.897C518.106 189.143 519.619 185.253 520.051 182.012C520.267 181.364 520.267 180.284 520.267 179.203C520.267 174.882 518.323 172.721 514.217 172.721L514.865 168.616ZM720.183 145.712C710.891 159.541 697.711 172.937 684.962 185.686C679.993 190.223 676.103 194.545 671.998 198.866C659.249 212.695 650.822 228.901 648.446 242.73C648.013 245.106 647.797 247.483 647.797 249.644C647.797 259.8 652.119 267.362 661.842 269.955H662.707L662.49 272.116C652.119 279.678 638.722 283.784 626.838 283.784C611.929 283.784 599.613 277.086 599.613 261.312C599.613 260.448 599.829 259.367 599.829 258.503L600.045 256.774C603.502 234.951 635.481 208.59 664.003 184.605C674.591 175.962 684.098 167.751 692.093 160.189C689.068 160.621 685.827 160.837 682.153 160.837C667.676 160.837 651.903 157.812 637.21 154.571C631.376 153.058 625.542 152.194 620.356 151.33C617.979 150.897 615.818 150.681 614.306 150.681C606.743 150.681 602.422 154.355 601.125 161.917L596.155 162.133C598.532 150.897 603.286 133.611 617.115 125.617C623.381 122.159 630.943 120.863 638.938 120.863H640.667C650.39 120.863 660.114 122.808 670.269 124.536C680.425 126.265 690.364 127.993 702.681 127.993C711.324 127.993 717.806 125.185 722.343 120.647H723.856L729.042 122.592H729.906C728.826 127.561 727.745 131.883 725.152 137.933C724.072 139.878 722.127 142.903 720.183 145.712Z" fill="white"/>
<path d="M209.985 431.596C211.634 434.777 212.459 437.958 212.459 441.02C212.459 441.963 212.341 443.023 212.223 443.966C209.985 457.866 192.668 470.118 171.935 470.118H171.11H170.992H170.874H170.757H170.639H170.521H170.403C169.814 470.118 169.343 470.118 168.754 470C158.387 469.411 147.903 465.759 142.955 461.989C144.84 455.51 146.96 445.733 148.492 437.84L151.084 437.369C153.322 448.678 157.327 457.277 164.395 461.518C168.518 463.992 172.17 465.052 175.822 465.052C183.008 465.052 188.545 460.694 189.487 455.039C189.605 454.686 189.605 454.214 189.605 453.625C189.605 449.502 187.249 445.144 181.712 441.02C171.346 433.481 153.911 424.764 152.615 411.687C152.497 411.334 152.497 410.863 152.497 410.509V410.392V410.038V409.92V409.803V409.685V409.567V409.331C152.497 407.918 152.615 406.504 152.851 405.208C155.324 389.305 173.348 380.705 189.723 380.705C190.665 380.705 191.49 380.823 192.432 380.823C203.27 381.412 211.045 384.946 216.346 388.598C214.462 395.195 212.695 402.617 211.281 409.685L208.454 410.038C206.687 401.203 203.977 394.959 200.325 391.072C196.673 387.184 192.197 385.653 188.074 385.653C181.477 385.653 175.822 389.776 174.88 395.431C174.762 395.666 174.762 395.902 174.762 396.137V396.255V396.373V396.609V396.726V396.844V396.962C174.762 400.261 176.293 404.148 180.417 407.8C189.252 416.046 204.92 422.172 209.985 431.596ZM247.984 382.708L235.968 458.102C235.85 458.455 235.85 458.691 235.85 459.044V459.162V459.516V459.751V459.869V459.987C235.85 463.639 237.499 465.523 239.267 465.523L238.913 467.644H211.112L211.465 465.523C213.35 465.523 216.059 462.932 216.884 458.691L226.779 395.784C226.897 395.431 226.897 395.195 226.897 394.842V394.724V394.37V394.253V394.135V394.017V393.899C226.897 390.247 225.248 388.362 223.481 388.362L223.834 386.242C231.727 386.242 240.68 384.239 246.452 381.412L247.984 382.708ZM312.367 407.093L304.592 456.453C304.474 456.806 304.474 457.395 304.474 458.22C304.474 461.872 306.123 463.756 307.89 463.756L307.537 465.877H305.77C298.584 465.877 290.22 467.173 285.154 470L283.505 468.586L285.154 458.573C279.147 466.112 271.607 469.411 265.01 469.411C256.411 469.411 249.342 463.756 249.342 453.036C249.342 451.741 249.46 450.327 249.696 448.795L254.408 419.227C254.526 418.873 254.526 418.52 254.526 417.931C254.526 414.75 252.759 412.866 250.992 412.866L251.345 410.745C259.238 410.745 268.073 408.625 274.081 405.797L275.495 407.093L268.78 449.738C268.662 450.327 268.544 450.916 268.544 451.387V451.623V452.212V452.33V452.447V452.565V452.683V452.801V452.919C268.544 457.748 270.783 459.633 273.963 459.633C279.147 459.633 285.744 454.568 286.686 449.267L291.398 419.934C291.516 419.58 291.516 418.991 291.516 418.167C291.516 414.515 289.749 412.866 287.982 412.866L288.335 410.745C296.228 410.745 304.945 408.625 310.953 405.797L312.367 407.093ZM377.067 398.258C376.478 398.258 375.889 398.14 375.3 398.14C367.76 398.14 362.341 401.674 357.158 408.625C365.993 411.452 371.648 418.167 371.648 426.177C371.648 427.002 371.53 427.944 371.412 428.887C369.527 440.903 355.744 450.68 340.666 450.68C334.54 450.68 329.239 449.031 325.116 446.322C324.526 446.911 324.291 447.617 324.173 448.324V448.795C324.173 450.091 325.116 451.034 327.118 451.858C332.655 453.979 344.553 455.981 353.977 458.809C365.286 462.225 369.881 467.762 369.881 473.77V474.005V474.241V474.359V474.477V474.594V474.712C369.881 475.066 369.881 475.301 369.763 475.655L369.645 476.244C366.229 490.851 343.257 498.744 324.644 498.744C318.047 498.744 312.275 497.802 308.034 495.799C303.322 493.561 301.319 490.144 301.319 486.728C301.319 486.139 301.319 485.668 301.437 485.314C302.38 478.717 310.508 472.12 320.168 472.12C322.17 472.12 324.055 472.238 326.294 473.063C322.877 475.537 321.346 478.011 320.992 480.367C320.992 480.72 320.875 481.073 320.875 481.427C320.875 486.61 327.472 490.498 335.953 490.498C337.72 490.498 339.37 490.38 341.255 490.027C347.262 488.966 350.561 486.61 351.032 483.901V483.194C351.032 480.249 348.676 476.479 341.608 474.123C334.658 471.885 324.998 470 320.403 467.88C315.809 465.641 312.864 461.754 312.864 457.513V457.159V457.042V456.924V456.806V456.688C312.864 456.453 312.864 456.217 312.982 455.981C313.571 452.094 316.398 447.971 322.995 444.555C319.108 441.256 316.751 436.78 316.751 431.596C316.751 430.772 316.869 429.829 316.987 428.887C318.872 416.989 332.655 407.211 347.616 407.211C348.441 407.211 350.797 407.329 352.564 407.682C354.802 398.847 359.514 386.478 370.352 385.889H371.059C375.889 385.889 378.127 389.069 378.127 393.192C378.127 394.017 378.009 394.488 377.891 395.313C377.773 396.255 377.42 397.315 377.067 398.258ZM346.673 445.497C350.09 444.437 352.564 440.314 353.506 435.012C353.624 433.599 353.742 432.185 353.742 430.654C353.742 429.122 353.624 427.591 353.506 426.059C352.092 417.578 347.734 411.923 343.139 411.923C342.668 411.923 342.079 412.041 341.49 412.159C338.074 413.101 335.6 417.342 334.775 422.643C334.54 424.057 334.422 425.47 334.422 427.002C334.422 428.533 334.54 430.065 334.775 431.596C336.071 439.725 340.548 445.733 345.142 445.733C345.613 445.733 346.084 445.615 346.673 445.497ZM393.907 401.203C388.37 401.203 384.365 397.433 384.365 392.368V392.25V392.014V391.897V391.779V391.661V391.543C384.365 391.308 384.365 391.072 384.483 390.836C385.425 385.064 390.962 380.352 397.205 380.352C402.507 380.352 406.394 384.122 406.394 389.187C406.394 389.894 406.394 390.483 406.276 390.836C405.334 396.491 399.797 401.203 393.907 401.203ZM403.096 407.093L394.967 458.691C394.849 459.044 394.849 459.28 394.849 459.516V459.633V459.987V460.105V460.222V460.34C394.849 463.639 396.499 465.523 398.266 465.523L397.912 467.644H370.111L370.464 465.523C372.467 465.523 375.058 462.696 375.883 458.102L381.891 420.169C382.009 419.345 382.127 418.756 382.127 418.167C382.127 414.868 380.477 412.866 378.71 412.866L379.064 410.745C386.721 410.745 395.91 408.625 401.564 405.797L403.096 407.093ZM442.14 379.763H443.2C452.86 380.352 458.632 386.006 458.632 392.014V392.368V392.486V392.603V392.721C458.632 393.075 458.632 393.31 458.515 393.546C457.926 397.433 453.567 402.852 447.912 403.206L447.441 402.617C447.441 402.263 447.323 402.381 447.323 402.028C446.734 396.962 444.967 386.595 441.904 386.595C440.137 386.595 438.252 389.423 437.31 395.077L435.425 407.093H446.381L445.792 410.509H434.836L427.297 458.691C427.179 459.044 427.179 459.28 427.179 459.516V459.633V459.987V460.105V460.222V460.34C427.179 463.639 428.828 465.523 430.595 465.523L430.242 467.644H402.44L402.794 465.523C404.796 465.523 407.388 462.696 408.213 458.102L415.752 410.509H409.98L410.569 407.093H416.341L417.401 400.732C419.64 386.242 431.773 379.763 442.14 379.763ZM494.185 407.093H512.091L511.738 409.331C506.437 409.331 502.667 416.753 499.84 421.819C499.486 422.29 499.368 422.643 499.251 422.997L469.446 477.304C465.677 484.019 459.433 499.333 449.655 499.333C444.472 499.333 441.527 495.21 441.527 490.38C441.527 489.555 441.527 488.966 441.645 488.613C442.234 485.079 444.237 481.898 447.417 478.953C448.713 481.663 450.833 483.076 453.779 483.076C457.666 483.076 462.025 480.484 464.499 475.89L469.093 467.644H464.734L451.069 417.46C449.184 410.156 447.182 409.214 444.826 409.214L445.179 407.093H473.216L472.863 409.331C471.096 409.449 470.271 409.92 470.153 410.863V411.452C470.153 412.512 470.624 414.044 471.096 415.811L479.695 447.853L494.538 420.876C495.952 418.284 496.777 416.164 497.012 414.397C497.13 414.044 497.13 413.455 497.13 412.866C497.13 410.509 496.07 409.331 493.832 409.331L494.185 407.093ZM613.427 382.001L611.071 403.912L608.479 404.619C607.183 392.368 599.526 388.48 589.513 387.538L578.439 457.513C578.321 457.866 578.321 458.102 578.321 458.455V458.927V459.044V459.162V459.28V459.398C578.321 463.167 580.206 465.288 582.091 465.288L581.738 467.526H550.991L551.344 465.288C553.583 465.288 556.528 462.343 557.352 457.513L568.426 387.538C558.177 388.48 549.106 392.368 544.041 404.619L541.684 403.912L546.279 382.001H613.427ZM625.832 401.203C620.295 401.203 616.29 397.433 616.29 392.368V392.25V392.014V391.897V391.779V391.661V391.543C616.29 391.308 616.29 391.072 616.408 390.836C617.35 385.064 622.887 380.352 629.13 380.352C634.431 380.352 638.319 384.122 638.319 389.187C638.319 389.894 638.319 390.483 638.201 390.836C637.259 396.491 631.722 401.203 625.832 401.203ZM635.02 407.093L626.892 458.691C626.774 459.044 626.774 459.28 626.774 459.516V459.633V459.987V460.105V460.222V460.34C626.774 463.639 628.423 465.523 630.19 465.523L629.837 467.644H602.036L602.389 465.523C604.392 465.523 606.983 462.696 607.808 458.102L613.816 420.169C613.934 419.345 614.051 418.756 614.051 418.167C614.051 414.868 612.402 412.866 610.635 412.866L610.989 410.745C618.646 410.745 627.834 408.625 633.489 405.797L635.02 407.093ZM675.243 410.509H665.936L658.397 458.809C658.397 459.162 658.279 459.28 658.279 459.633C658.279 461.165 659.339 461.872 660.635 461.872C662.402 461.872 664.641 460.929 665.936 459.162L667.35 460.694C666.054 462.225 664.405 463.756 662.874 465.052C660.046 467.408 655.334 468.704 650.74 468.704C644.614 468.704 639.195 466.348 639.195 460.811V460.694V460.458V460.34V460.222V460.105V459.987C639.195 459.751 639.195 459.516 639.313 459.28L646.852 410.509H641.08L641.669 407.093C650.151 406.504 661.342 394.959 667.939 387.42L669.47 388.362L666.525 407.093H675.832L675.243 410.509ZM705.621 382.708L693.605 458.102C693.488 458.455 693.488 458.691 693.488 459.044V459.162V459.516V459.751V459.869V459.987C693.488 463.639 695.137 465.523 696.904 465.523L696.55 467.644H668.749L669.102 465.523C670.987 465.523 673.697 462.932 674.521 458.691L684.417 395.784C684.535 395.431 684.535 395.195 684.535 394.842V394.724V394.37V394.253V394.135V394.017V393.899C684.535 390.247 682.885 388.362 681.118 388.362L681.472 386.242C689.364 386.242 698.317 384.239 704.09 381.412L705.621 382.708ZM745.383 456.806C751.863 455.981 756.693 452.212 759.873 448.324L761.876 449.031C755.632 460.222 744.205 468.822 730.187 468.822C714.755 468.822 704.152 457.159 704.152 442.552C704.152 440.903 704.27 439.253 704.506 437.604C706.98 420.758 723.119 406.269 740.082 406.269C755.279 406.269 765.057 417.695 765.057 432.303C765.057 434.07 764.939 435.837 764.585 437.604H724.532C724.886 447.971 729.951 457.042 742.438 457.042C743.381 457.042 744.323 456.924 745.383 456.806ZM724.532 433.599H745.972C745.619 418.873 741.378 412.512 736.313 412.512C731.601 412.512 726.771 418.284 725.004 428.651C724.65 430.183 724.65 431.832 724.532 433.599Z" fill="#F0F0F0"/>
<path d="M797.823 204.863C798.889 193.674 799.688 182.752 800.221 171.83C800.753 166.236 801.02 160.908 801.286 155.314C801.553 152.118 801.553 148.921 801.553 145.991L822.864 157.712L828.458 160.908L839.646 166.769L839.913 166.503C836.45 163.839 833.253 161.175 830.056 158.511C828.458 157.179 826.593 155.847 824.995 154.782L820.2 150.786C814.606 146.523 809.278 142.261 803.684 138.265C805.548 136.401 807.413 134.536 809.278 132.405L817.27 122.815C822.597 116.421 828.191 110.028 833.519 103.368H833.253C826.593 108.43 820.2 114.024 813.806 119.352C810.61 122.016 807.413 124.68 804.216 127.61L801.553 130.007C801.286 122.016 800.753 114.024 800.221 105.766L799.688 97.7742C799.421 94.8439 799.421 92.18 799.155 89.5161C798.889 83.922 798.356 78.3278 797.823 73H797.557C797.29 78.3278 796.758 83.922 796.491 89.5161C796.225 92.18 795.958 94.8439 795.958 97.7742L795.426 105.766C794.893 114.557 794.36 123.081 794.094 131.872L789.299 128.942L778.11 122.815C770.918 118.819 763.459 114.823 756 111.094C762.393 116.421 768.787 121.749 775.446 127.077C778.909 129.475 782.106 132.138 785.303 134.802C787.434 136.401 789.565 137.999 791.696 139.331C787.168 144.392 782.905 149.72 778.377 155.048L774.114 159.843L762.127 174.228L762.393 174.494L771.983 166.503L777.045 162.507L781.84 158.245L794.094 147.855C794.094 150.253 794.094 152.917 794.36 155.314C794.626 160.908 794.893 166.236 795.426 171.83C795.958 182.752 796.758 193.674 797.823 204.863Z" fill="white"/>
<path d="M126.958 342.994C127.645 335.783 128.16 328.743 128.503 321.703C128.847 318.097 129.018 314.663 129.19 311.057C129.362 308.997 129.362 306.936 129.362 305.047L143.098 312.603L146.704 314.663L153.916 318.441L154.087 318.269C151.855 316.552 149.795 314.835 147.734 313.118C146.704 312.259 145.502 311.401 144.472 310.714L141.381 308.138C137.775 305.391 134.341 302.644 130.735 300.068C131.937 298.866 133.139 297.664 134.341 296.29L139.492 290.109C142.926 285.988 146.532 281.867 149.966 277.574H149.795C145.502 280.837 141.381 284.443 137.26 287.877C135.2 289.594 133.139 291.311 131.079 293.2L129.362 294.745C129.19 289.594 128.847 284.443 128.503 279.12L128.16 273.969C127.988 272.08 127.988 270.363 127.816 268.646C127.645 265.04 127.301 261.434 126.958 258H126.786C126.614 261.434 126.271 265.04 126.099 268.646C125.928 270.363 125.756 272.08 125.756 273.969L125.412 279.12C125.069 284.786 124.726 290.281 124.554 295.947L121.463 294.058L114.252 290.109C109.616 287.533 104.808 284.958 100 282.554C104.121 285.988 108.242 289.422 112.535 292.856C114.767 294.402 116.827 296.119 118.888 297.836C120.261 298.866 121.635 299.896 123.009 300.755C120.09 304.017 117.342 307.451 114.423 310.885L111.676 313.976L103.949 323.248L104.121 323.42L110.302 318.269L113.565 315.693L116.655 312.946L124.554 306.249C124.554 307.795 124.554 309.512 124.726 311.057C124.897 314.663 125.069 318.097 125.412 321.703C125.756 328.743 126.271 335.783 126.958 342.994Z" fill="white"/>
</svg>
