<svg width="913" height="1080" viewBox="0 0 913 1080" fill="none" xmlns="http://www.w3.org/2000/svg">
<rect width="913" height="1126" fill="#698662"/>
<path d="M131.416 279.462L132.064 275.357C136.169 275.357 141.355 269.955 142.868 261.096L162.098 140.742C162.315 140.094 162.315 139.662 162.315 139.013V138.797V138.149V137.933V137.717V137.501V137.285C162.315 130.37 158.857 126.481 155.4 126.481L156.048 122.376H203.585C247.664 122.376 274.242 144.847 274.242 184.821C274.242 190.007 273.81 195.409 272.945 201.243C264.95 251.373 228.65 279.462 178.736 279.462H131.416ZM202.505 129.29L179.817 272.764C206.394 267.794 225.625 244.242 233.619 201.027C234.484 193.897 234.916 187.414 234.916 181.364C234.916 150.249 223.248 133.395 202.505 129.29ZM381.817 262.825L384.194 265.634C381.817 268.443 378.792 271.252 375.983 273.628C370.797 277.95 362.154 280.327 353.727 280.327C342.491 280.327 332.336 275.789 332.336 265.634C332.336 264.553 332.336 263.689 332.552 263.041L333.416 257.855C327.366 265.418 319.587 271.684 310.728 275.789C304.678 278.382 298.844 279.678 293.01 279.678C279.181 279.678 267.945 271.9 267.945 257.423C267.945 255.91 268.161 254.398 268.377 252.885C270.106 240.137 280.91 226.308 300.356 220.69C316.562 216.152 336.441 215.504 342.059 202.323L342.491 199.947C342.923 196.705 343.139 193.897 343.139 191.52C343.139 181.148 339.034 177.043 334.064 177.043C327.366 177.043 318.075 184.605 315.698 195.625L315.482 196.922C315.266 197.57 315.266 198.002 315.266 198.65V198.866V199.514V199.731V200.163V200.379V200.595C315.266 203.836 315.698 206.645 317.642 208.157C313.537 212.263 307.271 214.424 300.572 214.424C291.713 214.424 283.286 210.318 283.286 200.163C283.286 198.65 283.286 197.57 283.503 196.922C286.312 178.555 310.944 166.455 333.848 166.455H335.577C356.752 167.103 377.279 174.882 377.279 197.786C377.279 199.947 377.063 202.323 376.631 204.916L367.556 262.176V263.041C367.556 266.282 369.501 267.794 372.093 267.794C375.335 267.794 379.44 266.066 381.817 262.825ZM323.476 258.935C327.15 256.991 331.471 253.533 334.928 248.131L340.33 213.127C330.607 218.961 318.075 226.74 310.296 236.031C306.623 240.353 304.678 244.458 304.246 248.131C304.03 248.564 304.03 248.996 304.03 249.428V250.292V250.508V250.724V250.94C304.03 257.207 307.703 261.528 314.401 261.528C317.21 261.528 320.235 260.664 323.476 258.935ZM473.718 168.616H506.562L505.913 172.721C496.19 172.721 489.276 186.334 484.09 195.625C483.442 196.489 483.225 197.138 483.009 197.786L428.342 297.397C421.428 309.713 409.976 337.803 392.042 337.803C382.534 337.803 377.132 330.24 377.132 321.381C377.132 319.869 377.132 318.788 377.348 318.14C378.429 311.658 382.102 305.824 387.936 300.422C390.313 305.391 394.202 307.984 399.604 307.984C406.735 307.984 414.73 303.231 419.267 294.804L427.694 279.678H419.699L394.635 187.63C391.177 174.234 387.504 172.505 383.183 172.505L383.831 168.616H435.257L434.609 172.721C431.367 172.937 429.855 173.801 429.639 175.53V176.61C429.639 178.555 430.503 181.364 431.367 184.605L447.141 243.378L474.366 193.897C476.959 189.143 478.472 185.253 478.904 182.012C479.12 181.364 479.12 180.284 479.12 179.203C479.12 174.882 477.175 172.721 473.07 172.721L473.718 168.616ZM612.484 124.536L590.877 261.312C590.661 261.96 590.661 262.609 590.661 263.257V264.121V264.337V264.553V264.769V264.985V265.201C590.661 271.9 593.253 275.573 595.846 275.573H597.143L596.495 279.678H540.747L541.395 275.573H542.692C545.933 275.573 550.471 270.171 551.983 261.312L569.053 153.706V152.41C569.053 146.36 561.923 144.847 558.681 144.847H557.385L558.249 140.742H559.33C577.48 137.069 593.47 131.019 608.163 122.592H609.675L612.484 124.536ZM742.067 226.74C742.283 228.469 742.499 229.981 742.499 231.71C742.499 233.654 742.283 235.599 742.067 237.544C739.258 256.558 720.676 270.819 702.957 277.086C692.802 280.543 678.541 282.92 664.712 282.92C648.506 282.92 631.652 279.462 621.497 271.468C613.07 264.769 609.397 256.774 609.397 248.996V248.131V247.915V247.699V247.483V247.267C609.397 246.619 609.397 246.187 609.613 245.539C611.99 229.549 628.627 212.911 646.562 204.484C635.542 194.977 627.547 185.037 627.547 172.073C627.547 170.344 627.763 168.616 627.979 166.887C628.844 161.485 630.572 156.515 633.381 151.546C647.858 130.586 676.596 119.567 701.013 119.567C709.872 119.567 717.651 120.863 724.349 123.456C738.178 128.858 746.389 139.013 746.389 150.465C746.389 151.978 746.173 153.058 745.956 154.571C744.228 166.023 734.721 178.987 716.354 191.088C729.967 200.379 740.555 211.399 742.067 226.74ZM726.077 148.089C723.701 132.747 713.113 127.129 701.013 127.129C684.591 127.129 665.576 137.501 663.848 149.601C663.848 150.249 663.632 150.897 663.632 151.546C663.632 156.515 666.657 161.053 672.491 165.158C678.325 169.264 685.455 173.369 692.154 177.043C698.204 180.284 703.606 183.093 709.656 186.766C718.947 178.339 724.349 167.967 725.861 157.596C726.077 156.732 726.294 155.867 726.294 154.787V153.49V153.058V152.842V152.41V151.114V150.681V150.249V150.033C726.294 149.385 726.294 148.737 726.077 148.089ZM669.682 273.196C687.616 273.196 705.55 264.769 707.279 253.966V252.453C707.279 248.996 706.199 245.539 702.741 242.081C696.691 236.031 687.616 231.278 678.109 225.444C670.114 220.474 661.255 215.288 652.828 209.238C640.512 218.097 634.245 228.901 632.517 239.056C632.301 240.569 632.085 242.297 632.085 243.81C632.085 260.232 645.481 273.196 669.682 273.196Z" fill="white"/>
<path d="M177.061 407.093L176.943 407.918C175.293 417.224 168.696 426.177 156.327 430.889C149.377 433.599 140.659 434.895 129.704 435.248L126.17 457.513C126.052 457.866 126.052 458.455 126.052 459.28C126.052 463.05 127.937 465.288 129.821 465.288L129.468 467.526H98.8393L99.1927 465.288C101.431 465.288 104.258 462.343 105.083 457.513L115.567 391.897C115.685 391.543 115.685 391.308 115.685 390.954V390.836V390.719V390.483V390.365V390.247V390.13V390.012C115.685 386.242 113.8 384.122 111.915 384.122L112.269 382.001H141.955C149.377 382.001 155.738 382.708 161.039 384.239C171.995 387.538 177.178 395.548 177.178 404.384V405.208V405.326V405.444V405.562V405.68C177.178 406.151 177.178 406.622 177.061 407.093ZM137.479 386.124L130.41 431.125C144.9 429.594 153.5 419.462 155.031 409.096C155.149 408.507 155.267 407.8 155.267 407.211V407.093V406.975V406.386V406.269V406.151V406.033V405.797V405.68V405.562V405.444C155.267 396.373 149.612 387.656 137.479 386.124ZM232.661 416.282C232.543 416.635 232.543 416.871 232.543 417.224C232.543 417.342 232.661 417.695 232.661 417.813C232.661 418.167 232.543 418.402 232.425 418.756C231.483 425.706 224.768 430.3 218.407 430.3C216.64 430.3 214.99 429.947 213.341 429.24C214.637 427.826 215.344 426.295 215.697 424.528C215.697 424.175 215.815 423.703 215.815 423.35C215.815 420.169 214.048 417.813 211.221 417.813C209.454 417.813 207.333 418.638 205.095 420.876C203.092 422.643 201.561 424.528 200.265 426.295L195.199 458.691C195.082 459.044 195.082 459.28 195.082 459.516V459.633V459.987V460.105V460.222V460.34C195.082 463.639 196.731 465.523 198.498 465.523L198.144 467.644H170.343L170.696 465.523C172.699 465.523 175.291 462.696 176.115 458.102L182.123 420.169C182.241 419.345 182.359 418.756 182.359 418.167C182.359 414.868 180.71 412.866 178.943 412.866L179.296 410.745H181.063C188.131 410.745 196.495 408.507 201.796 405.797L203.328 407.093L201.561 418.52C206.626 410.627 215.108 406.269 221.705 406.269C227.713 406.269 232.19 409.214 232.661 416.282ZM252.463 401.203C246.926 401.203 242.921 397.433 242.921 392.368V392.25V392.014V391.897V391.779V391.661V391.543C242.921 391.308 242.921 391.072 243.039 390.836C243.981 385.064 249.518 380.352 255.761 380.352C261.062 380.352 264.95 384.122 264.95 389.187C264.95 389.894 264.95 390.483 264.832 390.836C263.89 396.491 258.353 401.203 252.463 401.203ZM261.651 407.093L253.523 458.691C253.405 459.044 253.405 459.28 253.405 459.516V459.633V459.987V460.105V460.222V460.34C253.405 463.639 255.054 465.523 256.821 465.523L256.468 467.644H228.667L229.02 465.523C231.023 465.523 233.614 462.696 234.439 458.102L240.447 420.169C240.565 419.345 240.682 418.756 240.682 418.167C240.682 414.868 239.033 412.866 237.266 412.866L237.62 410.745C245.277 410.745 254.465 408.625 260.12 405.797L261.651 407.093ZM323.432 424.764V425.588C323.314 425.824 323.314 426.059 323.314 426.295V427.002C322.372 433.952 316.246 437.486 310.709 437.486C306.468 437.486 302.698 435.601 300.814 431.95C303.287 430.065 305.408 426.766 306.35 423.35C306.704 422.29 306.939 421.347 307.057 420.523C307.175 419.698 307.293 418.991 307.293 418.167C307.293 413.101 304.348 410.274 300.578 410.274C296.455 410.274 291.743 413.337 288.091 420.876C286.559 424.057 285.617 427.355 285.028 431.007C284.675 432.892 284.557 434.777 284.557 436.662C284.557 447.5 289.74 457.042 302.109 457.042H302.345H303.405H303.523H303.641H303.876C304.465 457.042 305.054 456.924 305.643 456.806C311.18 455.981 316.246 453.272 319.662 448.442L321.782 449.149C315.303 460.694 303.052 468.822 290.211 468.822C274.779 468.822 264.177 457.395 264.177 442.552C264.177 440.903 264.295 439.253 264.53 437.604C265.237 432.892 266.886 428.533 269.36 424.41C276.9 412.159 288.68 406.622 300.107 406.269H300.814C313.418 406.269 323.432 414.515 323.432 424.764ZM345.762 401.203C340.225 401.203 336.22 397.433 336.22 392.368V392.25V392.014V391.897V391.779V391.661V391.543C336.22 391.308 336.22 391.072 336.338 390.836C337.28 385.064 342.817 380.352 349.06 380.352C354.361 380.352 358.249 384.122 358.249 389.187C358.249 389.894 358.249 390.483 358.131 390.836C357.189 396.491 351.652 401.203 345.762 401.203ZM354.951 407.093L346.822 458.691C346.704 459.044 346.704 459.28 346.704 459.516V459.633V459.987V460.105V460.222V460.34C346.704 463.639 348.354 465.523 350.121 465.523L349.767 467.644H321.966L322.319 465.523C324.322 465.523 326.913 462.696 327.738 458.102L333.746 420.169C333.864 419.345 333.982 418.756 333.982 418.167C333.982 414.868 332.332 412.866 330.565 412.866L330.919 410.745C338.576 410.745 347.765 408.625 353.419 405.797L354.951 407.093ZM414.728 459.28V459.987C414.728 463.639 416.377 465.523 418.145 465.523L417.791 467.644H389.872L390.225 465.523C392.228 465.523 394.937 462.696 395.762 458.102L400.945 425.588C401.181 424.292 401.299 423.114 401.299 422.054C401.299 417.46 399.296 415.811 396.822 415.811C391.992 415.811 384.806 422.408 383.864 428.062L379.034 458.691C378.916 459.044 378.916 459.633 378.916 460.222C378.916 463.403 380.565 465.523 382.332 465.523L381.979 467.644H354.177L354.531 465.523C356.534 465.523 359.125 462.696 359.95 458.102L365.958 420.169C366.076 419.345 366.193 418.756 366.193 418.167C366.193 414.868 364.544 412.866 362.777 412.866L363.13 410.745H364.898C371.966 410.745 380.33 408.507 385.631 405.797L387.162 407.093L385.513 417.224C391.521 410.627 399.414 407.211 406.011 407.211C413.904 407.211 420.501 411.923 420.501 421.819C420.501 423.114 420.383 424.528 420.147 425.942C418.38 437.133 416.495 448.442 414.728 459.28ZM488.255 398.258C487.666 398.258 487.077 398.14 486.488 398.14C478.948 398.14 473.529 401.674 468.346 408.625C477.181 411.452 482.836 418.167 482.836 426.177C482.836 427.002 482.718 427.944 482.6 428.887C480.715 440.903 466.932 450.68 451.854 450.68C445.728 450.68 440.427 449.031 436.304 446.322C435.715 446.911 435.479 447.617 435.361 448.324V448.795C435.361 450.091 436.304 451.034 438.306 451.858C443.843 453.979 455.741 455.981 465.165 458.809C476.474 462.225 481.069 467.762 481.069 473.77V474.005V474.241V474.359V474.477V474.594V474.712C481.069 475.066 481.069 475.301 480.951 475.655L480.833 476.244C477.417 490.851 454.445 498.744 435.832 498.744C429.235 498.744 423.463 497.802 419.222 495.799C414.51 493.561 412.507 490.144 412.507 486.728C412.507 486.139 412.507 485.668 412.625 485.314C413.568 478.717 421.696 472.12 431.356 472.12C433.359 472.12 435.243 472.238 437.482 473.063C434.065 475.537 432.534 478.011 432.181 480.367C432.181 480.72 432.063 481.073 432.063 481.427C432.063 486.61 438.66 490.498 447.142 490.498C448.909 490.498 450.558 490.38 452.443 490.027C458.451 488.966 461.749 486.61 462.22 483.901V483.194C462.22 480.249 459.864 476.479 452.796 474.123C445.846 471.885 436.186 470 431.592 467.88C426.997 465.641 424.052 461.754 424.052 457.513V457.159V457.042V456.924V456.806V456.688C424.052 456.453 424.052 456.217 424.17 455.981C424.759 452.094 427.586 447.971 434.183 444.555C430.296 441.256 427.94 436.78 427.94 431.596C427.94 430.772 428.057 429.829 428.175 428.887C430.06 416.989 443.843 407.211 458.804 407.211C459.629 407.211 461.985 407.329 463.752 407.682C465.99 398.847 470.702 386.478 481.54 385.889H482.247C487.077 385.889 489.315 389.069 489.315 393.192C489.315 394.017 489.197 394.488 489.079 395.313C488.962 396.255 488.608 397.315 488.255 398.258ZM457.862 445.497C461.278 444.437 463.752 440.314 464.694 435.012C464.812 433.599 464.93 432.185 464.93 430.654C464.93 429.122 464.812 427.591 464.694 426.059C463.281 417.578 458.922 411.923 454.328 411.923C453.856 411.923 453.267 412.041 452.678 412.159C449.262 413.101 446.788 417.342 445.963 422.643C445.728 424.057 445.61 425.47 445.61 427.002C445.61 428.533 445.728 430.065 445.963 431.596C447.259 439.725 451.736 445.733 456.33 445.733C456.801 445.733 457.273 445.615 457.862 445.497ZM581.153 437.133L583.038 437.722C579.857 446.793 577.147 454.803 574.438 463.756C566.781 467.88 558.299 469.411 549.817 469.411C525.314 469.411 513.769 452.094 513.769 432.656C513.769 429.947 514.005 427.709 514.358 424.999C516.832 409.449 526.374 394.017 542.749 385.889C548.05 383.179 554.411 381.648 561.008 381.059C561.48 380.941 561.951 380.941 562.422 380.941H562.893H563.011H563.129H563.247H563.364H563.482H563.6H563.718C573.378 380.941 584.098 384.593 589.988 388.598L582.448 411.334L580.446 411.805L578.561 406.622C573.495 393.31 565.838 385.653 558.181 385.653C550.995 385.653 544.162 392.368 539.568 407.918C538.744 410.627 538.272 413.455 537.801 416.4C537.094 420.758 536.741 425.235 536.741 429.711C536.741 441.845 539.45 453.861 544.752 459.398C546.872 461.636 549.346 462.814 552.055 462.814C556.296 462.814 561.597 460.105 568.194 453.39C572.317 449.149 576.558 443.73 581.153 437.133ZM648.018 425.942L642.835 459.28C642.717 459.633 642.717 459.987 642.717 460.576C642.717 463.756 644.484 465.523 646.251 465.523L645.897 467.644H617.86L618.214 465.523C620.216 465.523 622.926 462.696 623.75 458.102L628.934 425.588C629.169 424.175 629.287 422.997 629.287 421.936C629.287 417.342 627.402 415.811 624.928 415.811C620.334 415.811 613.266 421.936 612.088 427.473L607.14 458.455C607.022 458.809 607.022 459.398 607.022 460.105C607.022 463.521 608.672 465.523 610.439 465.523L610.085 467.644H582.284L582.637 465.523C584.64 465.523 587.349 462.696 588.174 458.102L597.952 395.784C598.069 395.431 598.069 395.195 598.069 394.842V394.724V394.37V394.253V394.135V394.017V393.899C598.069 390.247 596.42 388.362 594.653 388.362L595.006 386.242C602.899 386.242 611.852 384.239 617.625 381.412L619.156 382.708L613.619 417.224C619.627 410.627 627.402 407.211 633.999 407.211C642.01 407.211 648.371 411.923 648.371 421.819C648.371 423.114 648.253 424.528 648.018 425.942ZM713.567 458.455L714.863 459.987C713.567 461.518 711.918 463.05 710.386 464.345C707.559 466.702 702.847 467.997 698.253 467.997C692.127 467.997 686.59 465.523 686.59 459.987C686.59 459.398 686.59 458.927 686.708 458.573L687.179 455.746C683.881 459.869 679.64 463.285 674.81 465.523C671.511 466.937 668.331 467.644 665.15 467.644C657.611 467.644 651.485 463.403 651.485 455.51C651.485 454.686 651.603 453.861 651.72 453.036C652.663 446.086 658.553 438.547 669.155 435.484C677.99 433.01 688.828 432.656 691.891 425.47L692.127 424.175C692.362 422.408 692.48 420.876 692.48 419.58C692.48 413.926 690.242 411.687 687.533 411.687C683.881 411.687 678.815 415.811 677.519 421.819L677.401 422.525C677.284 422.879 677.284 423.114 677.284 423.468V423.586V423.939V424.057V424.292V424.41V424.528C677.284 426.295 677.519 427.826 678.58 428.651C676.341 430.889 672.925 432.067 669.273 432.067C664.443 432.067 659.849 429.829 659.849 424.292C659.849 423.468 659.849 422.879 659.967 422.525C661.498 412.512 674.928 405.915 687.415 405.915H688.357C699.902 406.269 711.093 410.509 711.093 422.997C711.093 424.175 710.975 425.47 710.74 426.884L705.792 458.102V458.573C705.792 460.34 706.852 461.165 708.266 461.165C710.033 461.165 712.271 460.222 713.567 458.455ZM681.76 456.335C683.763 455.275 686.119 453.39 688.004 450.445L690.949 431.361C685.648 434.541 678.815 438.782 674.574 443.848C672.572 446.204 671.511 448.442 671.276 450.445C671.158 450.68 671.158 450.916 671.158 451.152V451.623V451.741V451.858V451.976C671.158 455.392 673.161 457.748 676.812 457.748C678.344 457.748 679.993 457.277 681.76 456.335ZM775.889 416.282C775.772 416.635 775.772 416.871 775.772 417.224C775.772 417.342 775.889 417.695 775.889 417.813C775.889 418.167 775.772 418.402 775.654 418.756C774.711 425.706 767.997 430.3 761.635 430.3C759.868 430.3 758.219 429.947 756.57 429.24C757.866 427.826 758.572 426.295 758.926 424.528C758.926 424.175 759.044 423.703 759.044 423.35C759.044 420.169 757.277 417.813 754.449 417.813C752.682 417.813 750.562 418.638 748.324 420.876C746.321 422.643 744.789 424.528 743.494 426.295L738.428 458.691C738.31 459.044 738.31 459.28 738.31 459.516V459.633V459.987V460.105V460.222V460.34C738.31 463.639 739.96 465.523 741.727 465.523L741.373 467.644H713.572L713.925 465.523C715.928 465.523 718.519 462.696 719.344 458.102L725.352 420.169C725.47 419.345 725.588 418.756 725.588 418.167C725.588 414.868 723.938 412.866 722.171 412.866L722.525 410.745H724.292C731.36 410.745 739.724 408.507 745.025 405.797L746.557 407.093L744.789 418.52C749.855 410.627 758.337 406.269 764.934 406.269C770.942 406.269 775.418 409.214 775.889 416.282ZM813.351 410.509H804.044L796.505 458.809C796.505 459.162 796.387 459.28 796.387 459.633C796.387 461.165 797.447 461.872 798.743 461.872C800.51 461.872 802.749 460.929 804.044 459.162L805.458 460.694C804.162 462.225 802.513 463.756 800.981 465.052C798.154 467.408 793.442 468.704 788.848 468.704C782.722 468.704 777.303 466.348 777.303 460.811V460.694V460.458V460.34V460.222V460.105V459.987C777.303 459.751 777.303 459.516 777.421 459.28L784.96 410.509H779.188L779.777 407.093C788.259 406.504 799.45 394.959 806.047 387.42L807.578 388.362L804.633 407.093H813.94L813.351 410.509Z" fill="#F0F0F0"/>
<path d="M812.823 204.863C813.889 193.674 814.688 182.752 815.221 171.83C815.753 166.236 816.02 160.908 816.286 155.314C816.553 152.118 816.553 148.921 816.553 145.991L837.864 157.712L843.458 160.908L854.646 166.769L854.913 166.503C851.45 163.839 848.253 161.175 845.056 158.511C843.458 157.179 841.593 155.847 839.995 154.782L835.2 150.786C829.606 146.523 824.278 142.261 818.684 138.265C820.548 136.401 822.413 134.536 824.278 132.405L832.27 122.815C837.597 116.421 843.191 110.028 848.519 103.368H848.253C841.593 108.43 835.2 114.024 828.806 119.352C825.61 122.016 822.413 124.68 819.216 127.61L816.553 130.007C816.286 122.016 815.753 114.024 815.221 105.766L814.688 97.7742C814.421 94.8439 814.421 92.18 814.155 89.5161C813.889 83.922 813.356 78.3278 812.823 73H812.557C812.29 78.3278 811.758 83.922 811.491 89.5161C811.225 92.18 810.958 94.8439 810.958 97.7742L810.426 105.766C809.893 114.557 809.36 123.081 809.094 131.872L804.299 128.942L793.11 122.815C785.918 118.819 778.459 114.823 771 111.094C777.393 116.421 783.787 121.749 790.446 127.077C793.909 129.475 797.106 132.138 800.303 134.802C802.434 136.401 804.565 137.999 806.696 139.331C802.168 144.392 797.905 149.72 793.377 155.048L789.114 159.843L777.127 174.228L777.393 174.494L786.983 166.503L792.045 162.507L796.84 158.245L809.094 147.855C809.094 150.253 809.094 152.917 809.36 155.314C809.626 160.908 809.893 166.236 810.426 171.83C810.958 182.752 811.758 193.674 812.823 204.863Z" fill="white"/>
<path d="M88.9578 342.994C89.6447 335.783 90.1598 328.743 90.5032 321.703C90.8466 318.097 91.0183 314.663 91.19 311.057C91.3617 308.997 91.3617 306.936 91.3617 305.047L105.098 312.603L108.704 314.663L115.916 318.441L116.087 318.269C113.855 316.552 111.795 314.835 109.734 313.118C108.704 312.259 107.502 311.401 106.472 310.714L103.381 308.138C99.7753 305.391 96.3412 302.644 92.7354 300.068C93.9373 298.866 95.1393 297.664 96.3412 296.29L101.492 290.109C104.926 285.988 108.532 281.867 111.966 277.574H111.795C107.502 280.837 103.381 284.443 99.2602 287.877C97.1997 289.594 95.1393 291.311 93.0788 293.2L91.3617 294.745C91.19 289.594 90.8466 284.443 90.5032 279.12L90.1598 273.969C89.9881 272.08 89.9881 270.363 89.8164 268.646C89.6447 265.04 89.3013 261.434 88.9578 258H88.7861C88.6144 261.434 88.271 265.04 88.0993 268.646C87.9276 270.363 87.7559 272.08 87.7559 273.969L87.4125 279.12C87.0691 284.786 86.7257 290.281 86.554 295.947L83.4632 294.058L76.2516 290.109C71.6155 287.533 66.8078 284.958 62 282.554C66.1209 285.988 70.2419 289.422 74.5345 292.856C76.7667 294.402 78.8272 296.119 80.8877 297.836C82.2613 298.866 83.635 299.896 85.0086 300.755C82.0896 304.017 79.3423 307.451 76.4233 310.885L73.676 313.976L65.9492 323.248L66.1209 323.42L72.3024 318.269L75.5648 315.693L78.6555 312.946L86.554 306.249C86.554 307.795 86.554 309.512 86.7257 311.057C86.8974 314.663 87.0691 318.097 87.4125 321.703C87.7559 328.743 88.271 335.783 88.9578 342.994Z" fill="white"/>
</svg>
