<svg width="913" height="1080" viewBox="0 0 913 1080" fill="none" xmlns="http://www.w3.org/2000/svg">
<rect width="913" height="1126" fill="#698662"/>
<path d="M166.655 279.462L167.303 275.357C171.408 275.357 176.594 269.955 178.107 261.096L197.337 140.742C197.553 140.094 197.553 139.662 197.553 139.013V138.797V138.149V137.933V137.717V137.501V137.285C197.553 130.37 194.096 126.481 190.639 126.481L191.287 122.376H238.824C282.903 122.376 309.481 144.847 309.481 184.821C309.481 190.007 309.048 195.409 308.184 201.243C300.189 251.373 263.889 279.462 213.975 279.462H166.655ZM237.743 129.29L215.056 272.764C241.633 267.794 260.864 244.242 268.858 201.027C269.723 193.897 270.155 187.414 270.155 181.364C270.155 150.249 258.487 133.395 237.743 129.29ZM417.056 262.825L419.433 265.634C417.056 268.443 414.031 271.252 411.222 273.628C406.036 277.95 397.393 280.327 388.966 280.327C377.73 280.327 367.574 275.789 367.574 265.634C367.574 264.553 367.574 263.689 367.791 263.041L368.655 257.855C362.605 265.418 354.826 271.684 345.967 275.789C339.917 278.382 334.083 279.678 328.249 279.678C314.42 279.678 303.184 271.9 303.184 257.423C303.184 255.91 303.4 254.398 303.616 252.885C305.345 240.137 316.148 226.308 335.595 220.69C351.801 216.152 371.68 215.504 377.298 202.323L377.73 199.947C378.162 196.705 378.378 193.897 378.378 191.52C378.378 181.148 374.273 177.043 369.303 177.043C362.605 177.043 353.313 184.605 350.937 195.625L350.721 196.922C350.504 197.57 350.504 198.002 350.504 198.65V198.866V199.514V199.731V200.163V200.379V200.595C350.504 203.836 350.937 206.645 352.881 208.157C348.776 212.263 342.51 214.424 335.811 214.424C326.952 214.424 318.525 210.318 318.525 200.163C318.525 198.65 318.525 197.57 318.741 196.922C321.55 178.555 346.183 166.455 369.087 166.455H370.816C391.991 167.103 412.518 174.882 412.518 197.786C412.518 199.947 412.302 202.323 411.87 204.916L402.795 262.176V263.041C402.795 266.282 404.739 267.794 407.332 267.794C410.573 267.794 414.679 266.066 417.056 262.825ZM358.715 258.935C362.389 256.991 366.71 253.533 370.167 248.131L375.569 213.127C365.846 218.961 353.313 226.74 345.535 236.031C341.861 240.353 339.917 244.458 339.485 248.131C339.269 248.564 339.269 248.996 339.269 249.428V250.292V250.508V250.724V250.94C339.269 257.207 342.942 261.528 349.64 261.528C352.449 261.528 355.474 260.664 358.715 258.935ZM508.957 168.616H541.801L541.152 172.721C531.429 172.721 524.514 186.334 519.329 195.625C518.68 196.489 518.464 197.138 518.248 197.786L463.581 297.397C456.667 309.713 445.215 337.803 427.28 337.803C417.773 337.803 412.371 330.24 412.371 321.381C412.371 319.869 412.371 318.788 412.587 318.14C413.668 311.658 417.341 305.824 423.175 300.422C425.552 305.391 429.441 307.984 434.843 307.984C441.974 307.984 449.968 303.231 454.506 294.804L462.933 279.678H454.938L429.873 187.63C426.416 174.234 422.743 172.505 418.421 172.505L419.07 168.616H470.496L469.847 172.721C466.606 172.937 465.094 173.801 464.878 175.53V176.61C464.878 178.555 465.742 181.364 466.606 184.605L482.38 243.378L509.605 193.897C512.198 189.143 513.711 185.253 514.143 182.012C514.359 181.364 514.359 180.284 514.359 179.203C514.359 174.882 512.414 172.721 508.309 172.721L508.957 168.616ZM658.743 131.235C644.482 142.038 631.95 173.153 626.764 203.404C638 191.52 653.125 186.334 667.818 186.334C690.074 186.334 709.737 199.298 709.737 221.77V223.283V223.499V223.931V224.147V224.363V224.579V224.795C709.737 225.876 709.521 226.956 709.305 228.036C708.656 229.549 708.872 231.71 708.224 233.222C698.933 264.553 668.034 283.136 639.512 283.136C615.744 283.136 593.704 271.252 585.709 245.971C583.549 238.624 582.468 230.629 582.468 222.202C582.468 216.801 582.9 211.183 583.765 205.565C590.031 163.43 622.442 119.567 670.843 119.567C686.401 119.567 707.576 123.024 712.114 136.853C712.762 138.797 713.194 140.958 713.194 143.335C713.194 144.847 713.194 145.712 712.978 146.36C711.249 159.108 696.556 167.535 685.104 167.535C682.727 167.535 680.134 167.103 677.541 166.239C681.431 159.973 683.592 154.139 684.24 148.953C684.456 147.224 684.672 145.496 684.672 143.767C684.672 133.179 678.838 126.481 670.843 126.481C667.818 126.481 663.713 127.993 658.743 131.235ZM624.171 219.393C623.523 226.308 623.09 232.574 623.09 237.976C623.09 263.689 630.005 274.277 638.432 274.277C650.1 274.277 663.929 255.478 668.466 227.82C669.115 225.227 669.115 221.986 669.331 219.393C669.331 217.881 669.547 217.017 669.547 215.504C669.547 201.891 664.577 196.273 657.014 196.273C646.427 196.273 632.382 206.429 624.171 219.393Z" fill="white"/>
<path d="M331.224 452.133L333.109 452.722C329.928 461.793 327.218 469.803 324.509 478.756C316.852 482.88 308.37 484.411 299.888 484.411C275.385 484.411 263.84 467.094 263.84 447.656C263.84 444.947 264.076 442.709 264.429 439.999C266.903 424.449 276.445 409.017 292.82 400.889C298.121 398.179 304.482 396.648 311.079 396.059C311.551 395.941 312.022 395.941 312.493 395.941H312.964H313.082H313.2H313.318H313.436H313.553H313.671H313.789C323.449 395.941 334.169 399.593 340.059 403.598L332.52 426.334L330.517 426.805L328.632 421.622C323.567 408.31 315.909 400.653 308.252 400.653C301.066 400.653 294.234 407.368 289.639 422.918C288.815 425.627 288.343 428.455 287.872 431.4C287.165 435.758 286.812 440.235 286.812 444.711C286.812 456.845 289.522 468.861 294.823 474.398C296.943 476.636 299.417 477.814 302.126 477.814C306.367 477.814 311.668 475.105 318.265 468.39C322.389 464.149 326.629 458.73 331.224 452.133ZM372.761 421.386C388.194 421.386 399.031 432.695 399.031 447.421C399.031 449.07 398.914 450.719 398.678 452.369C396.204 469.332 379.947 483.233 362.984 483.233C347.551 483.233 336.714 471.806 336.714 457.081C336.714 455.549 336.831 454.018 337.067 452.369C339.541 435.287 355.798 421.386 372.761 421.386ZM372.055 426.216C366.518 426.216 359.567 438.35 357.329 453.193C356.74 456.845 356.505 460.261 356.505 463.442C356.505 473.337 359.214 480.288 363.455 480.288C369.345 480.288 375.589 468.272 378.062 453.193C378.651 449.541 378.887 445.889 378.887 442.709C378.887 432.931 376.413 426.216 372.055 426.216ZM445.092 422.093C457.814 422.447 463.587 432.578 463.587 444.594C463.587 446.596 463.469 448.481 463.115 450.719C460.642 466.387 449.097 482.644 430.484 482.644H430.013C425.418 482.526 422.473 480.995 420.235 478.992L416.23 504.084C416.112 504.438 416.112 504.673 416.112 505.027V505.262V505.38V505.498V505.616V505.733C416.112 509.15 417.761 510.917 419.528 510.917L419.175 513.037H391.256L391.609 510.917C393.612 510.917 396.321 508.207 397.146 503.613L407.866 435.169C407.984 434.345 408.101 433.756 408.101 433.167C408.101 429.868 406.452 427.866 404.685 427.866L405.038 425.745C413.52 425.745 421.884 423.625 427.657 420.797L429.188 422.093L427.657 431.517C431.78 425.981 437.199 422.093 445.092 422.093ZM427.892 477.696C435.314 477.696 442.146 461.675 444.385 447.774C444.856 444.711 445.092 441.766 445.092 439.057C445.092 432.578 443.796 427.983 440.144 427.512H439.555C432.604 427.512 425.772 443.887 423.534 457.905C423.062 460.968 422.827 463.795 422.827 466.505C422.827 472.984 424.24 477.578 427.892 477.696ZM513.282 422.093H531.188L530.835 424.331C525.534 424.331 521.764 431.753 518.937 436.819C518.583 437.29 518.465 437.643 518.348 437.997L488.543 492.304C484.774 499.019 478.53 514.333 468.752 514.333C463.569 514.333 460.624 510.21 460.624 505.38C460.624 504.555 460.624 503.966 460.742 503.613C461.331 500.079 463.333 496.898 466.514 493.953C467.81 496.663 469.93 498.076 472.876 498.076C476.763 498.076 481.122 495.484 483.596 490.89L488.19 482.644H483.831L470.166 432.46C468.281 425.156 466.279 424.214 463.923 424.214L464.276 422.093H492.313L491.96 424.331C490.193 424.449 489.368 424.92 489.25 425.863V426.452C489.25 427.512 489.721 429.044 490.193 430.811L498.792 462.853L513.635 435.876C515.049 433.284 515.874 431.164 516.109 429.397C516.227 429.044 516.227 428.455 516.227 427.866C516.227 425.509 515.167 424.331 512.929 424.331L513.282 422.093ZM589.997 425.509H580.69L573.151 473.809C573.151 474.162 573.033 474.28 573.033 474.633C573.033 476.165 574.093 476.872 575.389 476.872C577.156 476.872 579.394 475.929 580.69 474.162L582.104 475.694C580.808 477.225 579.159 478.756 577.627 480.052C574.8 482.408 570.088 483.704 565.494 483.704C559.368 483.704 553.949 481.348 553.949 475.811V475.694V475.458V475.34V475.222V475.105V474.987C553.949 474.751 553.949 474.516 554.067 474.28L561.606 425.509H555.834L556.423 422.093C564.905 421.504 576.096 409.959 582.693 402.42L584.224 403.362L581.279 422.093H590.586L589.997 425.509ZM621.712 421.386C637.145 421.386 647.982 432.695 647.982 447.421C647.982 449.07 647.865 450.719 647.629 452.369C645.155 469.332 628.898 483.233 611.935 483.233C596.503 483.233 585.665 471.806 585.665 457.081C585.665 455.549 585.782 454.018 586.018 452.369C588.492 435.287 604.749 421.386 621.712 421.386ZM621.006 426.216C615.469 426.216 608.518 438.35 606.28 453.193C605.691 456.845 605.456 460.261 605.456 463.442C605.456 473.337 608.165 480.288 612.406 480.288C618.296 480.288 624.54 468.272 627.014 453.193C627.603 449.541 627.838 445.889 627.838 442.709C627.838 432.931 625.364 426.216 621.006 426.216ZM265.362 585.133L267.247 585.722C264.066 594.793 261.357 602.803 258.647 611.756C250.99 615.88 242.508 617.411 234.027 617.411C209.524 617.411 197.979 600.094 197.979 580.656C197.979 577.947 198.214 575.709 198.568 572.999C201.042 557.449 210.584 542.017 226.958 533.889C232.26 531.179 238.621 529.648 245.218 529.059C245.689 528.941 246.16 528.941 246.632 528.941H247.103H247.221H247.338H247.456H247.574H247.692H247.81H247.927C257.587 528.941 268.307 532.593 274.197 536.598L266.658 559.334L264.655 559.805L262.771 554.622C257.705 541.31 250.048 533.653 242.391 533.653C235.205 533.653 228.372 540.368 223.778 555.918C222.953 558.627 222.482 561.455 222.011 564.4C221.304 568.758 220.95 573.235 220.95 577.711C220.95 589.845 223.66 601.861 228.961 607.398C231.082 609.636 233.555 610.814 236.265 610.814C240.506 610.814 245.807 608.105 252.404 601.39C256.527 597.149 260.768 591.73 265.362 585.133ZM303.837 530.708L291.821 606.102C291.703 606.455 291.703 606.691 291.703 607.044V607.162V607.516V607.751V607.869V607.987C291.703 611.639 293.352 613.523 295.119 613.523L294.766 615.644H266.965L267.318 613.523C269.203 613.523 271.912 610.932 272.737 606.691L282.632 543.784C282.75 543.431 282.75 543.195 282.75 542.842V542.724V542.37V542.253V542.135V542.017V541.899C282.75 538.247 281.101 536.362 279.334 536.362L279.687 534.242C287.58 534.242 296.533 532.239 302.305 529.412L303.837 530.708ZM322.984 549.203C317.447 549.203 313.442 545.433 313.442 540.368V540.25V540.014V539.897V539.779V539.661V539.543C313.442 539.308 313.442 539.072 313.559 538.836C314.502 533.064 320.039 528.352 326.282 528.352C331.583 528.352 335.471 532.122 335.471 537.187C335.471 537.894 335.471 538.483 335.353 538.836C334.41 544.491 328.874 549.203 322.984 549.203ZM332.172 555.093L324.044 606.691C323.926 607.044 323.926 607.28 323.926 607.516V607.633V607.987V608.105V608.222V608.34C323.926 611.639 325.575 613.523 327.342 613.523L326.989 615.644H299.187L299.541 613.523C301.543 613.523 304.135 610.696 304.96 606.102L310.968 568.169C311.085 567.345 311.203 566.756 311.203 566.167C311.203 562.868 309.554 560.866 307.787 560.866L308.14 558.745C315.798 558.745 324.986 556.625 330.641 553.797L332.172 555.093ZM379.345 555.093C392.068 555.447 397.84 565.578 397.84 577.594C397.84 579.596 397.722 581.481 397.369 583.719C394.895 599.387 383.35 615.644 364.737 615.644H364.266C359.672 615.526 356.727 613.995 354.489 611.992L350.483 637.084C350.365 637.438 350.365 637.673 350.365 638.027V638.262V638.38V638.498V638.616V638.733C350.365 642.15 352.015 643.917 353.782 643.917L353.428 646.037H325.509L325.862 643.917C327.865 643.917 330.575 641.207 331.399 636.613L342.119 568.169C342.237 567.345 342.355 566.756 342.355 566.167C342.355 562.868 340.706 560.866 338.939 560.866L339.292 558.745C347.774 558.745 356.138 556.625 361.91 553.797L363.442 555.093L361.91 564.517C366.033 558.981 371.452 555.093 379.345 555.093ZM362.146 610.696C369.567 610.696 376.4 594.675 378.638 580.774C379.109 577.711 379.345 574.766 379.345 572.057C379.345 565.578 378.049 560.983 374.397 560.512H373.808C366.858 560.512 360.025 576.887 357.787 590.905C357.316 593.968 357.08 596.795 357.08 599.505C357.08 605.984 358.494 610.578 362.146 610.696ZM442.352 556.389H443.177C455.075 556.389 460.847 566.756 460.847 579.007C460.847 581.245 460.729 583.248 460.376 585.486C457.902 601.036 446.946 616.94 428.805 616.94C418.792 616.94 413.844 613.523 408.543 613.523C405.833 613.523 403.242 614.466 399.943 616.94L398.412 615.644L399.472 614.112L410.663 542.842C410.781 542.488 410.781 541.899 410.781 541.075C410.781 537.423 409.014 535.538 407.247 535.538L407.6 533.417C415.493 533.417 424.328 531.297 430.336 528.47L431.75 529.765L426.095 565.342C430.69 560.041 435.873 556.507 442.352 556.389ZM425.978 612.934C433.399 612.934 440.349 596.324 442.588 581.952C443.059 578.654 443.412 575.591 443.412 572.764C443.412 566.284 441.999 561.69 438.582 561.337H438.111C431.985 561.337 425.742 574.295 422.915 587.136C422.443 588.903 422.09 590.787 421.854 592.672C421.265 596.089 421.03 599.269 421.03 602.097C421.03 608.576 422.326 612.934 425.978 612.934ZM501.091 554.386C516.523 554.386 527.361 565.695 527.361 580.421C527.361 582.07 527.243 583.719 527.007 585.369C524.534 602.332 508.277 616.233 491.313 616.233C475.881 616.233 465.043 604.806 465.043 590.081C465.043 588.549 465.161 587.018 465.396 585.369C467.87 568.287 484.127 554.386 501.091 554.386ZM500.384 559.216C494.847 559.216 487.897 571.35 485.659 586.193C485.07 589.845 484.834 593.261 484.834 596.442C484.834 606.337 487.543 613.288 491.784 613.288C497.674 613.288 503.918 601.272 506.392 586.193C506.981 582.541 507.217 578.889 507.217 575.709C507.217 565.931 504.743 559.216 500.384 559.216ZM589.207 606.455L590.502 607.987C589.207 609.518 587.557 611.05 586.026 612.345C583.199 614.702 578.486 615.997 573.892 615.997C567.766 615.997 562.23 613.523 562.23 607.987C562.23 607.398 562.23 606.927 562.347 606.573L562.819 603.746C559.52 607.869 555.279 611.285 550.449 613.523C547.151 614.937 543.97 615.644 540.79 615.644C533.25 615.644 527.124 611.403 527.124 603.51C527.124 602.686 527.242 601.861 527.36 601.036C528.302 594.086 534.193 586.547 544.795 583.484C553.63 581.01 564.468 580.656 567.531 573.47L567.766 572.175C568.002 570.408 568.12 568.876 568.12 567.58C568.12 561.926 565.882 559.687 563.172 559.687C559.52 559.687 554.455 563.811 553.159 569.819L553.041 570.525C552.923 570.879 552.923 571.114 552.923 571.468V571.586V571.939V572.057V572.292V572.41V572.528C552.923 574.295 553.159 575.826 554.219 576.651C551.981 578.889 548.565 580.067 544.913 580.067C540.083 580.067 535.488 577.829 535.488 572.292C535.488 571.468 535.488 570.879 535.606 570.525C537.138 560.512 550.567 553.915 563.054 553.915H563.997C575.541 554.269 586.733 558.509 586.733 570.997C586.733 572.175 586.615 573.47 586.379 574.884L581.432 606.102V606.573C581.432 608.34 582.492 609.165 583.905 609.165C585.672 609.165 587.911 608.222 589.207 606.455ZM557.4 604.335C559.402 603.275 561.758 601.39 563.643 598.445L566.588 579.361C561.287 582.541 554.455 586.782 550.214 591.848C548.211 594.204 547.151 596.442 546.915 598.445C546.797 598.68 546.797 598.916 546.797 599.152V599.623V599.741V599.858V599.976C546.797 603.392 548.8 605.748 552.452 605.748C553.983 605.748 555.633 605.277 557.4 604.335ZM651.529 564.282C651.411 564.635 651.411 564.871 651.411 565.224C651.411 565.342 651.529 565.695 651.529 565.813C651.529 566.167 651.411 566.402 651.293 566.756C650.351 573.706 643.636 578.3 637.275 578.3C635.508 578.3 633.859 577.947 632.209 577.24C633.505 575.826 634.212 574.295 634.565 572.528C634.565 572.175 634.683 571.703 634.683 571.35C634.683 568.169 632.916 565.813 630.089 565.813C628.322 565.813 626.201 566.638 623.963 568.876C621.96 570.643 620.429 572.528 619.133 574.295L614.068 606.691C613.95 607.044 613.95 607.28 613.95 607.516V607.633V607.987V608.105V608.222V608.34C613.95 611.639 615.599 613.523 617.366 613.523L617.013 615.644H589.211L589.565 613.523C591.567 613.523 594.159 610.696 594.984 606.102L600.991 568.169C601.109 567.345 601.227 566.756 601.227 566.167C601.227 562.868 599.578 560.866 597.811 560.866L598.164 558.745H599.931C606.999 558.745 615.363 556.507 620.665 553.797L622.196 555.093L620.429 566.52C625.495 558.627 633.976 554.269 640.573 554.269C646.581 554.269 651.058 557.214 651.529 564.282ZM716.598 529.765L704.464 606.102C704.346 606.455 704.346 607.044 704.346 607.869C704.346 611.521 706.113 613.523 707.88 613.523L707.527 615.644H683.848L685.262 606.22C681.139 611.756 675.838 615.644 667.709 615.644C655.34 615.644 649.686 605.159 649.686 593.261C649.686 591.259 649.803 589.256 650.157 587.018C652.395 571.468 664.175 555.211 682.553 555.211H683.142C687.736 555.211 690.681 556.86 692.919 558.863L695.511 542.842C695.629 542.488 695.629 541.899 695.629 541.075C695.629 537.423 693.862 535.538 692.095 535.538L692.448 533.417C700.459 533.417 709.294 531.297 714.948 528.47L716.598 529.765ZM672.893 610.225H673.6C680.668 610.225 687.265 593.968 689.503 579.95C689.974 576.887 690.21 573.942 690.21 571.232C690.21 564.635 688.678 560.159 685.026 560.159C677.605 560.159 671.008 576.062 668.77 590.081C668.298 593.144 668.063 595.971 668.063 598.68C668.063 605.159 669.476 609.754 672.893 610.225Z" fill="#F0F0F0"/>
<path d="M797.823 204.863C798.889 193.674 799.688 182.752 800.221 171.83C800.753 166.236 801.02 160.908 801.286 155.314C801.553 152.118 801.553 148.921 801.553 145.991L822.864 157.712L828.458 160.908L839.646 166.769L839.913 166.503C836.45 163.839 833.253 161.175 830.056 158.511C828.458 157.179 826.593 155.847 824.995 154.782L820.2 150.786C814.606 146.523 809.278 142.261 803.684 138.265C805.548 136.401 807.413 134.536 809.278 132.405L817.27 122.815C822.597 116.421 828.191 110.028 833.519 103.368H833.253C826.593 108.43 820.2 114.024 813.806 119.352C810.61 122.016 807.413 124.68 804.216 127.61L801.553 130.007C801.286 122.016 800.753 114.024 800.221 105.766L799.688 97.7742C799.421 94.8439 799.421 92.18 799.155 89.5161C798.889 83.922 798.356 78.3278 797.823 73H797.557C797.29 78.3278 796.758 83.922 796.491 89.5161C796.225 92.18 795.958 94.8439 795.958 97.7742L795.426 105.766C794.893 114.557 794.36 123.081 794.094 131.872L789.299 128.942L778.11 122.815C770.918 118.819 763.459 114.823 756 111.094C762.393 116.421 768.787 121.749 775.446 127.077C778.909 129.475 782.106 132.138 785.303 134.802C787.434 136.401 789.565 137.999 791.696 139.331C787.168 144.392 782.905 149.72 778.377 155.048L774.114 159.843L762.127 174.228L762.393 174.494L771.983 166.503L777.045 162.507L781.84 158.245L794.094 147.855C794.094 150.253 794.094 152.917 794.36 155.314C794.626 160.908 794.893 166.236 795.426 171.83C795.958 182.752 796.758 193.674 797.823 204.863Z" fill="white"/>
<path d="M126.958 342.994C127.645 335.783 128.16 328.743 128.503 321.703C128.847 318.097 129.018 314.663 129.19 311.057C129.362 308.997 129.362 306.936 129.362 305.047L143.098 312.603L146.704 314.663L153.916 318.441L154.087 318.269C151.855 316.552 149.795 314.835 147.734 313.118C146.704 312.259 145.502 311.401 144.472 310.714L141.381 308.138C137.775 305.391 134.341 302.644 130.735 300.068C131.937 298.866 133.139 297.664 134.341 296.29L139.492 290.109C142.926 285.988 146.532 281.867 149.966 277.574H149.795C145.502 280.837 141.381 284.443 137.26 287.877C135.2 289.594 133.139 291.311 131.079 293.2L129.362 294.745C129.19 289.594 128.847 284.443 128.503 279.12L128.16 273.969C127.988 272.08 127.988 270.363 127.816 268.646C127.645 265.04 127.301 261.434 126.958 258H126.786C126.614 261.434 126.271 265.04 126.099 268.646C125.928 270.363 125.756 272.08 125.756 273.969L125.412 279.12C125.069 284.786 124.726 290.281 124.554 295.947L121.463 294.058L114.252 290.109C109.616 287.533 104.808 284.958 100 282.554C104.121 285.988 108.242 289.422 112.535 292.856C114.767 294.402 116.827 296.119 118.888 297.836C120.261 298.866 121.635 299.896 123.009 300.755C120.09 304.017 117.342 307.451 114.423 310.885L111.676 313.976L103.949 323.248L104.121 323.42L110.302 318.269L113.565 315.693L116.655 312.946L124.554 306.249C124.554 307.795 124.554 309.512 124.726 311.057C124.897 314.663 125.069 318.097 125.412 321.703C125.756 328.743 126.271 335.783 126.958 342.994Z" fill="white"/>
</svg>
