<svg width="913" height="1080" viewBox="0 0 913 1080" fill="none" xmlns="http://www.w3.org/2000/svg">
<rect width="913" height="1126" fill="#698662"/>
<path d="M92.6952 279.462L93.3434 275.357C97.4489 275.357 102.635 269.955 104.147 261.096L123.378 140.742C123.594 140.094 123.594 139.662 123.594 139.013V138.797V138.149V137.933V137.717V137.501V137.285C123.594 130.37 120.137 126.481 116.68 126.481L117.328 122.376H164.864C208.944 122.376 235.521 144.847 235.521 184.821C235.521 190.007 235.089 195.409 234.225 201.243C226.23 251.373 189.929 279.462 140.016 279.462H92.6952ZM163.784 129.29L141.096 272.764C167.673 267.794 186.904 244.242 194.899 201.027C195.763 193.897 196.195 187.414 196.195 181.364C196.195 150.249 184.527 133.395 163.784 129.29ZM343.096 262.825L345.473 265.634C343.096 268.443 340.071 271.252 337.262 273.628C332.076 277.95 323.433 280.327 315.007 280.327C303.771 280.327 293.615 275.789 293.615 265.634C293.615 264.553 293.615 263.689 293.831 263.041L294.695 257.855C288.645 265.418 280.867 271.684 272.007 275.789C265.957 278.382 260.123 279.678 254.289 279.678C240.46 279.678 229.225 271.9 229.225 257.423C229.225 255.91 229.441 254.398 229.657 252.885C231.385 240.137 242.189 226.308 261.636 220.69C277.842 216.152 297.72 215.504 303.338 202.323L303.771 199.947C304.203 196.705 304.419 193.897 304.419 191.52C304.419 181.148 300.313 177.043 295.344 177.043C288.645 177.043 279.354 184.605 276.977 195.625L276.761 196.922C276.545 197.57 276.545 198.002 276.545 198.65V198.866V199.514V199.731V200.163V200.379V200.595C276.545 203.836 276.977 206.645 278.922 208.157C274.816 212.263 268.55 214.424 261.852 214.424C252.993 214.424 244.566 210.318 244.566 200.163C244.566 198.65 244.566 197.57 244.782 196.922C247.591 178.555 272.224 166.455 295.128 166.455H296.856C318.032 167.103 338.559 174.882 338.559 197.786C338.559 199.947 338.343 202.323 337.911 204.916L328.835 262.176V263.041C328.835 266.282 330.78 267.794 333.373 267.794C336.614 267.794 340.719 266.066 343.096 262.825ZM284.756 258.935C288.429 256.991 292.751 253.533 296.208 248.131L301.61 213.127C291.886 218.961 279.354 226.74 271.575 236.031C267.902 240.353 265.957 244.458 265.525 248.131C265.309 248.564 265.309 248.996 265.309 249.428V250.292V250.508V250.724V250.94C265.309 257.207 268.982 261.528 275.681 261.528C278.49 261.528 281.515 260.664 284.756 258.935ZM434.998 168.616H467.841L467.193 172.721C457.469 172.721 450.555 186.334 445.369 195.625C444.721 196.489 444.505 197.138 444.289 197.786L389.622 297.397C382.707 309.713 371.255 337.803 353.321 337.803C343.814 337.803 338.412 330.24 338.412 321.381C338.412 319.869 338.412 318.788 338.628 318.14C339.708 311.658 343.382 305.824 349.216 300.422C351.592 305.391 355.482 307.984 360.884 307.984C368.014 307.984 376.009 303.231 380.547 294.804L388.974 279.678H380.979L355.914 187.63C352.457 174.234 348.783 172.505 344.462 172.505L345.11 168.616H396.536L395.888 172.721C392.647 172.937 391.134 173.801 390.918 175.53V176.61C390.918 178.555 391.783 181.364 392.647 184.605L408.42 243.378L435.646 193.897C438.239 189.143 439.751 185.253 440.183 182.012C440.4 181.364 440.4 180.284 440.4 179.203C440.4 174.882 438.455 172.721 434.349 172.721L434.998 168.616ZM632.104 238.84L636.426 238.624C632.32 263.473 616.763 277.302 596.236 280.543C593.643 281.191 590.401 281.191 587.16 281.191C567.065 281.191 546.754 273.628 527.74 269.523C525.363 269.091 523.202 268.875 521.257 268.875C514.343 268.875 511.102 272.548 509.589 279.678H502.459C503.107 276.437 504.187 272.98 505.7 269.307C516.72 239.056 540.704 222.635 562.096 208.806C581.758 196.057 600.125 183.957 603.582 160.837C603.798 159.108 604.014 156.515 604.014 153.923C604.014 136.853 594.507 128.21 584.784 128.21C573.764 128.21 562.744 136.42 560.367 149.385V150.249C560.367 151.114 560.151 151.762 560.151 152.626C560.151 160.189 563.608 166.239 571.171 166.239H572.035C573.115 166.239 573.764 166.239 574.412 166.023L575.924 165.807C570.09 180.284 555.181 189.143 543.081 189.143H542.217C528.388 189.143 521.689 180.5 521.689 169.48C521.689 167.967 521.906 166.455 522.122 164.726C522.77 161.053 524.066 156.948 526.011 152.842C537.463 129.722 564.472 119.134 589.969 119.134C618.491 119.134 645.285 132.747 645.285 156.948V158.244V158.46V158.892C645.285 159.541 645.285 160.405 645.069 161.053L644.853 162.349C640.099 190.439 611.793 202.107 583.055 214.208L580.462 215.288C563.824 222.202 546.106 229.333 532.925 241.217C537.031 240.137 541.568 239.705 546.538 239.705C556.262 239.705 566.201 241.649 580.246 244.458C590.401 246.835 599.693 248.564 608.12 248.564C616.979 248.564 624.974 246.403 631.024 238.84H632.104ZM778.784 229.981C778.568 232.574 778.784 234.519 778.136 236.463C772.95 269.307 736.001 284 701.645 284C669.882 284 641.144 271.684 641.144 248.564C641.144 247.051 641.36 245.539 641.576 244.026C642.008 241.433 642.872 238.624 643.953 235.599C648.922 223.283 662.319 217.017 675.284 217.017C685.439 217.017 694.514 220.906 697.756 228.685C687.384 233.654 679.389 244.242 677.661 254.398C677.444 255.046 677.444 255.694 677.444 256.126V256.991V257.207V257.423V257.639V258.071C677.444 264.769 680.47 270.603 687.6 273.844C690.409 275.357 693.866 276.005 697.539 276.005C706.831 276.005 717.418 270.819 725.413 258.719C729.519 252.021 731.895 244.458 733.408 236.463C734.056 233.222 734.272 229.765 734.272 226.524C734.272 214.208 730.383 203.404 721.092 198.434C717.418 196.489 712.665 195.409 707.047 195.409H705.75L706.399 191.952H707.695C716.122 191.952 722.82 191.088 729.735 178.987C734.272 171.425 737.513 161.485 739.242 152.626L739.458 151.114C739.674 150.033 739.89 148.953 739.89 147.872V147.656V146.36V146.144V145.496V145.28V144.847C739.89 131.019 731.895 124.968 722.604 124.968C712.449 124.968 701.213 132.099 699.484 144.199L699.268 147.872C699.268 155.003 702.941 161.053 712.233 162.566H713.313C706.615 173.801 694.947 178.987 684.575 178.987C673.123 178.987 662.967 172.505 662.967 159.757C662.967 158.244 663.183 156.948 663.4 155.435C667.937 126.697 707.479 119.35 728.438 119.35C756.744 119.35 783.321 129.722 783.321 152.194C783.321 153.706 783.105 155.435 782.889 156.948L782.673 158.244C779.216 176.394 757.608 191.088 732.76 193.897C760.634 198.866 778.784 210.966 778.784 229.981Z" fill="white"/>
<path d="M297.505 444.319L299.625 444.79L291.615 467.526H229.886L230.239 465.288C232.478 465.288 235.305 462.343 236.13 457.513L246.614 391.897C246.732 391.543 246.732 391.308 246.732 390.954V390.365V390.247V390.13V390.012C246.732 386.242 244.847 384.122 242.962 384.122L243.316 382.001H304.691L303.395 400.614L301.039 401.085C296.916 387.891 284.311 386.949 270.528 386.949H268.408L263.342 418.756C273.473 418.756 283.722 415.928 285.371 409.803H287.727L284.075 432.892L281.719 432.656C281.719 426.766 272.531 424.057 262.517 424.057L256.51 462.225H258.983C273.12 462.225 288.67 460.458 297.505 444.319ZM363.642 410.156C359.283 412.041 354.336 417.224 350.566 421.347L340.082 432.774C343.733 440.903 347.268 448.913 350.684 457.277C353.511 464.581 355.749 465.523 358.223 465.523L357.87 467.644H330.422L330.657 465.406C332.189 465.288 332.896 464.817 333.013 463.756C333.013 463.403 332.896 462.932 332.542 462.107C330.54 456.57 328.419 451.387 325.71 446.204L318.759 453.861C314.636 458.455 312.398 461.636 312.044 463.639V464.11C312.044 464.934 312.633 465.406 313.929 465.406L313.576 467.644H296.966L297.319 465.406C302.267 465.406 308.51 459.044 312.869 453.979L324.06 441.963L323.471 440.549C320.173 432.656 316.757 425.353 313.576 417.46C310.395 410.274 308.628 409.214 306.036 409.214L306.39 407.093H333.838L333.485 409.331C332.071 409.449 331.246 409.92 331.129 410.745C331.129 411.334 331.246 411.923 331.482 412.748L338.079 428.18L344.44 420.876C347.739 417.106 349.506 414.279 349.741 412.276C349.741 411.923 349.859 412.041 349.859 411.687C349.859 410.156 348.681 409.331 346.443 409.331L346.679 407.093H367.412L367.058 409.331C365.998 409.449 364.938 409.685 363.642 410.156ZM409.371 407.093C422.094 407.447 427.866 417.578 427.866 429.594C427.866 431.596 427.748 433.481 427.395 435.719C424.921 451.387 413.376 467.644 394.763 467.644H394.292C389.698 467.526 386.753 465.995 384.514 463.992L380.509 489.084C380.391 489.438 380.391 489.673 380.391 490.027V490.262V490.38V490.498V490.616V490.733C380.391 494.15 382.041 495.917 383.808 495.917L383.454 498.037H355.535L355.888 495.917C357.891 495.917 360.6 493.207 361.425 488.613L372.145 420.169C372.263 419.345 372.381 418.756 372.381 418.167C372.381 414.868 370.732 412.866 368.964 412.866L369.318 410.745C377.8 410.745 386.164 408.625 391.936 405.797L393.468 407.093L391.936 416.517C396.059 410.981 401.478 407.093 409.371 407.093ZM392.172 462.696C399.593 462.696 406.426 446.675 408.664 432.774C409.135 429.711 409.371 426.766 409.371 424.057C409.371 417.578 408.075 412.983 404.423 412.512H403.834C396.884 412.512 390.051 428.887 387.813 442.905C387.342 445.968 387.106 448.795 387.106 451.505C387.106 457.984 388.52 462.578 392.172 462.696ZM473.136 456.806C479.616 455.981 484.446 452.212 487.626 448.324L489.629 449.031C483.385 460.222 471.958 468.822 457.94 468.822C442.508 468.822 431.905 457.159 431.905 442.552C431.905 440.903 432.023 439.253 432.259 437.604C434.733 420.758 450.872 406.269 467.835 406.269C483.032 406.269 492.81 417.695 492.81 432.303C492.81 434.07 492.692 435.837 492.338 437.604H452.285C452.639 447.971 457.704 457.042 470.191 457.042C471.134 457.042 472.076 456.924 473.136 456.806ZM452.285 433.599H473.725C473.372 418.873 469.131 412.512 464.066 412.512C459.354 412.512 454.524 418.284 452.757 428.651C452.403 430.183 452.403 431.832 452.285 433.599ZM551.398 459.28V459.987C551.398 463.639 553.047 465.523 554.814 465.523L554.461 467.644H526.542L526.895 465.523C528.898 465.523 531.607 462.696 532.432 458.102L537.615 425.588C537.851 424.292 537.969 423.114 537.969 422.054C537.969 417.46 535.966 415.811 533.492 415.811C528.662 415.811 521.476 422.408 520.534 428.062L515.704 458.691C515.586 459.044 515.586 459.633 515.586 460.222C515.586 463.403 517.235 465.523 519.002 465.523L518.649 467.644H490.847L491.201 465.523C493.203 465.523 495.795 462.696 496.62 458.102L502.628 420.169C502.746 419.345 502.863 418.756 502.863 418.167C502.863 414.868 501.214 412.866 499.447 412.866L499.8 410.745H501.568C508.636 410.745 517 408.507 522.301 405.797L523.832 407.093L522.183 417.224C528.191 410.627 536.084 407.211 542.681 407.211C550.574 407.211 557.171 411.923 557.171 421.819C557.171 423.114 557.053 424.528 556.817 425.942C555.05 437.133 553.165 448.442 551.398 459.28ZM564.993 442.081H567.232C569.352 448.56 571.355 456.806 576.656 460.929C579.365 463.167 582.193 464.11 585.138 464.11C590.203 464.11 594.444 461.4 595.033 457.631C595.033 457.277 595.151 457.042 595.151 456.688C595.151 454.214 593.502 451.505 589.379 448.795C581.721 443.023 565.818 438.547 565.818 426.766C565.818 425.942 565.936 425.353 566.054 424.528C567.938 413.572 579.719 405.326 595.151 405.326H595.976C604.693 405.326 609.17 408.625 614.706 412.63L610.937 426.766H608.816C607.403 422.879 605.518 418.167 602.808 414.75C599.628 410.863 596.093 409.331 592.795 409.331C588.201 409.331 584.549 412.159 583.96 415.928C583.96 416.282 583.842 416.635 583.842 416.989C583.842 419.698 585.373 422.408 589.261 425.235C595.033 429.358 602.337 432.892 608.345 437.486C611.526 439.842 612.821 442.905 612.821 446.557C612.821 447.382 612.704 447.971 612.586 448.795C611.761 452.919 609.523 457.042 605.871 460.222C599.863 465.523 590.91 469.293 581.015 469.293H580.19C571.237 468.94 564.287 465.17 559.221 461.989L564.993 442.081ZM659.159 456.806C665.639 455.981 670.469 452.212 673.649 448.324L675.652 449.031C669.408 460.222 657.981 468.822 643.963 468.822C628.531 468.822 617.928 457.159 617.928 442.552C617.928 440.903 618.046 439.253 618.282 437.604C620.756 420.758 636.895 406.269 653.858 406.269C669.055 406.269 678.833 417.695 678.833 432.303C678.833 434.07 678.715 435.837 678.361 437.604H638.308C638.662 447.971 643.727 457.042 656.214 457.042C657.157 457.042 658.099 456.924 659.159 456.806ZM638.308 433.599H659.748C659.395 418.873 655.154 412.512 650.089 412.512C645.377 412.512 640.547 418.284 638.78 428.651C638.426 430.183 638.426 431.832 638.308 433.599ZM320.529 485.001L318.173 506.912L315.582 507.619C314.286 495.368 306.629 491.48 296.615 490.538L285.542 560.513C285.424 560.866 285.424 561.102 285.424 561.455V561.927V562.044V562.162V562.28V562.398C285.424 566.167 287.309 568.288 289.194 568.288L288.84 570.526H258.094L258.447 568.288C260.686 568.288 263.631 565.343 264.455 560.513L275.529 490.538C265.28 491.48 256.209 495.368 251.143 507.619L248.787 506.912L253.382 485.001H320.529ZM359.84 519.282C359.722 519.635 359.722 519.871 359.722 520.224C359.722 520.342 359.84 520.695 359.84 520.813C359.84 521.167 359.722 521.402 359.604 521.756C358.662 528.706 351.947 533.3 345.586 533.3C343.819 533.3 342.169 532.947 340.52 532.24C341.816 530.826 342.523 529.295 342.876 527.528C342.876 527.175 342.994 526.703 342.994 526.35C342.994 523.169 341.227 520.813 338.4 520.813C336.633 520.813 334.512 521.638 332.274 523.876C330.271 525.643 328.74 527.528 327.444 529.295L322.378 561.691C322.261 562.044 322.261 562.28 322.261 562.516V562.633V562.987V563.105V563.222V563.34C322.261 566.639 323.91 568.523 325.677 568.523L325.324 570.644H297.522L297.875 568.523C299.878 568.523 302.47 565.696 303.294 561.102L309.302 523.169C309.42 522.345 309.538 521.756 309.538 521.167C309.538 517.868 307.889 515.866 306.122 515.866L306.475 513.745H308.242C315.31 513.745 323.674 511.507 328.975 508.797L330.507 510.093L328.74 521.52C333.805 513.627 342.287 509.269 348.884 509.269C354.892 509.269 359.369 512.214 359.84 519.282ZM417.391 561.455L418.687 562.987C417.391 564.518 415.742 566.05 414.211 567.345C411.383 569.702 406.671 570.997 402.077 570.997C395.951 570.997 390.414 568.523 390.414 562.987C390.414 562.398 390.414 561.927 390.532 561.573L391.003 558.746C387.705 562.869 383.464 566.285 378.634 568.523C375.336 569.937 372.155 570.644 368.974 570.644C361.435 570.644 355.309 566.403 355.309 558.51C355.309 557.686 355.427 556.861 355.545 556.036C356.487 549.086 362.377 541.547 372.979 538.484C381.815 536.01 392.653 535.656 395.715 528.47L395.951 527.175C396.187 525.408 396.304 523.876 396.304 522.58C396.304 516.926 394.066 514.687 391.357 514.687C387.705 514.687 382.639 518.811 381.343 524.819L381.226 525.525C381.108 525.879 381.108 526.114 381.108 526.468V526.586V526.939V527.057V527.292V527.41V527.528C381.108 529.295 381.343 530.826 382.404 531.651C380.165 533.889 376.749 535.067 373.097 535.067C368.267 535.067 363.673 532.829 363.673 527.292C363.673 526.468 363.673 525.879 363.791 525.525C365.322 515.512 378.752 508.915 391.239 508.915H392.181C403.726 509.269 414.917 513.509 414.917 525.997C414.917 527.175 414.8 528.47 414.564 529.884L409.616 561.102V561.573C409.616 563.34 410.676 564.165 412.09 564.165C413.857 564.165 416.095 563.222 417.391 561.455ZM385.584 559.335C387.587 558.275 389.943 556.39 391.828 553.445L394.773 534.361C389.472 537.541 382.639 541.782 378.398 546.848C376.396 549.204 375.336 551.442 375.1 553.445C374.982 553.68 374.982 553.916 374.982 554.152V554.623V554.741V554.858V554.976C374.982 558.392 376.985 560.748 380.637 560.748C382.168 560.748 383.817 560.277 385.584 559.335ZM514.937 485.472L502.921 561.22C502.803 561.573 502.803 562.162 502.803 562.987C502.803 566.639 504.57 568.641 506.337 568.641L506.102 570.762H477.829L478.064 568.641C480.067 568.641 482.894 566.05 483.719 561.691L494.439 493.13C494.439 491.834 493.379 491.009 492.083 490.538C489.374 489.949 486.546 489.478 483.366 489.478H481.599C474.53 489.595 470.996 493.601 470.172 498.666C470.054 499.02 470.054 499.491 470.054 499.844V499.962V500.551V500.669V500.905V501.022C470.054 506.206 472.292 512.096 475.708 516.808C476.297 517.161 476.651 517.75 477.004 518.222C478.889 521.049 480.067 523.994 480.067 527.646V528.706V528.942V529.059V529.177V529.295C480.067 529.648 480.067 529.884 479.949 530.12C479.007 537.07 472.881 540.486 467.227 540.486C463.103 540.486 459.216 538.601 457.449 534.95C459.923 533.065 461.925 529.766 462.986 526.35C463.339 525.408 463.575 524.465 463.692 523.641C463.81 522.816 463.928 522.109 463.928 521.284C463.928 516.101 460.865 513.156 457.095 513.156C452.972 513.156 448.142 516.337 444.491 523.876C442.134 528.706 440.956 534.007 440.956 539.544C440.956 550.382 446.14 560.159 458.745 560.159C460.041 560.159 460.983 560.042 462.279 559.924C467.816 559.099 472.881 556.508 476.297 551.442L478.3 552.267C472.056 563.811 461.454 571.94 446.729 571.94C433.064 571.94 420.577 560.277 420.577 545.081C420.577 543.667 420.694 542.136 420.93 540.604C421.755 535.892 423.404 531.298 425.76 527.41C433.299 515.041 445.197 509.504 456.624 509.151H457.802C459.098 509.151 460.041 509.269 461.336 509.386C460.865 507.619 460.63 505.97 460.63 504.203V503.614V503.496V503.378V503.261V503.143V503.025C460.63 502.672 460.63 502.2 460.747 501.847C462.043 492.894 470.643 485.472 482.07 485.472H482.541C487.371 485.472 491.258 486.415 495.499 486.886C498.68 486.886 503.156 486.415 506.808 485.59C508.929 485.237 511.167 484.765 513.405 484.176L514.937 485.472ZM524.361 529.059L536.495 557.45C540.853 567.228 541.914 568.641 544.505 568.641L544.27 570.762H520.591L507.162 539.897L522.358 525.408C525.657 522.227 526.953 519.871 527.306 517.633C527.306 517.279 527.424 517.044 527.424 516.69C527.424 514.216 525.657 512.685 523.419 512.214L523.772 509.975H552.045L551.691 512.096C545.566 512.449 536.966 517.515 530.016 523.876L524.361 529.059ZM591.917 559.806C598.397 558.981 603.227 555.212 606.407 551.324L608.41 552.031C602.166 563.222 590.739 571.822 576.721 571.822C561.289 571.822 550.686 560.159 550.686 545.552C550.686 543.903 550.804 542.253 551.04 540.604C553.514 523.758 569.653 509.269 586.616 509.269C601.813 509.269 611.591 520.695 611.591 535.303C611.591 537.07 611.473 538.837 611.119 540.604H571.066C571.42 550.971 576.485 560.042 588.972 560.042C589.915 560.042 590.857 559.924 591.917 559.806ZM571.066 536.599H592.506C592.153 521.873 587.912 515.512 582.847 515.512C578.134 515.512 573.305 521.284 571.537 531.651C571.184 533.183 571.184 534.832 571.066 536.599ZM672.064 519.282C671.946 519.635 671.946 519.871 671.946 520.224C671.946 520.342 672.064 520.695 672.064 520.813C672.064 521.167 671.946 521.402 671.828 521.756C670.886 528.706 664.171 533.3 657.81 533.3C656.043 533.3 654.394 532.947 652.744 532.24C654.04 530.826 654.747 529.295 655.1 527.528C655.1 527.175 655.218 526.703 655.218 526.35C655.218 523.169 653.451 520.813 650.624 520.813C648.857 520.813 646.736 521.638 644.498 523.876C642.495 525.643 640.964 527.528 639.668 529.295L634.603 561.691C634.485 562.044 634.485 562.28 634.485 562.516V562.633V562.987V563.105V563.222V563.34C634.485 566.639 636.134 568.523 637.901 568.523L637.548 570.644H609.746L610.1 568.523C612.102 568.523 614.694 565.696 615.518 561.102L621.526 523.169C621.644 522.345 621.762 521.756 621.762 521.167C621.762 517.868 620.113 515.866 618.346 515.866L618.699 513.745H620.466C627.534 513.745 635.898 511.507 641.2 508.797L642.731 510.093L640.964 521.52C646.029 513.627 654.511 509.269 661.108 509.269C667.116 509.269 671.593 512.214 672.064 519.282Z" fill="#F0F0F0"/>
<path d="M840.823 204.863C841.889 193.674 842.688 182.752 843.221 171.83C843.753 166.236 844.02 160.908 844.286 155.314C844.553 152.118 844.553 148.921 844.553 145.991L865.864 157.712L871.458 160.908L882.646 166.769L882.913 166.503C879.45 163.839 876.253 161.175 873.056 158.511C871.458 157.179 869.593 155.847 867.995 154.782L863.2 150.786C857.606 146.523 852.278 142.261 846.684 138.265C848.548 136.401 850.413 134.536 852.278 132.405L860.27 122.815C865.597 116.421 871.191 110.028 876.519 103.368H876.253C869.593 108.43 863.2 114.024 856.806 119.352C853.61 122.016 850.413 124.68 847.216 127.61L844.553 130.007C844.286 122.016 843.753 114.024 843.221 105.766L842.688 97.7742C842.421 94.8439 842.421 92.18 842.155 89.5161C841.889 83.922 841.356 78.3278 840.823 73H840.557C840.29 78.3278 839.758 83.922 839.491 89.5161C839.225 92.18 838.958 94.8439 838.958 97.7742L838.426 105.766C837.893 114.557 837.36 123.081 837.094 131.872L832.299 128.942L821.11 122.815C813.918 118.819 806.459 114.823 799 111.094C805.393 116.421 811.787 121.749 818.446 127.077C821.909 129.475 825.106 132.138 828.303 134.802C830.434 136.401 832.565 137.999 834.696 139.331C830.168 144.392 825.905 149.72 821.377 155.048L817.114 159.843L805.127 174.228L805.393 174.494L814.983 166.503L820.045 162.507L824.84 158.245L837.094 147.855C837.094 150.253 837.094 152.917 837.36 155.314C837.626 160.908 837.893 166.236 838.426 171.83C838.958 182.752 839.758 193.674 840.823 204.863Z" fill="white"/>
<path d="M57.9578 342.994C58.6447 335.783 59.1598 328.743 59.5032 321.703C59.8466 318.097 60.0183 314.663 60.19 311.057C60.3617 308.997 60.3617 306.936 60.3617 305.047L74.0982 312.603L77.704 314.663L84.9157 318.441L85.0874 318.269C82.8552 316.552 80.7947 314.835 78.7343 313.118C77.704 312.259 76.5021 311.401 75.4718 310.714L72.3811 308.138C68.7753 305.391 65.3412 302.644 61.7354 300.068C62.9373 298.866 64.1393 297.664 65.3412 296.29L70.4924 290.109C73.9265 285.988 77.5323 281.867 80.9664 277.574H80.7947C76.5021 280.837 72.3811 284.443 68.2602 287.877C66.1997 289.594 64.1393 291.311 62.0788 293.2L60.3617 294.745C60.19 289.594 59.8466 284.443 59.5032 279.12L59.1598 273.969C58.9881 272.08 58.9881 270.363 58.8164 268.646C58.6447 265.04 58.3013 261.434 57.9578 258H57.7861C57.6144 261.434 57.271 265.04 57.0993 268.646C56.9276 270.363 56.7559 272.08 56.7559 273.969L56.4125 279.12C56.0691 284.786 55.7257 290.281 55.554 295.947L52.4632 294.058L45.2516 290.109C40.6155 287.533 35.8078 284.958 31 282.554C35.1209 285.988 39.2419 289.422 43.5345 292.856C45.7667 294.402 47.8272 296.119 49.8877 297.836C51.2613 298.866 52.635 299.896 54.0086 300.755C51.0896 304.017 48.3423 307.451 45.4233 310.885L42.676 313.976L34.9492 323.248L35.1209 323.42L41.3024 318.269L44.5648 315.693L47.6555 312.946L55.554 306.249C55.554 307.795 55.554 309.512 55.7257 311.057C55.8974 314.663 56.0691 318.097 56.4125 321.703C56.7559 328.743 57.271 335.783 57.9578 342.994Z" fill="white"/>
</svg>
