<svg width="913" height="1080" viewBox="0 0 913 1080" fill="none" xmlns="http://www.w3.org/2000/svg">
<rect width="913" height="1126" fill="#698662"/>
<path d="M164.728 279.462L165.376 275.357C169.482 275.357 174.667 269.955 176.18 261.096L195.411 140.742C195.627 140.094 195.627 139.662 195.627 139.013V138.797V138.149V137.933V137.717V137.501V137.285C195.627 130.37 192.17 126.481 188.712 126.481L189.361 122.376H236.897C280.977 122.376 307.554 144.847 307.554 184.821C307.554 190.007 307.122 195.409 306.257 201.243C298.263 251.373 261.962 279.462 212.049 279.462H164.728ZM235.817 129.29L213.129 272.764C239.706 267.794 258.937 244.242 266.932 201.027C267.796 193.897 268.228 187.414 268.228 181.364C268.228 150.249 256.56 133.395 235.817 129.29ZM415.129 262.825L417.506 265.634C415.129 268.443 412.104 271.252 409.295 273.628C404.109 277.95 395.466 280.327 387.039 280.327C375.803 280.327 365.648 275.789 365.648 265.634C365.648 264.553 365.648 263.689 365.864 263.041L366.728 257.855C360.678 265.418 352.899 271.684 344.04 275.789C337.99 278.382 332.156 279.678 326.322 279.678C312.493 279.678 301.257 271.9 301.257 257.423C301.257 255.91 301.473 254.398 301.689 252.885C303.418 240.137 314.222 226.308 333.669 220.69C349.874 216.152 369.753 215.504 375.371 202.323L375.803 199.947C376.236 196.705 376.452 193.897 376.452 191.52C376.452 181.148 372.346 177.043 367.376 177.043C360.678 177.043 351.387 184.605 349.01 195.625L348.794 196.922C348.578 197.57 348.578 198.002 348.578 198.65V198.866V199.514V199.731V200.163V200.379V200.595C348.578 203.836 349.01 206.645 350.955 208.157C346.849 212.263 340.583 214.424 333.885 214.424C325.026 214.424 316.599 210.318 316.599 200.163C316.599 198.65 316.599 197.57 316.815 196.922C319.624 178.555 344.256 166.455 367.16 166.455H368.889C390.064 167.103 410.592 174.882 410.592 197.786C410.592 199.947 410.375 202.323 409.943 204.916L400.868 262.176V263.041C400.868 266.282 402.813 267.794 405.406 267.794C408.647 267.794 412.752 266.066 415.129 262.825ZM356.789 258.935C360.462 256.991 364.784 253.533 368.241 248.131L373.643 213.127C363.919 218.961 351.387 226.74 343.608 236.031C339.935 240.353 337.99 244.458 337.558 248.131C337.342 248.564 337.342 248.996 337.342 249.428V250.292V250.508V250.724V250.94C337.342 257.207 341.015 261.528 347.714 261.528C350.523 261.528 353.548 260.664 356.789 258.935ZM507.03 168.616H539.874L539.226 172.721C529.502 172.721 522.588 186.334 517.402 195.625C516.754 196.489 516.538 197.138 516.322 197.786L461.655 297.397C454.74 309.713 443.288 337.803 425.354 337.803C415.847 337.803 410.445 330.24 410.445 321.381C410.445 319.869 410.445 318.788 410.661 318.14C411.741 311.658 415.414 305.824 421.248 300.422C423.625 305.391 427.515 307.984 432.917 307.984C440.047 307.984 448.042 303.231 452.579 294.804L461.006 279.678H453.012L427.947 187.63C424.49 174.234 420.816 172.505 416.495 172.505L417.143 168.616H468.569L467.921 172.721C464.68 172.937 463.167 173.801 462.951 175.53V176.61C462.951 178.555 463.815 181.364 464.68 184.605L480.453 243.378L507.679 193.897C510.272 189.143 511.784 185.253 512.216 182.012C512.432 181.364 512.432 180.284 512.432 179.203C512.432 174.882 510.488 172.721 506.382 172.721L507.03 168.616ZM709.755 226.74C709.971 228.469 710.187 229.981 710.187 231.71C710.187 233.654 709.971 235.599 709.755 237.544C706.946 256.558 688.363 270.819 670.645 277.086C660.49 280.543 646.229 282.92 632.4 282.92C616.194 282.92 599.34 279.462 589.185 271.468C580.758 264.769 577.084 256.774 577.084 248.996V248.131V247.915V247.699V247.483V247.267C577.084 246.619 577.084 246.187 577.301 245.539C579.677 229.549 596.315 212.911 614.249 204.484C603.23 194.977 595.235 185.037 595.235 172.073C595.235 170.344 595.451 168.616 595.667 166.887C596.531 161.485 598.26 156.515 601.069 151.546C615.546 130.586 644.284 119.567 668.7 119.567C677.56 119.567 685.338 120.863 692.037 123.456C705.865 128.858 714.076 139.013 714.076 150.465C714.076 151.978 713.86 153.058 713.644 154.571C711.916 166.023 702.408 178.987 684.042 191.088C697.655 200.379 708.242 211.399 709.755 226.74ZM693.765 148.089C691.388 132.747 680.801 127.129 668.7 127.129C652.279 127.129 633.264 137.501 631.535 149.601C631.535 150.249 631.319 150.897 631.319 151.546C631.319 156.515 634.344 161.053 640.179 165.158C646.013 169.264 653.143 173.369 659.841 177.043C665.891 180.284 671.293 183.093 677.343 186.766C686.635 178.339 692.037 167.967 693.549 157.596C693.765 156.732 693.981 155.867 693.981 154.787V153.49V153.058V152.842V152.41V151.114V150.681V150.249V150.033C693.981 149.385 693.981 148.737 693.765 148.089ZM637.37 273.196C655.304 273.196 673.238 264.769 674.967 253.966V252.453C674.967 248.996 673.886 245.539 670.429 242.081C664.379 236.031 655.304 231.278 645.796 225.444C637.802 220.474 628.943 215.288 620.516 209.238C608.199 218.097 601.933 228.901 600.205 239.056C599.988 240.569 599.772 242.297 599.772 243.81C599.772 260.232 613.169 273.196 637.37 273.196Z" fill="white"/>
<path d="M293.782 382.001L291.426 403.912L288.834 404.619C287.539 392.368 279.881 388.48 269.868 387.538L258.795 457.513C258.677 457.866 258.677 458.102 258.677 458.455V458.927V459.044V459.162V459.28V459.398C258.677 463.167 260.562 465.288 262.447 465.288L262.093 467.526H231.347L231.7 465.288C233.938 465.288 236.883 462.343 237.708 457.513L248.781 387.538C238.533 388.48 229.462 392.368 224.396 404.619L222.04 403.912L226.634 382.001H293.782ZM334.388 458.455L335.684 459.987C334.388 461.518 332.739 463.05 331.208 464.345C328.38 466.702 323.668 467.997 319.074 467.997C312.948 467.997 307.411 465.523 307.411 459.987C307.411 459.398 307.411 458.927 307.529 458.573L308 455.746C304.702 459.869 300.461 463.285 295.631 465.523C292.333 466.937 289.152 467.644 285.971 467.644C278.432 467.644 272.306 463.403 272.306 455.51C272.306 454.686 272.424 453.861 272.542 453.036C273.484 446.086 279.374 438.547 289.977 435.484C298.812 433.01 309.65 432.656 312.713 425.47L312.948 424.175C313.184 422.408 313.302 420.876 313.302 419.58C313.302 413.926 311.063 411.687 308.354 411.687C304.702 411.687 299.636 415.811 298.341 421.819L298.223 422.525C298.105 422.879 298.105 423.114 298.105 423.468V423.586V423.939V424.057V424.292V424.41V424.528C298.105 426.295 298.341 427.826 299.401 428.651C297.163 430.889 293.746 432.067 290.094 432.067C285.264 432.067 280.67 429.829 280.67 424.292C280.67 423.468 280.67 422.879 280.788 422.525C282.319 412.512 295.749 405.915 308.236 405.915H309.179C320.723 406.269 331.915 410.509 331.915 422.997C331.915 424.175 331.797 425.47 331.561 426.884L326.613 458.102V458.573C326.613 460.34 327.674 461.165 329.087 461.165C330.854 461.165 333.093 460.222 334.388 458.455ZM302.582 456.335C304.584 455.275 306.94 453.39 308.825 450.445L311.77 431.361C306.469 434.541 299.636 438.782 295.396 443.848C293.393 446.204 292.333 448.442 292.097 450.445C291.979 450.68 291.979 450.916 291.979 451.152V451.623V451.741V451.858V451.976C291.979 455.392 293.982 457.748 297.634 457.748C299.165 457.748 300.814 457.277 302.582 456.335ZM400.363 398.258C399.774 398.258 399.185 398.14 398.596 398.14C391.056 398.14 385.637 401.674 380.454 408.625C389.289 411.452 394.944 418.167 394.944 426.177C394.944 427.002 394.826 427.944 394.708 428.887C392.823 440.903 379.04 450.68 363.962 450.68C357.836 450.68 352.535 449.031 348.412 446.322C347.823 446.911 347.587 447.617 347.469 448.324V448.795C347.469 450.091 348.412 451.034 350.414 451.858C355.951 453.979 367.849 455.981 377.273 458.809C388.582 462.225 393.177 467.762 393.177 473.77V474.005V474.241V474.359V474.477V474.594V474.712C393.177 475.066 393.177 475.301 393.059 475.655L392.941 476.244C389.525 490.851 366.553 498.744 347.94 498.744C341.343 498.744 335.571 497.802 331.33 495.799C326.618 493.561 324.615 490.144 324.615 486.728C324.615 486.139 324.615 485.668 324.733 485.314C325.676 478.717 333.804 472.12 343.464 472.12C345.466 472.12 347.351 472.238 349.59 473.063C346.173 475.537 344.642 478.011 344.288 480.367C344.288 480.72 344.171 481.073 344.171 481.427C344.171 486.61 350.768 490.498 359.249 490.498C361.016 490.498 362.666 490.38 364.551 490.027C370.559 488.966 373.857 486.61 374.328 483.901V483.194C374.328 480.249 371.972 476.479 364.904 474.123C357.954 471.885 348.294 470 343.699 467.88C339.105 465.641 336.16 461.754 336.16 457.513V457.159V457.042V456.924V456.806V456.688C336.16 456.453 336.16 456.217 336.278 455.981C336.867 452.094 339.694 447.971 346.291 444.555C342.404 441.256 340.048 436.78 340.048 431.596C340.048 430.772 340.165 429.829 340.283 428.887C342.168 416.989 355.951 407.211 370.912 407.211C371.737 407.211 374.093 407.329 375.86 407.682C378.098 398.847 382.81 386.478 393.648 385.889H394.355C399.185 385.889 401.423 389.069 401.423 393.192C401.423 394.017 401.305 394.488 401.187 395.313C401.07 396.255 400.716 397.315 400.363 398.258ZM369.97 445.497C373.386 444.437 375.86 440.314 376.802 435.012C376.92 433.599 377.038 432.185 377.038 430.654C377.038 429.122 376.92 427.591 376.802 426.059C375.388 417.578 371.03 411.923 366.435 411.923C365.964 411.923 365.375 412.041 364.786 412.159C361.37 413.101 358.896 417.342 358.071 422.643C357.836 424.057 357.718 425.47 357.718 427.002C357.718 428.533 357.836 430.065 358.071 431.596C359.367 439.725 363.844 445.733 368.438 445.733C368.909 445.733 369.38 445.615 369.97 445.497ZM453.09 467.526H422.461L422.814 465.288C425.053 465.288 427.88 462.343 428.704 457.513L439.189 391.897C439.307 391.543 439.307 391.308 439.307 390.954V390.836V390.483V390.365V390.247V390.13V390.012C439.307 386.242 437.422 384.122 435.537 384.122L435.89 382.001H466.637L466.284 384.122C464.045 384.122 461.1 387.067 460.276 391.897L449.791 457.513C449.673 457.866 449.673 458.455 449.673 459.28C449.673 463.05 451.558 465.288 453.443 465.288L453.09 467.526ZM517.576 459.28V459.987C517.576 463.639 519.225 465.523 520.992 465.523L520.639 467.644H492.719L493.073 465.523C495.075 465.523 497.785 462.696 498.61 458.102L503.793 425.588C504.028 424.292 504.146 423.114 504.146 422.054C504.146 417.46 502.144 415.811 499.67 415.811C494.84 415.811 487.654 422.408 486.711 428.062L481.882 458.691C481.764 459.044 481.764 459.633 481.764 460.222C481.764 463.403 483.413 465.523 485.18 465.523L484.827 467.644H457.025L457.378 465.523C459.381 465.523 461.973 462.696 462.797 458.102L468.805 420.169C468.923 419.345 469.041 418.756 469.041 418.167C469.041 414.868 467.392 412.866 465.625 412.866L465.978 410.745H467.745C474.813 410.745 483.177 408.507 488.478 405.797L490.01 407.093L488.361 417.224C494.369 410.627 502.261 407.211 508.858 407.211C516.751 407.211 523.348 411.923 523.348 421.819C523.348 423.114 523.23 424.528 522.995 425.942C521.228 437.133 519.343 448.442 517.576 459.28ZM572.961 407.093C585.684 407.447 591.456 417.578 591.456 429.594C591.456 431.596 591.338 433.481 590.985 435.719C588.511 451.387 576.966 467.644 558.353 467.644H557.882C553.288 467.526 550.343 465.995 548.104 463.992L544.099 489.084C543.981 489.438 543.981 489.673 543.981 490.027V490.262V490.38V490.498V490.616V490.733C543.981 494.15 545.63 495.917 547.398 495.917L547.044 498.037H519.125L519.478 495.917C521.481 495.917 524.19 493.207 525.015 488.613L535.735 420.169C535.853 419.345 535.971 418.756 535.971 418.167C535.971 414.868 534.321 412.866 532.554 412.866L532.908 410.745C541.39 410.745 549.754 408.625 555.526 405.797L557.057 407.093L555.526 416.517C559.649 410.981 565.068 407.093 572.961 407.093ZM555.762 462.696C563.183 462.696 570.016 446.675 572.254 432.774C572.725 429.711 572.961 426.766 572.961 424.057C572.961 417.578 571.665 412.983 568.013 412.512H567.424C560.474 412.512 553.641 428.887 551.403 442.905C550.932 445.968 550.696 448.795 550.696 451.505C550.696 457.984 552.11 462.578 555.762 462.696ZM658.586 407.093L650.811 456.453C650.693 456.806 650.693 457.395 650.693 458.22C650.693 461.872 652.343 463.756 654.11 463.756L653.756 465.877H651.989C644.803 465.877 636.439 467.173 631.374 470L629.724 468.586L631.374 458.573C625.366 466.112 617.826 469.411 611.229 469.411C602.63 469.411 595.561 463.756 595.561 453.036C595.561 451.741 595.679 450.327 595.915 448.795L600.627 419.227C600.745 418.873 600.745 418.52 600.745 417.931C600.745 414.75 598.978 412.866 597.211 412.866L597.564 410.745C605.457 410.745 614.292 408.625 620.3 405.797L621.714 407.093L614.999 449.738C614.881 450.327 614.763 450.916 614.763 451.387V451.623V452.212V452.33V452.447V452.565V452.683V452.801V452.919C614.763 457.748 617.002 459.633 620.182 459.633C625.366 459.633 631.963 454.568 632.905 449.267L637.617 419.934C637.735 419.58 637.735 418.991 637.735 418.167C637.735 414.515 635.968 412.866 634.201 412.866L634.554 410.745C642.447 410.745 651.165 408.625 657.172 405.797L658.586 407.093ZM699.574 410.509H690.268L682.728 458.809C682.728 459.162 682.611 459.28 682.611 459.633C682.611 461.165 683.671 461.872 684.967 461.872C686.734 461.872 688.972 460.929 690.268 459.162L691.681 460.694C690.386 462.225 688.736 463.756 687.205 465.052C684.378 467.408 679.666 468.704 675.071 468.704C668.945 468.704 663.527 466.348 663.527 460.811V460.694V460.458V460.34V460.222V460.105V459.987C663.527 459.751 663.527 459.516 663.644 459.28L671.184 410.509H665.411L666 407.093C674.482 406.504 685.673 394.959 692.27 387.42L693.802 388.362L690.857 407.093H700.163L699.574 410.509Z" fill="#F0F0F0"/>
<path d="M797.823 204.863C798.889 193.674 799.688 182.752 800.221 171.83C800.753 166.236 801.02 160.908 801.286 155.314C801.553 152.118 801.553 148.921 801.553 145.991L822.864 157.712L828.458 160.908L839.646 166.769L839.913 166.503C836.45 163.839 833.253 161.175 830.056 158.511C828.458 157.179 826.593 155.847 824.995 154.782L820.2 150.786C814.606 146.523 809.278 142.261 803.684 138.265C805.548 136.401 807.413 134.536 809.278 132.405L817.27 122.815C822.597 116.421 828.191 110.028 833.519 103.368H833.253C826.593 108.43 820.2 114.024 813.806 119.352C810.61 122.016 807.413 124.68 804.216 127.61L801.553 130.007C801.286 122.016 800.753 114.024 800.221 105.766L799.688 97.7742C799.421 94.8439 799.421 92.18 799.155 89.5161C798.889 83.922 798.356 78.3278 797.823 73H797.557C797.29 78.3278 796.758 83.922 796.491 89.5161C796.225 92.18 795.958 94.8439 795.958 97.7742L795.426 105.766C794.893 114.557 794.36 123.081 794.094 131.872L789.299 128.942L778.11 122.815C770.918 118.819 763.459 114.823 756 111.094C762.393 116.421 768.787 121.749 775.446 127.077C778.909 129.475 782.106 132.138 785.303 134.802C787.434 136.401 789.565 137.999 791.696 139.331C787.168 144.392 782.905 149.72 778.377 155.048L774.114 159.843L762.127 174.228L762.393 174.494L771.983 166.503L777.045 162.507L781.84 158.245L794.094 147.855C794.094 150.253 794.094 152.917 794.36 155.314C794.626 160.908 794.893 166.236 795.426 171.83C795.958 182.752 796.758 193.674 797.823 204.863Z" fill="white"/>
<path d="M126.958 342.994C127.645 335.783 128.16 328.743 128.503 321.703C128.847 318.097 129.018 314.663 129.19 311.057C129.362 308.997 129.362 306.936 129.362 305.047L143.098 312.603L146.704 314.663L153.916 318.441L154.087 318.269C151.855 316.552 149.795 314.835 147.734 313.118C146.704 312.259 145.502 311.401 144.472 310.714L141.381 308.138C137.775 305.391 134.341 302.644 130.735 300.068C131.937 298.866 133.139 297.664 134.341 296.29L139.492 290.109C142.926 285.988 146.532 281.867 149.966 277.574H149.795C145.502 280.837 141.381 284.443 137.26 287.877C135.2 289.594 133.139 291.311 131.079 293.2L129.362 294.745C129.19 289.594 128.847 284.443 128.503 279.12L128.16 273.969C127.988 272.08 127.988 270.363 127.816 268.646C127.645 265.04 127.301 261.434 126.958 258H126.786C126.614 261.434 126.271 265.04 126.099 268.646C125.928 270.363 125.756 272.08 125.756 273.969L125.412 279.12C125.069 284.786 124.726 290.281 124.554 295.947L121.463 294.058L114.252 290.109C109.616 287.533 104.808 284.958 100 282.554C104.121 285.988 108.242 289.422 112.535 292.856C114.767 294.402 116.827 296.119 118.888 297.836C120.261 298.866 121.635 299.896 123.009 300.755C120.09 304.017 117.342 307.451 114.423 310.885L111.676 313.976L103.949 323.248L104.121 323.42L110.302 318.269L113.565 315.693L116.655 312.946L124.554 306.249C124.554 307.795 124.554 309.512 124.726 311.057C124.897 314.663 125.069 318.097 125.412 321.703C125.756 328.743 126.271 335.783 126.958 342.994Z" fill="white"/>
</svg>
