<svg width="913" height="1080" viewBox="0 0 913 1080" fill="none" xmlns="http://www.w3.org/2000/svg">
<rect width="913" height="1126" fill="#698662"/>
<path d="M127.618 279.462L128.266 275.357C132.371 275.357 137.557 269.955 139.07 261.096L158.3 140.742C158.516 140.094 158.516 139.662 158.516 139.013V138.797V138.149V137.933V137.717V137.501V137.285C158.516 130.37 155.059 126.481 151.602 126.481L152.25 122.376H199.787C243.866 122.376 270.443 144.847 270.443 184.821C270.443 190.007 270.011 195.409 269.147 201.243C261.152 251.373 224.852 279.462 174.938 279.462H127.618ZM198.706 129.29L176.018 272.764C202.596 267.794 221.826 244.242 229.821 201.027C230.686 193.897 231.118 187.414 231.118 181.364C231.118 150.249 219.45 133.395 198.706 129.29ZM378.019 262.825L380.395 265.634C378.019 268.443 374.994 271.252 372.185 273.628C366.999 277.95 358.356 280.327 349.929 280.327C338.693 280.327 328.537 275.789 328.537 265.634C328.537 264.553 328.537 263.689 328.753 263.041L329.618 257.855C323.568 265.418 315.789 271.684 306.93 275.789C300.88 278.382 295.046 279.678 289.212 279.678C275.383 279.678 264.147 271.9 264.147 257.423C264.147 255.91 264.363 254.398 264.579 252.885C266.308 240.137 277.111 226.308 296.558 220.69C312.764 216.152 332.643 215.504 338.261 202.323L338.693 199.947C339.125 196.705 339.341 193.897 339.341 191.52C339.341 181.148 335.236 177.043 330.266 177.043C323.568 177.043 314.276 184.605 311.9 195.625L311.683 196.922C311.467 197.57 311.467 198.002 311.467 198.65V198.866V199.514V199.731V200.163V200.379V200.595C311.467 203.836 311.9 206.645 313.844 208.157C309.739 212.263 303.473 214.424 296.774 214.424C287.915 214.424 279.488 210.318 279.488 200.163C279.488 198.65 279.488 197.57 279.704 196.922C282.513 178.555 307.146 166.455 330.05 166.455H331.778C352.954 167.103 373.481 174.882 373.481 197.786C373.481 199.947 373.265 202.323 372.833 204.916L363.758 262.176V263.041C363.758 266.282 365.702 267.794 368.295 267.794C371.536 267.794 375.642 266.066 378.019 262.825ZM319.678 258.935C323.352 256.991 327.673 253.533 331.13 248.131L336.532 213.127C326.809 218.961 314.276 226.74 306.498 236.031C302.824 240.353 300.88 244.458 300.448 248.131C300.231 248.564 300.231 248.996 300.231 249.428V250.292V250.508V250.724V250.94C300.231 257.207 303.905 261.528 310.603 261.528C313.412 261.528 316.437 260.664 319.678 258.935ZM469.92 168.616H502.763L502.115 172.721C492.392 172.721 485.477 186.334 480.292 195.625C479.643 196.489 479.427 197.138 479.211 197.786L424.544 297.397C417.63 309.713 406.178 337.803 388.243 337.803C378.736 337.803 373.334 330.24 373.334 321.381C373.334 319.869 373.334 318.788 373.55 318.14C374.631 311.658 378.304 305.824 384.138 300.422C386.515 305.391 390.404 307.984 395.806 307.984C402.937 307.984 410.931 303.231 415.469 294.804L423.896 279.678H415.901L390.836 187.63C387.379 174.234 383.706 172.505 379.384 172.505L380.033 168.616H431.459L430.81 172.721C427.569 172.937 426.057 173.801 425.841 175.53V176.61C425.841 178.555 426.705 181.364 427.569 184.605L443.343 243.378L470.568 193.897C473.161 189.143 474.674 185.253 475.106 182.012C475.322 181.364 475.322 180.284 475.322 179.203C475.322 174.882 473.377 172.721 469.272 172.721L469.92 168.616ZM608.686 124.536L587.078 261.312C586.862 261.96 586.862 262.609 586.862 263.257V264.121V264.337V264.553V264.769V264.985V265.201C586.862 271.9 589.455 275.573 592.048 275.573H593.345L592.696 279.678H536.949L537.597 275.573H538.894C542.135 275.573 546.672 270.171 548.185 261.312L565.255 153.706V152.41C565.255 146.36 558.124 144.847 554.883 144.847H553.587L554.451 140.742H555.531C573.682 137.069 589.671 131.019 604.364 122.592H605.877L608.686 124.536ZM743.862 229.981C743.645 232.574 743.862 234.519 743.213 236.463C738.027 269.307 701.079 284 666.723 284C634.959 284 606.221 271.684 606.221 248.564C606.221 247.051 606.437 245.539 606.654 244.026C607.086 241.433 607.95 238.624 609.03 235.599C614 223.283 627.397 217.017 640.361 217.017C650.517 217.017 659.592 220.906 662.833 228.685C652.462 233.654 644.467 244.242 642.738 254.398C642.522 255.046 642.522 255.694 642.522 256.126V256.991V257.207V257.423V257.639V258.071C642.522 264.769 645.547 270.603 652.678 273.844C655.487 275.357 658.944 276.005 662.617 276.005C671.908 276.005 682.496 270.819 690.491 258.719C694.596 252.021 696.973 244.458 698.486 236.463C699.134 233.222 699.35 229.765 699.35 226.524C699.35 214.208 695.461 203.404 686.169 198.434C682.496 196.489 677.742 195.409 672.124 195.409H670.828L671.476 191.952H672.773C681.2 191.952 687.898 191.088 694.812 178.987C699.35 171.425 702.591 161.485 704.32 152.626L704.536 151.114C704.752 150.033 704.968 148.953 704.968 147.872V147.656V146.36V146.144V145.496V145.28V144.847C704.968 131.019 696.973 124.968 687.682 124.968C677.526 124.968 666.29 132.099 664.562 144.199L664.346 147.872C664.346 155.003 668.019 161.053 677.31 162.566H678.391C671.692 173.801 660.024 178.987 649.653 178.987C638.201 178.987 628.045 172.505 628.045 159.757C628.045 158.244 628.261 156.948 628.477 155.435C633.015 126.697 672.557 119.35 693.516 119.35C721.822 119.35 748.399 129.722 748.399 152.194C748.399 153.706 748.183 155.435 747.967 156.948L747.751 158.244C744.294 176.394 722.686 191.088 697.837 193.897C725.711 198.866 743.862 210.966 743.862 229.981Z" fill="white"/>
<path d="M186.045 382.001L183.689 403.912L181.098 404.619C179.802 392.368 172.145 388.48 162.131 387.538L151.058 457.513C150.94 457.866 150.94 458.102 150.94 458.455V458.927V459.044V459.162V459.28V459.398C150.94 463.167 152.825 465.288 154.71 465.288L154.356 467.526H123.61L123.963 465.288C126.201 465.288 129.146 462.343 129.971 457.513L141.045 387.538C130.796 388.48 121.725 392.368 116.659 404.619L114.303 403.912L118.898 382.001H186.045ZM207.332 456.806C213.811 455.981 218.641 452.212 221.822 448.324L223.824 449.031C217.581 460.222 206.154 468.822 192.135 468.822C176.703 468.822 166.101 457.159 166.101 442.552C166.101 440.903 166.219 439.253 166.454 437.604C168.928 420.758 185.067 406.269 202.031 406.269C217.227 406.269 227.005 417.695 227.005 432.303C227.005 434.07 226.887 435.837 226.534 437.604H186.481C186.834 447.971 191.9 457.042 204.387 457.042C205.329 457.042 206.272 456.924 207.332 456.806ZM186.481 433.599H207.921C207.567 418.873 203.326 412.512 198.261 412.512C193.549 412.512 188.719 418.284 186.952 428.651C186.598 430.183 186.598 431.832 186.481 433.599ZM326.825 425.942L321.406 459.28V459.987C321.406 463.639 323.055 465.523 324.822 465.523L324.469 467.644H296.549L296.903 465.523C298.905 465.523 301.615 462.696 302.439 458.102L307.623 425.588C307.858 424.292 307.976 423.114 307.976 422.054C307.976 417.46 305.973 415.811 303.5 415.811C298.787 415.811 291.837 422.172 290.541 427.826C290.07 431.95 289.717 435.837 288.892 439.96L285.594 459.28V459.987C285.594 463.639 287.243 465.523 289.01 465.523L288.656 467.644H260.737L261.09 465.523C263.093 465.523 265.803 462.696 266.627 458.102L271.811 425.588C272.046 424.292 272.164 423.114 272.164 422.054C272.164 417.46 270.161 415.811 267.687 415.811C262.858 415.811 255.672 422.408 254.729 428.062L249.899 458.691C249.781 459.044 249.781 459.28 249.781 459.516V459.633V459.987V460.105V460.222V460.34C249.781 463.639 251.431 465.523 253.198 465.523L252.844 467.644H225.043L225.396 465.523C227.399 465.523 229.99 462.696 230.815 458.102L236.823 420.169C236.941 419.345 237.059 418.756 237.059 418.167C237.059 414.868 235.409 412.866 233.642 412.866L233.996 410.745H235.763C242.831 410.745 251.195 408.507 256.496 405.797L258.028 407.093L256.378 417.224C262.386 410.627 270.279 407.211 276.876 407.211C283.944 407.211 289.599 410.863 290.895 418.756C297.138 411.098 305.384 407.093 312.57 407.093C320.463 407.093 327.178 411.923 327.178 421.936C327.178 423.232 327.06 424.528 326.825 425.942ZM376.641 407.093C389.364 407.447 395.137 417.578 395.137 429.594C395.137 431.596 395.019 433.481 394.665 435.719C392.191 451.387 380.647 467.644 362.034 467.644H361.563C356.968 467.526 354.023 465.995 351.785 463.992L347.78 489.084C347.662 489.438 347.662 489.673 347.662 490.027V490.262V490.38V490.498V490.616V490.733C347.662 494.15 349.311 495.917 351.078 495.917L350.725 498.037H322.805L323.159 495.917C325.162 495.917 327.871 493.207 328.696 488.613L339.416 420.169C339.534 419.345 339.651 418.756 339.651 418.167C339.651 414.868 338.002 412.866 336.235 412.866L336.588 410.745C345.07 410.745 353.434 408.625 359.207 405.797L360.738 407.093L359.207 416.517C363.33 410.981 368.749 407.093 376.641 407.093ZM359.442 462.696C366.864 462.696 373.696 446.675 375.935 432.774C376.406 429.711 376.641 426.766 376.641 424.057C376.641 417.578 375.346 412.983 371.694 412.512H371.105C364.154 412.512 357.322 428.887 355.084 442.905C354.612 445.968 354.377 448.795 354.377 451.505C354.377 457.984 355.79 462.578 359.442 462.696ZM440.407 456.806C446.886 455.981 451.716 452.212 454.897 448.324L456.899 449.031C450.656 460.222 439.229 468.822 425.21 468.822C409.778 468.822 399.176 457.159 399.176 442.552C399.176 440.903 399.294 439.253 399.529 437.604C402.003 420.758 418.142 406.269 435.106 406.269C450.302 406.269 460.08 417.695 460.08 432.303C460.08 434.07 459.962 435.837 459.609 437.604H419.556C419.909 447.971 424.975 457.042 437.462 457.042C438.404 457.042 439.347 456.924 440.407 456.806ZM419.556 433.599H440.996C440.643 418.873 436.402 412.512 431.336 412.512C426.624 412.512 421.794 418.284 420.027 428.651C419.674 430.183 419.674 431.832 419.556 433.599ZM520.554 416.282C520.436 416.635 520.436 416.871 520.436 417.224C520.436 417.342 520.554 417.695 520.554 417.813C520.554 418.167 520.436 418.402 520.318 418.756C519.376 425.706 512.661 430.3 506.299 430.3C504.532 430.3 502.883 429.947 501.234 429.24C502.53 427.826 503.237 426.295 503.59 424.528C503.59 424.175 503.708 423.703 503.708 423.35C503.708 420.169 501.941 417.813 499.113 417.813C497.346 417.813 495.226 418.638 492.988 420.876C490.985 422.643 489.454 424.528 488.158 426.295L483.092 458.691C482.974 459.044 482.974 459.28 482.974 459.516V459.633V459.987V460.105V460.222V460.34C482.974 463.639 484.624 465.523 486.391 465.523L486.037 467.644H458.236L458.589 465.523C460.592 465.523 463.183 462.696 464.008 458.102L470.016 420.169C470.134 419.345 470.252 418.756 470.252 418.167C470.252 414.868 468.602 412.866 466.835 412.866L467.189 410.745H468.956C476.024 410.745 484.388 408.507 489.689 405.797L491.221 407.093L489.454 418.52C494.519 410.627 503.001 406.269 509.598 406.269C515.606 406.269 520.082 409.214 520.554 416.282ZM578.105 458.455L579.401 459.987C578.105 461.518 576.456 463.05 574.924 464.345C572.097 466.702 567.385 467.997 562.791 467.997C556.665 467.997 551.128 465.523 551.128 459.987C551.128 459.398 551.128 458.927 551.246 458.573L551.717 455.746C548.419 459.869 544.178 463.285 539.348 465.523C536.049 466.937 532.869 467.644 529.688 467.644C522.149 467.644 516.023 463.403 516.023 455.51C516.023 454.686 516.141 453.861 516.258 453.036C517.201 446.086 523.091 438.547 533.693 435.484C542.528 433.01 553.366 432.656 556.429 425.47L556.665 424.175C556.9 422.408 557.018 420.876 557.018 419.58C557.018 413.926 554.78 411.687 552.071 411.687C548.419 411.687 543.353 415.811 542.057 421.819L541.939 422.525C541.822 422.879 541.822 423.114 541.822 423.468V423.586V423.939V424.057V424.292V424.41V424.528C541.822 426.295 542.057 427.826 543.117 428.651C540.879 430.889 537.463 432.067 533.811 432.067C528.981 432.067 524.387 429.829 524.387 424.292C524.387 423.468 524.387 422.879 524.505 422.525C526.036 412.512 539.466 405.915 551.953 405.915H552.895C564.44 406.269 575.631 410.509 575.631 422.997C575.631 424.175 575.513 425.47 575.278 426.884L570.33 458.102V458.573C570.33 460.34 571.39 461.165 572.804 461.165C574.571 461.165 576.809 460.222 578.105 458.455ZM546.298 456.335C548.301 455.275 550.657 453.39 552.542 450.445L555.487 431.361C550.186 434.541 543.353 438.782 539.112 443.848C537.11 446.204 536.049 448.442 535.814 450.445C535.696 450.68 535.696 450.916 535.696 451.152V451.623V451.741V451.858V451.976C535.696 455.392 537.699 457.748 541.35 457.748C542.882 457.748 544.531 457.277 546.298 456.335ZM618.987 410.509H609.681L602.141 458.809C602.141 459.162 602.024 459.28 602.024 459.633C602.024 461.165 603.084 461.872 604.38 461.872C606.147 461.872 608.385 460.929 609.681 459.162L611.094 460.694C609.799 462.225 608.149 463.756 606.618 465.052C603.791 467.408 599.079 468.704 594.484 468.704C588.358 468.704 582.94 466.348 582.94 460.811V460.694V460.458V460.34V460.222V460.105V459.987C582.94 459.751 582.94 459.516 583.057 459.28L590.597 410.509H584.824L585.413 407.093C593.895 406.504 605.087 394.959 611.683 387.42L613.215 388.362L610.27 407.093H619.576L618.987 410.509ZM681.997 407.093L674.222 456.453C674.104 456.806 674.104 457.395 674.104 458.22C674.104 461.872 675.754 463.756 677.521 463.756L677.167 465.877H675.4C668.214 465.877 659.85 467.173 654.785 470L653.135 468.586L654.785 458.573C648.777 466.112 641.237 469.411 634.64 469.411C626.041 469.411 618.973 463.756 618.973 453.036C618.973 451.741 619.09 450.327 619.326 448.795L624.038 419.227C624.156 418.873 624.156 418.52 624.156 417.931C624.156 414.75 622.389 412.866 620.622 412.866L620.975 410.745C628.868 410.745 637.703 408.625 643.711 405.797L645.125 407.093L638.41 449.738C638.292 450.327 638.174 450.916 638.174 451.387V451.623V452.212V452.33V452.447V452.565V452.683V452.801V452.919C638.174 457.748 640.413 459.633 643.593 459.633C648.777 459.633 655.374 454.568 656.316 449.267L661.028 419.934C661.146 419.58 661.146 418.991 661.146 418.167C661.146 414.515 659.379 412.866 657.612 412.866L657.965 410.745C665.858 410.745 674.576 408.625 680.584 405.797L681.997 407.093ZM744.425 416.282C744.308 416.635 744.308 416.871 744.308 417.224C744.308 417.342 744.425 417.695 744.425 417.813C744.425 418.167 744.308 418.402 744.19 418.756C743.247 425.706 736.533 430.3 730.171 430.3C728.404 430.3 726.755 429.947 725.106 429.24C726.402 427.826 727.108 426.295 727.462 424.528C727.462 424.175 727.58 423.703 727.58 423.35C727.58 420.169 725.813 417.813 722.985 417.813C721.218 417.813 719.098 418.638 716.859 420.876C714.857 422.643 713.325 424.528 712.03 426.295L706.964 458.691C706.846 459.044 706.846 459.28 706.846 459.516V459.633V459.987V460.105V460.222V460.34C706.846 463.639 708.495 465.523 710.263 465.523L709.909 467.644H682.108L682.461 465.523C684.464 465.523 687.055 462.696 687.88 458.102L693.888 420.169C694.006 419.345 694.124 418.756 694.124 418.167C694.124 414.868 692.474 412.866 690.707 412.866L691.061 410.745H692.828C699.896 410.745 708.26 408.507 713.561 405.797L715.092 407.093L713.325 418.52C718.391 410.627 726.873 406.269 733.47 406.269C739.478 406.269 743.954 409.214 744.425 416.282ZM783.578 456.806C790.057 455.981 794.887 452.212 798.067 448.324L800.07 449.031C793.826 460.222 782.399 468.822 768.381 468.822C752.949 468.822 742.346 457.159 742.346 442.552C742.346 440.903 742.464 439.253 742.7 437.604C745.174 420.758 761.313 406.269 778.276 406.269C793.473 406.269 803.251 417.695 803.251 432.303C803.251 434.07 803.133 435.837 802.779 437.604H762.726C763.08 447.971 768.145 457.042 780.632 457.042C781.575 457.042 782.517 456.924 783.578 456.806ZM762.726 433.599H784.167C783.813 418.873 779.572 412.512 774.507 412.512C769.795 412.512 764.965 418.284 763.198 428.651C762.844 430.183 762.844 431.832 762.726 433.599ZM257.194 540.133L259.079 540.722C255.898 549.793 253.189 557.803 250.479 566.756C242.822 570.88 234.34 572.411 225.859 572.411C201.356 572.411 189.811 555.094 189.811 535.656C189.811 532.947 190.046 530.709 190.4 527.999C192.874 512.449 202.416 497.017 218.79 488.889C224.092 486.179 230.453 484.648 237.05 484.059C237.521 483.941 237.992 483.941 238.464 483.941H238.935H239.053H239.17H239.288H239.406H239.524H239.642H239.759C249.419 483.941 260.139 487.593 266.029 491.598L258.49 514.334L256.487 514.805L254.603 509.622C249.537 496.31 241.88 488.653 234.223 488.653C227.037 488.653 220.204 495.368 215.61 510.918C214.785 513.627 214.314 516.455 213.843 519.4C213.136 523.758 212.782 528.235 212.782 532.711C212.782 544.845 215.492 556.861 220.793 562.398C222.914 564.636 225.387 565.814 228.097 565.814C232.338 565.814 237.639 563.105 244.236 556.39C248.359 552.149 252.6 546.73 257.194 540.133ZM298.732 509.386C314.164 509.386 325.002 520.695 325.002 535.421C325.002 537.07 324.884 538.719 324.648 540.369C322.175 557.332 305.918 571.233 288.954 571.233C273.522 571.233 262.684 559.806 262.684 545.081C262.684 543.549 262.802 542.018 263.037 540.369C265.511 523.287 281.768 509.386 298.732 509.386ZM298.025 514.216C292.488 514.216 285.538 526.35 283.3 541.193C282.711 544.845 282.475 548.261 282.475 551.442C282.475 561.337 285.184 568.288 289.425 568.288C295.315 568.288 301.559 556.272 304.033 541.193C304.622 537.541 304.858 533.889 304.858 530.709C304.858 520.931 302.384 514.216 298.025 514.216ZM383.667 562.28V562.987C383.667 566.639 385.316 568.523 387.083 568.523L386.73 570.644H358.81L359.164 568.523C361.166 568.523 363.876 565.696 364.701 561.102L369.884 528.588C370.12 527.292 370.237 526.114 370.237 525.054C370.237 520.46 368.235 518.811 365.761 518.811C360.931 518.811 353.745 525.408 352.802 531.062L347.973 561.691C347.855 562.044 347.855 562.633 347.855 563.222C347.855 566.403 349.504 568.523 351.271 568.523L350.918 570.644H323.116L323.469 568.523C325.472 568.523 328.064 565.696 328.888 561.102L334.896 523.169C335.014 522.345 335.132 521.756 335.132 521.167C335.132 517.868 333.483 515.866 331.716 515.866L332.069 513.745H333.836C340.904 513.745 349.268 511.507 354.57 508.797L356.101 510.093L354.452 520.224C360.46 513.627 368.352 510.211 374.949 510.211C382.842 510.211 389.439 514.923 389.439 524.819C389.439 526.114 389.321 527.528 389.086 528.942C387.319 540.133 385.434 551.442 383.667 562.28ZM440.479 510.093H458.503L458.15 512.331C453.084 512.331 449.432 519.4 446.605 524.347L421.16 570.644H412.324L398.659 520.46C396.774 513.392 394.772 512.214 392.416 512.214L392.769 510.093H420.806L420.453 512.331C418.686 512.449 417.861 512.92 417.743 513.863V514.452C417.743 515.512 418.214 517.044 418.686 518.811L426.932 549.557L440.95 523.876C442.364 521.167 442.953 519.046 443.307 517.279C443.424 516.926 443.424 516.455 443.424 515.866C443.424 513.509 442.364 512.331 440.126 512.331L440.479 510.093ZM490.968 559.806C497.447 558.981 502.277 555.212 505.458 551.324L507.46 552.031C501.217 563.222 489.79 571.822 475.771 571.822C460.339 571.822 449.737 560.159 449.737 545.552C449.737 543.903 449.855 542.253 450.09 540.604C452.564 523.758 468.703 509.269 485.667 509.269C500.863 509.269 510.641 520.695 510.641 535.303C510.641 537.07 510.523 538.837 510.17 540.604H470.117C470.47 550.971 475.536 560.042 488.023 560.042C488.965 560.042 489.908 559.924 490.968 559.806ZM470.117 536.599H491.557C491.204 521.873 486.963 515.512 481.897 515.512C477.185 515.512 472.355 521.284 470.588 531.651C470.235 533.183 470.235 534.832 470.117 536.599ZM571.115 519.282C570.997 519.635 570.997 519.871 570.997 520.224C570.997 520.342 571.115 520.695 571.115 520.813C571.115 521.167 570.997 521.402 570.879 521.756C569.937 528.706 563.222 533.3 556.86 533.3C555.093 533.3 553.444 532.947 551.795 532.24C553.091 530.826 553.798 529.295 554.151 527.528C554.151 527.175 554.269 526.703 554.269 526.35C554.269 523.169 552.502 520.813 549.674 520.813C547.907 520.813 545.787 521.638 543.549 523.876C541.546 525.643 540.015 527.528 538.719 529.295L533.653 561.691C533.535 562.044 533.535 562.28 533.535 562.516V562.633V562.987V563.105V563.222V563.34C533.535 566.639 535.185 568.523 536.952 568.523L536.598 570.644H508.797L509.15 568.523C511.153 568.523 513.744 565.696 514.569 561.102L520.577 523.169C520.695 522.345 520.813 521.756 520.813 521.167C520.813 517.868 519.163 515.866 517.396 515.866L517.75 513.745H519.517C526.585 513.745 534.949 511.507 540.25 508.797L541.782 510.093L540.015 521.52C545.08 513.627 553.562 509.269 560.159 509.269C566.167 509.269 570.643 512.214 571.115 519.282ZM608.576 513.509H599.27L591.73 561.809C591.73 562.162 591.612 562.28 591.612 562.633C591.612 564.165 592.673 564.872 593.968 564.872C595.735 564.872 597.974 563.929 599.27 562.162L600.683 563.694C599.387 565.225 597.738 566.756 596.207 568.052C593.379 570.408 588.667 571.704 584.073 571.704C577.947 571.704 572.528 569.348 572.528 563.811V563.694V563.458V563.34V563.222V563.105V562.987C572.528 562.751 572.528 562.516 572.646 562.28L580.185 513.509H574.413L575.002 510.093C583.484 509.504 594.675 497.959 601.272 490.42L602.804 491.362L599.859 510.093H609.165L608.576 513.509ZM645.239 559.806C651.719 558.981 656.549 555.212 659.729 551.324L661.732 552.031C655.488 563.222 644.061 571.822 630.043 571.822C614.611 571.822 604.008 560.159 604.008 545.552C604.008 543.903 604.126 542.253 604.362 540.604C606.836 523.758 622.975 509.269 639.938 509.269C655.135 509.269 664.913 520.695 664.913 535.303C664.913 537.07 664.795 538.837 664.441 540.604H624.388C624.742 550.971 629.807 560.042 642.294 560.042C643.237 560.042 644.179 559.924 645.239 559.806ZM624.388 536.599H645.828C645.475 521.873 641.234 515.512 636.169 515.512C631.456 515.512 626.627 521.284 624.859 531.651C624.506 533.183 624.506 534.832 624.388 536.599ZM725.386 519.282C725.268 519.635 725.268 519.871 725.268 520.224C725.268 520.342 725.386 520.695 725.386 520.813C725.386 521.167 725.268 521.402 725.15 521.756C724.208 528.706 717.493 533.3 711.132 533.3C709.365 533.3 707.716 532.947 706.066 532.24C707.362 530.826 708.069 529.295 708.422 527.528C708.422 527.175 708.54 526.703 708.54 526.35C708.54 523.169 706.773 520.813 703.946 520.813C702.179 520.813 700.058 521.638 697.82 523.876C695.817 525.643 694.286 527.528 692.99 529.295L687.925 561.691C687.807 562.044 687.807 562.28 687.807 562.516V562.633V562.987V563.105V563.222V563.34C687.807 566.639 689.456 568.523 691.223 568.523L690.87 570.644H663.068L663.422 568.523C665.424 568.523 668.016 565.696 668.841 561.102L674.848 523.169C674.966 522.345 675.084 521.756 675.084 521.167C675.084 517.868 673.435 515.866 671.668 515.866L672.021 513.745H673.788C680.856 513.745 689.22 511.507 694.522 508.797L696.053 510.093L694.286 521.52C699.352 513.627 707.833 509.269 714.43 509.269C720.438 509.269 724.915 512.214 725.386 519.282Z" fill="#F0F0F0"/>
<path d="M797.823 204.863C798.889 193.674 799.688 182.752 800.221 171.83C800.753 166.236 801.02 160.908 801.286 155.314C801.553 152.118 801.553 148.921 801.553 145.991L822.864 157.712L828.458 160.908L839.646 166.769L839.913 166.503C836.45 163.839 833.253 161.175 830.056 158.511C828.458 157.179 826.593 155.847 824.995 154.782L820.2 150.786C814.606 146.523 809.278 142.261 803.684 138.265C805.548 136.401 807.413 134.536 809.278 132.405L817.27 122.815C822.597 116.421 828.191 110.028 833.519 103.368H833.253C826.593 108.43 820.2 114.024 813.806 119.352C810.61 122.016 807.413 124.68 804.216 127.61L801.553 130.007C801.286 122.016 800.753 114.024 800.221 105.766L799.688 97.7742C799.421 94.8439 799.421 92.18 799.155 89.5161C798.889 83.922 798.356 78.3278 797.823 73H797.557C797.29 78.3278 796.758 83.922 796.491 89.5161C796.225 92.18 795.958 94.8439 795.958 97.7742L795.426 105.766C794.893 114.557 794.36 123.081 794.094 131.872L789.299 128.942L778.11 122.815C770.918 118.819 763.459 114.823 756 111.094C762.393 116.421 768.787 121.749 775.446 127.077C778.909 129.475 782.106 132.138 785.303 134.802C787.434 136.401 789.565 137.999 791.696 139.331C787.168 144.392 782.905 149.72 778.377 155.048L774.114 159.843L762.127 174.228L762.393 174.494L771.983 166.503L777.045 162.507L781.84 158.245L794.094 147.855C794.094 150.253 794.094 152.917 794.36 155.314C794.626 160.908 794.893 166.236 795.426 171.83C795.958 182.752 796.758 193.674 797.823 204.863Z" fill="white"/>
<path d="M126.958 342.994C127.645 335.783 128.16 328.743 128.503 321.703C128.847 318.097 129.018 314.663 129.19 311.057C129.362 308.997 129.362 306.936 129.362 305.047L143.098 312.603L146.704 314.663L153.916 318.441L154.087 318.269C151.855 316.552 149.795 314.835 147.734 313.118C146.704 312.259 145.502 311.401 144.472 310.714L141.381 308.138C137.775 305.391 134.341 302.644 130.735 300.068C131.937 298.866 133.139 297.664 134.341 296.29L139.492 290.109C142.926 285.988 146.532 281.867 149.966 277.574H149.795C145.502 280.837 141.381 284.443 137.26 287.877C135.2 289.594 133.139 291.311 131.079 293.2L129.362 294.745C129.19 289.594 128.847 284.443 128.503 279.12L128.16 273.969C127.988 272.08 127.988 270.363 127.816 268.646C127.645 265.04 127.301 261.434 126.958 258H126.786C126.614 261.434 126.271 265.04 126.099 268.646C125.928 270.363 125.756 272.08 125.756 273.969L125.412 279.12C125.069 284.786 124.726 290.281 124.554 295.947L121.463 294.058L114.252 290.109C109.616 287.533 104.808 284.958 100 282.554C104.121 285.988 108.242 289.422 112.535 292.856C114.767 294.402 116.827 296.119 118.888 297.836C120.261 298.866 121.635 299.896 123.009 300.755C120.09 304.017 117.342 307.451 114.423 310.885L111.676 313.976L103.949 323.248L104.121 323.42L110.302 318.269L113.565 315.693L116.655 312.946L124.554 306.249C124.554 307.795 124.554 309.512 124.726 311.057C124.897 314.663 125.069 318.097 125.412 321.703C125.756 328.743 126.271 335.783 126.958 342.994Z" fill="white"/>
</svg>
