<svg width="860" height="659" viewBox="0 0 860 659" fill="none" xmlns="http://www.w3.org/2000/svg">
<path d="M859.522 0.5L943 83.978V80.7185L862.782 0.5H859.522Z" fill="#2D2D2D"/>
<path d="M850.073 0.5L943 93.4275V90.1679L853.332 0.5H850.073Z" fill="#2D2D2D"/>
<path d="M840.626 0.5L943 102.874V99.6174L843.883 0.5H840.626Z" fill="#2D2D2D"/>
<path d="M831.177 0.5L943 112.323V109.064L834.436 0.5H831.177Z" fill="#2D2D2D"/>
<path d="M821.727 0.5L943 121.773V118.513L824.987 0.5H821.727Z" fill="#2D2D2D"/>
<path d="M812.281 0.5L943 131.219V127.959L815.541 0.5H812.281Z" fill="#2D2D2D"/>
<path d="M802.832 0.5L943 140.668V137.409L806.091 0.5H802.832Z" fill="#2D2D2D"/>
<path d="M793.386 0.5L943 150.114V146.855L796.645 0.5H793.386Z" fill="#2D2D2D"/>
<path d="M783.936 0.5L943 159.564V156.304L787.196 0.5H783.936Z" fill="#2D2D2D"/>
<path d="M774.49 0.5L943 169.01V165.754L777.746 0.5H774.49Z" fill="#2D2D2D"/>
<path d="M765.041 0.5L943 178.46V175.2L768.3 0.5H765.041Z" fill="#2D2D2D"/>
<path d="M755.591 0.5L943 187.909V184.65L758.851 0.5H755.591Z" fill="#2D2D2D"/>
<path d="M746.145 0.5L943 197.355V194.096L749.404 0.5H746.145Z" fill="#2D2D2D"/>
<path d="M736.695 0.5L943 206.805V203.545L739.955 0.5H736.695Z" fill="#2D2D2D"/>
<path d="M727.249 0.5L943 216.251V212.991L730.509 0.5H727.249Z" fill="#2D2D2D"/>
<path d="M717.8 0.5L943 225.7V222.441L721.059 0.5H717.8Z" fill="#2D2D2D"/>
<path d="M708.354 0.5L943 235.147V231.89L711.61 0.5H708.354Z" fill="#2D2D2D"/>
<path d="M698.904 0.5L943 244.596V241.336L702.163 0.5H698.904Z" fill="#2D2D2D"/>
<path d="M689.455 0.5L943 254.046V250.786L692.714 0.5H689.455Z" fill="#2D2D2D"/>
<path d="M680.008 0.5L943 263.492V260.232L683.268 0.5H680.008Z" fill="#2D2D2D"/>
<path d="M670.559 0.5L943 272.941V269.682L673.818 0.5H670.559Z" fill="#2D2D2D"/>
<path d="M661.113 0.5L943 282.387V279.131L664.369 0.5H661.113Z" fill="#2D2D2D"/>
<path d="M651.663 0.5L943 291.837V288.577L654.923 0.5H651.663Z" fill="#2D2D2D"/>
<path d="M642.217 0.5L943 301.283V298.027L645.473 0.5H642.217Z" fill="#2D2D2D"/>
<path d="M632.768 0.5L943 310.733V307.473L636.027 0.5H632.768Z" fill="#2D2D2D"/>
<path d="M623.318 0.5L943 320.182V316.922L626.577 0.5H623.318Z" fill="#2D2D2D"/>
<path d="M613.872 0.5L943 329.628V326.369L617.131 0.5H613.872Z" fill="#2D2D2D"/>
<path d="M604.422 0.5L943 339.078V335.818L607.682 0.5H604.422Z" fill="#2D2D2D"/>
<path d="M594.976 0.5L943 348.524V345.268L598.232 0.5H594.976Z" fill="#2D2D2D"/>
<path d="M585.527 0.5L943 357.973V354.714L588.786 0.5H585.527Z" fill="#2D2D2D"/>
<path d="M576.077 0.5L943 367.423V364.163L579.337 0.5H576.077Z" fill="#2D2D2D"/>
<path d="M566.631 0.5L943 376.869V373.609L569.891 0.5H566.631Z" fill="#2D2D2D"/>
<path d="M557.182 0.5L943 386.318V383.059L560.441 0.5H557.182Z" fill="#2D2D2D"/>
<path d="M547.735 0.5L943 395.765V392.505L550.995 0.5H547.735Z" fill="#2D2D2D"/>
<path d="M538.286 0.5L943 405.214V401.955L541.545 0.5H538.286Z" fill="#2D2D2D"/>
<path d="M528.84 0.5L943 414.66V411.404L532.096 0.5H528.84Z" fill="#2D2D2D"/>
<path d="M519.39 0.5L943 424.11V420.85L522.65 0.5H519.39Z" fill="#2D2D2D"/>
<path d="M509.941 0.5L943 433.559V430.3L513.201 0.5H509.941Z" fill="#2D2D2D"/>
<path d="M500.495 0.5L943 443.005V439.746L503.754 0.5H500.495Z" fill="#2D2D2D"/>
<path d="M491.045 0.5L943 452.455V449.195L494.305 0.5H491.045Z" fill="#2D2D2D"/>
<path d="M481.599 0.5L943 461.901V458.641L484.859 0.5H481.599Z" fill="#2D2D2D"/>
<path d="M472.149 0.5L943 471.351V468.091L475.409 0.5H472.149Z" fill="#2D2D2D"/>
<path d="M462.703 0.5L943 480.797V477.54L465.96 0.5H462.703Z" fill="#2D2D2D"/>
<path d="M453.254 0.5L943 490.246V486.987L456.513 0.5H453.254Z" fill="#2D2D2D"/>
<path d="M443.804 0.5L943 499.696V496.436L447.064 0.5H443.804Z" fill="#2D2D2D"/>
<path d="M434.358 0.5L943 509.142V505.882L437.618 0.5H434.358Z" fill="#2D2D2D"/>
<path d="M424.909 0.5L943 518.591V515.332L428.168 0.5H424.909Z" fill="#2D2D2D"/>
<path d="M415.462 0.5L943 528.038V524.778L418.722 0.5H415.462Z" fill="#2D2D2D"/>
<path d="M406.013 0.5L943 537.487V534.227L409.273 0.5H406.013Z" fill="#2D2D2D"/>
<path d="M396.567 0.5L943 546.933V543.677L399.823 0.5H396.567Z" fill="#2D2D2D"/>
<path d="M387.117 0.5L943 556.383V553.123L390.377 0.5H387.117Z" fill="#2D2D2D"/>
<path d="M377.668 0.5L943 565.832V562.573L380.928 0.5H377.668Z" fill="#2D2D2D"/>
<path d="M368.222 0.5L943 575.278V572.019L371.481 0.5H368.222Z" fill="#2D2D2D"/>
<path d="M358.772 0.5L943 584.728V581.468L362.032 0.5H358.772Z" fill="#2D2D2D"/>
<path d="M349.326 0.5L943 594.174V590.914L352.586 0.5H349.326Z" fill="#2D2D2D"/>
<path d="M339.876 0.5L943 603.624V600.364L343.136 0.5H339.876Z" fill="#2D2D2D"/>
<path d="M330.43 0.5L943 613.07V609.813L333.687 0.5H330.43Z" fill="#2D2D2D"/>
<path d="M320.981 0.5L943 622.519V619.259L324.24 0.5H320.981Z" fill="#2D2D2D"/>
<path d="M311.531 0.5L943 631.969V628.709L314.791 0.5H311.531Z" fill="#2D2D2D"/>
<path d="M302.085 0.5L943 641.415V638.155L305.345 0.5H302.085Z" fill="#2D2D2D"/>
<path d="M292.636 0.5L943 650.864V647.605L295.895 0.5H292.636Z" fill="#2D2D2D"/>
<path d="M283.19 0.5L941.69 659H943V657.051L286.449 0.5H283.19Z" fill="#2D2D2D"/>
<path d="M273.74 0.5L932.24 659H935.5L277 0.5H273.74Z" fill="#2D2D2D"/>
<path d="M264.294 0.5L922.791 659H926.05L267.55 0.5H264.294Z" fill="#2D2D2D"/>
<path d="M254.844 0.5L913.344 659H916.604L258.104 0.5H254.844Z" fill="#2D2D2D"/>
<path d="M245.395 0.5L903.895 659H907.155L248.655 0.5H245.395Z" fill="#2D2D2D"/>
<path d="M235.949 0.5L894.449 659H897.708L239.208 0.5H235.949Z" fill="#2D2D2D"/>
<path d="M226.499 0.5L884.999 659H888.259L229.759 0.5H226.499Z" fill="#2D2D2D"/>
<path d="M217.053 0.5L875.553 659H878.81L220.313 0.5H217.053Z" fill="#2D2D2D"/>
<path d="M207.604 0.5L866.104 659H869.363L210.863 0.5H207.604Z" fill="#2D2D2D"/>
<path d="M198.157 0.5L856.654 659H859.914L201.414 0.5H198.157Z" fill="#2D2D2D"/>
<path d="M188.708 0.5L847.208 659H850.468L191.968 0.5H188.708Z" fill="#2D2D2D"/>
<path d="M179.259 0.5L837.759 659H841.018L182.518 0.5H179.259Z" fill="#2D2D2D"/>
<path d="M169.812 0.5L828.312 659H831.572L173.072 0.5H169.812Z" fill="#2D2D2D"/>
<path d="M160.363 0.5L818.863 659H822.122L163.622 0.5H160.363Z" fill="#2D2D2D"/>
<path d="M150.917 0.5L809.417 659H812.673L154.176 0.5H150.917Z" fill="#2D2D2D"/>
<path d="M141.467 0.5L799.967 659H803.227L144.727 0.5H141.467Z" fill="#2D2D2D"/>
<path d="M132.021 0.5L790.518 659H793.777L135.277 0.5H132.021Z" fill="#2D2D2D"/>
<path d="M122.572 0.5L781.072 659H784.331L125.831 0.5H122.572Z" fill="#2D2D2D"/>
<path d="M113.122 0.5L771.622 659H774.882L116.382 0.5H113.122Z" fill="#2D2D2D"/>
<path d="M103.676 0.5L762.176 659H765.436L106.936 0.5H103.676Z" fill="#2D2D2D"/>
<path d="M94.2263 0.5L752.726 659H755.986L97.4859 0.5H94.2263Z" fill="#2D2D2D"/>
<path d="M84.7803 0.5L743.28 659H746.537L88.0366 0.5H84.7803Z" fill="#2D2D2D"/>
<path d="M75.3308 0.5L733.831 659H737.09L78.5904 0.5H75.3308Z" fill="#2D2D2D"/>
<path d="M65.8813 0.5L724.381 659H727.641L69.1409 0.5H65.8813Z" fill="#2D2D2D"/>
<path d="M56.4351 0.5L714.935 659H718.195L59.6946 0.5H56.4351Z" fill="#2D2D2D"/>
<path d="M46.9856 0.5L705.486 659H708.745L50.2452 0.5H46.9856Z" fill="#2D2D2D"/>
<path d="M37.5396 0.5L696.04 659H699.299L40.7991 0.5H37.5396Z" fill="#2D2D2D"/>
<path d="M28.0898 0.5L686.59 659H689.849L31.3494 0.5H28.0898Z" fill="#2D2D2D"/>
<path d="M18.6438 0.5L677.144 659H680.4L21.9001 0.5H18.6438Z" fill="#2D2D2D"/>
<path d="M9.19434 0.5L667.694 659H670.954L12.4539 0.5H9.19434Z" fill="#2D2D2D"/>
<path d="M-0.255127 0.5L658.245 659H661.504L3.00446 0.5H-0.255127Z" fill="#2D2D2D"/>
<path d="M-9.70142 0.5L648.799 659H652.058L-6.44183 0.5H-9.70142Z" fill="#2D2D2D"/>
<path d="M-19.1509 0.5L639.349 659H642.609L-15.8913 0.5H-19.1509Z" fill="#2D2D2D"/>
<path d="M-28.5969 0.5L629.903 659H633.163L-25.3374 0.5H-28.5969Z" fill="#2D2D2D"/>
<path d="M-38.0464 0.5L620.454 659H623.713L-34.7868 0.5H-38.0464Z" fill="#2D2D2D"/>
<path d="M-47.4927 0.5L611.007 659H614.264L-44.2364 0.5H-47.4927Z" fill="#2D2D2D"/>
<path d="M-56.9421 0.5L601.558 659H604.818L-53.6826 0.5H-56.9421Z" fill="#2D2D2D"/>
<path d="M-66.3916 0.5L592.108 659H595.368L-63.132 0.5H-66.3916Z" fill="#2D2D2D"/>
<path d="M-75.8379 0.5L582.662 659H585.922L-72.5783 0.5H-75.8379Z" fill="#2D2D2D"/>
<path d="M-85.2874 0.5L573.213 659H576.472L-82.0278 0.5H-85.2874Z" fill="#2D2D2D"/>
<path d="M-94.7334 0.5L563.767 659H567.026L-91.4738 0.5H-94.7334Z" fill="#2D2D2D"/>
<path d="M-104.183 0.5L554.317 659H557.576L-100.924 0.5H-104.183Z" fill="#2D2D2D"/>
<path d="M-113.629 0.5L544.871 659H548.127L-110.373 0.5H-113.629Z" fill="#2D2D2D"/>
<path d="M-123.079 0.5L535.421 659H538.681L-119.819 0.5H-123.079Z" fill="#2D2D2D"/>
<path d="M-132.528 0.5L525.972 659H529.232L-129.269 0.5H-132.528Z" fill="#2D2D2D"/>
<path d="M-141.974 0.5L516.526 659H519.786L-138.715 0.5H-141.974Z" fill="#2D2D2D"/>
<path d="M-151.424 0.5L507.076 659H510.336L-148.164 0.5H-151.424Z" fill="#2D2D2D"/>
<path d="M-160.87 0.5L497.63 659H500.89L-157.61 0.5H-160.87Z" fill="#2D2D2D"/>
<path d="M-170.319 0.5L488.181 659H491.44L-167.06 0.5H-170.319Z" fill="#2D2D2D"/>
<path d="M-179.766 0.5L478.734 659H481.991L-176.509 0.5H-179.766Z" fill="#2D2D2D"/>
<path d="M-189.215 0.5L469.285 659H472.544L-185.956 0.5H-189.215Z" fill="#2D2D2D"/>
<path d="M-198.665 0.5L459.835 659H463.095L-195.405 0.5H-198.665Z" fill="#2D2D2D"/>
<path d="M-208.111 0.5L450.389 659H453.649L-204.851 0.5H-208.111Z" fill="#2D2D2D"/>
<path d="M-217.56 0.5L440.94 659H444.199L-214.301 0.5H-217.56Z" fill="#2D2D2D"/>
<path d="M-227.006 0.5L431.494 659H434.753L-223.747 0.5H-227.006Z" fill="#2D2D2D"/>
<path d="M-236.456 0.5L422.044 659H425.304L-233.196 0.5H-236.456Z" fill="#2D2D2D"/>
<path d="M-245.902 0.5L412.598 659H415.854L-242.646 0.5H-245.902Z" fill="#2D2D2D"/>
<path d="M-255.352 0.5L403.148 659H406.408L-252.092 0.5H-255.352Z" fill="#2D2D2D"/>
<path d="M-264.801 0.5L393.699 659H396.959L-261.541 0.5H-264.801Z" fill="#2D2D2D"/>
<path d="M-274.247 0.5L384.253 659H387.513L-270.987 0.5H-274.247Z" fill="#2D2D2D"/>
<path d="M-283.697 0.5L374.803 659H378.063L-280.437 0.5H-283.697Z" fill="#2D2D2D"/>
<path d="M-293.143 0.5L365.357 659H368.617L-289.883 0.5H-293.143Z" fill="#2D2D2D"/>
<path d="M-302.592 0.5L355.908 659H359.167L-299.333 0.5H-302.592Z" fill="#2D2D2D"/>
<path d="M-312.038 0.5L346.462 659H349.718L-308.782 0.5H-312.038Z" fill="#2D2D2D"/>
<path d="M-321.488 0.5L337.012 659H340.271L-318.228 0.5H-321.488Z" fill="#2D2D2D"/>
<path d="M-330.938 0.5L327.562 659H330.822L-327.678 0.5H-330.938Z" fill="#2D2D2D"/>
<path d="M-340.384 0.5L318.117 659H321.376L-337.124 0.5H-340.384Z" fill="#2D2D2D"/>
<path d="M-349.833 0.5L308.667 659H311.927L-346.573 0.5H-349.833Z" fill="#2D2D2D"/>
<path d="M-359.279 0.5L299.221 659H302.48L-356.02 0.5H-359.279Z" fill="#2D2D2D"/>
<path d="M-368.729 0.5L289.771 659H293.031L-365.469 0.5H-368.729Z" fill="#2D2D2D"/>
<path d="M-374 4.67489L280.325 659H283.581L-374 1.41861V4.67489Z" fill="#2D2D2D"/>
<path d="M-374 14.1244L270.876 659H274.135L-374 10.8648V14.1244Z" fill="#2D2D2D"/>
<path d="M-374 23.5738L261.426 659H264.686L-374 20.3143V23.5738Z" fill="#2D2D2D"/>
<path d="M-374 33.02L251.98 659H255.24L-374 29.7604V33.02Z" fill="#2D2D2D"/>
<path d="M-374 42.4695L242.53 659H245.79L-374 39.2099V42.4695Z" fill="#2D2D2D"/>
<path d="M-374 51.9157L233.084 659H236.344L-374 48.6561V51.9157Z" fill="#2D2D2D"/>
<path d="M-374 61.3652L223.635 659H226.894L-374 58.1056V61.3652Z" fill="#2D2D2D"/>
<path d="M-374 70.8113L214.189 659H217.445L-374 67.5551V70.8113Z" fill="#2D2D2D"/>
<path d="M-374 80.2608L204.739 659H207.999L-374 77.0013V80.2608Z" fill="#2D2D2D"/>
<path d="M-374 89.7103L195.29 659H198.549L-374 86.4507V89.7103Z" fill="#2D2D2D"/>
<path d="M-374 99.1565L185.843 659H189.103L-374 95.8969V99.1565Z" fill="#2D2D2D"/>
<path d="M-374 108.606L176.394 659H179.654L-374 105.346V108.606Z" fill="#2D2D2D"/>
<path d="M-374 118.052L166.948 659H170.207L-374 114.793V118.052Z" fill="#2D2D2D"/>
<path d="M-374 127.502L157.498 659H160.758L-374 124.242V127.502Z" fill="#2D2D2D"/>
<path d="M-374 136.948L148.052 659H151.308L-374 133.692V136.948Z" fill="#2D2D2D"/>
<path d="M-374 146.397L138.603 659H141.862L-374 143.138V146.397Z" fill="#2D2D2D"/>
<path d="M-374 155.847L129.153 659H132.413L-374 152.587V155.847Z" fill="#2D2D2D"/>
<path d="M-374 165.293L119.707 659H122.967L-374 162.033V165.293Z" fill="#2D2D2D"/>
<path d="M-374 174.742L110.258 659H113.517L-374 171.483V174.742Z" fill="#2D2D2D"/>
<path d="M-374 184.189L100.811 659H104.071L-374 180.929V184.189Z" fill="#2D2D2D"/>
<path d="M-374 193.638L91.362 659H94.6216L-374 190.379V193.638Z" fill="#2D2D2D"/>
<path d="M-374 203.084L81.9158 659H85.1721L-374 199.828V203.084Z" fill="#2D2D2D"/>
<path d="M-374 212.534L72.4663 659H75.7259L-374 209.274V212.534Z" fill="#2D2D2D"/>
<path d="M-374 221.983L63.0168 659H66.2764L-374 218.724V221.983Z" fill="#2D2D2D"/>
<path d="M-374 231.429L53.5707 659H56.8303L-374 228.17V231.429Z" fill="#2D2D2D"/>
<path d="M-374 240.879L44.1211 659H47.3807L-374 237.619V240.879Z" fill="#2D2D2D"/>
<path d="M-374 250.325L34.6749 659H37.9312L-374 247.069V250.325Z" fill="#2D2D2D"/>
<path d="M-374 259.774L25.2256 659H28.4851L-374 256.515V259.774Z" fill="#2D2D2D"/>
<path d="M-374 269.221L15.7793 659H19.0356L-374 265.964V269.221Z" fill="#2D2D2D"/>
<path d="M-374 278.67L6.32986 659H9.58944L-374 275.411V278.67Z" fill="#2D2D2D"/>
<path d="M-374 288.12L-3.11967 659H0.139909L-374 284.86V288.12Z" fill="#2D2D2D"/>
</svg>
