<svg width="913" height="1080" viewBox="0 0 913 1080" fill="none" xmlns="http://www.w3.org/2000/svg">
<rect width="913" height="1126" fill="#698662"/>
<path d="M164.728 279.462L165.376 275.357C169.482 275.357 174.667 269.955 176.18 261.096L195.411 140.742C195.627 140.094 195.627 139.662 195.627 139.013V138.797V138.149V137.933V137.717V137.501V137.285C195.627 130.37 192.17 126.481 188.712 126.481L189.361 122.376H236.897C280.977 122.376 307.554 144.847 307.554 184.821C307.554 190.007 307.122 195.409 306.257 201.243C298.263 251.373 261.962 279.462 212.049 279.462H164.728ZM235.817 129.29L213.129 272.764C239.706 267.794 258.937 244.242 266.932 201.027C267.796 193.897 268.228 187.414 268.228 181.364C268.228 150.249 256.56 133.395 235.817 129.29ZM415.129 262.825L417.506 265.634C415.129 268.443 412.104 271.252 409.295 273.628C404.109 277.95 395.466 280.327 387.039 280.327C375.803 280.327 365.648 275.789 365.648 265.634C365.648 264.553 365.648 263.689 365.864 263.041L366.728 257.855C360.678 265.418 352.899 271.684 344.04 275.789C337.99 278.382 332.156 279.678 326.322 279.678C312.493 279.678 301.257 271.9 301.257 257.423C301.257 255.91 301.473 254.398 301.689 252.885C303.418 240.137 314.222 226.308 333.669 220.69C349.874 216.152 369.753 215.504 375.371 202.323L375.803 199.947C376.236 196.705 376.452 193.897 376.452 191.52C376.452 181.148 372.346 177.043 367.376 177.043C360.678 177.043 351.387 184.605 349.01 195.625L348.794 196.922C348.578 197.57 348.578 198.002 348.578 198.65V198.866V199.514V199.731V200.163V200.379V200.595C348.578 203.836 349.01 206.645 350.955 208.157C346.849 212.263 340.583 214.424 333.885 214.424C325.026 214.424 316.599 210.318 316.599 200.163C316.599 198.65 316.599 197.57 316.815 196.922C319.624 178.555 344.256 166.455 367.16 166.455H368.889C390.064 167.103 410.592 174.882 410.592 197.786C410.592 199.947 410.375 202.323 409.943 204.916L400.868 262.176V263.041C400.868 266.282 402.813 267.794 405.406 267.794C408.647 267.794 412.752 266.066 415.129 262.825ZM356.789 258.935C360.462 256.991 364.784 253.533 368.241 248.131L373.643 213.127C363.919 218.961 351.387 226.74 343.608 236.031C339.935 240.353 337.99 244.458 337.558 248.131C337.342 248.564 337.342 248.996 337.342 249.428V250.292V250.508V250.724V250.94C337.342 257.207 341.015 261.528 347.714 261.528C350.523 261.528 353.548 260.664 356.789 258.935ZM507.03 168.616H539.874L539.226 172.721C529.502 172.721 522.588 186.334 517.402 195.625C516.754 196.489 516.538 197.138 516.322 197.786L461.655 297.397C454.74 309.713 443.288 337.803 425.354 337.803C415.847 337.803 410.445 330.24 410.445 321.381C410.445 319.869 410.445 318.788 410.661 318.14C411.741 311.658 415.414 305.824 421.248 300.422C423.625 305.391 427.515 307.984 432.917 307.984C440.047 307.984 448.042 303.231 452.579 294.804L461.006 279.678H453.012L427.947 187.63C424.49 174.234 420.816 172.505 416.495 172.505L417.143 168.616H468.569L467.921 172.721C464.68 172.937 463.167 173.801 462.951 175.53V176.61C462.951 178.555 463.815 181.364 464.68 184.605L480.453 243.378L507.679 193.897C510.272 189.143 511.784 185.253 512.216 182.012C512.432 181.364 512.432 180.284 512.432 179.203C512.432 174.882 510.488 172.721 506.382 172.721L507.03 168.616ZM712.78 210.75H714.076C713.86 213.127 714.076 215.288 713.428 217.665C710.835 234.735 700.896 247.699 685.122 250.508H686.203L684.474 261.744C684.258 263.257 684.042 264.553 684.042 266.066C684.042 272.332 686.851 276.005 689.444 276.005H690.74L690.092 280.111H634.128L634.777 276.005H636.073C639.314 276.005 643.852 270.603 645.58 261.744L647.957 249.644C634.128 248.131 618.787 246.619 606.039 246.619C593.938 246.619 584.215 247.915 580.11 252.885L575.788 252.669C578.165 244.242 581.622 235.167 588.536 227.604L595.019 221.122C609.496 206.645 635.641 179.636 640.827 160.189L641.259 158.46C641.475 157.812 641.475 157.164 641.475 156.515V155.867V155.651V155.219V155.003C641.475 148.305 638.234 145.928 633.696 145.928C625.918 145.928 615.978 153.058 614.249 163.214L614.033 164.942H612.521C599.772 162.998 594.803 155.867 594.803 148.305C594.803 147.224 594.803 146.36 595.019 145.712C596.099 138.797 600.853 131.667 608.415 126.697C613.385 123.456 618.787 121.943 624.621 121.943C638.45 121.943 651.631 131.667 651.631 151.546L651.198 156.732C647.741 177.691 626.782 202.54 612.089 218.313H615.33C622.676 218.313 631.319 219.393 652.711 221.122L665.243 141.174L702.408 123.024H714.941L714.292 127.129H712.996C709.755 127.129 705.001 132.315 703.489 141.174L690.956 220.906L693.117 220.474C699.815 218.961 705.217 215.504 708.674 210.966L712.78 210.75Z" fill="white"/>
<path d="M257.555 427.473L267.804 453.508C271.81 463.756 272.988 465.288 275.697 465.288L275.344 467.526H249.427L235.055 429.24L230.579 457.513C230.461 457.866 230.461 458.455 230.461 459.28C230.461 463.05 232.346 465.288 234.23 465.288L233.877 467.526H203.248L203.602 465.288C205.84 465.288 208.667 462.343 209.492 457.513L219.976 391.897C220.094 391.543 220.094 391.308 220.094 390.954V390.836V390.483V390.365V390.247V390.13V390.012C220.094 386.242 218.209 384.122 216.324 384.122L216.678 382.001L227.987 381.883H242.477C249.074 381.883 256.731 382.001 263.681 383.415C275.933 386.124 281.469 393.428 281.469 401.556C281.469 402.499 281.352 403.441 281.234 404.384C279.585 413.101 272.634 421.701 260.383 426.413L257.555 427.473ZM242.123 385.771L235.526 427.473C248.72 425.235 257.084 414.868 258.616 404.855C258.733 404.266 258.851 403.677 258.851 403.088V402.852V401.91V401.674V401.556V401.439C258.851 392.957 253.668 385.771 242.123 385.771ZM317.657 456.806C324.136 455.981 328.966 452.212 332.147 448.324L334.15 449.031C327.906 460.222 316.479 468.822 302.461 468.822C287.028 468.822 276.426 457.159 276.426 442.552C276.426 440.903 276.544 439.253 276.779 437.604C279.253 420.758 295.392 406.269 312.356 406.269C327.553 406.269 337.33 417.695 337.33 432.303C337.33 434.07 337.212 435.837 336.859 437.604H296.806C297.159 447.971 302.225 457.042 314.712 457.042C315.654 457.042 316.597 456.924 317.657 456.806ZM296.806 433.599H318.246C317.893 418.873 313.652 412.512 308.586 412.512C303.874 412.512 299.044 418.284 297.277 428.651C296.924 430.183 296.924 431.832 296.806 433.599ZM342.79 442.081H345.028C347.148 448.56 349.151 456.806 354.452 460.929C357.162 463.167 359.989 464.11 362.934 464.11C368 464.11 372.24 461.4 372.829 457.631C372.829 457.277 372.947 457.042 372.947 456.688C372.947 454.214 371.298 451.505 367.175 448.795C359.518 443.023 343.614 438.547 343.614 426.766C343.614 425.942 343.732 425.353 343.85 424.528C345.735 413.572 357.515 405.326 372.947 405.326H373.772C382.489 405.326 386.966 408.625 392.503 412.63L388.733 426.766H386.612C385.199 422.879 383.314 418.167 380.604 414.75C377.424 410.863 373.89 409.331 370.591 409.331C365.997 409.331 362.345 412.159 361.756 415.928C361.756 416.282 361.638 416.635 361.638 416.989C361.638 419.698 363.17 422.408 367.057 425.235C372.829 429.358 380.133 432.892 386.141 437.486C389.322 439.842 390.618 442.905 390.618 446.557C390.618 447.382 390.5 447.971 390.382 448.795C389.557 452.919 387.319 457.042 383.667 460.222C377.659 465.523 368.706 469.293 358.811 469.293H357.986C349.033 468.94 342.083 465.17 337.017 461.989L342.79 442.081ZM414.96 401.203C409.423 401.203 405.418 397.433 405.418 392.368V392.25V392.014V391.897V391.779V391.661V391.543C405.418 391.308 405.418 391.072 405.535 390.836C406.478 385.064 412.015 380.352 418.258 380.352C423.559 380.352 427.447 384.122 427.447 389.187C427.447 389.894 427.447 390.483 427.329 390.836C426.387 396.491 420.85 401.203 414.96 401.203ZM424.148 407.093L416.02 458.691C415.902 459.044 415.902 459.28 415.902 459.516V459.633V459.987V460.105V460.222V460.34C415.902 463.639 417.551 465.523 419.318 465.523L418.965 467.644H391.163L391.517 465.523C393.52 465.523 396.111 462.696 396.936 458.102L402.944 420.169C403.062 419.345 403.179 418.756 403.179 418.167C403.179 414.868 401.53 412.866 399.763 412.866L400.117 410.745C407.774 410.745 416.962 408.625 422.617 405.797L424.148 407.093ZM486.855 408.978L445.623 463.756C465.65 463.403 471.305 459.987 478.137 448.089L480.022 448.442L475.663 467.644H423.476L423.948 464.345L464.236 410.392C448.097 410.981 439.616 414.868 433.372 425.235L431.369 424.881L435.728 407.093H485.677L486.855 408.978ZM545.778 458.455L547.074 459.987C545.778 461.518 544.129 463.05 542.597 464.345C539.77 466.702 535.058 467.997 530.464 467.997C524.338 467.997 518.801 465.523 518.801 459.987C518.801 459.398 518.801 458.927 518.919 458.573L519.39 455.746C516.092 459.869 511.851 463.285 507.021 465.523C503.722 466.937 500.542 467.644 497.361 467.644C489.822 467.644 483.696 463.403 483.696 455.51C483.696 454.686 483.814 453.861 483.932 453.036C484.874 446.086 490.764 438.547 501.366 435.484C510.202 433.01 521.04 432.656 524.102 425.47L524.338 424.175C524.574 422.408 524.691 420.876 524.691 419.58C524.691 413.926 522.453 411.687 519.744 411.687C516.092 411.687 511.026 415.811 509.73 421.819L509.613 422.525C509.495 422.879 509.495 423.114 509.495 423.468V423.586V423.939V424.057V424.292V424.41V424.528C509.495 426.295 509.73 427.826 510.791 428.651C508.552 430.889 505.136 432.067 501.484 432.067C496.654 432.067 492.06 429.829 492.06 424.292C492.06 423.468 492.06 422.879 492.178 422.525C493.709 412.512 507.139 405.915 519.626 405.915H520.568C532.113 406.269 543.304 410.509 543.304 422.997C543.304 424.175 543.187 425.47 542.951 426.884L538.003 458.102V458.573C538.003 460.34 539.063 461.165 540.477 461.165C542.244 461.165 544.482 460.222 545.778 458.455ZM513.971 456.335C515.974 455.275 518.33 453.39 520.215 450.445L523.16 431.361C517.859 434.541 511.026 438.782 506.785 443.848C504.783 446.204 503.722 448.442 503.487 450.445C503.369 450.68 503.369 450.916 503.369 451.152V451.623V451.741V451.858V451.976C503.369 455.392 505.372 457.748 509.024 457.748C510.555 457.748 512.204 457.277 513.971 456.335ZM592.079 408.389H592.904C604.802 408.389 610.574 418.756 610.574 431.007C610.574 433.245 610.457 435.248 610.103 437.486C607.629 453.036 596.674 468.94 578.532 468.94C568.519 468.94 563.571 465.523 558.27 465.523C555.56 465.523 552.969 466.466 549.67 468.94L548.139 467.644L549.199 466.112L560.39 394.842C560.508 394.488 560.508 393.899 560.508 393.075C560.508 389.423 558.741 387.538 556.974 387.538L557.327 385.417C565.22 385.417 574.055 383.297 580.063 380.47L581.477 381.765L575.823 417.342C580.417 412.041 585.6 408.507 592.079 408.389ZM575.705 464.934C583.126 464.934 590.077 448.324 592.315 433.952C592.786 430.654 593.14 427.591 593.14 424.764C593.14 418.284 591.726 413.69 588.31 413.337H587.838C581.713 413.337 575.469 426.295 572.642 439.136C572.171 440.903 571.817 442.787 571.582 444.672C570.993 448.089 570.757 451.269 570.757 454.097C570.757 460.576 572.053 464.934 575.705 464.934ZM645.799 382.708L633.783 458.102C633.666 458.455 633.666 458.691 633.666 459.044V459.162V459.516V459.751V459.869V459.987C633.666 463.639 635.315 465.523 637.082 465.523L636.729 467.644H608.927L609.28 465.523C611.165 465.523 613.875 462.932 614.699 458.691L624.595 395.784C624.713 395.431 624.713 395.195 624.713 394.842V394.724V394.37V394.253V394.135V394.017V393.899C624.713 390.247 623.063 388.362 621.296 388.362L621.65 386.242C629.543 386.242 638.496 384.239 644.268 381.412L645.799 382.708ZM685.562 456.806C692.041 455.981 696.871 452.212 700.051 448.324L702.054 449.031C695.811 460.222 684.384 468.822 670.365 468.822C654.933 468.822 644.331 457.159 644.331 442.552C644.331 440.903 644.448 439.253 644.684 437.604C647.158 420.758 663.297 406.269 680.261 406.269C695.457 406.269 705.235 417.695 705.235 432.303C705.235 434.07 705.117 435.837 704.764 437.604H664.71C665.064 447.971 670.129 457.042 682.617 457.042C683.559 457.042 684.501 456.924 685.562 456.806ZM664.71 433.599H686.151C685.797 418.873 681.556 412.512 676.491 412.512C671.779 412.512 666.949 418.284 665.182 428.651C664.828 430.183 664.828 431.832 664.71 433.599ZM357.619 510.093L357.501 510.918C355.852 520.224 349.255 529.177 336.886 533.889C329.935 536.599 321.218 537.895 310.262 538.248L306.728 560.513C306.61 560.866 306.61 561.455 306.61 562.28C306.61 566.05 308.495 568.288 310.38 568.288L310.027 570.526H279.398L279.751 568.288C281.989 568.288 284.817 565.343 285.641 560.513L296.126 494.897C296.244 494.543 296.244 494.308 296.244 493.954V493.836V493.719V493.483V493.365V493.247V493.13V493.012C296.244 489.242 294.359 487.122 292.474 487.122L292.827 485.001H322.514C329.935 485.001 336.297 485.708 341.598 487.239C352.554 490.538 357.737 498.548 357.737 507.384V508.208V508.326V508.444V508.562V508.68C357.737 509.151 357.737 509.622 357.619 510.093ZM318.037 489.124L310.969 534.125C325.459 532.594 334.058 522.462 335.59 512.096C335.708 511.507 335.825 510.8 335.825 510.211V510.093V509.975V509.386V509.269V509.151V509.033V508.797V508.68V508.562V508.444C335.825 499.373 330.171 490.656 318.037 489.124ZM409.223 561.455L410.519 562.987C409.223 564.518 407.574 566.05 406.043 567.345C403.215 569.702 398.503 570.997 393.909 570.997C387.783 570.997 382.246 568.523 382.246 562.987C382.246 562.398 382.246 561.927 382.364 561.573L382.835 558.746C379.537 562.869 375.296 566.285 370.466 568.523C367.168 569.937 363.987 570.644 360.806 570.644C353.267 570.644 347.141 566.403 347.141 558.51C347.141 557.686 347.259 556.861 347.377 556.036C348.319 549.086 354.209 541.547 364.811 538.484C373.647 536.01 384.485 535.656 387.547 528.47L387.783 527.175C388.019 525.408 388.136 523.876 388.136 522.58C388.136 516.926 385.898 514.687 383.189 514.687C379.537 514.687 374.471 518.811 373.175 524.819L373.058 525.525C372.94 525.879 372.94 526.114 372.94 526.468V526.586V526.939V527.057V527.292V527.41V527.528C372.94 529.295 373.175 530.826 374.236 531.651C371.997 533.889 368.581 535.067 364.929 535.067C360.099 535.067 355.505 532.829 355.505 527.292C355.505 526.468 355.505 525.879 355.623 525.525C357.154 515.512 370.584 508.915 383.071 508.915H384.013C395.558 509.269 406.749 513.509 406.749 525.997C406.749 527.175 406.632 528.47 406.396 529.884L401.448 561.102V561.573C401.448 563.34 402.508 564.165 403.922 564.165C405.689 564.165 407.927 563.222 409.223 561.455ZM377.416 559.335C379.419 558.275 381.775 556.39 383.66 553.445L386.605 534.361C381.304 537.541 374.471 541.782 370.23 546.848C368.228 549.204 367.168 551.442 366.932 553.445C366.814 553.68 366.814 553.916 366.814 554.152V554.623V554.741V554.858V554.976C366.814 558.392 368.817 560.748 372.469 560.748C374 560.748 375.649 560.277 377.416 559.335ZM469.661 562.28V562.987C469.661 566.639 471.31 568.523 473.077 568.523L472.724 570.644H444.804L445.158 568.523C447.16 568.523 449.87 565.696 450.695 561.102L455.878 528.588C456.113 527.292 456.231 526.114 456.231 525.054C456.231 520.46 454.229 518.811 451.755 518.811C446.925 518.811 439.739 525.408 438.796 531.062L433.966 561.691C433.849 562.044 433.849 562.633 433.849 563.222C433.849 566.403 435.498 568.523 437.265 568.523L436.912 570.644H409.11L409.463 568.523C411.466 568.523 414.058 565.696 414.882 561.102L420.89 523.169C421.008 522.345 421.126 521.756 421.126 521.167C421.126 517.868 419.477 515.866 417.71 515.866L418.063 513.745H419.83C426.898 513.745 435.262 511.507 440.563 508.797L442.095 510.093L440.446 520.224C446.454 513.627 454.346 510.211 460.943 510.211C468.836 510.211 475.433 514.923 475.433 524.819C475.433 526.114 475.315 527.528 475.08 528.942C473.313 540.133 471.428 551.442 469.661 562.28ZM521.512 559.806C527.991 558.981 532.821 555.212 536.001 551.324L538.004 552.031C531.761 563.222 520.334 571.822 506.315 571.822C490.883 571.822 480.281 560.159 480.281 545.552C480.281 543.903 480.398 542.253 480.634 540.604C483.108 523.758 499.247 509.269 516.211 509.269C531.407 509.269 541.185 520.695 541.185 535.303C541.185 537.07 541.067 538.837 540.714 540.604H500.661C501.014 550.971 506.079 560.042 518.567 560.042C519.509 560.042 520.451 559.924 521.512 559.806ZM500.661 536.599H522.101C521.747 521.873 517.506 515.512 512.441 515.512C507.729 515.512 502.899 521.284 501.132 531.651C500.778 533.183 500.778 534.832 500.661 536.599ZM575.624 485.708L563.608 561.102C563.49 561.455 563.49 561.691 563.49 562.044V562.162V562.516V562.751V562.869V562.987C563.49 566.639 565.139 568.523 566.906 568.523L566.553 570.644H538.751L539.105 568.523C540.99 568.523 543.699 565.932 544.524 561.691L554.419 498.784C554.537 498.431 554.537 498.195 554.537 497.842V497.724V497.37V497.253V497.135V497.017V496.899C554.537 493.247 552.888 491.362 551.121 491.362L551.474 489.242C559.367 489.242 568.32 487.239 574.092 484.412L575.624 485.708ZM578.396 545.081H580.634C582.755 551.56 584.757 559.806 590.058 563.929C592.768 566.167 595.595 567.11 598.54 567.11C603.606 567.11 607.847 564.4 608.436 560.631C608.436 560.277 608.553 560.042 608.553 559.688C608.553 557.214 606.904 554.505 602.781 551.795C595.124 546.023 579.22 541.547 579.22 529.766C579.22 528.942 579.338 528.353 579.456 527.528C581.341 516.572 593.121 508.326 608.553 508.326H609.378C618.095 508.326 622.572 511.625 628.109 515.63L624.339 529.766H622.219C620.805 525.879 618.92 521.167 616.211 517.75C613.03 513.863 609.496 512.331 606.197 512.331C601.603 512.331 597.951 515.159 597.362 518.928C597.362 519.282 597.244 519.635 597.244 519.989C597.244 522.698 598.776 525.408 602.663 528.235C608.436 532.358 615.739 535.892 621.747 540.486C624.928 542.842 626.224 545.905 626.224 549.557C626.224 550.382 626.106 550.971 625.988 551.795C625.164 555.919 622.925 560.042 619.273 563.222C613.266 568.523 604.312 572.293 594.417 572.293H593.592C584.639 571.94 577.689 568.17 572.623 564.989L578.396 545.081Z" fill="#F0F0F0"/>
<path d="M797.823 204.863C798.889 193.674 799.688 182.752 800.221 171.83C800.753 166.236 801.02 160.908 801.286 155.314C801.553 152.118 801.553 148.921 801.553 145.991L822.864 157.712L828.458 160.908L839.646 166.769L839.913 166.503C836.45 163.839 833.253 161.175 830.056 158.511C828.458 157.179 826.593 155.847 824.995 154.782L820.2 150.786C814.606 146.523 809.278 142.261 803.684 138.265C805.548 136.401 807.413 134.536 809.278 132.405L817.27 122.815C822.597 116.421 828.191 110.028 833.519 103.368H833.253C826.593 108.43 820.2 114.024 813.806 119.352C810.61 122.016 807.413 124.68 804.216 127.61L801.553 130.007C801.286 122.016 800.753 114.024 800.221 105.766L799.688 97.7742C799.421 94.8439 799.421 92.18 799.155 89.5161C798.889 83.922 798.356 78.3278 797.823 73H797.557C797.29 78.3278 796.758 83.922 796.491 89.5161C796.225 92.18 795.958 94.8439 795.958 97.7742L795.426 105.766C794.893 114.557 794.36 123.081 794.094 131.872L789.299 128.942L778.11 122.815C770.918 118.819 763.459 114.823 756 111.094C762.393 116.421 768.787 121.749 775.446 127.077C778.909 129.475 782.106 132.138 785.303 134.802C787.434 136.401 789.565 137.999 791.696 139.331C787.168 144.392 782.905 149.72 778.377 155.048L774.114 159.843L762.127 174.228L762.393 174.494L771.983 166.503L777.045 162.507L781.84 158.245L794.094 147.855C794.094 150.253 794.094 152.917 794.36 155.314C794.626 160.908 794.893 166.236 795.426 171.83C795.958 182.752 796.758 193.674 797.823 204.863Z" fill="white"/>
<path d="M126.958 342.994C127.645 335.783 128.16 328.743 128.503 321.703C128.847 318.097 129.018 314.663 129.19 311.057C129.362 308.997 129.362 306.936 129.362 305.047L143.098 312.603L146.704 314.663L153.916 318.441L154.087 318.269C151.855 316.552 149.795 314.835 147.734 313.118C146.704 312.259 145.502 311.401 144.472 310.714L141.381 308.138C137.775 305.391 134.341 302.644 130.735 300.068C131.937 298.866 133.139 297.664 134.341 296.29L139.492 290.109C142.926 285.988 146.532 281.867 149.966 277.574H149.795C145.502 280.837 141.381 284.443 137.26 287.877C135.2 289.594 133.139 291.311 131.079 293.2L129.362 294.745C129.19 289.594 128.847 284.443 128.503 279.12L128.16 273.969C127.988 272.08 127.988 270.363 127.816 268.646C127.645 265.04 127.301 261.434 126.958 258H126.786C126.614 261.434 126.271 265.04 126.099 268.646C125.928 270.363 125.756 272.08 125.756 273.969L125.412 279.12C125.069 284.786 124.726 290.281 124.554 295.947L121.463 294.058L114.252 290.109C109.616 287.533 104.808 284.958 100 282.554C104.121 285.988 108.242 289.422 112.535 292.856C114.767 294.402 116.827 296.119 118.888 297.836C120.261 298.866 121.635 299.896 123.009 300.755C120.09 304.017 117.342 307.451 114.423 310.885L111.676 313.976L103.949 323.248L104.121 323.42L110.302 318.269L113.565 315.693L116.655 312.946L124.554 306.249C124.554 307.795 124.554 309.512 124.726 311.057C124.897 314.663 125.069 318.097 125.412 321.703C125.756 328.743 126.271 335.783 126.958 342.994Z" fill="white"/>
</svg>
