<svg width="913" height="1080" viewBox="0 0 913 1080" fill="none" xmlns="http://www.w3.org/2000/svg">
<rect y="-8" width="913" height="1126" fill="#698662"/>
<path d="M132.549 264.462L133.197 260.357C137.302 260.357 142.488 254.955 144.001 246.096L163.232 125.742C163.448 125.094 163.448 124.662 163.448 124.013V123.797V123.149V122.933V122.717V122.501V122.285C163.448 115.37 159.99 111.481 156.533 111.481L157.181 107.376H204.718C248.797 107.376 275.375 129.847 275.375 169.821C275.375 175.007 274.943 180.409 274.078 186.243C266.083 236.373 229.783 264.462 179.869 264.462H132.549ZM203.638 114.29L180.95 257.764C207.527 252.794 226.758 229.242 234.753 186.027C235.617 178.897 236.049 172.414 236.049 166.364C236.049 135.249 224.381 118.395 203.638 114.29ZM382.95 247.825L385.327 250.634C382.95 253.443 379.925 256.252 377.116 258.628C371.93 262.95 363.287 265.327 354.86 265.327C343.624 265.327 333.469 260.789 333.469 250.634C333.469 249.553 333.469 248.689 333.685 248.041L334.549 242.855C328.499 250.418 320.72 256.684 311.861 260.789C305.811 263.382 299.977 264.678 294.143 264.678C280.314 264.678 269.078 256.9 269.078 242.423C269.078 240.91 269.294 239.398 269.51 237.885C271.239 225.137 282.043 211.308 301.489 205.69C317.695 201.152 337.574 200.504 343.192 187.323L343.624 184.947C344.056 181.705 344.272 178.897 344.272 176.52C344.272 166.148 340.167 162.043 335.197 162.043C328.499 162.043 319.208 169.605 316.831 180.625L316.615 181.922C316.399 182.57 316.399 183.002 316.399 183.65V183.866V184.514V184.731V185.163V185.379V185.595C316.399 188.836 316.831 191.645 318.775 193.157C314.67 197.263 308.404 199.424 301.706 199.424C292.846 199.424 284.419 195.318 284.419 185.163C284.419 183.65 284.419 182.57 284.636 181.922C287.445 163.555 312.077 151.455 334.981 151.455H336.71C357.885 152.103 378.412 159.882 378.412 182.786C378.412 184.947 378.196 187.323 377.764 189.916L368.689 247.176V248.041C368.689 251.282 370.634 252.794 373.227 252.794C376.468 252.794 380.573 251.066 382.95 247.825ZM324.61 243.935C328.283 241.991 332.604 238.533 336.062 233.131L341.463 198.127C331.74 203.961 319.208 211.74 311.429 221.031C307.756 225.353 305.811 229.458 305.379 233.131C305.163 233.564 305.163 233.996 305.163 234.428V235.292V235.508V235.724V235.94C305.163 242.207 308.836 246.528 315.534 246.528C318.343 246.528 321.368 245.664 324.61 243.935ZM474.851 153.616H507.695L507.046 157.721C497.323 157.721 490.409 171.334 485.223 180.625C484.575 181.489 484.359 182.138 484.142 182.786L429.475 282.397C422.561 294.713 411.109 322.803 393.175 322.803C383.667 322.803 378.265 315.24 378.265 306.381C378.265 304.869 378.265 303.788 378.482 303.14C379.562 296.658 383.235 290.824 389.069 285.422C391.446 290.391 395.335 292.984 400.737 292.984C407.868 292.984 415.863 288.231 420.4 279.804L428.827 264.678H420.832L395.768 172.63C392.31 159.234 388.637 157.505 384.316 157.505L384.964 153.616H436.39L435.742 157.721C432.5 157.937 430.988 158.801 430.772 160.53V161.61C430.772 163.555 431.636 166.364 432.5 169.605L448.274 228.378L475.499 178.897C478.092 174.143 479.605 170.253 480.037 167.012C480.253 166.364 480.253 165.284 480.253 164.203C480.253 159.882 478.308 157.721 474.203 157.721L474.851 153.616ZM613.617 109.536L592.01 246.312C591.794 246.96 591.794 247.609 591.794 248.257V249.121V249.337V249.553V249.769V249.985V250.201C591.794 256.9 594.387 260.573 596.979 260.573H598.276L597.628 264.678H541.88L542.528 260.573H543.825C547.066 260.573 551.604 255.171 553.116 246.312L570.186 138.706V137.41C570.186 131.36 563.056 129.847 559.814 129.847H558.518L559.382 125.742H560.463C578.613 122.069 594.603 116.019 609.296 107.592H610.808L613.617 109.536ZM744.959 195.75H746.256C746.039 198.127 746.256 200.288 745.607 202.665C743.014 219.735 733.075 232.699 717.301 235.508H718.382L716.653 246.744C716.437 248.257 716.221 249.553 716.221 251.066C716.221 257.332 719.03 261.005 721.623 261.005H722.919L722.271 265.111H666.308L666.956 261.005H668.252C671.493 261.005 676.031 255.603 677.76 246.744L680.136 234.644C666.308 233.131 650.966 231.619 638.218 231.619C626.118 231.619 616.394 232.915 612.289 237.885L607.967 237.669C610.344 229.242 613.801 220.167 620.716 212.604L627.198 206.122C641.675 191.645 667.82 164.636 673.006 145.189L673.438 143.46C673.654 142.812 673.654 142.164 673.654 141.515V140.867V140.651V140.219V140.003C673.654 133.305 670.413 130.928 665.875 130.928C658.097 130.928 648.157 138.058 646.429 148.214L646.213 149.942H644.7C631.952 147.998 626.982 140.867 626.982 133.305C626.982 132.224 626.982 131.36 627.198 130.712C628.278 123.797 633.032 116.667 640.595 111.697C645.564 108.456 650.966 106.943 656.8 106.943C670.629 106.943 683.81 116.667 683.81 136.546L683.378 141.732C679.92 162.691 658.961 187.54 644.268 203.313H647.509C654.856 203.313 663.499 204.393 684.89 206.122L697.422 126.174L734.587 108.024H747.12L746.472 112.129H745.175C741.934 112.129 737.18 117.315 735.668 126.174L723.135 205.906L725.296 205.474C731.995 203.961 737.396 200.504 740.854 195.966L744.959 195.75Z" fill="white"/>
<path d="M225.27 422.133L227.155 422.722C223.974 431.793 221.265 439.803 218.555 448.756C210.898 452.88 202.416 454.411 193.934 454.411C169.431 454.411 157.887 437.094 157.887 417.656C157.887 414.947 158.122 412.709 158.476 409.999C160.95 394.449 170.492 379.017 186.866 370.889C192.167 368.179 198.529 366.648 205.126 366.059C205.597 365.941 206.068 365.941 206.539 365.941H207.011H207.128H207.246H207.364H207.482H207.6H207.717H207.835C217.495 365.941 228.215 369.593 234.105 373.598L226.566 396.334L224.563 396.805L222.678 391.622C217.613 378.31 209.956 370.653 202.298 370.653C195.112 370.653 188.28 377.368 183.686 392.918C182.861 395.627 182.39 398.455 181.919 401.4C181.212 405.758 180.858 410.235 180.858 414.711C180.858 426.845 183.568 438.861 188.869 444.398C190.989 446.636 193.463 447.814 196.173 447.814C200.414 447.814 205.715 445.105 212.312 438.39C216.435 434.149 220.676 428.73 225.27 422.133ZM266.808 391.386C282.24 391.386 293.078 402.695 293.078 417.421C293.078 419.07 292.96 420.719 292.724 422.369C290.25 439.332 273.994 453.233 257.03 453.233C241.598 453.233 230.76 441.806 230.76 427.081C230.76 425.549 230.878 424.018 231.113 422.369C233.587 405.287 249.844 391.386 266.808 391.386ZM266.101 396.216C260.564 396.216 253.614 408.35 251.375 423.193C250.786 426.845 250.551 430.261 250.551 433.442C250.551 443.337 253.26 450.288 257.501 450.288C263.391 450.288 269.635 438.272 272.109 423.193C272.698 419.541 272.933 415.889 272.933 412.709C272.933 402.931 270.46 396.216 266.101 396.216ZM351.743 444.28V444.987C351.743 448.639 353.392 450.523 355.159 450.523L354.806 452.644H326.886L327.24 450.523C329.242 450.523 331.952 447.696 332.776 443.102L337.96 410.588C338.195 409.292 338.313 408.114 338.313 407.054C338.313 402.46 336.31 400.811 333.837 400.811C329.007 400.811 321.821 407.408 320.878 413.062L316.048 443.691C315.931 444.044 315.931 444.633 315.931 445.222C315.931 448.403 317.58 450.523 319.347 450.523L318.993 452.644H291.192L291.545 450.523C293.548 450.523 296.14 447.696 296.964 443.102L302.972 405.169C303.09 404.345 303.208 403.756 303.208 403.167C303.208 399.868 301.559 397.866 299.792 397.866L300.145 395.745H301.912C308.98 395.745 317.344 393.507 322.645 390.797L324.177 392.093L322.528 402.224C328.535 395.627 336.428 392.211 343.025 392.211C350.918 392.211 357.515 396.923 357.515 406.819C357.515 408.114 357.397 409.528 357.162 410.942C355.395 422.133 353.51 433.442 351.743 444.28ZM429.51 366.765L417.377 443.102C417.259 443.455 417.259 444.044 417.259 444.869C417.259 448.521 419.026 450.523 420.793 450.523L420.439 452.644H396.761L398.175 443.22C394.052 448.756 388.75 452.644 380.622 452.644C368.253 452.644 362.598 442.159 362.598 430.261C362.598 428.259 362.716 426.256 363.069 424.018C365.308 408.468 377.088 392.211 395.465 392.211H396.054C400.648 392.211 403.594 393.86 405.832 395.863L408.423 379.842C408.541 379.488 408.541 378.899 408.541 378.075C408.541 374.423 406.774 372.538 405.007 372.538L405.361 370.417C413.371 370.417 422.206 368.297 427.861 365.47L429.51 366.765ZM385.805 447.225H386.512C393.58 447.225 400.177 430.968 402.416 416.95C402.887 413.887 403.122 410.942 403.122 408.232C403.122 401.635 401.591 397.159 397.939 397.159C390.517 397.159 383.92 413.062 381.682 427.081C381.211 430.144 380.975 432.971 380.975 435.68C380.975 442.159 382.389 446.754 385.805 447.225ZM448.667 386.203C443.13 386.203 439.125 382.433 439.125 377.368V377.25V377.014V376.897V376.779V376.661V376.543C439.125 376.308 439.125 376.072 439.243 375.836C440.185 370.064 445.722 365.352 451.966 365.352C457.267 365.352 461.154 369.122 461.154 374.187C461.154 374.894 461.154 375.483 461.036 375.836C460.094 381.491 454.557 386.203 448.667 386.203ZM457.856 392.093L449.727 443.691C449.609 444.044 449.609 444.28 449.609 444.516V444.633V444.987V445.105V445.222V445.34C449.609 448.639 451.259 450.523 453.026 450.523L452.672 452.644H424.871L425.224 450.523C427.227 450.523 429.819 447.696 430.643 443.102L436.651 405.169C436.769 404.345 436.887 403.756 436.887 403.167C436.887 399.868 435.237 397.866 433.47 397.866L433.824 395.745C441.481 395.745 450.67 393.625 456.324 390.797L457.856 392.093ZM498.078 395.509H488.772L481.232 443.809C481.232 444.162 481.114 444.28 481.114 444.633C481.114 446.165 482.175 446.872 483.47 446.872C485.238 446.872 487.476 445.929 488.772 444.162L490.185 445.694C488.889 447.225 487.24 448.756 485.709 450.052C482.881 452.408 478.169 453.704 473.575 453.704C467.449 453.704 462.03 451.348 462.03 445.811V445.694V445.458V445.34V445.222V445.105V444.987C462.03 444.751 462.03 444.516 462.148 444.28L469.688 395.509H463.915L464.504 392.093C472.986 391.504 484.177 379.959 490.774 372.42L492.306 373.362L489.361 392.093H498.667L498.078 395.509ZM516.427 386.203C510.89 386.203 506.885 382.433 506.885 377.368V377.25V377.014V376.897V376.779V376.661V376.543C506.885 376.308 506.885 376.072 507.003 375.836C507.945 370.064 513.482 365.352 519.725 365.352C525.026 365.352 528.914 369.122 528.914 374.187C528.914 374.894 528.914 375.483 528.796 375.836C527.854 381.491 522.317 386.203 516.427 386.203ZM525.615 392.093L517.487 443.691C517.369 444.044 517.369 444.28 517.369 444.516V444.633V444.987V445.105V445.222V445.34C517.369 448.639 519.018 450.523 520.786 450.523L520.432 452.644H492.631L492.984 450.523C494.987 450.523 497.578 447.696 498.403 443.102L504.411 405.169C504.529 404.345 504.647 403.756 504.647 403.167C504.647 399.868 502.997 397.866 501.23 397.866L501.584 395.745C509.241 395.745 518.429 393.625 524.084 390.797L525.615 392.093ZM564.306 391.386C579.739 391.386 590.576 402.695 590.576 417.421C590.576 419.07 590.459 420.719 590.223 422.369C587.749 439.332 571.492 453.233 554.529 453.233C539.097 453.233 528.259 441.806 528.259 427.081C528.259 425.549 528.376 424.018 528.612 422.369C531.086 405.287 547.343 391.386 564.306 391.386ZM563.6 396.216C558.063 396.216 551.112 408.35 548.874 423.193C548.285 426.845 548.05 430.261 548.05 433.442C548.05 443.337 550.759 450.288 555 450.288C560.89 450.288 567.134 438.272 569.608 423.193C570.197 419.541 570.432 415.889 570.432 412.709C570.432 402.931 567.958 396.216 563.6 396.216ZM649.241 444.28V444.987C649.241 448.639 650.891 450.523 652.658 450.523L652.304 452.644H624.385L624.738 450.523C626.741 450.523 629.451 447.696 630.275 443.102L635.459 410.588C635.694 409.292 635.812 408.114 635.812 407.054C635.812 402.46 633.809 400.811 631.335 400.811C626.506 400.811 619.32 407.408 618.377 413.062L613.547 443.691C613.429 444.044 613.429 444.633 613.429 445.222C613.429 448.403 615.079 450.523 616.846 450.523L616.492 452.644H588.691L589.044 450.523C591.047 450.523 593.638 447.696 594.463 443.102L600.471 405.169C600.589 404.345 600.707 403.756 600.707 403.167C600.707 399.868 599.057 397.866 597.29 397.866L597.644 395.745H599.411C606.479 395.745 614.843 393.507 620.144 390.797L621.676 392.093L620.026 402.224C626.034 395.627 633.927 392.211 640.524 392.211C648.417 392.211 655.014 396.923 655.014 406.819C655.014 408.114 654.896 409.528 654.66 410.942C652.893 422.133 651.009 433.442 649.241 444.28ZM720.412 443.455L721.708 444.987C720.412 446.518 718.763 448.05 717.231 449.345C714.404 451.702 709.692 452.997 705.098 452.997C698.972 452.997 693.435 450.523 693.435 444.987C693.435 444.398 693.435 443.927 693.553 443.573L694.024 440.746C690.726 444.869 686.485 448.285 681.655 450.523C678.356 451.937 675.176 452.644 671.995 452.644C664.456 452.644 658.33 448.403 658.33 440.51C658.33 439.686 658.448 438.861 658.565 438.036C659.508 431.086 665.398 423.547 676 420.484C684.836 418.01 695.673 417.656 698.736 410.47L698.972 409.175C699.207 407.408 699.325 405.876 699.325 404.58C699.325 398.926 697.087 396.687 694.378 396.687C690.726 396.687 685.66 400.811 684.364 406.819L684.247 407.525C684.129 407.879 684.129 408.114 684.129 408.468V408.586V408.939V409.057V409.292V409.41V409.528C684.129 411.295 684.364 412.826 685.425 413.651C683.186 415.889 679.77 417.067 676.118 417.067C671.288 417.067 666.694 414.829 666.694 409.292C666.694 408.468 666.694 407.879 666.812 407.525C668.343 397.512 681.773 390.915 694.26 390.915H695.202C706.747 391.269 717.938 395.509 717.938 407.997C717.938 409.175 717.82 410.47 717.585 411.884L712.637 443.102V443.573C712.637 445.34 713.697 446.165 715.111 446.165C716.878 446.165 719.116 445.222 720.412 443.455ZM688.605 441.335C690.608 440.275 692.964 438.39 694.849 435.445L697.794 416.361C692.493 419.541 685.66 423.782 681.419 428.848C679.417 431.204 678.356 433.442 678.121 435.445C678.003 435.68 678.003 435.916 678.003 436.152V436.623V436.741V436.858V436.976C678.003 440.392 680.006 442.748 683.657 442.748C685.189 442.748 686.838 442.277 688.605 441.335ZM756.7 367.708L744.684 443.102C744.566 443.455 744.566 443.691 744.566 444.044V444.162V444.516V444.751V444.869V444.987C744.566 448.639 746.216 450.523 747.983 450.523L747.629 452.644H719.828L720.181 450.523C722.066 450.523 724.775 447.932 725.6 443.691L735.495 380.784C735.613 380.431 735.613 380.195 735.613 379.842V379.724V379.37V379.253V379.135V379.017V378.899C735.613 375.247 733.964 373.362 732.197 373.362L732.55 371.242C740.443 371.242 749.396 369.239 755.169 366.412L756.7 367.708ZM141.88 519.596C143.529 522.777 144.354 525.958 144.354 529.02C144.354 529.963 144.236 531.023 144.118 531.966C141.88 545.866 124.563 558.118 103.83 558.118H103.005H102.887H102.77H102.652H102.534H102.416H102.298C101.709 558.118 101.238 558.118 100.649 558C90.2824 557.411 79.798 553.759 74.8502 549.989C76.7351 543.51 78.8555 533.733 80.387 525.84L82.9786 525.369C85.2169 536.678 89.2222 545.277 96.2904 549.518C100.414 551.992 104.065 553.052 107.717 553.052C114.903 553.052 120.44 548.694 121.382 543.039C121.5 542.686 121.5 542.214 121.5 541.625C121.5 537.502 119.144 533.144 113.607 529.02C103.241 521.481 85.8059 512.764 84.5101 499.687C84.3923 499.334 84.3923 498.863 84.3923 498.509V498.392V498.038V497.92V497.803V497.685V497.567V497.331C84.3923 495.918 84.5101 494.504 84.7457 493.208C87.2196 477.305 105.243 468.705 121.618 468.705C122.56 468.705 123.385 468.823 124.328 468.823C135.165 469.412 142.94 472.946 148.242 476.598C146.357 483.195 144.59 490.617 143.176 497.685L140.349 498.038C138.582 489.203 135.872 482.959 132.22 479.072C128.568 475.184 124.092 473.653 119.969 473.653C113.372 473.653 107.717 477.776 106.775 483.431C106.657 483.666 106.657 483.902 106.657 484.137V484.255V484.373V484.609V484.726V484.844V484.962C106.657 488.261 108.189 492.148 112.312 495.8C121.147 504.046 136.815 510.172 141.88 519.596ZM189.615 544.806C196.094 543.981 200.924 540.212 204.105 536.324L206.108 537.031C199.864 548.222 188.437 556.822 174.419 556.822C158.986 556.822 148.384 545.159 148.384 530.552C148.384 528.903 148.502 527.253 148.738 525.604C151.211 508.758 167.351 494.269 184.314 494.269C199.511 494.269 209.288 505.695 209.288 520.303C209.288 522.07 209.171 523.837 208.817 525.604H168.764C169.118 535.971 174.183 545.042 186.67 545.042C187.613 545.042 188.555 544.924 189.615 544.806ZM168.764 521.599H190.204C189.851 506.873 185.61 500.512 180.544 500.512C175.832 500.512 171.002 506.284 169.235 516.651C168.882 518.183 168.882 519.832 168.764 521.599ZM243.727 470.708L231.711 546.102C231.594 546.455 231.594 546.691 231.594 547.044V547.162V547.516V547.751V547.869V547.987C231.594 551.639 233.243 553.523 235.01 553.523L234.657 555.644H206.855L207.208 553.523C209.093 553.523 211.803 550.932 212.627 546.691L222.523 483.784C222.641 483.431 222.641 483.195 222.641 482.842V482.724V482.37V482.253V482.135V482.017V481.899C222.641 478.247 220.991 476.362 219.224 476.362L219.578 474.242C227.471 474.242 236.424 472.239 242.196 469.412L243.727 470.708ZM283.49 544.806C289.969 543.981 294.799 540.212 297.979 536.324L299.982 537.031C293.738 548.222 282.312 556.822 268.293 556.822C252.861 556.822 242.259 545.159 242.259 530.552C242.259 528.903 242.376 527.253 242.612 525.604C245.086 508.758 261.225 494.269 278.188 494.269C293.385 494.269 303.163 505.695 303.163 520.303C303.163 522.07 303.045 523.837 302.692 525.604H262.638C262.992 535.971 268.057 545.042 280.545 545.042C281.487 545.042 282.429 544.924 283.49 544.806ZM262.638 521.599H284.079C283.725 506.873 279.484 500.512 274.419 500.512C269.707 500.512 264.877 506.284 263.11 516.651C262.756 518.183 262.756 519.832 262.638 521.599ZM406.571 498.038H397.264L394.084 517.24L389.489 546.102V546.691C389.489 548.34 390.314 549.165 391.845 549.165C393.612 549.165 395.851 548.105 397.264 546.337L398.678 547.869C397.147 549.4 395.851 550.932 394.084 552.228C391.256 554.584 386.427 555.997 381.832 555.997C375.706 555.997 370.17 553.641 370.17 547.987C370.17 547.398 370.17 546.809 370.287 546.455L377.945 498.038H372.055L372.644 494.622L376.178 494.269C381.008 493.326 382.775 489.792 383.835 484.726L384.07 483.548C384.188 482.724 384.306 482.017 384.306 481.192C384.306 474.478 379.358 471.65 373.586 471.65C366.518 471.65 358.743 476.127 357.447 483.077C357.447 483.548 357.329 483.902 357.329 484.726C357.329 492.384 362.395 498.627 365.222 505.46C366.282 507.58 366.871 509.936 366.871 512.41V513.235C366.753 513.47 366.753 513.706 366.753 513.942V514.059V514.177V514.413V514.531V514.648V514.766C365.575 521.834 359.685 525.251 354.031 525.251C349.908 525.251 345.902 523.366 344.017 519.714C346.727 517.711 348.494 514.648 349.79 510.997C350.143 510.054 350.261 509.112 350.379 508.287C350.497 507.462 350.614 506.756 350.614 505.931C350.614 500.748 347.551 497.803 343.782 497.803C339.659 497.803 334.711 500.983 331.295 508.523C329.763 511.703 328.703 515.237 328.114 518.889C327.761 520.774 327.643 522.659 327.643 524.544C327.643 535.382 332.708 544.924 345.313 544.924C351.91 544.924 358.861 542.45 363.101 536.206L365.104 537.031C358.625 548.694 348.376 556.822 333.297 556.822C319.632 556.822 307.263 545.042 307.263 529.845C307.263 528.314 307.381 526.782 307.616 525.251C308.323 520.656 309.854 516.18 312.328 512.057C319.986 499.687 332.001 494.151 343.311 493.797H344.371C346.845 493.797 349.201 494.151 351.321 494.858C350.968 492.619 350.732 490.734 350.732 489.203C350.732 488.143 350.85 487.083 350.968 486.14C352.853 474.36 364.869 467.292 376.413 467.292C387.722 467.292 398.325 474.006 398.325 488.967C398.325 490.97 398.207 492.855 397.853 494.622H407.16L406.571 498.038ZM482.194 470.001C503.163 470.001 518.006 485.905 518.006 506.991C518.006 509.347 517.77 511.821 517.417 514.295C513.647 538.798 491.383 558.707 468.175 558.707C447.206 558.707 432.363 542.686 432.363 521.599C432.363 519.243 432.599 516.769 432.952 514.295C436.722 489.792 458.987 470.001 482.194 470.001ZM473.948 553.052C482.783 552.11 490.322 539.152 493.15 522.188C493.621 519.007 494.092 515.591 494.092 512.175V509.936C494.092 490.499 486.906 475.42 477.482 475.42C477.128 475.42 476.657 475.538 476.304 475.538C467.586 476.48 459.929 489.674 457.102 506.52C456.631 509.701 456.277 513.117 456.159 516.533V518.772C456.159 538.209 463.463 553.17 472.888 553.17C473.241 553.17 473.594 553.052 473.948 553.052ZM560.479 495.093C573.201 495.447 578.974 505.578 578.974 517.594C578.974 519.596 578.856 521.481 578.503 523.719C576.029 539.387 564.484 555.644 545.871 555.644H545.4C540.806 555.526 537.861 553.995 535.622 551.992L531.617 577.084C531.499 577.438 531.499 577.673 531.499 578.027V578.262V578.38V578.498V578.616V578.733C531.499 582.15 533.148 583.917 534.915 583.917L534.562 586.037H506.643L506.996 583.917C508.999 583.917 511.708 581.207 512.533 576.613L523.253 508.169C523.371 507.345 523.489 506.756 523.489 506.167C523.489 502.868 521.839 500.866 520.072 500.866L520.426 498.745C528.907 498.745 537.271 496.625 543.044 493.797L544.575 495.093L543.044 504.517C547.167 498.981 552.586 495.093 560.479 495.093ZM543.279 550.696C550.701 550.696 557.534 534.675 559.772 520.774C560.243 517.711 560.479 514.766 560.479 512.057C560.479 505.578 559.183 500.983 555.531 500.512H554.942C547.992 500.512 541.159 516.887 538.921 530.905C538.45 533.968 538.214 536.795 538.214 539.505C538.214 545.984 539.628 550.578 543.279 550.696ZM618.067 498.509H608.76L601.221 546.809C601.221 547.162 601.103 547.28 601.103 547.633C601.103 549.165 602.164 549.872 603.459 549.872C605.226 549.872 607.465 548.929 608.76 547.162L610.174 548.694C608.878 550.225 607.229 551.756 605.698 553.052C602.87 555.408 598.158 556.704 593.564 556.704C587.438 556.704 582.019 554.348 582.019 548.811V548.694V548.458V548.34V548.222V548.105V547.987C582.019 547.751 582.019 547.516 582.137 547.28L589.676 498.509H583.904L584.493 495.093C592.975 494.504 604.166 482.959 610.763 475.42L612.295 476.362L609.349 495.093H618.656L618.067 498.509ZM636.416 489.203C630.879 489.203 626.874 485.433 626.874 480.368V480.25V480.014V479.897V479.779V479.661V479.543C626.874 479.308 626.874 479.072 626.991 478.836C627.934 473.064 633.471 468.352 639.714 468.352C645.015 468.352 648.903 472.122 648.903 477.187C648.903 477.894 648.903 478.483 648.785 478.836C647.843 484.491 642.306 489.203 636.416 489.203ZM645.604 495.093L637.476 546.691C637.358 547.044 637.358 547.28 637.358 547.516V547.633V547.987V548.105V548.222V548.34C637.358 551.639 639.007 553.523 640.774 553.523L640.421 555.644H612.619L612.973 553.523C614.975 553.523 617.567 550.696 618.392 546.102L624.4 508.169C624.518 507.345 624.635 506.756 624.635 506.167C624.635 502.868 622.986 500.866 621.219 500.866L621.572 498.745C629.23 498.745 638.418 496.625 644.073 493.797L645.604 495.093ZM684.295 494.386C699.727 494.386 710.565 505.695 710.565 520.421C710.565 522.07 710.448 523.719 710.212 525.369C707.738 542.332 691.481 556.233 674.518 556.233C659.085 556.233 648.248 544.806 648.248 530.081C648.248 528.549 648.365 527.018 648.601 525.369C651.075 508.287 667.332 494.386 684.295 494.386ZM683.588 499.216C678.052 499.216 671.101 511.35 668.863 526.193C668.274 529.845 668.038 533.261 668.038 536.442C668.038 546.337 670.748 553.288 674.989 553.288C680.879 553.288 687.123 541.272 689.596 526.193C690.185 522.541 690.421 518.889 690.421 515.709C690.421 505.931 687.947 499.216 683.588 499.216ZM769.23 547.28V547.987C769.23 551.639 770.88 553.523 772.647 553.523L772.293 555.644H744.374L744.727 553.523C746.73 553.523 749.439 550.696 750.264 546.102L755.447 513.588C755.683 512.292 755.801 511.114 755.801 510.054C755.801 505.46 753.798 503.811 751.324 503.811C746.494 503.811 739.308 510.408 738.366 516.062L733.536 546.691C733.418 547.044 733.418 547.633 733.418 548.222C733.418 551.403 735.067 553.523 736.834 553.523L736.481 555.644H708.68L709.033 553.523C711.036 553.523 713.627 550.696 714.452 546.102L720.46 508.169C720.578 507.345 720.695 506.756 720.695 506.167C720.695 502.868 719.046 500.866 717.279 500.866L717.633 498.745H719.4C726.468 498.745 734.832 496.507 740.133 493.797L741.664 495.093L740.015 505.224C746.023 498.627 753.916 495.211 760.513 495.211C768.406 495.211 775.003 499.923 775.003 509.819C775.003 511.114 774.885 512.528 774.649 513.942C772.882 525.133 770.997 536.442 769.23 547.28ZM782.826 530.081H785.064C787.184 536.56 789.187 544.806 794.488 548.929C797.198 551.167 800.025 552.11 802.97 552.11C808.035 552.11 812.276 549.4 812.865 545.631C812.865 545.277 812.983 545.042 812.983 544.688C812.983 542.214 811.334 539.505 807.211 536.795C799.554 531.023 783.65 526.547 783.65 514.766C783.65 513.942 783.768 513.353 783.886 512.528C785.771 501.572 797.551 493.326 812.983 493.326H813.808C822.525 493.326 827.002 496.625 832.538 500.63L828.769 514.766H826.648C825.235 510.879 823.35 506.167 820.64 502.75C817.46 498.863 813.926 497.331 810.627 497.331C806.033 497.331 802.381 500.159 801.792 503.928C801.792 504.282 801.674 504.635 801.674 504.989C801.674 507.698 803.205 510.408 807.093 513.235C812.865 517.358 820.169 520.892 826.177 525.486C829.358 527.842 830.654 530.905 830.654 534.557C830.654 535.382 830.536 535.971 830.418 536.795C829.593 540.919 827.355 545.042 823.703 548.222C817.695 553.523 808.742 557.293 798.847 557.293H798.022C789.069 556.94 782.119 553.17 777.053 549.989L782.826 530.081Z" fill="#F0F0F0"/>
<path d="M797.823 189.863C798.889 178.674 799.688 167.752 800.221 156.83C800.753 151.236 801.02 145.908 801.286 140.314C801.553 137.118 801.553 133.921 801.553 130.991L822.864 142.712L828.458 145.908L839.646 151.769L839.913 151.503C836.45 148.839 833.253 146.175 830.056 143.511C828.458 142.179 826.593 140.847 824.995 139.782L820.2 135.786C814.606 131.523 809.278 127.261 803.684 123.265C805.548 121.401 807.413 119.536 809.278 117.405L817.27 107.815C822.597 101.421 828.191 95.0281 833.519 88.3684H833.253C826.593 93.4298 820.2 99.024 813.806 104.352C810.61 107.016 807.413 109.68 804.216 112.61L801.553 115.007C801.286 107.016 800.753 99.024 800.221 90.7659L799.688 82.7742C799.421 79.8439 799.421 77.18 799.155 74.5161C798.889 68.922 798.356 63.3278 797.823 58H797.557C797.29 63.3278 796.758 68.922 796.491 74.5161C796.225 77.18 795.958 79.8439 795.958 82.7742L795.426 90.7659C794.893 99.5567 794.36 108.081 794.094 116.872L789.299 113.942L778.11 107.815C770.918 103.819 763.459 99.8231 756 96.0937C762.393 101.421 768.787 106.749 775.446 112.077C778.909 114.475 782.106 117.138 785.303 119.802C787.434 121.401 789.565 122.999 791.696 124.331C787.168 129.392 782.905 134.72 778.377 140.048L774.114 144.843L762.127 159.228L762.393 159.494L771.983 151.503L777.045 147.507L781.84 143.245L794.094 132.855C794.094 135.253 794.094 137.917 794.36 140.314C794.626 145.908 794.893 151.236 795.426 156.83C795.958 167.752 796.758 178.674 797.823 189.863Z" fill="white"/>
<path d="M126.958 327.994C127.645 320.783 128.16 313.743 128.503 306.703C128.847 303.097 129.018 299.663 129.19 296.057C129.362 293.997 129.362 291.936 129.362 290.047L143.098 297.603L146.704 299.663L153.916 303.441L154.087 303.269C151.855 301.552 149.795 299.835 147.734 298.118C146.704 297.259 145.502 296.401 144.472 295.714L141.381 293.138C137.775 290.391 134.341 287.644 130.735 285.068C131.937 283.866 133.139 282.664 134.341 281.29L139.492 275.109C142.926 270.988 146.532 266.867 149.966 262.574H149.795C145.502 265.837 141.381 269.443 137.26 272.877C135.2 274.594 133.139 276.311 131.079 278.2L129.362 279.745C129.19 274.594 128.847 269.443 128.503 264.12L128.16 258.969C127.988 257.08 127.988 255.363 127.816 253.646C127.645 250.04 127.301 246.434 126.958 243H126.786C126.614 246.434 126.271 250.04 126.099 253.646C125.928 255.363 125.756 257.08 125.756 258.969L125.412 264.12C125.069 269.786 124.726 275.281 124.554 280.947L121.463 279.058L114.252 275.109C109.616 272.533 104.808 269.958 100 267.554C104.121 270.988 108.242 274.422 112.535 277.856C114.767 279.402 116.827 281.119 118.888 282.836C120.261 283.866 121.635 284.896 123.009 285.755C120.09 289.017 117.342 292.451 114.423 295.885L111.676 298.976L103.949 308.248L104.121 308.42L110.302 303.269L113.565 300.693L116.655 297.946L124.554 291.249C124.554 292.795 124.554 294.512 124.726 296.057C124.897 299.663 125.069 303.097 125.412 306.703C125.756 313.743 126.271 320.783 126.958 327.994Z" fill="white"/>
</svg>
