<svg width="913" height="1080" viewBox="0 0 913 1080" fill="none" xmlns="http://www.w3.org/2000/svg">
<rect width="913" height="1126" fill="#698662"/>
<path d="M129.411 279.462L130.059 275.357C134.165 275.357 139.351 269.955 140.863 261.096L160.094 140.742C160.31 140.094 160.31 139.662 160.31 139.013V138.797V138.149V137.933V137.717V137.501V137.285C160.31 130.37 156.853 126.481 153.396 126.481L154.044 122.376H201.58C245.66 122.376 272.237 144.847 272.237 184.821C272.237 190.007 271.805 195.409 270.941 201.243C262.946 251.373 226.645 279.462 176.732 279.462H129.411ZM200.5 129.29L177.812 272.764C204.389 267.794 223.62 244.242 231.615 201.027C232.479 193.897 232.911 187.414 232.911 181.364C232.911 150.249 221.243 133.395 200.5 129.29ZM379.812 262.825L382.189 265.634C379.812 268.443 376.787 271.252 373.978 273.628C368.792 277.95 360.149 280.327 351.722 280.327C340.487 280.327 330.331 275.789 330.331 265.634C330.331 264.553 330.331 263.689 330.547 263.041L331.411 257.855C325.361 265.418 317.583 271.684 308.723 275.789C302.673 278.382 296.839 279.678 291.005 279.678C277.176 279.678 265.94 271.9 265.94 257.423C265.94 255.91 266.157 254.398 266.373 252.885C268.101 240.137 278.905 226.308 298.352 220.69C314.557 216.152 334.436 215.504 340.054 202.323L340.487 199.947C340.919 196.705 341.135 193.897 341.135 191.52C341.135 181.148 337.029 177.043 332.06 177.043C325.361 177.043 316.07 184.605 313.693 195.625L313.477 196.922C313.261 197.57 313.261 198.002 313.261 198.65V198.866V199.514V199.731V200.163V200.379V200.595C313.261 203.836 313.693 206.645 315.638 208.157C311.532 212.263 305.266 214.424 298.568 214.424C289.709 214.424 281.282 210.318 281.282 200.163C281.282 198.65 281.282 197.57 281.498 196.922C284.307 178.555 308.94 166.455 331.844 166.455H333.572C354.748 167.103 375.275 174.882 375.275 197.786C375.275 199.947 375.059 202.323 374.626 204.916L365.551 262.176V263.041C365.551 266.282 367.496 267.794 370.089 267.794C373.33 267.794 377.435 266.066 379.812 262.825ZM321.472 258.935C325.145 256.991 329.467 253.533 332.924 248.131L338.326 213.127C328.602 218.961 316.07 226.74 308.291 236.031C304.618 240.353 302.673 244.458 302.241 248.131C302.025 248.564 302.025 248.996 302.025 249.428V250.292V250.508V250.724V250.94C302.025 257.207 305.698 261.528 312.397 261.528C315.206 261.528 318.231 260.664 321.472 258.935ZM471.714 168.616H504.557L503.909 172.721C494.185 172.721 487.271 186.334 482.085 195.625C481.437 196.489 481.221 197.138 481.005 197.786L426.338 297.397C419.423 309.713 407.971 337.803 390.037 337.803C380.53 337.803 375.128 330.24 375.128 321.381C375.128 319.869 375.128 318.788 375.344 318.14C376.424 311.658 380.098 305.824 385.932 300.422C388.308 305.391 392.198 307.984 397.6 307.984C404.73 307.984 412.725 303.231 417.263 294.804L425.689 279.678H417.695L392.63 187.63C389.173 174.234 385.499 172.505 381.178 172.505L381.826 168.616H433.252L432.604 172.721C429.363 172.937 427.85 173.801 427.634 175.53V176.61C427.634 178.555 428.498 181.364 429.363 184.605L445.136 243.378L472.362 193.897C474.955 189.143 476.467 185.253 476.899 182.012C477.115 181.364 477.115 180.284 477.115 179.203C477.115 174.882 475.171 172.721 471.065 172.721L471.714 168.616ZM610.48 124.536L588.872 261.312C588.656 261.96 588.656 262.609 588.656 263.257V264.121V264.337V264.553V264.769V264.985V265.201C588.656 271.9 591.249 275.573 593.842 275.573H595.138L594.49 279.678H538.743L539.391 275.573H540.687C543.928 275.573 548.466 270.171 549.978 261.312L567.048 153.706V152.41C567.048 146.36 559.918 144.847 556.677 144.847H555.38L556.245 140.742H557.325C575.475 137.069 591.465 131.019 606.158 122.592H607.671L610.48 124.536ZM735.5 238.84L739.821 238.624C735.716 263.473 720.158 277.302 699.631 280.543C697.038 281.191 693.797 281.191 690.556 281.191C670.461 281.191 650.15 273.628 631.135 269.523C628.758 269.091 626.598 268.875 624.653 268.875C617.738 268.875 614.497 272.548 612.985 279.678H605.854C606.502 276.437 607.583 272.98 609.095 269.307C620.115 239.056 644.1 222.635 665.491 208.806C685.154 196.057 703.52 183.957 706.978 160.837C707.194 159.108 707.41 156.515 707.41 153.923C707.41 136.853 697.902 128.21 688.179 128.21C677.159 128.21 666.139 136.42 663.762 149.385V150.249C663.762 151.114 663.546 151.762 663.546 152.626C663.546 160.189 667.004 166.239 674.566 166.239H675.431C676.511 166.239 677.159 166.239 677.807 166.023L679.32 165.807C673.486 180.284 658.577 189.143 646.476 189.143H645.612C631.783 189.143 625.085 180.5 625.085 169.48C625.085 167.967 625.301 166.455 625.517 164.726C626.165 161.053 627.462 156.948 629.406 152.842C640.858 129.722 667.868 119.134 693.365 119.134C721.887 119.134 748.68 132.747 748.68 156.948V158.244V158.46V158.892C748.68 159.541 748.68 160.405 748.464 161.053L748.248 162.349C743.494 190.439 715.188 202.107 686.45 214.208L683.858 215.288C667.22 222.202 649.502 229.333 636.321 241.217C640.426 240.137 644.964 239.705 649.934 239.705C659.657 239.705 669.597 241.649 683.641 244.458C693.797 246.835 703.088 248.564 711.515 248.564C720.374 248.564 728.369 246.403 734.419 238.84H735.5Z" fill="white"/>
<path d="M289.134 427.473L299.383 453.508C303.389 463.756 304.567 465.288 307.276 465.288L306.923 467.526H281.006L266.634 429.24L262.158 457.513C262.04 457.866 262.04 458.455 262.04 459.28C262.04 463.05 263.925 465.288 265.809 465.288L265.456 467.526H234.827L235.181 465.288C237.419 465.288 240.246 462.343 241.071 457.513L251.555 391.897C251.673 391.543 251.673 391.308 251.673 390.954V390.836V390.483V390.365V390.247V390.13V390.012C251.673 386.242 249.788 384.122 247.903 384.122L248.257 382.001L259.566 381.883H274.056C280.653 381.883 288.31 382.001 295.26 383.415C307.512 386.124 313.049 393.428 313.049 401.556C313.049 402.499 312.931 403.441 312.813 404.384C311.164 413.101 304.213 421.701 291.962 426.413L289.134 427.473ZM273.702 385.771L267.105 427.473C280.299 425.235 288.663 414.868 290.195 404.855C290.313 404.266 290.43 403.677 290.43 403.088V402.852V401.91V401.674V401.556V401.439C290.43 392.957 285.247 385.771 273.702 385.771ZM370.627 458.455L371.922 459.987C370.627 461.518 368.977 463.05 367.446 464.345C364.619 466.702 359.907 467.997 355.312 467.997C349.186 467.997 343.65 465.523 343.65 459.987C343.65 459.398 343.65 458.927 343.768 458.573L344.239 455.746C340.94 459.869 336.699 463.285 331.869 465.523C328.571 466.937 325.39 467.644 322.21 467.644C314.67 467.644 308.544 463.403 308.544 455.51C308.544 454.686 308.662 453.861 308.78 453.036C309.722 446.086 315.613 438.547 326.215 435.484C335.05 433.01 345.888 432.656 348.951 425.47L349.186 424.175C349.422 422.408 349.54 420.876 349.54 419.58C349.54 413.926 347.302 411.687 344.592 411.687C340.94 411.687 335.875 415.811 334.579 421.819L334.461 422.525C334.343 422.879 334.343 423.114 334.343 423.468V423.586V423.939V424.057V424.292V424.41V424.528C334.343 426.295 334.579 427.826 335.639 428.651C333.401 430.889 329.985 432.067 326.333 432.067C321.503 432.067 316.908 429.829 316.908 424.292C316.908 423.468 316.908 422.879 317.026 422.525C318.558 412.512 331.987 405.915 344.474 405.915H345.417C356.961 406.269 368.153 410.509 368.153 422.997C368.153 424.175 368.035 425.47 367.799 426.884L362.852 458.102V458.573C362.852 460.34 363.912 461.165 365.325 461.165C367.093 461.165 369.331 460.222 370.627 458.455ZM338.82 456.335C340.822 455.275 343.179 453.39 345.063 450.445L348.008 431.361C342.707 434.541 335.875 438.782 331.634 443.848C329.631 446.204 328.571 448.442 328.335 450.445C328.218 450.68 328.218 450.916 328.218 451.152V451.623V451.741V451.858V451.976C328.218 455.392 330.22 457.748 333.872 457.748C335.403 457.748 337.053 457.277 338.82 456.335ZM431.064 459.28V459.987C431.064 463.639 432.713 465.523 434.48 465.523L434.127 467.644H406.208L406.561 465.523C408.564 465.523 411.273 462.696 412.098 458.102L417.281 425.588C417.517 424.292 417.635 423.114 417.635 422.054C417.635 417.46 415.632 415.811 413.158 415.811C408.328 415.811 401.142 422.408 400.2 428.062L395.37 458.691C395.252 459.044 395.252 459.633 395.252 460.222C395.252 463.403 396.901 465.523 398.668 465.523L398.315 467.644H370.513L370.867 465.523C372.869 465.523 375.461 462.696 376.286 458.102L382.294 420.169C382.412 419.345 382.529 418.756 382.529 418.167C382.529 414.868 380.88 412.866 379.113 412.866L379.466 410.745H381.233C388.302 410.745 396.666 408.507 401.967 405.797L403.498 407.093L401.849 417.224C407.857 410.627 415.75 407.211 422.347 407.211C430.24 407.211 436.837 411.923 436.837 421.819C436.837 423.114 436.719 424.528 436.483 425.942C434.716 437.133 432.831 448.442 431.064 459.28ZM508.832 381.765L496.698 458.102C496.58 458.455 496.58 459.044 496.58 459.869C496.58 463.521 498.347 465.523 500.114 465.523L499.761 467.644H476.082L477.496 458.22C473.373 463.756 468.072 467.644 459.943 467.644C447.574 467.644 441.92 457.159 441.92 445.261C441.92 443.259 442.037 441.256 442.391 439.018C444.629 423.468 456.409 407.211 474.787 407.211H475.376C479.97 407.211 482.915 408.86 485.153 410.863L487.745 394.842C487.863 394.488 487.863 393.899 487.863 393.075C487.863 389.423 486.096 387.538 484.329 387.538L484.682 385.417C492.693 385.417 501.528 383.297 507.182 380.47L508.832 381.765ZM465.127 462.225H465.834C472.902 462.225 479.499 445.968 481.737 431.95C482.208 428.887 482.444 425.942 482.444 423.232C482.444 416.635 480.912 412.159 477.26 412.159C469.839 412.159 463.242 428.062 461.004 442.081C460.532 445.144 460.297 447.971 460.297 450.68C460.297 457.159 461.71 461.754 465.127 462.225ZM543.656 406.386C559.089 406.386 569.926 417.695 569.926 432.421C569.926 434.07 569.809 435.719 569.573 437.369C567.099 454.332 550.842 468.233 533.879 468.233C518.446 468.233 507.609 456.806 507.609 442.081C507.609 440.549 507.726 439.018 507.962 437.369C510.436 420.287 526.693 406.386 543.656 406.386ZM542.95 411.216C537.413 411.216 530.462 423.35 528.224 438.193C527.635 441.845 527.4 445.261 527.4 448.442C527.4 458.337 530.109 465.288 534.35 465.288C540.24 465.288 546.484 453.272 548.957 438.193C549.546 434.541 549.782 430.889 549.782 427.709C549.782 417.931 547.308 411.216 542.95 411.216ZM669.822 425.942L664.404 459.28V459.987C664.404 463.639 666.053 465.523 667.82 465.523L667.466 467.644H639.547L639.901 465.523C641.903 465.523 644.613 462.696 645.437 458.102L650.621 425.588C650.856 424.292 650.974 423.114 650.974 422.054C650.974 417.46 648.971 415.811 646.497 415.811C641.785 415.811 634.835 422.172 633.539 427.826C633.068 431.95 632.715 435.837 631.89 439.96L628.591 459.28V459.987C628.591 463.639 630.241 465.523 632.008 465.523L631.654 467.644H603.735L604.088 465.523C606.091 465.523 608.8 462.696 609.625 458.102L614.808 425.588C615.044 424.292 615.162 423.114 615.162 422.054C615.162 417.46 613.159 415.811 610.685 415.811C605.855 415.811 598.669 422.408 597.727 428.062L592.897 458.691C592.779 459.044 592.779 459.28 592.779 459.516V459.633V459.987V460.105V460.222V460.34C592.779 463.639 594.429 465.523 596.196 465.523L595.842 467.644H568.041L568.394 465.523C570.397 465.523 572.988 462.696 573.813 458.102L579.821 420.169C579.939 419.345 580.057 418.756 580.057 418.167C580.057 414.868 578.407 412.866 576.64 412.866L576.994 410.745H578.761C585.829 410.745 594.193 408.507 599.494 405.797L601.025 407.093L599.376 417.224C605.384 410.627 613.277 407.211 619.874 407.211C626.942 407.211 632.597 410.863 633.893 418.756C640.136 411.098 648.382 407.093 655.568 407.093C663.461 407.093 670.176 411.923 670.176 421.936C670.176 423.232 670.058 424.528 669.822 425.942ZM224.652 579.715C225.948 579.479 227.126 579.361 228.304 579.361C236.904 579.361 245.857 584.427 253.985 584.427C257.873 584.427 261.642 583.367 265.058 580.068L265.883 580.775C260.582 595.854 252.807 600.33 244.914 600.33C235.019 600.33 224.416 593.733 216.877 593.733C213.461 593.733 210.516 595.029 208.513 598.799C208.16 598.681 206.746 598.21 206.746 597.739L206.393 597.974C209.809 587.608 219.115 579.833 229.6 573.707C209.455 572.764 195.319 557.097 195.319 536.599C195.319 534.243 195.555 531.769 195.908 529.295C199.678 504.792 221.943 485.001 245.15 485.001C266.119 485.001 280.962 500.905 280.962 521.991C280.962 524.347 280.726 526.821 280.373 529.295C276.957 552.031 257.166 571.115 235.608 573.353C231.838 575.592 228.068 577.477 224.652 579.715ZM219.115 531.533V533.772C219.115 553.209 226.419 568.17 235.843 568.17C236.197 568.17 236.55 568.052 236.904 568.052C245.621 567.11 253.514 554.152 255.988 537.423C256.577 534.007 256.812 530.709 256.93 527.057V524.347C256.93 505.145 249.744 490.538 240.438 490.538C240.084 490.538 239.613 490.656 239.26 490.656C230.424 491.598 222.885 504.556 220.058 521.52C219.587 524.701 219.233 528.117 219.115 531.533ZM344.521 510.093L336.746 559.453C336.628 559.806 336.628 560.395 336.628 561.22C336.628 564.872 338.278 566.756 340.045 566.756L339.691 568.877H337.924C330.738 568.877 322.374 570.173 317.309 573L315.66 571.586L317.309 561.573C311.301 569.112 303.761 572.411 297.164 572.411C288.565 572.411 281.497 566.756 281.497 556.036C281.497 554.741 281.614 553.327 281.85 551.795L286.562 522.227C286.68 521.873 286.68 521.52 286.68 520.931C286.68 517.75 284.913 515.866 283.146 515.866L283.499 513.745C291.392 513.745 300.227 511.625 306.235 508.797L307.649 510.093L300.934 552.738C300.816 553.327 300.699 553.916 300.699 554.387V554.623V555.212V555.33V555.447V555.565V555.683V555.801V555.919C300.699 560.748 302.937 562.633 306.117 562.633C311.301 562.633 317.898 557.568 318.84 552.267L323.552 522.934C323.67 522.58 323.67 521.991 323.67 521.167C323.67 517.515 321.903 515.866 320.136 515.866L320.489 513.745C328.382 513.745 337.1 511.625 343.108 508.797L344.521 510.093ZM383.978 509.386C399.41 509.386 410.248 520.695 410.248 535.421C410.248 537.07 410.13 538.719 409.895 540.369C407.421 557.332 391.164 571.233 374.2 571.233C358.768 571.233 347.93 559.806 347.93 545.081C347.93 543.549 348.048 542.018 348.284 540.369C350.757 523.287 367.014 509.386 383.978 509.386ZM383.271 514.216C377.734 514.216 370.784 526.35 368.546 541.193C367.957 544.845 367.721 548.261 367.721 551.442C367.721 561.337 370.431 568.288 374.671 568.288C380.562 568.288 386.805 556.272 389.279 541.193C389.868 537.541 390.104 533.889 390.104 530.709C390.104 520.931 387.63 514.216 383.271 514.216ZM449.358 513.509H440.051L432.512 561.809C432.512 562.162 432.394 562.28 432.394 562.633C432.394 564.165 433.454 564.872 434.75 564.872C436.517 564.872 438.755 563.929 440.051 562.162L441.465 563.694C440.169 565.225 438.52 566.756 436.988 568.052C434.161 570.408 429.449 571.704 424.855 571.704C418.729 571.704 413.31 569.348 413.31 563.811V563.694V563.458V563.34V563.222V563.105V562.987C413.31 562.751 413.31 562.516 413.428 562.28L420.967 513.509H415.195L415.784 510.093C424.266 509.504 435.457 497.959 442.054 490.42L443.585 491.362L440.64 510.093H449.947L449.358 513.509ZM486.021 559.806C492.5 558.981 497.33 555.212 500.511 551.324L502.514 552.031C496.27 563.222 484.843 571.822 470.825 571.822C455.392 571.822 444.79 560.159 444.79 545.552C444.79 543.903 444.908 542.253 445.144 540.604C447.617 523.758 463.756 509.269 480.72 509.269C495.917 509.269 505.694 520.695 505.694 535.303C505.694 537.07 505.576 538.837 505.223 540.604H465.17C465.523 550.971 470.589 560.042 483.076 560.042C484.019 560.042 484.961 559.924 486.021 559.806ZM465.17 536.599H486.61C486.257 521.873 482.016 515.512 476.95 515.512C472.238 515.512 467.408 521.284 465.641 531.651C465.288 533.183 465.288 534.832 465.17 536.599ZM589.921 482.881L600.405 559.57C601.348 567.345 603.115 568.288 605.824 568.288L605.471 570.526H574.371L574.724 568.17C576.962 568.052 577.669 567.345 578.023 566.05V565.578C578.023 564.518 577.905 563.222 577.551 561.455L574.724 540.722H552.577L542.917 561.455C542.917 561.573 542.917 561.573 542.799 561.573V561.691C542.682 561.809 542.682 561.809 542.682 561.927L542.564 562.044V562.162C542.564 562.28 542.564 562.28 542.446 562.28V562.398L542.328 562.516V562.633V562.751L542.21 562.869C542.093 562.987 542.093 563.105 542.093 563.222L541.975 563.34C541.857 563.458 541.857 563.694 541.739 563.811L541.621 563.929V564.047C541.268 564.872 541.032 565.578 540.915 566.167V566.639C540.915 567.581 541.857 568.052 543.624 568.17L543.271 570.526H527.249L527.603 568.288C530.43 568.288 532.315 567.345 536.085 559.57L567.892 491.951C567.303 490.656 566.36 490.302 564.593 489.949L564.946 487.711C571.072 487.711 583.677 484.294 588.271 481.467L589.921 482.881ZM555.169 535.185H573.9C572.604 524.819 571.19 514.805 569.776 504.439C564.946 514.805 560.234 524.819 555.169 535.185ZM687.042 510.093L686.924 510.918C685.275 520.224 678.678 529.177 666.309 533.889C659.358 536.599 650.641 537.895 639.685 538.248L636.151 560.513C636.033 560.866 636.033 561.455 636.033 562.28C636.033 566.05 637.918 568.288 639.803 568.288L639.45 570.526H608.821L609.174 568.288C611.412 568.288 614.24 565.343 615.064 560.513L625.549 494.897C625.667 494.543 625.667 494.308 625.667 493.954V493.836V493.719V493.483V493.365V493.247V493.13V493.012C625.667 489.242 623.782 487.122 621.897 487.122L622.25 485.001H651.937C659.358 485.001 665.72 485.708 671.021 487.239C681.976 490.538 687.16 498.548 687.16 507.384V508.208V508.326V508.444V508.562V508.68C687.16 509.151 687.16 509.622 687.042 510.093ZM647.46 489.124L640.392 534.125C654.882 532.594 663.481 522.462 665.013 512.096C665.131 511.507 665.248 510.8 665.248 510.211V510.093V509.975V509.386V509.269V509.151V509.033V508.797V508.68V508.562V508.444C665.248 499.373 659.594 490.656 647.46 489.124ZM710.094 570.526H679.465L679.818 568.288C682.057 568.288 684.884 565.343 685.708 560.513L696.193 494.897C696.311 494.543 696.311 494.308 696.311 493.954V493.836V493.483V493.365V493.247V493.13V493.012C696.311 489.242 694.426 487.122 692.541 487.122L692.894 485.001H723.641L723.288 487.122C721.049 487.122 718.104 490.067 717.28 494.897L706.795 560.513C706.677 560.866 706.677 561.455 706.677 562.28C706.677 566.05 708.562 568.288 710.447 568.288L710.094 570.526Z" fill="#F0F0F0"/>
<path d="M797.823 204.863C798.889 193.674 799.688 182.752 800.221 171.83C800.753 166.236 801.02 160.908 801.286 155.314C801.553 152.118 801.553 148.921 801.553 145.991L822.864 157.712L828.458 160.908L839.646 166.769L839.913 166.503C836.45 163.839 833.253 161.175 830.056 158.511C828.458 157.179 826.593 155.847 824.995 154.782L820.2 150.786C814.606 146.523 809.278 142.261 803.684 138.265C805.548 136.401 807.413 134.536 809.278 132.405L817.27 122.815C822.597 116.421 828.191 110.028 833.519 103.368H833.253C826.593 108.43 820.2 114.024 813.806 119.352C810.61 122.016 807.413 124.68 804.216 127.61L801.553 130.007C801.286 122.016 800.753 114.024 800.221 105.766L799.688 97.7742C799.421 94.8439 799.421 92.18 799.155 89.5161C798.889 83.922 798.356 78.3278 797.823 73H797.557C797.29 78.3278 796.758 83.922 796.491 89.5161C796.225 92.18 795.958 94.8439 795.958 97.7742L795.426 105.766C794.893 114.557 794.36 123.081 794.094 131.872L789.299 128.942L778.11 122.815C770.918 118.819 763.459 114.823 756 111.094C762.393 116.421 768.787 121.749 775.446 127.077C778.909 129.475 782.106 132.138 785.303 134.802C787.434 136.401 789.565 137.999 791.696 139.331C787.168 144.392 782.905 149.72 778.377 155.048L774.114 159.843L762.127 174.228L762.393 174.494L771.983 166.503L777.045 162.507L781.84 158.245L794.094 147.855C794.094 150.253 794.094 152.917 794.36 155.314C794.626 160.908 794.893 166.236 795.426 171.83C795.958 182.752 796.758 193.674 797.823 204.863Z" fill="white"/>
<path d="M126.958 342.994C127.645 335.783 128.16 328.743 128.503 321.703C128.847 318.097 129.018 314.663 129.19 311.057C129.362 308.997 129.362 306.936 129.362 305.047L143.098 312.603L146.704 314.663L153.916 318.441L154.087 318.269C151.855 316.552 149.795 314.835 147.734 313.118C146.704 312.259 145.502 311.401 144.472 310.714L141.381 308.138C137.775 305.391 134.341 302.644 130.735 300.068C131.937 298.866 133.139 297.664 134.341 296.29L139.492 290.109C142.926 285.988 146.532 281.867 149.966 277.574H149.795C145.502 280.837 141.381 284.443 137.26 287.877C135.2 289.594 133.139 291.311 131.079 293.2L129.362 294.745C129.19 289.594 128.847 284.443 128.503 279.12L128.16 273.969C127.988 272.08 127.988 270.363 127.816 268.646C127.645 265.04 127.301 261.434 126.958 258H126.786C126.614 261.434 126.271 265.04 126.099 268.646C125.928 270.363 125.756 272.08 125.756 273.969L125.412 279.12C125.069 284.786 124.726 290.281 124.554 295.947L121.463 294.058L114.252 290.109C109.616 287.533 104.808 284.958 100 282.554C104.121 285.988 108.242 289.422 112.535 292.856C114.767 294.402 116.827 296.119 118.888 297.836C120.261 298.866 121.635 299.896 123.009 300.755C120.09 304.017 117.342 307.451 114.423 310.885L111.676 313.976L103.949 323.248L104.121 323.42L110.302 318.269L113.565 315.693L116.655 312.946L124.554 306.249C124.554 307.795 124.554 309.512 124.726 311.057C124.897 314.663 125.069 318.097 125.412 321.703C125.756 328.743 126.271 335.783 126.958 342.994Z" fill="white"/>
</svg>
