<svg width="99" height="74" viewBox="0 0 99 74" fill="none" xmlns="http://www.w3.org/2000/svg">
<path d="M20.5979 73.8896C14.6843 73.8896 9.84587 71.9184 6.08267 67.976C2.49867 64.0336 0.706665 58.7472 0.706665 52.1168C0.706665 40.4688 4.55947 30.344 12.2651 21.7424C20.1499 13.1408 29.5579 6.06239 40.4891 0.507202L43.1771 5.07679C38.6971 7.944 34.4859 11.6176 30.5435 16.0976C26.7803 20.5776 23.8235 25.416 21.6731 30.6128L29.1995 36.2576C32.2459 38.2288 34.7547 40.9168 36.7259 44.3216C38.6971 47.5472 39.6827 50.6832 39.6827 53.7296C39.6827 59.464 37.8907 64.3024 34.3067 68.2448C30.9019 72.008 26.3323 73.8896 20.5979 73.8896ZM75.9707 73.8896C70.0571 73.8896 65.2187 71.9184 61.4555 67.976C57.8715 64.0336 56.0795 58.7472 56.0795 52.1168C56.0795 40.4688 59.9323 30.344 67.6379 21.7424C75.5227 13.1408 84.9307 6.06239 95.8619 0.507202L98.5499 5.07679C94.0699 7.944 89.8587 11.6176 85.9163 16.0976C82.1531 20.5776 79.1963 25.416 77.0459 30.6128L84.5723 36.2576C87.6187 38.2288 90.1275 40.9168 92.0987 44.3216C94.0699 47.5472 95.0555 50.6832 95.0555 53.7296C95.0555 59.464 93.2635 64.3024 89.6795 68.2448C86.2747 72.008 81.7051 73.8896 75.9707 73.8896Z" fill="#A07C5B"/>
</svg>
